<svg id="Layer_1" data-name="Layer 1" xmlns="http://www.w3.org/2000/svg" xmlns:xlink="http://www.w3.org/1999/xlink" viewBox="0 0 515.6 171.56"><defs><style>.cls-1{fill:#fff;}.cls-2{fill:none;stroke:#0067b1;stroke-miterlimit:3.86;stroke-width:1.5px;}.cls-3{fill:#0067b1;}.cls-4{fill:url(#linear-gradient);}.cls-5{fill:url(#linear-gradient-2);}.cls-6{fill:url(#linear-gradient-3);}.cls-7{fill:#231f20;}</style><linearGradient id="linear-gradient" x1="229.99" y1="1035.7" x2="262.81" y2="1058.62" gradientTransform="translate(-170.73 1161.76) rotate(-155.03)" gradientUnits="userSpaceOnUse"><stop offset="0.03" stop-color="#fff"/><stop offset="0.25" stop-color="#fff"/><stop offset="0.34" stop-color="#fbfdfe"/><stop offset="0.42" stop-color="#eff5fa"/><stop offset="0.51" stop-color="#dae9f4"/><stop offset="0.6" stop-color="#bdd8eb"/><stop offset="0.69" stop-color="#98c2e0"/><stop offset="0.78" stop-color="#6ba7d2"/><stop offset="0.87" stop-color="#3687c2"/><stop offset="0.95" stop-color="#0067b1"/></linearGradient><linearGradient id="linear-gradient-2" x1="-4689.83" y1="-14980.34" x2="-4657.02" y2="-14957.42" gradientTransform="matrix(0.82, -0.57, 0.57, 0.82, 12489.61, 9673.76)" xlink:href="#linear-gradient"/><linearGradient id="linear-gradient-3" x1="-16239.56" y1="-2663" x2="-16206.75" y2="-2640.08" gradientTransform="matrix(0.09, 1, -1, 0.09, -1152.18, 16516.77)" xlink:href="#linear-gradient"/></defs><title>bwh-color-logo</title><path class="cls-1" d="M60.7,152.44C20,131,19.71,102,19.71,56.77h82c0,45.27-.14,74.27-41,95.67"/><path class="cls-2" d="M60.7,152.44C20,131,19.71,102,19.71,56.77h82C101.69,102,101.55,131,60.7,152.44Z"/><path class="cls-3" d="M98.91,59.77H22.38v3.92c0,17-.05,33,4.72,47.72a59.65,59.65,0,0,0,11.36,20.65c5.7,6.69,12.94,12.24,22.16,17l.11.06.11-.06c9.18-4.76,16.38-10.33,22-17A59.73,59.73,0,0,0,94.2,111.32c4.75-14.77,4.73-31,4.71-48.13Z"/><path class="cls-1" d="M44.51,72.24a7.51,7.51,0,0,0-2-.56,7.26,7.26,0,0,0,1.38-.52,4.13,4.13,0,0,0,1.47-1.38,3.57,3.57,0,0,0,.57-1.94,3,3,0,0,0-2.1-3,9,9,0,0,0-3-.4c-.34,0-1.07,0-2.16.08-.43,0-1,0-1.79,0l-1.93,0-1.57,0h-.74v1.34a7,7,0,0,1,1.82.23s.06.08.08.13a12.76,12.76,0,0,1,.12,2.14c0,1.71.06,2.91.06,3.68,0,2.89,0,4.94,0,6.07,0,.49,0,.92-.08,1.28a8.19,8.19,0,0,1-1,.69v.87c1-.06,2-.1,2.63-.1l3.84.09h0a7.7,7.7,0,0,0,2.65-.4,6.43,6.43,0,0,0,1.88-1.07,5.48,5.48,0,0,0,1.35-1.63,4.45,4.45,0,0,0,.53-2.15,4.12,4.12,0,0,0-.52-2.06A3.31,3.31,0,0,0,44.51,72.24ZM38.3,67.87c0-.66,0-1.23.07-1.72a10.31,10.31,0,0,1,1.16-.06,3.63,3.63,0,0,1,1.46.22,1.7,1.7,0,0,1,.75.75,2.6,2.6,0,0,1,.3,1.3,3.31,3.31,0,0,1-.27,1.35,2.23,2.23,0,0,1-.63.87,2.51,2.51,0,0,1-1,.41,8.6,8.6,0,0,1-1.4.12l-.47,0Zm3.39,10.57a2.79,2.79,0,0,1-2.15.87,9,9,0,0,1-1.23-.06l0-6.53.68,0a5.42,5.42,0,0,1,2,.3,2.37,2.37,0,0,1,1.12,1,3.78,3.78,0,0,1,.43,1.91A3.6,3.6,0,0,1,41.69,78.44Z"/><path class="cls-1" d="M87.33,67.74a6.2,6.2,0,0,1,.12-1.54.27.27,0,0,1,.09-.15.68.68,0,0,1,.27-.09c.08,0,1.48-.07,1.48-.07V64.48s-2.79.09-4.14.09-3.51-.09-3.51-.09v1.41s1.51.07,1.58.09a.46.46,0,0,1,.19.08.19.19,0,0,1,0,.11c0,.12.08.68.14,1.68,0,.34,0,1.13,0,2.27v1.13c-.62,0-1.93.07-3.91.07-1.56,0-2.66,0-3.26-.07V70.12c0-1.44,0-2.57.1-3.35a2.42,2.42,0,0,1,.1-.69.4.4,0,0,1,.2-.1c.12,0,.59-.06,1.4-.09h.19V64.48s-2.28.09-3.51.09-2.69,0-4-.08l-3.52.08-2.69-.09v1.34c.87.07,1.54.12,1.6.14a.42.42,0,0,1,.22.12.42.42,0,0,1,.06.25,1.71,1.71,0,0,1,0,.31c-.07.45-.36,1.66-.87,3.72l-1.18,4.55-1.15-2.83c-.25-.6-1-2.48-2.15-5.45-.27-.67-.59-1.54-.88-2.34H59.05l-.51,1.29-1.82,4.35-1.44,3.35L54.57,75l-.89-4c-.12-.57-.32-1.58-.62-3.17-.14-.76-.22-1.2-.23-1.31a2.53,2.53,0,0,1,0-.27.34.34,0,0,1,.07-.25.6.6,0,0,1,.34-.12l1.29,0V64.48l-3.94.09-3.41-.09v1.35a4.64,4.64,0,0,1,1.31.15.57.57,0,0,1,.25.29,15.89,15.89,0,0,1,.6,2.38L52,81h2l1.27-3.17C57,73.63,58.11,71.11,58.59,70l2.95,7.5L62.82,81h2.07c.07-.53.54-2.5,1.37-5.65s1.44-5.39,1.87-6.8a19.82,19.82,0,0,1,.76-2.31.88.88,0,0,1,.24-.26,2.68,2.68,0,0,1,.8-.11c.06,0,2.25.08,2.34.1a.81.81,0,0,1,.27.1.35.35,0,0,1,.09.15,6.63,6.63,0,0,1,.11,1.56l0,2.25v5.36l0,2.28a6.53,6.53,0,0,1-.11,1.54.3.3,0,0,1-.1.14.94.94,0,0,1-.27.1l-1.49.07v1.41c1.26-.06,2.8-.1,4.16-.1s2.55,0,3.51.1V79.51c-1,0-1.5-.08-1.58-.1s-.18-.07-.18-.07a.24.24,0,0,1-.06-.11c0-.08-.06-.45-.14-1.7,0-.32,0-1.08,0-2.26V73.05A4.24,4.24,0,0,1,77,73c.58,0,1.77,0,3.52,0,1.6,0,2.65,0,3.14.06v2.22c0,1.49,0,2.58-.09,3.35a3,3,0,0,1-.09.69s-.07.07-.21.1-1.59.1-1.59.1v1.41s2.28-.1,3.51-.1,4.14.1,4.14.1V79.51l-1.5-.07a.72.72,0,0,1-.25-.1.45.45,0,0,1-.11-.15,7.67,7.67,0,0,1-.1-1.57l0-2.24V70Z"/><path class="cls-4" d="M41.21,128.06a55.69,55.69,0,0,0,3.63,4.3,35.14,35.14,0,0,0,15.94-7.86,34.9,34.9,0,0,1-9.27-39.75c0-.08.45-1,.49-1.06-7.53,2.18-12.13,4.47-17.37,10.61C30.39,105.48,34.28,118.92,41.21,128.06Z"/><path class="cls-5" d="M56.16,86.13a48.27,48.27,0,0,0-5.54,1,34.88,34.88,0,0,0-1.16,17.71,34.91,34.91,0,0,1,39,11.85c.08.09.62.87.68,1,1.89-7.61,2.2-12.75-.49-20.34C81.12,88.06,67.54,84.7,56.16,86.13Z"/><path class="cls-6" d="M85,120a52.87,52.87,0,0,0,1.89-5.28,34.92,34.92,0,0,0-14.76-9.88,34.53,34.53,0,0,1-2.6,8,34.91,34.91,0,0,1-27.18,19.9l-1.18.1c5.65,5.45,9.94,8.28,17.86,9.75C70.85,140.7,80.54,130.6,85,120Z"/><path class="cls-7" d="M143.23,116.35l-4.75-12.43-6.64,16.22c-.49,1.24-1,2.48-1.37,3.77h-1.9c-.26-1.36-.57-2.49-.87-3.77l-4.53-18.89c-.38-1.58-1.11-1.76-1.9-1.84l-1.07-.11V98.21c1.6,0,3.16.11,4.8.11s3.2-.07,4.79-.11V99.3l-1.59.11c-1,.08-1.76.26-1.27,2.43l3.77,16.35h.08l4.68-11.44c1.18-2.9,2.4-5.83,3.43-8.84h1.22a42,42,0,0,0,1.56,4.63l5.89,15.91h.08l5-17.83c.22-.87-.31-1.09-1.75-1.21l-1.53-.11V98.21c1.33,0,2.63.11,4,.11s2.66-.07,4-.11V99.3l-1.21.11a1.48,1.48,0,0,0-1.45,1.06l-5.82,19.74c-.31,1.06-.72,2.19-1,3.7h-1.9c-.84-2.9-1.76-5-2.7-7.56M169.9,99.12c-6.61,0-9.63,4.47-9.63,10.49,0,6.41,3.13,13.16,10.66,13.16,6.36,0,9.44-4.76,9.44-11.51,0-7.26-3.39-12.14-10.47-12.14M156.2,111c0-7.56,5.48-13.39,14.31-13.39,8.15,0,13.93,4.4,13.93,12.54,0,7.89-6.39,14.19-14.72,14.19C162,124.31,156.2,119.18,156.2,111ZM216,102.72a6.17,6.17,0,0,1,.34-2.75c.22-.37.68-.48,1.6-.56l1.6-.11V98.21c-1.11,0-2.33.11-3.54.11s-2.41-.07-3.63-.11l-10,20.38-10-20.38c-1.18,0-2.4.11-3.62.11s-2.43-.07-3.61-.11V99.3l1.67.11c.92.08,1.37.19,1.6.56a6.32,6.32,0,0,1,.34,2.75v16.46a6.35,6.35,0,0,1-.34,2.75c-.23.37-.68.47-1.6.55l-1.67.11v1.1c1.52,0,3-.11,4.42-.11s2.89.07,4.56.11v-1.1l-1.67-.11c-.92-.08-1.37-.18-1.6-.55a6.15,6.15,0,0,1-.35-2.75V102.54h.08l10.54,21.52h.77c.68-1.55,1.32-3.16,2.05-4.66l6.78-13.86c.49-1,1-2,1.59-3h.07v16.64a6.19,6.19,0,0,1-.34,2.75c-.22.37-.68.47-1.59.55l-1.3.11v1.1c1.45-.07,3.23-.11,5.11-.11s3.54,0,5.51.11v-1.1l-1.82-.11c-.92,0-1.38-.18-1.6-.55a6.19,6.19,0,0,1-.34-2.75V102.72M226,119.18a6.4,6.4,0,0,1-.33,2.75c-.23.37-.69.47-1.61.55l-1.37.11v1.1c1.37,0,2.64-.11,4.08-.11,2.36,0,5.36.07,8.3.11s5.82-.07,7.5-.11a31.23,31.23,0,0,1,.6-6h-1.34c-.26,2.2-.75,3.81-1.32,4.1s-4.56.48-7.69.48a14.07,14.07,0,0,1-3.2-.29V111.58c1.18-.1,2.59-.1,4.42-.1,2.32,0,3.62.14,4,.44.19.11.27.44.3.91l.19,2.17h1.15c0-1.31-.12-2.71-.12-4.07s.08-2.75.12-4.26h-1.15l-.19,1.91c0,.48-.11.81-.3,1-.41.26-1.71.41-4,.41-1.83,0-3.2,0-4.42-.11V100a14.07,14.07,0,0,1,3.2-.29c2.44,0,5.44,0,7.46.77.3.1.34.51.34,1v2.39h1.33a23.53,23.53,0,0,1,.62-5.57c-1.49-.07-3.2-.11-4.91-.11-2.17,0-5.68.11-9,.11-2.16,0-4.34-.07-6.43-.11V99.3l1.82.11c.92,0,1.38.19,1.61.56a6.37,6.37,0,0,1,.33,2.75v16.46m23.07,0a6.35,6.35,0,0,1-.34,2.75c-.23.37-.68.47-1.6.55l-1.68.11v1.1c1.53,0,3-.11,4.43-.11s2.89.07,4.56.11v-1.1l-1.67-.11c-.92-.08-1.37-.18-1.61-.55a6.35,6.35,0,0,1-.34-2.75V102.27h.08l17.93,21.46,3.42.58c0-.44-.11-.91-.11-1.35V102.72a6.17,6.17,0,0,1,.34-2.75c.23-.37.69-.48,1.6-.56l1.67-.11V98.21c-1.67,0-3,.11-4.57.11-1.36,0-2.88-.07-4.41-.11V99.3l1.68.11c.91.08,1.37.19,1.6.56a6.32,6.32,0,0,1,.34,2.75v17.13h-.12L252,98.21c-.68,0-1.37.11-2.06.11-1.37,0-2.89-.07-4.57-.11V99.3l1.68.11c.92.08,1.37.19,1.6.56a6.32,6.32,0,0,1,.34,2.75v16.46m30.23-12.83a31.78,31.78,0,0,0,4.91-8.29l-.49-.48c-1.23.37-2.45.81-3.71,1.1a16.7,16.7,0,0,1-3,8.18l.57.36,1.68-.87m22.47-2a24.4,24.4,0,0,1,.54-5.18,18.3,18.3,0,0,0-6.89-1.54c-4.57,0-9.74,2.61-9.74,8.29,0,3.81,2.36,5.61,8.33,6.27,3.88.44,6.7,1.43,6.7,4.91,0,3.64-3.39,5.65-6.81,5.65-3,0-6-1.39-6.2-2.93l-.31-2.46h-1.22a31.82,31.82,0,0,1-.26,5.61,16.72,16.72,0,0,0,6.5,1.39c5.68,0,11.5-3,11.5-9.27,0-4.18-3.39-5.47-8.76-6-4.75-.53-6.28-2.06-6.28-4.55,0-3.64,3-5.36,5.63-5.36a8.76,8.76,0,0,1,4.15.88c1.41.84,1.56,1.21,1.68,2.2l.23,2.1h1.21M127.81,61.76v8.91c.68,0,1.56.07,2.71.07,3.31,0,6.24-1.32,6.24-4.95s-2.56-4.33-5.75-4.33a13.49,13.49,0,0,0-3.2.3m0,21.89a13.48,13.48,0,0,0,3.2.29c4.23,0,6.89-2.35,6.89-6.27S135.24,72,130.36,72c-1.07,0-1.87,0-2.55.08ZM124.2,64.51a6.3,6.3,0,0,0-.35-2.75c-.23-.37-.68-.48-1.6-.56l-1.37-.11V60c2.1,0,4.27.11,5.48.11,2.21,0,4.34-.08,7.35-.11,3.54-.08,6.81,1.17,6.81,5.06,0,3.34-3.23,5.5-6.36,6v.08c3.89.11,7.66,1.65,7.66,5.94,0,3.6-2.82,8.65-11.15,8.43-1.41,0-2.78-.11-4.15-.11s-2.78.08-4.15.11v-.84l1-.37c.68-.25.84-1.39.84-2.38Zm52.22-2.75c.23-.37.68-.51,1.6-.56l1.83-.11V60c-2,.07-3.77.11-5.52.11s-3.65,0-5.64-.11v1.09l1.83.11c.92,0,1.37.19,1.6.56a6.19,6.19,0,0,1,.34,2.75V81a6.27,6.27,0,0,1-.34,2.76c-.23.36-.68.5-1.6.54l-2.85.07a2.72,2.72,0,0,1-2-.91l-8.63-10.86c3.69-.7,7.41-3.08,7.41-7.07,0-2.64-1.59-5.62-7.68-5.5-2.21,0-4.41.11-6.66.11s-4.46-.08-6.47-.11v1.09l1.56.11c.92.08,1.37.19,1.6.56a6.19,6.19,0,0,1,.34,2.75V81a6.27,6.27,0,0,1-.34,2.76c-.23.36-.68.5-1.6.54l-1.83.11v1.1c2-.07,3.77-.11,5.64-.11s3.54,0,5.51.11v-1.1l-1.82-.11c-.91,0-1.38-.18-1.6-.54a6.27,6.27,0,0,1-.34-2.76V61.84a15.06,15.06,0,0,1,3.88-.45c3,0,6,1.1,6,5.06,0,2.71-2.28,4.7-4.95,5.14a14.66,14.66,0,0,1-3.34.14l-.23.45c.64.77,1.37,1.46,2,2.27l7,9c.49.66,1.07,1.28,1.56,2h2.93c2.33,0,7.63-.11,8.72-.11,1.75,0,3.54,0,5.52.11v-1.1L178,84.27c-.92,0-1.37-.18-1.6-.54a6.43,6.43,0,0,1-.34-2.76V64.51A6.35,6.35,0,0,1,176.42,61.76Zm27.29,20a3.24,3.24,0,0,1-.19,1.5c-.22.66-2.39,1.28-5.32,1.28-7.84,0-12.26-5.24-12.26-12.54,0-6.52,3.77-11.1,11-11.1a16.79,16.79,0,0,1,5.33.66c1.79.62,3.16,1.21,3.16,2.93v1.94h1.18a22,22,0,0,1,.76-5.57,31,31,0,0,0-9.44-1.5c-9.17,0-16.06,5.2-16.06,13.27,0,9.2,6.85,13.45,15.34,13.45a44,44,0,0,0,10-1.87V78.08c0-1.07,0-1.22.42-1.36l1.11-.36-.15-.93c-1.57,0-3.13.08-4.69.08s-3.08,0-4.64-.08v1.1l3.16.26c1,.07,1.29.44,1.29,1.29v3.7m96.6,2.6v1.1c-2-.07-3.77-.11-5.52-.11s-3.65,0-5.09.11v-1.1l1.28-.11c.92-.07,1.37-.18,1.61-.54a6.27,6.27,0,0,0,.34-2.76V64.33h-.07c-.58,1-1.11,2-1.61,3l-6.77,13.86c-.73,1.51-1.38,3.12-2.06,4.66h-.76L271.12,64.33H271V81a6.23,6.23,0,0,0,.35,2.76c.22.36.68.47,1.59.54l1.68.11v1.1c-1.68,0-3.05-.11-4.57-.11s-1.75.08-3.27.11-3.34-.11-5.05-.11c-1.34,0-3,.08-5.06.11v-1.1l1.78-.11c.8,0,1.56-.29,1.56-.73a8.31,8.31,0,0,0-.8-2.35L257.5,77h-11l-1.06,2.46a20.42,20.42,0,0,0-1.34,3.82c0,.77.65.91,1.83,1l1.4.11v1.1c-1.82,0-3.27-.11-4.38-.11-1.47,0-2.92.08-4.37.11-2-.07-2.13-.11-3.88-.11s-3.65,0-5.64.11v-1.1l1.83-.11c.91,0,1.38-.18,1.6-.54a6.27,6.27,0,0,0,.34-2.76V72.8c-.45,0-1.48-.08-3.16-.08h-8.9c-1.68,0-2.7,0-3.16.08V81a6.27,6.27,0,0,0,.34,2.76c.23.36.69.5,1.6.54l1.83.11v1.1c-2-.07-3.77-.11-5.52-.11s-3.65,0-5.63.11v-1.1l1.82-.11c.92,0,1.38-.18,1.61-.54A6.48,6.48,0,0,0,214,81V64.51a6.4,6.4,0,0,0-.33-2.75c-.23-.37-.69-.51-1.61-.56l-1.82-.11V60c2,.07,3.76.11,5.63.11s3.54,0,5.52-.11v1.09l-1.83.11c-.91,0-1.37.19-1.6.56a6.19,6.19,0,0,0-.34,2.75V71c.46,0,1.48.08,3.16.08h8.9c1.68,0,2.71,0,3.16-.08V64.51a6.19,6.19,0,0,0-.34-2.75c-.22-.37-.69-.51-1.6-.56l-1.83-.11V60c2,.07,3.77.11,5.64.11s3.55,0,5.52-.11v1.09l-1.83.11c-.92,0-1.37.19-1.6.56a6.35,6.35,0,0,0-.34,2.75V81a6.43,6.43,0,0,0,.34,2.76c.23.36,1.6.54,1.6.54H240a2.68,2.68,0,0,0,2.06-1.79l6.77-14.86c1.18-2.56,2.47-5.28,3.5-7.92h1.23l9.2,20.83A23.88,23.88,0,0,0,264,83c.41.71.83,1.18,1.52,1.25h1.81c.92-.07,1.36-.18,1.6-.54a6.43,6.43,0,0,0,.34-2.76V64.51a6.35,6.35,0,0,0-.34-2.75c-.24-.37-.68-.48-1.6-.56l-1.68-.11V60c1.18,0,2.4.11,3.62.11s2.43-.08,3.62-.11l10,20.38,10-20.38c1.21,0,2.39.11,3.61.11S299,60,300.08,60v1.09l-1.59.11c-.92.08-1.38.19-1.61.56a6.35,6.35,0,0,0-.34,2.75V81a6.43,6.43,0,0,0,.34,2.76c.23.36.69.5,1.61.54Zm-43.49-8.87L252,64.58l-4.83,10.93Zm136.27-4.33c0,6-3.58,11.19-8.18,13a19.76,19.76,0,0,1-8.14,1.28c-1.53,0-3.21-.11-4.92-.11s-3.38.08-5.17.11v-.84l1.17-.58a2.32,2.32,0,0,0,1-2.17V64.51a6.51,6.51,0,0,0-.34-2.75c-.23-.37-.69-.48-1.61-.56l-1.52-.11-2,.11c-.91.08-1.37.19-1.58.56a6,6,0,0,0-.35,2.75V84.75c0,.44.07.92.11,1.35l-3.42-.58L340.13,64.07h-.08V81a6.43,6.43,0,0,0,.34,2.76c.23.36.69.47,1.61.54l1.67.11v1.1c-1.67,0-3.05-.11-4.57-.11s-1.74.08-3.26.11-2.64-.11-4.35-.11c-1.33,0-3,.08-5.06.11v-1.1l1.79-.11c.8,0,1.56-.29,1.56-.73a8.08,8.08,0,0,0-.81-2.35L327.22,77h-11l-1.06,2.46a21.08,21.08,0,0,0-1.33,3.82c0,.77.65.91,1.83,1l1.41.11v1.1c-1.83,0-3.27-.11-4.39-.11-1.47,0-2.92.08-4.37.11v-1.1l1.41-.11a2.71,2.71,0,0,0,2.06-1.79l6.77-14.86c1.18-2.56,2.47-5.28,3.5-7.92h1.22l9.2,20.83c.35.74.78,1.73,1.22,2.49s.84,1.18,1.53,1.25l.48,0,.62,0c.92-.07,1.37-.18,1.6-.54A6.27,6.27,0,0,0,338.3,81V64.51a6.19,6.19,0,0,0-.34-2.75c-.23-.37-.68-.48-1.6-.56l-1.67-.11V60c1.67,0,3.19.11,4.56.11.69,0,1.37-.08,2.06-.11L359.5,81.63h.12V64.51a6.15,6.15,0,0,0-.35-2.75c-.22-.37-.68-.48-1.6-.56L356,61.09V60c1.52,0,3.05.11,4.41.11,1.52,0,3.24-.08,4.93-.11,2.55,0,5,.11,7.51.11s4.94-.08,6.62-.11C387.26,59.82,393.09,64.07,393.09,71.18Zm-66.55,4.33-4.79-10.93-4.84,10.93ZM389,72.21c0-9.1-5.41-10.75-12.25-10.75a23,23,0,0,0-4.35.3V83.58a23.89,23.89,0,0,0,4.35.29A14.55,14.55,0,0,0,383,82.81C387.15,80.94,389,77.16,389,72.21Zm-47,30.51a6,6,0,0,1,.35-2.75c.23-.37.68-.52,1.58-.56l1.83-.11V98.21c-2,.07-3.76.11-5.51.11s-3.66,0-5.63-.11V99.3l1.82.11c.91,0,1.37.19,1.6.56a6.32,6.32,0,0,1,.34,2.75v6.52c-.46,0-1.48.08-3.16.08h-8.9c-1.68,0-2.7,0-3.17-.08v-6.52a6.12,6.12,0,0,1,.35-2.75c.23-.37.68-.52,1.6-.56l1.82-.11V98.21c-2,.07-3.77.11-5.52.11s-3.64,0-5.63-.11V99.3l1.83.11c.92,0,1.37.19,1.6.56a6.32,6.32,0,0,1,.34,2.75v16.46a6.35,6.35,0,0,1-.34,2.75c-.23.37-.68.51-1.6.55l-1.83.11v1.1c2-.07,3.77-.11,5.63-.11s3.55,0,5.52.11v-1.1l-1.82-.11c-.92,0-1.37-.18-1.6-.55a6.15,6.15,0,0,1-.35-2.75V111c.47,0,1.49-.07,3.17-.07h8.9c1.68,0,2.7,0,3.16.07v8.18a6.35,6.35,0,0,1-.34,2.75c-.23.37-.69.51-1.6.55l-1.82.11v1.1c2-.07,3.76-.11,5.63-.11s3.53,0,5.51.11v-1.1l-1.83-.11c-.9,0-1.35-.18-1.58-.55a6,6,0,0,1-.35-2.75V102.72m19-3.6c-6.62,0-9.63,4.47-9.63,10.49,0,6.41,3.13,13.16,10.66,13.16,6.36,0,9.44-4.76,9.44-11.51,0-7.26-3.39-12.14-10.47-12.14M347.28,111c0-7.56,5.49-13.39,14.31-13.39,8.15,0,13.93,4.4,13.93,12.54,0,7.89-6.39,14.19-14.72,14.19C353.07,124.31,347.28,119.18,347.28,111Zm47-6.67a24.37,24.37,0,0,1,.53-5.18,18.3,18.3,0,0,0-6.89-1.54c-4.58,0-9.74,2.61-9.74,8.29,0,3.81,2.35,5.61,8.33,6.27,3.88.44,6.69,1.43,6.69,4.91,0,3.64-3.38,5.65-6.8,5.65-3,0-6-1.39-6.21-2.93l-.3-2.46h-1.23a32.76,32.76,0,0,1-.25,5.61,16.64,16.64,0,0,0,6.5,1.39c5.66,0,11.5-3,11.5-9.27,0-4.18-3.4-5.47-8.76-6-4.76-.53-6.28-2.06-6.28-4.55,0-3.64,3-5.36,5.63-5.36a8.73,8.73,0,0,1,4.15.88c1.41.84,1.56,1.21,1.66,2.2l.24,2.1h1.23M405.72,100a15.67,15.67,0,0,1,3.89-.44c3.76,0,6.16,1.65,6.16,5.46a5.38,5.38,0,0,1-5.49,5.47,8.28,8.28,0,0,1-2.5-.37l.38,1.32a12.49,12.49,0,0,0,2.28.22c5,0,9.14-3.3,9.14-7.89,0-4.14-4.2-5.68-7.89-5.6-2.05,0-4.25.11-6.47.11s-4.34-.07-6.85-.11V99.3l1.72.11c.94.08,1.36.26,1.63.63a5.88,5.88,0,0,1,.38,2.68v16.46a6.35,6.35,0,0,1-.34,2.75c-.23.37-.69.51-1.61.55l-1.81.11v1.1c2-.07,3.76-.11,5.62-.11s3.54,0,5.52.11v-1.1l-1.82-.11c-.92,0-1.37-.18-1.61-.55a6.57,6.57,0,0,1-.33-2.75V100m23.19,2.68a6.32,6.32,0,0,1,.34-2.75c.23-.37.68-.52,1.6-.56l1.83-.11V98.21c-2,.07-3.77.11-5.51.11s-3.66,0-5.64-.11V99.3l1.82.11c.92,0,1.37.19,1.6.56a6.12,6.12,0,0,1,.35,2.75v16.46a6.15,6.15,0,0,1-.35,2.75c-.23.37-.68.51-1.6.55l-1.82.11v1.1c2-.07,3.77-.11,5.64-.11s3.53,0,5.51.11v-1.1l-1.83-.11c-.92,0-1.37-.18-1.6-.55a6.35,6.35,0,0,1-.34-2.75V102.72m15.5,16.46a6.4,6.4,0,0,1-.33,2.75c-.24.37-.7.51-1.61.55l-1.82.11v1.1c2-.07,3.76-.11,5.63-.11s3.54,0,5.52.11v-1.1l-1.83-.11c-.91,0-1.36-.18-1.6-.55a6.35,6.35,0,0,1-.34-2.75V103.67a36.7,36.7,0,0,1,.15-3.67h5.9c1.14,0,1.45.33,1.52,1.21l.15,2.9h1.19c0-2,.08-4,.27-5.9-2.74,0-5.48.11-8.22.11h-5.53c-2.74,0-5.48-.11-8.21-.11.19,1.9.26,3.92.26,5.9h1.18l.16-2.9c.07-.88.37-1.21,1.52-1.21h5.9c.1,1.1.14,2.27.14,3.67v15.51m59.08-1.91c-.23,2-.49,4.48-.8,6.31-1.67,0-4.67.15-7.49.11-3.43,0-5.94-.11-8.3-.11-1.14,0-3.23.06-4.4.09v0H482c-1.51,0-3-.1-4.57-.1-1.34,0-3,.07-5.07.11v-1.1l1.79-.11c.8,0,1.56-.29,1.56-.73a8.41,8.41,0,0,0-.8-2.35l-1.75-4.21h-11l-1.06,2.45a20.26,20.26,0,0,0-1.35,3.82c0,.76.65.91,1.84,1l1.4.11v1.1c-1.82,0-3.27-.11-4.38-.11-1.48,0-2.92.07-4.36.11v-1.1l1.4-.11a2.71,2.71,0,0,0,2.06-1.79l6.77-14.86c1.18-2.56,2.47-5.28,3.5-7.92h1.22l9.21,20.83c.34.73.77,1.72,1.22,2.49a2.1,2.1,0,0,0,1.52,1.25l1.29.11a8.68,8.68,0,0,0,2.34-.33,2.31,2.31,0,0,0,1-2.16V102.72a6.12,6.12,0,0,0-.35-2.75c-.23-.37-.68-.52-1.59-.56L482,99.3V98.21c2,.07,3.78.11,5.65.11s3.53,0,5.52-.11V99.3l-1.84.11c-.91,0-1.37.19-1.59.56a6.12,6.12,0,0,0-.35,2.75v19.14a14,14,0,0,0,3.19.29c3.13,0,7.78-.11,8.42-.69a6.63,6.63,0,0,0,.8-2.35l.45-1.84Zm-31-3.55-4.79-10.93-4.84,10.93Z"/><path class="cls-3" d="M19.71,15.09h8.58c4,0,8.42.84,8.42,5.85a5.19,5.19,0,0,1-4,5.07v.07a5.51,5.51,0,0,1,5,5.62c0,4.81-4.55,6.4-8.65,6.4H19.71Zm5.07,9.2h3.67c1.56,0,3.19-.65,3.19-2.51s-1.82-2.4-3.42-2.4H24.78Zm0,9.52h4.55c1.59,0,3.38-.68,3.38-2.7,0-2.18-2.44-2.53-4.1-2.53H24.78ZM46.27,15.09h8.91c4.71,0,8.67,1.62,8.67,7,0,3.22-1.72,5.72-5,6.3l5.85,9.72H58.65l-4.81-9.2h-2.5v9.2H46.27Zm5.07,9.52h3c1.85,0,4.26-.06,4.26-2.56,0-2.31-2.08-2.67-3.94-2.67H51.34Zm20.55-9.52H77v23H71.89Zm35.39,21.39a20.62,20.62,0,0,1-9.65,2.21c-7.18,0-12.42-4.72-12.42-12.1S90.45,14.5,97.63,14.5c3.64,0,6.86.82,9.16,3l-3.57,3.9a7.08,7.08,0,0,0-5.59-2.18c-4.32,0-7.15,3.13-7.15,7.41S93.31,34,97.63,34a10,10,0,0,0,4.78-1.13V29.13H98.28V24.45h9Zm10.2-21.39h5.07v8.58h9.85V15.09h5.07v23H132.4V28.16h-9.85V38.1h-5.07Zm35.84,0h4.2l10,23h-5.72l-2-4.87h-8.94L149,38.1h-5.59Zm2,6.69-2.79,7.15h5.62Zm18.16-6.69h7.67l5.3,15h.07l5.33-15h7.63v23h-5.07V20.45h-.06L188.25,38.1h-3.86l-5.82-17.65h-.07V38.1h-5.07Zm50,0h5.07v8.58h9.85V15.09h5.07v23H238.4V28.16h-9.85V38.1h-5.07Zm31.62,0h15.63v4.68H260.17v4.29h10v4.68h-10v4.68h11.14V38.1H255.1Zm32.72,0H292l10,23h-5.71l-2-4.87h-8.94l-1.91,4.87h-5.59Zm1.95,6.69L287,28.93h5.62Zm19-6.69h5.07V33.42h9.4V38.1H308.75Zm21.7,4.49h-6.57V15.09h18.2v4.49h-6.56V38.1h-5.07Zm18.45-4.49H354v8.58h9.85V15.09h5.07v23h-5.07V28.16H354V38.1H348.9Z"/></svg>