<svg id="Layer_1" data-name="Layer 1" xmlns="http://www.w3.org/2000/svg" viewBox="0 0 515.6 171.56"><defs><style>.cls-1{fill:#b1525a;}.cls-2{fill:#fff;}.cls-3,.cls-4,.cls-5{fill:none;stroke:#000;}.cls-3{stroke-width:0.79px;}.cls-4{stroke-width:0.16px;}.cls-5{stroke-width:0.16px;}</style></defs><title>hms-color-logo</title><path class="cls-1" d="M53.11,46.32H20.41l-.07,26.16c0,32.07,32.16,52.49,32.48,52.7l.11.06a.89.89,0,0,0,.28-.14c5.47-3.57,32.72-22.91,32.72-52.46V46.37c-.07-.06-32.83,0-32.83,0ZM85.75,69.49H21V65.72H85.75v3.77Z"/><path class="cls-2" d="M34.39,72.52s-.08.41-.08.41a.41.41,0,0,1-.47.38l-.92-.16a1.74,1.74,0,0,0-1-.08,3.31,3.31,0,0,0-.52.47l.15.07a1.1,1.1,0,0,1,.81.79,1.91,1.91,0,0,0,.45,1l.16.23a.52.52,0,0,1,.12.28.32.32,0,0,1-.1.22l-.43.5-.25.27s-.2.51-.32.8c.1.18.21.34.33.36a2.12,2.12,0,0,1,1,0l.61.08s.15,0,.11,0l.25,0a1.16,1.16,0,0,1,.94.15l.29.64a1.79,1.79,0,0,1,.11.53,4.11,4.11,0,0,1-.08.66l-.06.35a.63.63,0,0,1-.08.23,5.83,5.83,0,0,1-2.28,2l.07,0a.19.19,0,0,0,0,.1.07.07,0,0,0,0,0c.12.1.47.06.72,0l.25,0a3.73,3.73,0,0,0,1.18-.3l1.25-.34a.4.4,0,0,1,.47.26,2.07,2.07,0,0,0,.77.94s0,0,.23-.21a1.18,1.18,0,0,1,1.26-.32l.13.07A2,2,0,0,1,40.11,84a1.44,1.44,0,0,0,.3.66.49.49,0,0,1,.13.27.62.62,0,0,1,0,.13.77.77,0,0,1-.54.71l-.08,0a.75.75,0,0,1-.12.07l-1,.17a2.34,2.34,0,0,0-.88.19c0,.05.05.09.12.13a5.55,5.55,0,0,0,1.74.45l.35.06.8,0,1.29,0a.4.4,0,0,1,.36.24.48.48,0,0,1-.08.47l-.21.34a.38.38,0,0,1-.14.14L40,89.49c-.09.05-1.24.46-1.24.46l-1.61.63-.11,0a2.3,2.3,0,0,1-2.11-.7,1.73,1.73,0,0,0-1-.53,1.26,1.26,0,0,0-.92.36.6.6,0,0,0-.13.43.88.88,0,0,0,0,.16l.1.05a.81.81,0,0,1,.64.79A4.23,4.23,0,0,1,33,93.06a3.55,3.55,0,0,0-.53,1.45.38.38,0,0,0,0,.1c0,.11,0,.21.09.23l.06,0a.25.25,0,0,0,.16-.05l.12-.19a1.13,1.13,0,0,1,.8-.66h.15c.84.1,1.3,0,1.6-.32a.47.47,0,0,1,.27-.14.86.86,0,0,1,.73.21.9.9,0,0,1,.34.68l0,.23c.5-.09.87-.56,1.28-1.26l.17-.28a.52.52,0,0,1,.32-.22l.34-.1a1.58,1.58,0,0,1,1.45,0,.45.45,0,0,1,.21.29,1.61,1.61,0,0,1,0,.37,2.59,2.59,0,0,1-.34,1.13l-.16.39a3.81,3.81,0,0,0,2-1.64l.36-.44a1.09,1.09,0,0,1,1-.78.31.31,0,0,1,.13,0c.28.08.4,0,.79-.55l.63-.71c.1-.1.15-.09.28-.09h.26c.12,0,.24,0,.33.07a.34.34,0,0,1,.13.27v.65l.63-.24.89-.55a.53.53,0,0,1,.39,0l3.25.84a1.08,1.08,0,0,1,.79,1.09,2.21,2.21,0,0,1,0,.39,1.89,1.89,0,0,0,0,.3.25.25,0,0,0,.06.19.48.48,0,0,1,.14.34.39.39,0,0,1,0,.18c-.13.31-.47.68-1.34.68l-1.64.09c-1.36,0-2.65,0-3.58.93l-.89.89a.46.46,0,0,1-.32.13,3.16,3.16,0,0,0-1.64.68,4.86,4.86,0,0,1-1.66.76,2.72,2.72,0,0,1-1.45.24,2,2,0,0,0-.78.07,3.79,3.79,0,0,0,1.93,1l.4.07a1.17,1.17,0,0,1,1.14.56,1,1,0,0,1,0,.16c0,.44.12.62.29.69l.07,0a.84.84,0,0,1,1.05,0l.77.76.86.88c.15.15.12.31,0,.49a1.35,1.35,0,0,1-1.59.5l-.37,0a1.85,1.85,0,0,0-.48,0,2.25,2.25,0,0,1-2.32-.5l.08.08-.64-.54a2.65,2.65,0,0,0-1.63-.89c-.67.19-1,.4-1,.74v0l.16.17.28.31a.35.35,0,0,1,.1.27v.08a.46.46,0,0,1-.23.31c-.55.37-1.16.92-1.16,1.57a1.09,1.09,0,0,0,0,.26l0,.1.21-.06a1.16,1.16,0,0,1,1,0,.41.41,0,0,1,.24.35l0,.5c0,.56.09.81.26,1l.27-.1a1.33,1.33,0,0,1,1.59,0c.11,0,.29,0,.67-.25l.61-.3a.23.23,0,0,1,.14,0c1.15,0,1.62,1,1.92,1.67h0l0,0c.51.4.94.68,1.31.57a.37.37,0,0,0,0-.15,3.58,3.58,0,0,0,0-.4,2.46,2.46,0,0,1-.06-.51,1.16,1.16,0,0,1,.73-1.12c.07,0,1.14-.1,1.14-.1l.67,0h.15c1,.09,1.78.11,2.13-.59,0,0,.71-1.21.83-1.41l.15-.81a.48.48,0,0,1,.33-.37,1.58,1.58,0,0,1,1,.13l.24.07a6.18,6.18,0,0,1-.29-1.7,5.42,5.42,0,0,1,.07-.89,4.06,4.06,0,0,1,1-1.93.46.46,0,0,1,.51-.11l.22.09a.43.43,0,0,1,.28.33l.21,1.07a7.29,7.29,0,0,0,.53,2,.32.32,0,0,1,0,.25l-.39,1.58-.34,1.26a4.1,4.1,0,0,1-2.18,2.67s0,.1,0,.15a1.79,1.79,0,0,0,.42,0h.45A5.16,5.16,0,0,0,56,106.92a.49.49,0,0,1,.47-.14c.24.07.43,0,.75-.2a1.49,1.49,0,0,1,1.64-.13,1.61,1.61,0,0,0,1.07.14c.64-.06,1.71-.15,2,1.1v.2l0,.58c.07.59.2,1.69-1,2-.1,0-.1,0-.2,0L59.54,110c-.95-.47-1.38-.6-1.86-.05-.11.12-.25.29-.19.41.16.29.58,1,0,1.52a.53.53,0,0,0,.1-.12l-.06.11c-.31.52-.52.91-.37,1.26,0,0,.06.11.47,0a2,2,0,0,1,1.43.16l.59.18a1.14,1.14,0,0,1,.26.09l.18.15a2.55,2.55,0,0,0,1.16.62l0-.09.26-.52c.07-.06.8-.43.8-.43.5-.17.55-.23.55-.42a3,3,0,0,1,1.45-2,.89.89,0,0,1,.28-.07,2.69,2.69,0,0,0,1-.41l0-.06-.2-.21a.67.67,0,0,1-.16-.27,1.24,1.24,0,0,1,0-.33,2.57,2.57,0,0,1,.54-1.38,1.8,1.8,0,0,0,.38-.85.65.65,0,0,0-.17-.42.35.35,0,0,1-.07-.15l-.14-.78a1.6,1.6,0,0,0-.46-1.19l-.84-.44-.92-.43a.41.41,0,0,1-.22-.41c0-.41.27-.66.79-.72l.11,0a2.18,2.18,0,0,1,1.49.18c.41.15.55.15.66.09a2.44,2.44,0,0,0-.7-1,5.5,5.5,0,0,0-1.87-.7,4.43,4.43,0,0,1-2.87-1.52.54.54,0,0,1-.08-.28.46.46,0,0,1,.13-.33l.14-.13a.43.43,0,0,1,.43-.13A4,4,0,0,0,65,98.26a4.85,4.85,0,0,1,2.18-1.83c.71-.57.86-1.5.86-2.72a2.52,2.52,0,0,1,.74-1.58l.93-.45a1.34,1.34,0,0,0,.48-.2A3.39,3.39,0,0,0,68.39,91a.52.52,0,0,1-.28,0,.69.69,0,0,1-.39-.53s0-.06,0-.09a1,1,0,0,1,.39-.69l.07-.08a.63.63,0,0,1,.12-.11l1-.59c1.34-.72,2.17-1.24,2.17-2.35v0l0-.11a2,2,0,0,0-.5.28l-.7.48a7.7,7.7,0,0,1-2.13.69,6,6,0,0,0-2,.65.48.48,0,0,1-.26.07.63.63,0,0,1-.59-.39.62.62,0,0,1,0-.27.84.84,0,0,1,.22-.58,2.64,2.64,0,0,1,.9-.69c.39-.22.63-.36.75-.65l.13-.37A2.37,2.37,0,0,1,68.43,84l.66-.34a1.18,1.18,0,0,0,.26-.16.3.3,0,0,0-.1,0c-1.13-.36-2.24.52-2.8,1.08a.71.71,0,0,1-.14.1l-.43.18a5.66,5.66,0,0,0-2,1.16.45.45,0,0,1-.2.12A.74.74,0,0,1,63,86a.75.75,0,0,1-.31-.61c-.17-1.76,1.23-3,2.36-4.07l.27-.25.21-.11.69-.35a2,2,0,0,1,2.06-.39,2.24,2.24,0,0,0,1.74.41,2,2,0,0,0,.88-.83,3.7,3.7,0,0,1,1-1.05,1.74,1.74,0,0,1,1.21.06,1.54,1.54,0,0,0,.45.1l.06-.11a.68.68,0,0,0,0-.14c0-.32-.22-.61-.56-1l-.4-.55a.38.38,0,0,1-.08-.24.43.43,0,0,1,0-.19,2.91,2.91,0,0,0,.19-1,3,3,0,0,0-1-2.22,2.21,2.21,0,0,0-1.05-.28l.14.23.42.9c0,.11,0,.21,0,.31,0,2-1.69,2.8-3.06,3.49l-1.18.64c-2.77,1.39-6.42,3.62-6.62,7.27a7.57,7.57,0,0,0,2.26,5.15l.07.1.51.79a5.52,5.52,0,0,1,1.19,2.94,2.92,2.92,0,0,1-.12.86,2.2,2.2,0,0,1-2.21,1.12C59.51,96.69,58,94,56.94,91.94l-.16-.31s-.23-.48-.23-.48a6,6,0,0,1-.68-2.09.45.45,0,0,1,.13-.38.73.73,0,0,1,1-.06c.06,0,.54.82.54.82a2,2,0,0,0,.15.28,1.59,1.59,0,0,0,.12-.41,4.51,4.51,0,0,0-.39-1.5l-.06-.16a4.13,4.13,0,0,0-.75-.79,3.86,3.86,0,0,1-1.08-1.28.47.47,0,0,1,0-.16v-.08a.91.91,0,0,1,.79-.87l.14,0a8.2,8.2,0,0,1-.31-2.18,10.6,10.6,0,0,1,.06-1.11,0,0,0,0,0,0,0s0,0,0,0l0,0,.62-.66c.19-.12.2-.15.2-.19a9.28,9.28,0,0,1-.27-2.37c0-.32,0-.64,0-.95,0-.07.23-.78.23-.78a2.46,2.46,0,0,0,.2-.79,1,1,0,0,0,0-.23,1.18,1.18,0,0,1-.52-1s0-.23,0-.24l0,0c.05,0,.07,0,.13,0A6.64,6.64,0,0,1,53.76,73l-1-.44a1.36,1.36,0,0,0-.81.18l-.53.18-.57.11a2.34,2.34,0,0,0-1.42.52,1.4,1.4,0,0,0-.17,1v.31a.77.77,0,0,1,0,.15.69.69,0,0,1-.42.46.83.83,0,0,1-.75-.12l-.07,0a1.87,1.87,0,0,1-1-2.19c0-.15-.09-.28-.14-.33a1.18,1.18,0,0,0-.94-.13c-.27.1-.41.38-.6.83l-.12.25v.1a1.64,1.64,0,0,0,.19.81,6.74,6.74,0,0,0,1.5,1l1.39.89a.38.38,0,0,1,.15.22,1.33,1.33,0,0,1,.07.43,2.14,2.14,0,0,1-.49,1.23l0,0a.93.93,0,0,1,.46.74.52.52,0,0,1,0,.17.46.46,0,0,1-.35.37,2.57,2.57,0,0,1-2.3-.48l-.41-.54c-.13-.23-.2-.31-.28-.35a1.28,1.28,0,0,0-.2.37l-.19.41c0-.06,0,.33,0,.33a1.63,1.63,0,0,1-.43,1.1.47.47,0,0,1-.37.11l-.39,0a18,18,0,0,1-5.1-2.78,10,10,0,0,1-1.88-2.12l-.43-.58a.5.5,0,0,1-.08-.14l-.16-.56c-.29-1.06-.55-1.77-1.31-2l-.21,0Zm1.13,6.28Zm-3.45-.68a1.62,1.62,0,0,1,.19,0,.43.43,0,0,0-.19,0Zm15.8.56c.08-.09.12-.11.12-.17h0s-.08.13-.12.17Zm8.51,5.85s0,0,.06.1a.88.88,0,0,1,0-.16l0,.06ZM45.94,91.81h0s0,0-.06,0l0,0Zm0,.09a.2.2,0,0,1,0-.08h0a.44.44,0,0,0,0,.09Zm-9.33,2.78h0ZM52.27,104a.5.5,0,0,0,0,.16s0-.12,0-.18v0Zm.52,4.61h0Z"/><path class="cls-3" d="M20.74,72.47V46.39H86s0,3.89,0,26.24c0,33.05-32.9,52.42-32.9,52.42S20.74,104.7,20.74,72.47Z"/><path d="M66.28,110.51h0l0,0h0c-.21-.17-.47-.52-.62-.64-.26-1.15,1.54-1.92.64-3.16-.21-.73,0-1.66-.77-2.22a17.57,17.57,0,0,0-1.79-.9c0-.3.38-.21.6-.3.94-.25,1.79.9,2.47,0,.09-.64-.51-1.2-.94-1.63-1.41-1-3.54-.59-4.61-2.09l.13-.13a4.48,4.48,0,0,0,3.89-.85,4.26,4.26,0,0,1,2.13-1.79,3.67,3.67,0,0,0,1.07-3.12,2,2,0,0,1,.6-1.24c.51-.47,1.83-.3,1.58-1.28a4.17,4.17,0,0,0-2.35-.64c-.39-.21.08-.51.21-.68,1.37-.9,3.5-1.45,3.42-3.46-.13-.21-.09-.56-.43-.6-.6.09-.94.64-1.49.9-1.28.72-2.91.6-4.15,1.36-.25,0-.17-.34-.08-.42.47-.64,1.41-.69,1.75-1.5.26-.64.38-1.49,1.11-1.75.43-.34,1.11-.34,1.37-.85,0-.3-.39-.47-.65-.56a3.38,3.38,0,0,0-3.28,1.2,7.36,7.36,0,0,0-2.61,1.45.27.27,0,0,1-.34-.26c-.17-1.7,1.37-2.94,2.48-4,.81-.21,1.49-1.19,2.43-.76a2.58,2.58,0,0,0,2.09.42c.94-.34,1.16-1.41,2-1.92.64-.21,1.54.73,1.92-.17.22-.94-.55-1.49-1-2.18a3.45,3.45,0,0,0-.94-3.8,2.3,2.3,0,0,0-1.75-.34c-.47.6.43,1,.47,1.58.21,2.43-2.43,3-4,4-3,1.5-6.62,3.8-6.83,7.65a8,8,0,0,0,2.39,5.5c.76,1.33,2,2.57,1.53,4.23-.3.68-1.11.77-1.75.77-2.56-.17-4-3-5-5A7.64,7.64,0,0,1,56.34,89a.29.29,0,0,1,.39,0c.46.43.42,1.45,1.23,1.33.64-.9.17-2-.17-2.86s-1.45-1.24-1.83-2.1c-.05-.64.89-.25.94-.89a7.77,7.77,0,0,1-.26-3.29c.17-.47.85-.43.85-1a10.29,10.29,0,0,1-.25-3.29c.12-.68.68-1.41.29-2.14-.76-.21-.12-1.15-.85-1.36-1.45,0-2.52-.77-3.76-1.24-.64-.17-1.11.21-1.62.34a3.86,3.86,0,0,0-2.22.77,2.31,2.31,0,0,0-.3,1.62c-.13.38-.47,0-.64,0a1.39,1.39,0,0,1-.64-1.62.76.76,0,0,0-.3-.81,1.61,1.61,0,0,0-1.4-.22c-.6.22-.77.9-1,1.41A2.14,2.14,0,0,0,45,74.92c.85.9,2,1.24,3,2,.18.51-.17,1-.51,1.45,0,.47.64.47.56.9a2.09,2.09,0,0,1-1.88-.39c-.34-.29-.43-.94-1-1s-.6.68-.81,1,0,1-.39,1.33l-.38,0a17.81,17.81,0,0,1-4.87-2.69,13,13,0,0,1-2.22-2.61c-.34-1.07-.51-2.56-1.88-2.9-.3,0-.68.08-.72.43l-.09.42c-.68,0-1.37-.47-2.09-.21a2.6,2.6,0,0,0-.9.81c0,.77.9.47,1,1.07a2.68,2.68,0,0,0,.68,1.4c-.17.31-.51.48-.68.77l-.43,1.07c.17.34.38.77.81.81.6-.26,1.11.17,1.75.09.38,0,1-.3,1.07.34a2.73,2.73,0,0,1,0,1.45,5.29,5.29,0,0,1-2.09,1.8.73.73,0,0,0-.17.81c.3.42,1,.25,1.45.21.9,0,1.58-.55,2.44-.64a2.51,2.51,0,0,0,1,1.15c.68.17.85-.77,1.54-.51.55.43.38,1.24.89,1.75,0,.3-.25.3-.42.43-.73.25-1.75,0-2.31.59a.74.74,0,0,0,.47.77,7.46,7.46,0,0,0,2.22.56,15.58,15.58,0,0,1,2,0l-.21.34-2.1,1.41A26,26,0,0,0,37,90.17c-1.33.34-1.88-1.33-3.08-1.24a1.66,1.66,0,0,0-1.19.47,1.27,1.27,0,0,0-.26,1.15c.17.39.73.21.73.64,0,1.2-1.07,2-1.16,3.29a.73.73,0,0,0,.39.81.65.65,0,0,0,.72-.13c.26-.25.26-.64.69-.72a2.25,2.25,0,0,0,2-.47.48.48,0,0,1,.52.42c0,.3,0,.64.29.77,1.07,0,1.58-1.06,2-1.83.47-.09,1-.43,1.46-.13.17.73-.43,1.24-.56,1.92a.62.62,0,0,0,.47.38c1.28-.17,2-1.36,2.78-2.3.12-.26.25-.6.64-.6,1,.3,1.23-.9,1.83-1.32h.26c.08.29-.13.51,0,.81.42.47.9,0,1.32-.13l.9-.56c1.07.35,2.18.6,3.29.86.89.34,0,1.28.55,1.84-.13.29-.51.38-.9.38-1.87.25-4.05-.26-5.55,1.15l-.89.9c-1.41,0-2.14,1.24-3.42,1.45-.85.6-2.18-.25-2.73.73a3.47,3.47,0,0,0,2.43,1.45c.39.17,1,0,1.24.38,0,.43.13.94.64,1.11s.6-.42.94-.13c.47.64,1.15.94,1.54,1.54-.3.56-1,.21-1.54.21l-.08,0c-.77.09-1.76.47-2.35-.25-.81-.6-1.45-1.54-2.61-1.54-.64.17-1.32.42-1.45,1.15-.08.43.34.6.51.85-.77.52-1.58,1.33-1.32,2.35.08.22.17.47.47.47s.68-.34,1.07-.13c.08.65-.09,1.63.68,1.93.6-.09,1-.73,1.66-.26.64.3,1.16-.3,1.71-.47.9,0,1.24.86,1.54,1.5.55.42,1.32,1.1,2.09.68.52-.73-.47-1.67.52-2.14.59-.17,1.1,0,1.7-.08.94.08,2.09.17,2.61-.85L51,105l.17-.9c.56-.17,1.37.73,1.62-.12a5.63,5.63,0,0,1-.25-2.65,3.79,3.79,0,0,1,.89-1.67l.22.09a15.46,15.46,0,0,0,.76,3.12c-.08,1-.59,1.83-.72,2.82a3.59,3.59,0,0,1-1.92,2.3.69.69,0,0,0-.26.77c.26.47.9.21,1.37.3a5.72,5.72,0,0,0,3.46-1.79c.94.25,1.41-.9,2.26-.39.9.68,2.52-.51,2.86.94-.13.68.51,1.92-.6,2.22-1.11-.17-2.39-1.62-3.5-.34a.82.82,0,0,0-.25.94c.17.3.38.68.08.94-.3.51-.72,1.15-.47,1.79.22.38.64.38,1,.3.64-.26,1.24.3,1.88.34a2.88,2.88,0,0,0,1.83.9c.3-.17.26-.56.47-.81.47-.39,1.45-.3,1.45-1.16a2.66,2.66,0,0,1,1.23-1.55,2.5,2.5,0,0,0,1.71-.86Z"/><path class="cls-4" d="M66.28,110.51h0l0,0h0c-.21-.17-.47-.52-.62-.64-.26-1.15,1.54-1.92.64-3.16-.21-.73,0-1.66-.77-2.22a17.57,17.57,0,0,0-1.79-.9c0-.3.38-.21.6-.3.94-.25,1.79.9,2.47,0,.09-.64-.51-1.2-.94-1.63-1.41-1-3.54-.59-4.61-2.09l.13-.13a4.48,4.48,0,0,0,3.89-.85,4.26,4.26,0,0,1,2.13-1.79,3.67,3.67,0,0,0,1.07-3.12,2,2,0,0,1,.6-1.24c.51-.47,1.83-.3,1.58-1.28a4.17,4.17,0,0,0-2.35-.64c-.39-.21.08-.51.21-.68,1.37-.9,3.5-1.45,3.42-3.46-.13-.21-.09-.56-.43-.6-.6.09-.94.64-1.49.9-1.28.72-2.91.6-4.15,1.36-.25,0-.17-.34-.08-.42.47-.64,1.41-.69,1.75-1.5.26-.64.38-1.49,1.11-1.75.43-.34,1.11-.34,1.37-.85,0-.3-.39-.47-.65-.56a3.38,3.38,0,0,0-3.28,1.2,7.36,7.36,0,0,0-2.61,1.45.27.27,0,0,1-.34-.26c-.17-1.7,1.37-2.94,2.48-4,.81-.21,1.49-1.19,2.43-.76a2.58,2.58,0,0,0,2.09.42c.94-.34,1.16-1.41,2-1.92.64-.21,1.54.73,1.92-.17.22-.94-.55-1.49-1-2.18a3.45,3.45,0,0,0-.94-3.8,2.3,2.3,0,0,0-1.75-.34c-.47.6.43,1,.47,1.58.21,2.43-2.43,3-4,4-3,1.5-6.62,3.8-6.83,7.65a8,8,0,0,0,2.39,5.5c.76,1.33,2,2.57,1.53,4.23-.3.68-1.11.77-1.75.77-2.56-.17-4-3-5-5A7.64,7.64,0,0,1,56.34,89a.29.29,0,0,1,.39,0c.46.43.42,1.45,1.23,1.33.64-.9.17-2-.17-2.86s-1.45-1.24-1.83-2.1c-.05-.64.89-.25.94-.89a7.77,7.77,0,0,1-.26-3.29c.17-.47.85-.43.85-1a10.29,10.29,0,0,1-.25-3.29c.12-.68.68-1.41.29-2.14-.76-.21-.12-1.15-.85-1.36-1.45,0-2.52-.77-3.76-1.24-.64-.17-1.11.21-1.62.34a3.86,3.86,0,0,0-2.22.77,2.31,2.31,0,0,0-.3,1.62c-.13.38-.47,0-.64,0a1.39,1.39,0,0,1-.64-1.62.76.76,0,0,0-.3-.81,1.61,1.61,0,0,0-1.4-.22c-.6.22-.77.9-1,1.41A2.14,2.14,0,0,0,45,74.92c.85.9,2,1.24,3,2,.18.51-.17,1-.51,1.45,0,.47.64.47.56.9a2.09,2.09,0,0,1-1.88-.39c-.34-.29-.43-.94-1-1s-.6.68-.81,1,0,1-.39,1.33l-.38,0a17.81,17.81,0,0,1-4.87-2.69,13,13,0,0,1-2.22-2.61c-.34-1.07-.51-2.56-1.88-2.9-.3,0-.68.08-.72.43l-.09.42c-.68,0-1.37-.47-2.09-.21a2.6,2.6,0,0,0-.9.81c0,.77.9.47,1,1.07a2.68,2.68,0,0,0,.68,1.4c-.17.31-.51.48-.68.77l-.43,1.07c.17.34.38.77.81.81.6-.26,1.11.17,1.75.09.38,0,1-.3,1.07.34a2.73,2.73,0,0,1,0,1.45,5.29,5.29,0,0,1-2.09,1.8.73.73,0,0,0-.17.81c.3.42,1,.25,1.45.21.9,0,1.58-.55,2.44-.64a2.51,2.51,0,0,0,1,1.15c.68.17.85-.77,1.54-.51.55.43.38,1.24.89,1.75,0,.3-.25.3-.42.43-.73.25-1.75,0-2.31.59a.74.74,0,0,0,.47.77,7.46,7.46,0,0,0,2.22.56,15.58,15.58,0,0,1,2,0l-.21.34-2.1,1.41A26,26,0,0,0,37,90.17c-1.33.34-1.88-1.33-3.08-1.24a1.66,1.66,0,0,0-1.19.47,1.27,1.27,0,0,0-.26,1.15c.17.39.73.21.73.64,0,1.2-1.07,2-1.16,3.29a.73.73,0,0,0,.39.81.65.65,0,0,0,.72-.13c.26-.25.26-.64.69-.72a2.25,2.25,0,0,0,2-.47.48.48,0,0,1,.52.42c0,.3,0,.64.29.77,1.07,0,1.58-1.06,2-1.83.47-.09,1-.43,1.46-.13.17.73-.43,1.24-.56,1.92a.62.62,0,0,0,.47.38c1.28-.17,2-1.36,2.78-2.3.12-.26.25-.6.64-.6,1,.3,1.23-.9,1.83-1.32h.26c.08.29-.13.51,0,.81.42.47.9,0,1.32-.13l.9-.56c1.07.35,2.18.6,3.29.86.89.34,0,1.28.55,1.84-.13.29-.51.38-.9.38-1.87.25-4.05-.26-5.55,1.15l-.89.9c-1.41,0-2.14,1.24-3.42,1.45-.85.6-2.18-.25-2.73.73a3.47,3.47,0,0,0,2.43,1.45c.39.17,1,0,1.24.38,0,.43.13.94.64,1.11s.6-.42.94-.13c.47.64,1.15.94,1.54,1.54-.3.56-1,.21-1.54.21l-.08,0c-.77.09-1.76.47-2.35-.25-.81-.6-1.45-1.54-2.61-1.54-.64.17-1.32.42-1.45,1.15-.08.43.34.6.51.85-.77.52-1.58,1.33-1.32,2.35.08.22.17.47.47.47s.68-.34,1.07-.13c.08.65-.09,1.63.68,1.93.6-.09,1-.73,1.66-.26.64.3,1.16-.3,1.71-.47.9,0,1.24.86,1.54,1.5.55.42,1.32,1.1,2.09.68.52-.73-.47-1.67.52-2.14.59-.17,1.1,0,1.7-.08.94.08,2.09.17,2.61-.85L51,105l.17-.9c.56-.17,1.37.73,1.62-.12a5.63,5.63,0,0,1-.25-2.65,3.79,3.79,0,0,1,.89-1.67l.22.09a15.46,15.46,0,0,0,.76,3.12c-.08,1-.59,1.83-.72,2.82a3.59,3.59,0,0,1-1.92,2.3.69.69,0,0,0-.26.77c.26.47.9.21,1.37.3a5.72,5.72,0,0,0,3.46-1.79c.94.25,1.41-.9,2.26-.39.9.68,2.52-.51,2.86.94-.13.68.51,1.92-.6,2.22-1.11-.17-2.39-1.62-3.5-.34a.82.82,0,0,0-.25.94c.17.3.38.68.08.94-.3.51-.72,1.15-.47,1.79.22.38.64.38,1,.3.64-.26,1.24.3,1.88.34a2.88,2.88,0,0,0,1.83.9c.3-.17.26-.56.47-.81.47-.39,1.45-.3,1.45-1.16a2.66,2.66,0,0,1,1.23-1.55,2.5,2.5,0,0,0,1.71-.86Z"/><path class="cls-2" d="M46.73,73.13A1.82,1.82,0,0,0,47,74.67c.9,1,2.26,1.28,2.82,2.43l-.34,0a28.38,28.38,0,0,0-3.16-2,1.35,1.35,0,0,1-.64-1.32c.08-.38.21-.81.64-.9a.33.33,0,0,1,.42.3Z"/><path class="cls-2" d="M55.87,74.16c.17.25,0,.81.56.85a.28.28,0,0,1,.25.25,7.78,7.78,0,0,1-.25,1.33c-.13.34-.6.47-.6.94,0,.25.38.38.42.64l0,1.71c-1.07.34-.55,1.66-.64,2.35a10.2,10.2,0,0,0,0,1.66c-.26.13-.73.09-.85.47A4.09,4.09,0,0,0,55.19,86c.38.56,1.19.69,1.24,1.41-.56,0-1.07-.34-1.58-.51a5.28,5.28,0,0,1-1.84-2,.26.26,0,0,0-.43,0c-.08.52-.12,1.24-.59,1.58-.56-.34-.52-1.7-1.41-1.28C50.28,87.05,49,88.5,48,90c-.25.08-.3.47-.64.38a6.81,6.81,0,0,0,.43-4.69c-.13-.3-.43-.22-.64-.09s-.39.6-.77.47c-.3-.47.3-1.2-.39-1.49-.59.12-.93.63-1.45.89a8.85,8.85,0,0,1-4.35,1.11,1.22,1.22,0,0,1-.73-.21,5.55,5.55,0,0,1,1.41-.73c1.8-1.06,3-3,4.44-4.48-.13-.64-.68-1.41-.08-2,.47,0,.64.51,1,.64a2.5,2.5,0,0,0,2.14.26,1.4,1.4,0,0,0,1.06-1.24c0-.25-.13-.38-.3-.47s-.38,0-.47-.17a.55.55,0,0,1,.47-.55c.73,0,1.46,1.58,2,.29.3-1-.64-1.79-1.37-2.43a.74.74,0,0,1-.21-.72c.55-.35-.13-.81.3-1.2.72-.56,1.83-.21,2.6-.77,1.33,0,2.27,1,3.46,1.33Z"/><path class="cls-2" d="M35.55,73.77a1,1,0,0,1,0,.6c-.17.17-.39,0-.52-.09a.76.76,0,0,1-.29-.77c0-.89.81-.08.81.26Z"/><path class="cls-2" d="M35,75.05a9.5,9.5,0,0,1,2.82,2.69,16.11,16.11,0,0,0,6,3.46c.08.34-.17.64-.43.9-.72.77-1.32,1.66-2.09,2.35a.58.58,0,0,1-.47,0c-.77-.72-.68-2.22-2-2.26-.43,0-.77.51-1.19.21s.12-1.11-.52-1.28c-.72.3-1.32,1.11-2.17,1,.55-.94,1.53-2,1-3.2a1.92,1.92,0,0,0-1-1.36c-.51,0-.81.55-1.33.29-.21-.47-1.15-.25-.76-.85s1.58-.6,1.07-1.45c-.35-.47-1.16-.22-1.24-.86.08-.38-.26-.89,0-1.15,1-.08,1.66.94,2.26,1.58Z"/><path class="cls-2" d="M72.44,75.56c.12.69-.52,1.11-.35,1.75.18.35.73.43.69.81-1.62,0-1.92,2.18-3.55,2.14-.68-.13-1.19-.85-2-.51-2.09,1-4.36,2.43-4.91,4.91a2.94,2.94,0,0,0,.51,2.77.61.61,0,0,0,.56,0c.42-.76.76-1.79,1.79-2a9.7,9.7,0,0,0,1.75-.77c.09,0,.21-.09.26.08-.26.73-.6,1.63-1.41,1.88a3,3,0,0,0-1.24,1.88,1.44,1.44,0,0,0,.21,1.2c.3.25.64-.09.9-.26,1.11-1.37,2.77-1.54,4.44-1.62.08.13-.13.38-.3.42a5.14,5.14,0,0,0-3.2,3,.67.67,0,0,0,.34.47c.68-.09,1.24-.52,2-.43.17.47-.55.47-.72.85-1.33,1.16,0,3.76-2.22,4.14-.64.18-.56.94-1,1.33a3.36,3.36,0,0,1-3.12,1.07c-.86.08-1.58-1.15-2.31-.35.09.86.77,1.33,1.2,2,1.07,1,2.56,1.11,3.93,1.54a.58.58,0,0,1,.38.34c0,.3-.38.22-.64.17a5.23,5.23,0,0,1-2.69-.08c-.13,0-.25.13-.3.25.13.94,1.2,1.28,1.84,1.8.64.3,1.49.21,1.79,1v1a2.25,2.25,0,0,1,.34,1.67,2.18,2.18,0,0,0-.55,2.47c-.26.21-.64,0-.9.17-.3.64-1.11.73-1.32,1.37a1.12,1.12,0,0,1-.86,1.07c-.42,0-.72.17-1.11.08-.25-.3.13-.77-.34-.94s-.81.82-1.45.47c-.3-.17-.6-.3-.73-.6s.35-.51.6-.68c1.41-.17,3.25-.42,3.76-2,.08-.73-.26-1.32-.13-2a2.08,2.08,0,0,0-1.84-1.41c-.76-.21-1.62.09-2.17-.46-.22-.18-.47-.35-.73-.22s-.3.34-.55.22-.52-.52-.77-.22a3.83,3.83,0,0,1-2.52,2.35c-.17-.3.17-.64.3-1a11.15,11.15,0,0,0,.85-2.6,1.8,1.8,0,0,0,.47-1.71,8,8,0,0,1-.68-4.7,5.5,5.5,0,0,0-1.62-5.12c-.82-.48-1.5-1.29-2.48-1.46-.64-.21-1.58,0-1.92-.59.08-.69.81-1.07,1.11-1.67l1.11-1.71c.47-.08.34.6.81.56.9,0,.85-1.5,1.79-1,.43.6,1.11.81,1.54,1.33a16,16,0,0,0,3.16,6.74c1.28,1.67,3.25,2.91,5.29,2.31.56-.47,1.33-1,1.46-1.79.55-3.89-4.4-5.81-4-9.65.34-3.63,4.06-5.6,7-7,1.63-.85,3.68-2,3.8-4.1a.83.83,0,0,1,.09-.55c.6.21.55.94.6,1.49Z"/><path class="cls-2" d="M45.92,87.09c.47.09,1-.51,1.24.13a7.26,7.26,0,0,1-.55,2.69c-.43.43-1.07.09-1.54.3-.64.17-.77,1.75-1.58.73-.34-.13-.56.21-.73.38a7.31,7.31,0,0,1-1.28,2.26c-.13.09-.34.17-.47,0-.08-.55.34-1.53-.47-1.7a1.88,1.88,0,0,0-.94.29c-.64,0-1.49,0-1.83.6-.09.3-.13.73-.51.77-.39-.17-.9-.3-1.07-.81-.17-.13-.43-.3-.64-.08s-.47.93-1,.93a2.58,2.58,0,0,1-1.15-.29c.08-1,1.2-1.12,1.88-1.5,1.36-.3,2.39-1.15,3.76-1.41a16.75,16.75,0,0,0,5.5-4,2.54,2.54,0,0,1,.77-.21c.17.34.17.81.64.89Z"/><path class="cls-2" d="M35.5,91a1.56,1.56,0,0,1-1.45.21c-.25-.25-.12-.72-.17-1.11.13-.3.51-.21.73-.08.3.3.89.47.89,1Z"/><path class="cls-2" d="M53.78,96.53a3.19,3.19,0,0,1-.43,1.66,5.62,5.62,0,0,0-1.66,2.61c0,.72-.09,1.41-.13,2.09-.21.17-.39-.09-.51-.21-.35-.52-.26-1.67-1.16-1.5a2,2,0,0,0-.64,2c.39.55,1.16,1,.73,1.7-.64.35-.47,1.33-1.33,1.41-1.28.18-2.6-.38-3.62.52a2.77,2.77,0,0,0-.73,1.15c-.6.08-.43-.73-.73-1.07s-.64-.13-.93-.3c-.48-.17-.94-.68-1.5-.3s-1,.86-1.58.39l-.77-.21c0-.26.26-.6,0-.86l-1.49-.68c-.08-.13,0-.3.13-.39,1.24-.81,2.65.13,4.1-.13a7.38,7.38,0,0,1,2.86-.13c.55,0,1.24.18,1.58-.29a1,1,0,0,0,.08-1.07c-.42-.94-1.79-1.15-2-2.26a1,1,0,0,0-.47-.52c-.34-.12-.56.26-.9.09-.08-.3-.17-.68-.51-.81-.64,0-1.41.3-2-.13.08-.34.51-.26.77-.43a11.08,11.08,0,0,0,2.47-1.15l1.24-.17c1.24-2,3.76-1.88,5.89-2l2.09-.64c.73.17.9,1,1,1.62Z"/><path class="cls-2" d="M40.16,103.44c-.39.26-.9.09-1.33,0a1.14,1.14,0,0,1-.29-.94c.64-.3,1.32.34,1.62.89Z"/><path class="cls-2" d="M59.24,110.36c0,.21-.25.17-.34.17s-.17-.08-.25-.17c0-.38.51-.17.59,0Z"/><path d="M53.69,74.84a.47.47,0,0,1-.42.6,1.58,1.58,0,0,1-1.37-.39c-.38-.3-.17-.81-.09-1.19a.52.52,0,0,1,.69-.09,4.68,4.68,0,0,1,1.19,1.07Z"/><path d="M56.13,75.56a1.5,1.5,0,0,1-.39.94.29.29,0,0,1-.47-.17,1.06,1.06,0,0,1,.3-.94.36.36,0,0,1,.56.17Z"/><path d="M53.39,78.64l0,.72c-.72.82-.72,2-1.83,2.52a.5.5,0,0,1-.6-.42,3.64,3.64,0,0,1,0-1.54c.47-.26.6.68,1,.26A6.69,6.69,0,0,1,53,78.42a.37.37,0,0,1,.38.22Z"/><polygon points="20.77 65.35 85.96 65.35 85.96 69.84 20.77 69.84 20.77 65.35 20.77 65.35"/><polygon class="cls-4" points="20.77 65.35 85.96 65.35 85.96 69.84 20.77 69.84 20.77 65.35 20.77 65.35"/><polygon class="cls-2" points="69.24 66.16 76.64 66.16 76.64 69.04 69.24 69.04 69.24 66.16 69.24 66.16"/><polygon class="cls-2" points="53.14 66.16 60.54 66.16 60.54 69.04 53.14 69.04 53.14 66.16 53.14 66.16"/><polygon class="cls-2" points="36.92 66.15 44.33 66.15 44.33 69.04 36.92 69.04 36.92 66.15 36.92 66.15"/><polygon class="cls-2" points="21.55 66.15 28.28 66.15 28.28 69.04 21.55 69.04 21.55 66.15 21.55 66.15"/><path d="M83,49.26c.53.66.18,1.59.31,2.39.58.48,1.81,0,2,1.06a1.24,1.24,0,0,1-.4,1c-.4.39-1.11,0-1.46.44-.13,1.32,0,2.78,0,4.29.4.26.93.22,1.37.44a1.41,1.41,0,0,1,.44.88.89.89,0,0,1-.62.75c-.35.18-1,0-1.15.49-.17.71,0,1.5-.08,2.25a3.93,3.93,0,0,1-1.6.22l-5.21,0c-.49.26-1,.75-1.68.49-1.11-.71-2.61-.49-3.89-.53l-3.89,0c-.71-.62-.18-1.68-.4-2.43-.26-.44-1-.27-1.41-.49a.89.89,0,0,1-.45-1,1,1,0,0,1,.85-.75c.3-.18.88.13,1-.35,0-1.37-.09-2.7,0-4-.09-.8-1.15-.31-1.59-.62a1.09,1.09,0,0,1-.36-1.19c.36-.75,1.24-.58,1.9-.8l.09-.22.09-2.3.22-.18,6.06.14a6.46,6.46,0,0,1,2,.53c1.28-1,3.18-.49,4.73-.75,1.06.22,2.16,0,3.22.26Z"/><path class="cls-5" d="M83,49.26c.53.66.18,1.59.31,2.39.58.48,1.81,0,2,1.06a1.24,1.24,0,0,1-.4,1c-.4.39-1.11,0-1.46.44-.13,1.32,0,2.78,0,4.29.4.26.93.22,1.37.44a1.41,1.41,0,0,1,.44.88.89.89,0,0,1-.62.75c-.35.18-1,0-1.15.49-.17.71,0,1.5-.08,2.25a3.93,3.93,0,0,1-1.6.22l-5.21,0c-.49.26-1,.75-1.68.49-1.11-.71-2.61-.49-3.89-.53l-3.89,0c-.71-.62-.18-1.68-.4-2.43-.26-.44-1-.27-1.41-.49a.89.89,0,0,1-.45-1,1,1,0,0,1,.85-.75c.3-.18.88.13,1-.35,0-1.37-.09-2.7,0-4-.09-.8-1.15-.31-1.59-.62a1.09,1.09,0,0,1-.36-1.19c.36-.75,1.24-.58,1.9-.8l.09-.22.09-2.3.22-.18,6.06.14a6.46,6.46,0,0,1,2,.53c1.28-1,3.18-.49,4.73-.75,1.06.22,2.16,0,3.22.26Z"/><path d="M61.31,49.1c.26,0,.53.18.75.31.22.84-.05,1.55.17,2.34.58.22,1.42,0,1.73.75a1.24,1.24,0,0,1-.09,1.11c-.44.57-1.46,0-1.77.71a26.76,26.76,0,0,0,0,4.2c.45.44,1.24.08,1.64.66a1,1,0,0,1,.22.93c-.36.57-1.11.57-1.73.71-.26.22,0,.61-.13.92-.22.58.31,1.29-.35,1.64-1.81.26-3.54-.09-5.39,0l-1.77,0c-.49.31-1.06.79-1.68.44l-1.11-.49c-1.32,0-2.56,0-3.89,0-.88,0-2.12.36-2.69-.48a8.35,8.35,0,0,0,0-2.12c-.66-.23-1.77.08-2.12-.76a1.49,1.49,0,0,1,.09-.88c.48-.71,1.59-.09,2.08-.66l0-2a15.55,15.55,0,0,0,0-2.56c-.66-.27-1.81.09-2-.93A.89.89,0,0,1,43.89,52c.44-.13,1.06.09,1.28-.31l.14-2.08c.52-.88,1.81-.35,2.6-.48l4,0c.61.09,1.19.71,1.81.31,2.38-1,5.08-.13,7.56-.4Z"/><path class="cls-5" d="M61.31,49.1c.26,0,.53.18.75.31.22.84-.05,1.55.17,2.34.58.22,1.42,0,1.73.75a1.24,1.24,0,0,1-.09,1.11c-.44.57-1.46,0-1.77.71a26.76,26.76,0,0,0,0,4.2c.45.44,1.24.08,1.64.66a1,1,0,0,1,.22.93c-.36.57-1.11.57-1.73.71-.26.22,0,.61-.13.92-.22.58.31,1.29-.35,1.64-1.81.26-3.54-.09-5.39,0l-1.77,0c-.49.31-1.06.79-1.68.44l-1.11-.49c-1.32,0-2.56,0-3.89,0-.88,0-2.12.36-2.69-.48a8.35,8.35,0,0,0,0-2.12c-.66-.23-1.77.08-2.12-.76a1.49,1.49,0,0,1,.09-.88c.48-.71,1.59-.09,2.08-.66l0-2a15.55,15.55,0,0,0,0-2.56c-.66-.27-1.81.09-2-.93A.89.89,0,0,1,43.89,52c.44-.13,1.06.09,1.28-.31l.14-2.08c.52-.88,1.81-.35,2.6-.48l4,0c.61.09,1.19.71,1.81.31,2.38-1,5.08-.13,7.56-.4Z"/><path d="M31.45,49.59c2.16-.93,4.59-.27,7-.4.62.13,1.55-.31,2,.35,0,.71,0,1.37,0,2.08.22.49.93.09,1.33.35.22.14.48.27.53.53a1.12,1.12,0,0,1-.14,1c-.44.48-1,.31-1.59.44l-.17.26c.09,1.29-.27,2.44,0,3.67-.05.27-.14.62.17.8a2.39,2.39,0,0,1,1.68.4,1.43,1.43,0,0,1,.09,1.06c-.26,1.32-2.3-.18-2.08,1.37a5.48,5.48,0,0,1-.08,1.9c-2.39,0-4.82-.18-7.08-.05a2.45,2.45,0,0,1-1.5.62,3.22,3.22,0,0,1-1.24-.62c-2.16-.08-4.28-.08-6.36-.13-.66-.57-.18-1.5-.4-2.34-.35-.4-.88-.09-1.28-.31-.31,0-.4-.35-.58-.57a1.39,1.39,0,0,1,.36-1.2,2.48,2.48,0,0,1,1.28-.26l.22-.23c-.13-1.45.22-2.82-.09-4.37-.22-.31-.62-.05-.88-.27s-.8-.22-.93-.66-.18-.71.18-1c.48-.53,1.32.09,1.76-.44l.18-2.12c.35-.62,1.19-.31,1.81-.31a16.11,16.11,0,0,1,3.54,0,6.85,6.85,0,0,1,2.3.49Z"/><path class="cls-5" d="M31.45,49.59c2.16-.93,4.59-.27,7-.4.62.13,1.55-.31,2,.35,0,.71,0,1.37,0,2.08.22.49.93.09,1.33.35.22.14.48.27.53.53a1.12,1.12,0,0,1-.14,1c-.44.48-1,.31-1.59.44l-.17.26c.09,1.29-.27,2.44,0,3.67-.05.27-.14.62.17.8a2.39,2.39,0,0,1,1.68.4,1.43,1.43,0,0,1,.09,1.06c-.26,1.32-2.3-.18-2.08,1.37a5.48,5.48,0,0,1-.08,1.9c-2.39,0-4.82-.18-7.08-.05a2.45,2.45,0,0,1-1.5.62,3.22,3.22,0,0,1-1.24-.62c-2.16-.08-4.28-.08-6.36-.13-.66-.57-.18-1.5-.4-2.34-.35-.4-.88-.09-1.28-.31-.31,0-.4-.35-.58-.57a1.39,1.39,0,0,1,.36-1.2,2.48,2.48,0,0,1,1.28-.26l.22-.23c-.13-1.45.22-2.82-.09-4.37-.22-.31-.62-.05-.88-.27s-.8-.22-.93-.66-.18-.71.18-1c.48-.53,1.32.09,1.76-.44l.18-2.12c.35-.62,1.19-.31,1.81-.31a16.11,16.11,0,0,1,3.54,0,6.85,6.85,0,0,1,2.3.49Z"/><path class="cls-2" d="M31.14,50.14l.18.4c.08,3,.08,6,.08,9.06l-.08,1.15c-.76,0-1.51-.36-2.35-.27a15.8,15.8,0,0,1-2.52-.13c-.44-1-.13-2-.22-3.14.05-2.21.09-4.91.09-7.29,0-.18.22-.27.35-.31,1.55.13,3.23-.27,4.47.53Z"/><path class="cls-2" d="M25.26,49.87c-.4.31-.93.89-.75,1.42.17,3.71,0,7,.17,10.52l.31.35a30.28,30.28,0,0,1,5.31.13.2.2,0,0,1,0,.27,3.94,3.94,0,0,1-1.46.09l-4.5-.09c-.31-.27-.18-.89-.18-1.24s.13-1-.35-1.24-1.24.05-1.64-.44c.31-.88,1.72-.17,2-1.15.13-1.63-.13-3.27-.05-4.82-.17-.88-1.15-.61-1.76-.75-.09-.09-.22-.22-.18-.39.53-.53,1.59.08,2-.67a15.82,15.82,0,0,0,.13-2,1,1,0,0,1,.93-.13v.17Z"/><path class="cls-2" d="M37.72,49.92c0,3.58,0,7,0,10.47-1.77.18-3.76-.13-5.53.36-.39-.36-.08-.93-.17-1.42-.09-1.15,0-2.43-.05-3.62C32,54,31.85,52,32,50.36a1.54,1.54,0,0,1,1.46-.71l4.15.05.13.22Z"/><path class="cls-2" d="M39.76,49.87c.13.71-.18,1.64.26,2.35.45.26,1.11.13,1.55.22a.53.53,0,0,1,0,.62c-.48.48-1.5-.14-1.76.66,0,1.72-.09,3.4,0,5.17l.27.22c.57.09,1.28-.13,1.68.31,0,.27,0,.53-.27.62-.57.13-1.41-.18-1.72.44a16.65,16.65,0,0,1-.14,2.12l-.31.14-6.23-.09c-.13-.09,0-.18,0-.27l.61-.22,5,.05c.53-.14.53-.8.58-1.2-.05-2.47,0-4.64-.05-7a18.43,18.43,0,0,0-.08-3.49c0-.26-.45-.44-.49-.75a.81.81,0,0,1,.93.13Z"/><path class="cls-2" d="M68.22,49.83c-.09.35-.53.62-.66,1,0,3.63,0,7.56.13,11.32l.31.17c2,.05,4-.39,5.71.4.08.05,0,.05,0,.09-2.13,0-4.25.13-6.33,0l-.17-.22a6.24,6.24,0,0,0-.27-2.26c-.49-.44-1.9.13-1.55-.88.53-.4,1.38.13,1.68-.53,0-1.86.09-3.5,0-5.22-.4-.53-1.15-.18-1.68-.31a.48.48,0,0,1-.13-.66c.57-.49,2.25.13,1.94-1.24.18-.57-.26-1.68.53-1.72.18,0,.4-.05.53.13Z"/><path class="cls-2" d="M82.63,49.92c.18.84-.17,1.68.31,2.43.53.13,1.37-.18,1.64.35,0,1.06-1.5.22-1.81,1.06.13,1.68-.14,3.05,0,4.86a.32.32,0,0,0-.09.49c.49.4,1.11-.26,1.59.18.31.09.14.35.14.53-.4.57-1.37-.09-1.64.66l-.09,2.21-.31.13-5.88,0c-.09-.09,0-.13,0-.18l.71-.26h4.46c.22-.05.53-.22.53-.53,0-3.49-.09-7.12-.09-10.92l-.53-1.06c.22-.22.84-.27,1,.09Z"/><path class="cls-2" d="M68.89,51.29v9.5c-.09.27-.4.4-.58.58l-.18-.14c0-1,.05-2.16,0-3.14v-.75c0-2.07,0-4.37,0-6.49.18-.18.36-.53.58-.62a4.28,4.28,0,0,1,.18,1.06Z"/><path class="cls-2" d="M81.79,50.8c-.08,2.48,0,4.82,0,7.16,0,1.11,0,2.08,0,3.1,0,.09,0,.13-.13.17-.75-.31-.49-1.15-.53-1.81a20.36,20.36,0,0,1,.09-2.92l-.13-.31,0-5.79c.18-.39.53.18.66.4Z"/><path class="cls-2" d="M25.7,50.27c.18,3.58,0,7,.05,10.43a.52.52,0,0,1-.45.4,10.26,10.26,0,0,1-.13-3.27c-.09-2.25,0-4.77,0-7a1.1,1.1,0,0,1,.57-.53Z"/><path class="cls-2" d="M38.87,50.67c0,3.58.05,7.12-.08,10.34-.09.18-.27,0-.4-.13a4.53,4.53,0,0,1,0-1.72c-.13-2.88,0-5.79,0-8.71.18-.22.45,0,.53.22Z"/><path class="cls-2" d="M75.3,55.18c-.09.22-.49.22-.71.13l-.22-.09c.13-.48,0-1.06.4-1.41.39.26.35.88.53,1.37Z"/><path class="cls-2" d="M38.39,61.5c-.13.27-.53.13-.8.22H36.18a13.49,13.49,0,0,0-3.32.09.43.43,0,0,1-.35-.4c.13-.4.62-.26,1-.4,1.37.05,3,0,4.33,0a1.25,1.25,0,0,1,.58.49Z"/><path class="cls-2" d="M31,61.32c.05.22-.17.45-.4.53-1.41-.4-3-.13-4.46-.31l0,0a.64.64,0,0,1,.61-.49,19.14,19.14,0,0,1,4.29.31Z"/><path class="cls-2" d="M74.37,61.45c.13.09.13.32,0,.36-.53.62-1.19-.14-1.9,0-1.15-.14-2.43,0-3.58-.14.31-1,1.68-.39,2.43-.57,1,.13,2.16-.18,3.05.35Z"/><path class="cls-2" d="M80.87,61.23a1,1,0,0,1,.48.58c-1.81.22-3.58-.22-5.3.26a.38.38,0,0,1-.27-.53c.36-.39.93-.31,1.46-.39l3.63.08Z"/><path class="cls-2" d="M32.42,62.16a.87.87,0,0,1-.26,1,.67.67,0,0,1-.8.14c-.27-.05-.31-.36-.35-.58-.09-.48.39-.66.66-1a1.18,1.18,0,0,1,.75.49Z"/><path class="cls-2" d="M75.65,62.43c0,.39,0,1-.49,1a.66.66,0,0,1-.75-.44,1,1,0,0,1,.49-1c.4,0,.57.27.75.49Z"/><path class="cls-2" d="M59.49,50c0,3.44,0,7,0,10.43l-.18.09c-1.9.17-3.75-.31-5.48.31-.31-.18,0-.71-.13-1v-9.2a.72.72,0,0,1,.49-.66c.48-.35,1.15-.22,1.76-.31l3.49.09.09.27Z"/><path class="cls-2" d="M61.57,49.92a10.49,10.49,0,0,0,.13,2.3c.53.48,2-.22,1.73,1-.49.31-1.15.09-1.68.18l-.13.17c-.23,1.77.13,3.58,0,5.17,0,.18.13.49.39.53.49,0,1.24-.3,1.42.31-.09,1.07-1.46.09-1.81.93-.14.8.22,1.5-.09,2.26l-.22.13c-2.26,0-4.47,0-6.59-.09-.09,0,0-.18.05-.22l.39-.22c1.77-.18,3.71,0,5.57-.18a.48.48,0,0,0,.44-.53c0-3.36,0-6.85,0-10.61-.09-.53-.62-.84-.71-1.32.31,0,.88-.18,1.06.22Z"/><path class="cls-2" d="M46.9,49.74c-.09.4-.45.53-.62.84-.27.71,0,1.42-.09,2.17,0,3,0,5.92,0,8.92a.58.58,0,0,0,.4.54l4.73.08a1.54,1.54,0,0,1,.75.31c-.09.27-.44.18-.66.22a53.52,53.52,0,0,1-5.39-.13l-.18-.13a6.06,6.06,0,0,0-.31-2.34c-.53-.22-1.19,0-1.77-.18-.26-.13-.18-.49,0-.66.58-.31,1.68.17,2-.62,0-1.73.09-3.36,0-5.13-.48-.71-1.5,0-1.94-.71.17-1,1.59-.13,2-1L46,49.87c.26-.26.62-.17.93-.13Z"/><path class="cls-2" d="M47.56,50.36c.13,3-.18,5.79,0,8.84-.27.71.31,1.72-.71,1.9-.17-3.05,0-6.32-.13-9.64a1.29,1.29,0,0,1,.66-1.28l.18.18Z"/><path class="cls-2" d="M60.69,50.89c0,3.36.09,7-.14,10.26-.17,0-.39-.18-.44-.36,0-1.37-.17-2.74-.09-4.2.09-1.9-.13-4.15.09-6.1.22-.13.58.13.58.4Z"/><path class="cls-2" d="M52.6,61.32c.18,0,.4.22.26.45l-.35.3C51,61.5,49,61.9,47.38,61.63a2.39,2.39,0,0,1,.49-.62,28.63,28.63,0,0,1,4.73.31Z"/><path class="cls-2" d="M59.63,61.1c.22.13.48.35.48.57l-.22.1c-1.85,0-3.76-.23-5.48.21-.26.05-.57,0-.62-.31.18-.39.71-.52,1.15-.57,1.59-.13,3.14,0,4.69,0Z"/><path class="cls-2" d="M53.93,62.56c0,.35,0,.8-.45.8s-.79,0-.79-.45a1.37,1.37,0,0,1,.66-.75c.31-.09.49.22.58.4Z"/><path class="cls-2" d="M53,57c.18-1.77,0-3.76.09-5.44,0-.53,0-1.15-.36-1.5-1.28-.57-3-.26-4.46-.35-.09,0-.26-.05-.22.13,0,3.49,0,6.76,0,10.21l.08.4a19.26,19.26,0,0,0,3.23.09c.58.09,1.15.26,1.68.35a27.55,27.55,0,0,0,0-3.27L53,57Z"/><path d="M52.6,56.86c-.53-.44-.66-1.11-1.11-1.64.18-.26.49-.31.71-.53a1.39,1.39,0,0,0,.53-1.37,1.32,1.32,0,0,0-.71-1.1A7.14,7.14,0,0,0,49,52.08a.24.24,0,0,0-.08.4.79.79,0,0,1,.52.71c0,1.19,0,2.39-.17,3.58l-.49.53c.49.44,1.15.09,1.86.22.18-.31-.31-.53-.4-.88.09-.36,0-.84.22-1.15.67.57.89,1.5,1.68,2l1,.07,0-.56c-.13.09-.39-.13-.52-.17Zm-1.37-2.17c-.31,0-.8.22-.89-.18,0-.57-.22-1.32,0-1.85a1,1,0,0,1,1.33.22,2.13,2.13,0,0,1,.18,1.06c-.18.31-.27.66-.62.75Z"/><path class="cls-2" d="M80.64,50.93a2.34,2.34,0,0,0-.17-1.23l-1.59-.05c-1.15.18-2.44-.17-3.36.4-.44.53-.22,1.15-.31,1.77.11.37.21.75.32,1.13l-.2.47-.69-.13-.17-.38c.07-.27.15-.55.21-.83-.05-.75.22-1.9-.75-2.21-1.46-.13-2.79-.17-4.34-.17a.3.3,0,0,0-.26.13c0,3.4,0,6.32,0,9.68,0,.4-.13.93.31,1.1,1.28-.17,2.43,0,3.67,0,.49,0,.8.44,1.28.31a35.25,35.25,0,0,0,.09-4.51c0-.12,0-.42-.17-.47v-.28l.76.09.08.25-.09.1-.09,4.55c0,.14,0,.49.31.45,1.37-.8,3-.27,4.64-.45l.35-.13A24.12,24.12,0,0,0,80.6,57c.09-2,0-4,0-6.1Z"/><path d="M75.52,55.93a1.23,1.23,0,0,1,.26.88l-.35.49.22.18a5.77,5.77,0,0,0,1.72-.09c-.13-.27-.44-.36-.62-.53-.61-1.63-1-3.35-1.54-5l-.53.24c-.31,1.51-.93,2.88-1.28,4.42-.09.31-.4.36-.62.53s-.44-.26-.58-.44c0-1.32.14-2.43,0-3.84,0-.22.22-.49.44-.27s.31.62.44.93a.19.19,0,0,0,.35-.09L73.71,52c-.18-.44-.58,0-.93,0a4.74,4.74,0,0,1-2.21-.26c-.53.17-.4.92-.49,1.41a.19.19,0,0,0,0,.22c.44-.26.66-1,1.27-.79l0,1.32-.13,2.87c-.18.23-.62.31-.58.62a15.28,15.28,0,0,0,2.44.09,3.06,3.06,0,0,0,1.28,0,.23.23,0,0,0,0-.31c-.26-.13-.57-.35-.48-.71s.17-.66.57-.53a.18.18,0,0,1,.17.12l.63.08v0c.08-.09.08-.13.22-.13Zm-.93-.62-.22-.09c.13-.48,0-1.06.4-1.41.39.26.35.88.53,1.37-.09.22-.49.22-.71.13Z"/><path d="M79.55,52.3c0,.32.23.9,0,1.13-.32-.27-.36-.54-.86-.67-.27,0-.54,0-.58.36-.09.94.85.94,1.4,1.57A2,2,0,0,1,80,56.63c-.21.51-.45.81-.95.81s-.76-.22-1.12,0c-.09,0-.27.09-.36,0l0-1.76a.26.26,0,0,1,.23-.13c.27.58.08,1.26.89,1.3.28,0,.5-.07.54-.43.09-1.58-2-1.19-1.93-2.81a2.56,2.56,0,0,1,.27-1c.36-.59,1.17-.23,1.71-.59.23-.09.23.23.27.36Z"/><path d="M57.37,52.22c-.44.22-.93.57-.79,1.19a20.19,20.19,0,0,0,0,3.31l.71.62,0,.09a12.66,12.66,0,0,1-2.22,0c-.3-.35.4-.53.54-.79a19.15,19.15,0,0,0,.13-3.89c-.13-.4-.8-.22-.62-.67a10.21,10.21,0,0,1,2.21,0l.13.14Z"/><path d="M35.91,53.06c-.44.53-.53-.49-1-.53-.27-.05-.66-.14-.88.08a3.37,3.37,0,0,0,0,1.64c.17.13.53.09.75.09.26-.18.39-.67.75-.62.22.22-.09.57,0,.79-.09.36.22.76-.17.89-.27-.13-.4-.62-.76-.62l-.61,0a4.67,4.67,0,0,0,0,2.26c.35.35.79,0,1.19,0,.57-.13.44-.93.93-.84a2.13,2.13,0,0,1,.09,1.15l-.27.18-3.14,0c-.13,0-.44,0-.31-.26,1-.62.45-1.81.58-2.79-.13-.7.4-1.76-.53-2.21-.05-.26.26-.17.35-.26.8,0,1.86.31,2.48-.35.48.26.44.88.48,1.37Z"/><path d="M31.09,52.35c-.88.71-.92,1.94-1.32,3-.36.57-.18,1.41-.75,1.9-.22.09-.4-.13-.45-.31a28.24,28.24,0,0,0-1.19-4c0-.4-1-.49-.44-.8.66-.08,1.15.09,1.77.05.13.4-.49.62-.31,1.1.4.58.26,1.46.75,2l.22-.23c0-1,1.19-1.94.22-2.82.22-.4.89-.14,1.33-.27.09.09.4.18.17.4Z"/><path class="cls-1" d="M108.31,112.47h3l1.54-4.46h7.12l1.52,4.46h3.24l-6.63-18.82h-3.12l-6.63,18.82Zm5.47-7.25,2.61-7.59h0l2.55,7.59ZM129,112.47h3.17v-8h6.25v-2.81h-6.25v-5h8.63V93.73H129v18.74Zm16.16,0h3.17v-8h6.25v-2.81H148.3v-5h8.63V93.73h-11.8v18.74Zm16.36,0h3.19V93.73h-3.19v18.74Zm9.17,0h11.8v-2.89h-8.64V93.73h-3.16v18.74Zm16.36,0h3.19V93.73H187v18.74Zm7.67,0h3L199.2,108h7.12l1.52,4.46h3.24l-6.64-18.82h-3.11l-6.64,18.82Zm5.47-7.25,2.61-7.59h0l2.56,7.59Zm17.25,7.25h3.16V96.66h5.78V93.73H211.63v2.93h5.78v15.81Zm13.27,0h12.61v-2.89h-9.45v-5.44h6.56v-2.82h-6.56V96.66h8.94V93.73h-12.1v18.74Z"/><path d="M109.8,79.18H113V70.85h8.51v8.33h3.16V60.44h-3.16v7.47H113V60.44H109.8V79.18Zm19.12,0h3l1.55-4.45h7.12l1.52,4.45h3.24l-6.64-18.81h-3.11l-6.64,18.81Zm5.47-7.24,2.61-7.6h.05l2.56,7.6Zm15.2,7.24h3.11V71.79H156l4.21,7.39h3.39l-4.4-7.8a5,5,0,0,0,4.15-5.32c0-3.82-2.58-5.62-7-5.62h-6.71V79.18ZM152.7,69v-5.7h3.45c2.68,0,4.07.66,4.07,2.81S158.81,69,156.17,69ZM173,79.26h3l6.51-18.82h-3l-4.91,14.62h-.05L169.7,60.44h-3.22L173,79.26Zm10.76-.08h3l1.54-4.45h7.12l1.52,4.45h3.24L193.5,60.37h-3.11l-6.64,18.81Zm5.47-7.24,2.61-7.6h0l2.56,7.6Zm15.2,7.24h3.11V71.79h3.3l4.2,7.39h3.39l-4.4-7.8a5,5,0,0,0,4.15-5.32c0-3.82-2.58-5.62-7-5.62h-6.71V79.18ZM207.53,69v-5.7H211c2.68,0,4.08.66,4.08,2.81S213.64,69,211,69Zm15.91,10.15h5.34c5.8,0,9.73-2.76,9.73-9.44s-3.85-9.3-9.73-9.3h-5.34V79.18Zm3.16-2.83v-13H229c4.3,0,6.33,1.85,6.33,6.36,0,4.73-2,6.61-6.28,6.61Zm24.67,2.83h2.86V65.08h.05a34.35,34.35,0,0,0,1.14,4l3.62,10.15h2.82L265.4,69a38.38,38.38,0,0,0,1.12-3.83h.05v14h3.06V60.44h-4.25l-4.87,14.87h-.05l-5-14.87h-4.18V79.18Zm24.14,0H288V76.3h-9.45V70.85h6.56V68h-6.56V63.38h8.94V60.44h-12.1V79.18Zm17.24,0H298c5.8,0,9.72-2.76,9.72-9.44s-3.85-9.3-9.72-9.3h-5.35V79.18Zm3.17-2.83v-13h2.4c4.31,0,6.34,1.85,6.34,6.36,0,4.73-2,6.61-6.29,6.61Zm17,2.83H316V60.44h-3.19V79.18Zm16.49.36c4.33,0,6.63-2.51,7.55-6.23l-3-.69c-.71,2.82-2.08,4-4.51,4-3.16,0-5.06-2.46-5.06-6.91,0-4.26,1.85-6.71,5-6.71,2.48,0,3.57,1.26,4.28,3.74l3-.86c-.84-3.42-2.92-5.82-7.27-5.82-4.71,0-8.23,3.39-8.23,9.67,0,6.46,3.42,9.78,8.23,9.78Zm10.1-.36h3l1.54-4.45H351l1.52,4.45h3.24l-6.64-18.81H346L339.4,79.18Zm5.47-7.24,2.61-7.6h0l2.56,7.6Zm15.2,7.24h11.8V76.3h-8.64V60.44h-3.16V79.18Zm29.58.36c4.45,0,7.06-2.41,7.06-5.47,0-3.52-2.83-4.69-6.38-5.73-3.06-.91-4.41-1.49-4.41-3.24,0-1.37,1.19-2.12,3.27-2.12a5.19,5.19,0,0,1,4.74,2.73l2.3-1.6a7.39,7.39,0,0,0-7-4c-3.8,0-6.41,2.1-6.41,5.29,0,3.57,2.91,4.56,6.53,5.62,3.09.91,4.26,1.67,4.26,3.3s-1.55,2.43-3.83,2.43a5.42,5.42,0,0,1-5.16-3.27l-2.51,1.32a7.77,7.77,0,0,0,7.55,4.76Zm19.09,0c4.33,0,6.64-2.51,7.55-6.23l-3-.69c-.71,2.82-2.08,4-4.51,4-3.17,0-5.07-2.46-5.07-6.91,0-4.26,1.85-6.71,5-6.71,2.48,0,3.57,1.26,4.28,3.74l3-.86c-.83-3.42-2.91-5.82-7.27-5.82-4.71,0-8.23,3.39-8.23,9.67,0,6.46,3.42,9.78,8.23,9.78Zm12.36-.36h3.17V70.85h8.51v8.33h3.16V60.44h-3.16v7.47h-8.51V60.44H421.1V79.18Zm28.19.36c4.73,0,8.43-3.42,8.43-9.73s-3.7-9.72-8.43-9.72-8.48,3.42-8.48,9.72,3.72,9.73,8.48,9.73Zm0-2.86c-3.19,0-5.29-2.46-5.29-6.87S446.1,63,449.29,63s5.24,2.41,5.24,6.81-2.1,6.87-5.24,6.87Zm20.87,2.86c4.73,0,8.43-3.42,8.43-9.73s-3.7-9.72-8.43-9.72-8.49,3.42-8.49,9.72,3.73,9.73,8.49,9.73Zm0-2.86c-3.19,0-5.3-2.46-5.3-6.87S467,63,470.16,63s5.24,2.41,5.24,6.81-2.1,6.87-5.24,6.87Zm13.29,2.5h11.8V76.3h-8.63V60.44h-3.17V79.18Z"/></svg>