<svg id="Layer_1" data-name="Layer 1" xmlns="http://www.w3.org/2000/svg" viewBox="0 0 515.6 171.56"><defs><style>.cls-1{fill:#0083a7;}.cls-2{fill:none;stroke:#fff;stroke-width:1.35px;}.cls-3{fill:#fff;}.cls-4{fill:#45555f;}</style></defs><title>mcl-color-logo</title><path class="cls-1" d="M21.61,90.19c-1.84-12.62-1.13-54.37-1.13-54.37l73.9,0s.78,43.56-1.25,55.69c-4.64,27.7-35.67,44.18-35.67,44.18S26.52,123.85,21.61,90.19Z"/><path class="cls-2" d="M24.94,89.78c-1.67-11.45-1-49.31-1-49.31l67,0S91.65,80,89.81,91c-4.2,25.13-32.36,40.07-32.36,40.07S29.39,120.31,24.94,89.78Z"/><rect class="cls-3" x="50.75" y="90" width="14.37" height="6.14"/><path class="cls-3" d="M90.43,53.39a17,17,0,0,0-4.54-.72,13.49,13.49,0,0,0-10.52,5L72.9,48.8H61.53L57.68,65.63,53.81,48.89H42.63L29.13,96.14H46V90H38L48.4,54.05,57.74,87l9.77-33.16L77.78,90H69.91v6.14H86L81.24,78.91a13.5,13.5,0,0,0,4.65.83,17.3,17.3,0,0,0,4.1-.38l.26-7.14c-.88,1-2.93,1.33-4.36,1.33a7.35,7.35,0,1,1,0-14.69,6.64,6.64,0,0,1,4.4,1.41Z"/><path class="cls-3" d="M41.91,113.88c1.49,0,2-.18,2-.64v-7.32c0-.82-.36-1.18-2.06-1.14v-.64l4.32-.31v9.41c0,.46.48.6,2,.64v.66H41.91Z"/><path class="cls-3" d="M51.53,109.47a3,3,0,0,1-1.87-2.65c0-1.8,1.42-3.16,3.81-3.16s3.71,1.17,3.71,2.52c0,1.17-.78,1.89-2.19,2.47,1.61.67,2.52,1.56,2.52,3,0,1.82-1.73,3.21-4,3.21-2.83,0-4.19-1.15-4.19-2.74C49.34,110.91,50.17,110,51.53,109.47Zm.77.34a2.55,2.55,0,0,0-1.11,2.11,2.16,2.16,0,0,0,2.24,2.18,1.79,1.79,0,0,0,2-1.84c0-1-.69-1.61-2.76-2.31A1.57,1.57,0,0,1,52.3,109.81Zm2-1.4a2.5,2.5,0,0,0,1.06-2.14,1.86,1.86,0,0,0-2-1.89A1.58,1.58,0,0,0,51.65,106C51.65,107.16,52.69,107.83,54.31,108.41Z"/><path class="cls-3" d="M59,113.88c1.49,0,2-.18,2-.64v-7.32c0-.82-.36-1.18-2.06-1.14v-.64l4.32-.31v9.41c0,.46.48.6,2,.64v.66H59Z"/><path class="cls-3" d="M66.5,113.88c1.49,0,2-.18,2-.64v-7.32c0-.82-.36-1.18-2.06-1.14v-.64l4.32-.31v9.41c0,.46.48.6,2,.64v.66H66.5Z"/><path class="cls-4" d="M161.13,78.85a43.11,43.11,0,0,0-6-.29h-.77a42.4,42.4,0,0,0-6,.29.9.9,0,0,1-.89-1,1,1,0,0,1,.89-1.07c.59,0,1.18.06,4,.06V48.6L140.76,79.15c-.18.41-.35.59-1,.59a.91.91,0,0,1-1-.59L127.5,48.42V76.84c2.84,0,3.43-.06,4-.06a1,1,0,0,1,.88,1.07.9.9,0,0,1-.88,1,45.43,45.43,0,0,0-10.25,0,.93.93,0,0,1-.88-1,1,1,0,0,1,.88-1.07c.6,0,1.19.06,4,.06V42.5c-2.84,0-3.43.06-4,.06a1,1,0,0,1-.88-1.07,1,1,0,0,1,.88-1,43.8,43.8,0,0,0,5.15.29H129c1.3,0,1.07.84,1.36,1.72l10.72,29.72L152.37,42.5c.29-.77.23-1.66,1.24-1.72h1.48a43.11,43.11,0,0,0,6-.29,1,1,0,0,1,.89,1,1,1,0,0,1-.89,1.07c-.59,0-1.19-.06-4.09-.06V76.84c2.9,0,3.5-.06,4.09-.06a1,1,0,0,1,.89,1.07A.94.94,0,0,1,161.13,78.85Z"/><path class="cls-4" d="M176.23,56.41c-4.38,0-6.69,2.85-6.69,10.66s2.72,10.54,6.75,10.54c3.14,0,5.09-1.72,6.21-4.91.12-.42.36-1,.95-1a.87.87,0,0,1,.89.89,3.75,3.75,0,0,1-.24,1.12c-1.95,4.56-5.09,5.92-8.58,5.92-6.4,0-10.72-5.09-10.72-12.61s4.32-12.55,10.72-12.55c4.56,0,8.52,2.84,8.52,6.57a2.81,2.81,0,0,1-2.72,3.08,2.63,2.63,0,0,1-2.61-2.6A2.57,2.57,0,0,1,180.85,59,5,5,0,0,0,176.23,56.41Z"/><path class="cls-4" d="M207.31,76.48c3.38,0,4.86-2.84,4.86-7.57a.9.9,0,0,1,1-.89.85.85,0,0,1,.94.89c0,.59-.29,4.73-.29,7.16v1.84a1,1,0,0,1-.89,1c-.59,0-2.07-.24-3.32-.24-5.21,0-13.55-.11-15.69-.11a43.29,43.29,0,0,0-6,.29.93.93,0,0,1-.88-1,1,1,0,0,1,.88-1.07c.6,0,1.19.06,4,.06V42.5c-2.84,0-3.43.06-4,.06a1,1,0,0,1-.88-1.07,1,1,0,0,1,.88-1,43.29,43.29,0,0,0,6,.29h.71a42.93,42.93,0,0,0,6-.29,1,1,0,0,1,.89,1,1,1,0,0,1-.89,1.07c-.59,0-1.18-.06-4-.06v34Z"/><path class="cls-4" d="M236.74,71.75c-.53,0-.77.53-1,1a7,7,0,0,1-7.1,5c-4.27,0-6.81-3.49-6.81-10.6,0-.77,0-1.54.06-2.19h15.51c.59-5.68-3.14-10.36-9.41-10.36-5.63,0-10.9,5-10.9,12.55,0,7.93,5.69,12.61,10.84,12.61,3.43,0,7.52-1.36,9.47-5.92a3.75,3.75,0,0,0,.24-1.12A.89.89,0,0,0,236.74,71.75Zm-8.17-15.34c2.49,0,4.5,1.43,4.5,4.39a7,7,0,0,1-.36,2H222.23C223.12,57.6,225.73,56.41,228.57,56.41Z"/><path class="cls-4" d="M264,76.48a1,1,0,0,0-1.36-.11c-.65.53-.71,1.24-1.48,1.24S260,77.14,260,75.48v-13c0-5.62-3-8-8-8-3.56,0-7.58,2.37-7.58,5.21a2.41,2.41,0,0,0,2.43,2.49,2.45,2.45,0,0,0,2.42-2.49,2.3,2.3,0,0,0-1.06-2c.47-.65,1.65-1.42,3.79-1.42,2.42,0,3.84,1.12,3.84,4v5.81c-6.8,0-13.38,2.3-13.38,7.93,0,3.55,2.61,5.45,5.75,5.45,2.3,0,4.91-1,7.75-3.56a3.78,3.78,0,0,0,3.73,3.44,5.8,5.8,0,0,0,4-1.36C264,77.67,264.33,76.9,264,76.48ZM255.8,74c-2.72,2.43-4.5,2.84-5.74,2.84a3.33,3.33,0,0,1-3.2-3.61c0-3.49,2.49-5.45,8.94-5.45Z"/><path class="cls-4" d="M284.52,54.52c5.27,0,7.34,3.73,7.34,8.76V76.84c2.84,0,3.2-.06,3.79-.06a1,1,0,0,1,.89,1.07.94.94,0,0,1-.89,1,37,37,0,0,0-5.8-.29h-.24a36.3,36.3,0,0,0-5.74.29.9.9,0,0,1-.89-1,1,1,0,0,1,.89-1.07c.59,0,.94.06,3.79.06V61.27c0-3.2-1-4.5-3.56-4.5-4,0-8.17,5.21-8.17,11.19v8.88c2.85,0,3.2-.06,3.79-.06a1,1,0,0,1,.89,1.07.94.94,0,0,1-.89,1,36.8,36.8,0,0,0-5.8-.29h-.23a35.59,35.59,0,0,0-5.75.29.9.9,0,0,1-.89-1,1,1,0,0,1,.89-1.07c.59,0,.89.06,3.79.06V57.3a34.71,34.71,0,0,0-3.79.18,1,1,0,0,1-.89-1.07.9.9,0,0,1,.89-1c.59,0,.89.06,3.79.06.95,0,2.72-.24,3.31-.24a1,1,0,0,1,.89,1.07v4.91C277.12,58.07,280.55,54.52,284.52,54.52Z"/><path class="cls-4" d="M315.66,67.07v9.77c1.9,0,2.2-.06,2.79-.06a1,1,0,0,1,.88,1.07.9.9,0,0,1-.88,1,33.45,33.45,0,0,0-4.74-.29h-.29a36.54,36.54,0,0,0-5.75.29.9.9,0,0,1-.89-1,1,1,0,0,1,.89-1.07c.59,0,.95.06,3.79.06V56.3c-2.84,0-3.2.05-3.79.05a.9.9,0,0,1-.89-1,1,1,0,0,1,.89-1.06,36.54,36.54,0,0,0,5.75.29h.29a27.85,27.85,0,0,0,4.74-.29,1,1,0,0,1,.88,1.06.9.9,0,0,1-.88,1c-.59,0-1.19-.05-2.79-.05V65h10.48V56.3c-1.83,0-2.19.05-2.78.05a.9.9,0,0,1-.89-1,1,1,0,0,1,.89-1.06,28.28,28.28,0,0,0,4.8.29h.23a35.75,35.75,0,0,0,5.75-.29,1,1,0,0,1,.88,1.06.9.9,0,0,1-.88,1c-.6,0-.89-.05-3.79-.05V76.84c2.9,0,3.19-.06,3.79-.06a1,1,0,0,1,.88,1.07.9.9,0,0,1-.88,1,35.75,35.75,0,0,0-5.75-.29h-.23a29.17,29.17,0,0,0-4.8.29.9.9,0,0,1-.89-1,1,1,0,0,1,.89-1.07c.59,0,1,.06,2.78.06V67.07Z"/><path class="cls-4" d="M348.23,54c-6.16,0-11.37,5.09-11.37,12.61s5.21,12.55,11.37,12.55,11.37-5,11.37-12.55S354.44,54,348.23,54Zm0,23.26c-4.32,0-6.63-2.6-6.63-10.65s2.31-10.66,6.63-10.66,6.63,2.6,6.63,10.66S352.55,77.25,348.23,77.25Z"/><path class="cls-4" d="M372.44,79.15a11.15,11.15,0,0,1-6.16-2.07,1.62,1.62,0,0,0-.41,1c0,.77-.18,1.07-.89,1.07s-1-.41-1-1V71.39c0-.59.18-1.06.94-1.06s.95.59.95,1.06c0,3.67,3.73,5.93,6.28,5.93,2.78,0,5.39-.95,5.39-4.21,0-2.07-1.55-3.25-4.74-4.2l-2.37-.71c-3.08-1-6.75-2.9-6.75-7.17,0-4.73,4-7,8.11-7a8.56,8.56,0,0,1,5,1.6.5.5,0,0,0,.36-.54c0-.53.18-1.06.89-1.06s.94.47.94,1v5.87c0,.47-.17,1-.88,1a.87.87,0,0,1-.95-1,5.08,5.08,0,0,0-5.39-5c-2.54,0-5,1.19-5,4,0,2,1.66,3.25,3.67,3.79l2.78.71c4.62,1.24,7.52,3.61,7.52,7.7C380.73,76.84,376.7,79.15,372.44,79.15Z"/><path class="cls-4" d="M395.07,69c6.51,0,10-3.07,10-7.28s-3.5-7.22-10-7.22c-2.13,0-3.08.06-5.09.06a31.76,31.76,0,0,1-5.15-.29,1,1,0,0,0-.89,1.06.9.9,0,0,0,.89,1c.59,0,.95-.05,3.79-.05V76.84c-2.84,0-3.2-.06-3.79-.06a1,1,0,0,0-.89,1.07.9.9,0,0,0,.89,1,36.46,36.46,0,0,1,5.74-.29h.3a36.46,36.46,0,0,1,5.74.29.9.9,0,0,0,.89-1,1,1,0,0,0-.89-1.07c-.59,0-.95.06-3.79.06V69Zm-2.25-12.78h2.25c4.26,0,5.8,1.54,5.8,5.5s-1.54,5.63-5.8,5.63h-2.25Z"/><path class="cls-4" d="M420.66,76.78a1,1,0,0,1,.89,1.07.9.9,0,0,1-.89,1,36.3,36.3,0,0,0-5.74-.29h-.29a36.54,36.54,0,0,0-5.75.29.9.9,0,0,1-.89-1,1,1,0,0,1,.89-1.07c.59,0,.95.06,3.79.06V56.3c-2.84,0-3.2.05-3.79.05a.9.9,0,0,1-.89-1,1,1,0,0,1,.89-1.06,36.54,36.54,0,0,0,5.75.29h.29a36.3,36.3,0,0,0,5.74-.29,1,1,0,0,1,.89,1.06.9.9,0,0,1-.89,1c-.59,0-.94-.05-3.79-.05V76.84C419.72,76.84,420.07,76.78,420.66,76.78Z"/><path class="cls-4" d="M445.7,62.45a.94.94,0,0,1-1-.88c0-4.27-.94-5.33-4.32-5.33h-2.48v20.6c2.84,0,3.19-.06,3.78-.06a1,1,0,0,1,.89,1.07.9.9,0,0,1-.89,1,36.3,36.3,0,0,0-5.74-.29h-.23a37.21,37.21,0,0,0-5.81.29.94.94,0,0,1-.89-1,1,1,0,0,1,.89-1.07c.6,0,.95.06,3.79.06V56.24h-2.43c-3.43,0-4.38,1.06-4.38,5.33a.91.91,0,0,1-.94.88.88.88,0,0,1-.95-.88c0-.6.24-2.25.24-4.68v-1.6a1,1,0,0,1,.89-1.07c.53,0,2.36.3,3.31.3h12.79c.88,0,2.72-.3,3.25-.3a1,1,0,0,1,.89,1.07v1.6c0,2.43.3,4.08.3,4.68A.89.89,0,0,1,445.7,62.45Z"/><path class="cls-4" d="M471.81,76.78c-.59,0-.77.06-2.67.06l-9.29-22c-.24-.6-.36-.83-1-.83s-.77.3-.94.83l-9.6,22c-1.6,0-2.07-.06-2.66-.06a1,1,0,0,0-.89,1.07.9.9,0,0,0,.89,1,20.55,20.55,0,0,1,3.73-.29,22.22,22.22,0,0,1,3.85.29.94.94,0,0,0,.89-1,1,1,0,0,0-.89-1.07c-.6,0-1.3.06-2.79.06l2.19-5.09h9.89l2.13,5.09c-1.72,0-1.89-.06-2.49-.06a1,1,0,0,0-.88,1.07.93.93,0,0,0,.88,1,28.89,28.89,0,0,1,4.74-.29H467a26.57,26.57,0,0,1,4.8.29.94.94,0,0,0,.89-1A1,1,0,0,0,471.81,76.78Zm-18.24-7.1,4.15-9.54,4,9.54Z"/><path class="cls-4" d="M489,77c3.37,0,4.32-1.13,4.32-5.33a.91.91,0,0,1,1-.89.84.84,0,0,1,.88.89c0,.59-.23,2.19-.23,4.62v1.66a.94.94,0,0,1-.89,1c-.53,0-2.37-.24-3.32-.24l-10.06-.11a36.3,36.3,0,0,0-5.74.29.9.9,0,0,1-.89-1,1,1,0,0,1,.89-1.07c.59,0,.94.06,3.79.06V56.3c-2.85,0-3.2.05-3.79.05a.9.9,0,0,1-.89-1,1,1,0,0,1,.89-1.06,36.3,36.3,0,0,0,5.74.29h.3a36.46,36.46,0,0,0,5.74-.29,1,1,0,0,1,.88,1.06.9.9,0,0,1-.88,1c-.59,0-1-.05-3.79-.05V77Z"/><path class="cls-4" d="M348.66,92.84h-1.74l-3.71,10.51h1.66l.86-2.48h4l.85,2.48h1.81Zm-2.39,6.47,1.46-4.24h0l1.43,4.24Z"/><polygon class="cls-4" points="354.76 103.35 356.53 103.35 356.53 98.9 360.02 98.9 360.02 97.33 356.53 97.33 356.53 94.53 361.35 94.53 361.35 92.89 354.76 92.89 354.76 103.35 354.76 103.35"/><polygon class="cls-4" points="363.78 103.35 365.56 103.35 365.56 98.9 369.05 98.9 369.05 97.33 365.56 97.33 365.56 94.53 370.38 94.53 370.38 92.89 363.78 92.89 363.78 103.35 363.78 103.35"/><polygon class="cls-4" points="372.92 103.35 374.7 103.35 374.7 92.89 372.92 92.89 372.92 103.35 372.92 103.35"/><polygon class="cls-4" points="378.04 103.35 384.63 103.35 384.63 101.74 379.81 101.74 379.81 92.89 378.04 92.89 378.04 103.35 378.04 103.35"/><polygon class="cls-4" points="387.18 103.35 388.97 103.35 388.97 92.89 387.18 92.89 387.18 103.35 387.18 103.35"/><path class="cls-4" d="M396.92,92.84h-1.74l-3.71,10.51h1.65l.87-2.48h4l.85,2.48h1.81Zm-2.4,6.47L396,95.07h0l1.43,4.24Z"/><polygon class="cls-4" points="404.15 103.35 405.92 103.35 405.92 94.53 409.15 94.53 409.15 92.89 400.93 92.89 400.93 94.53 404.15 94.53 404.15 103.35 404.15 103.35"/><polygon class="cls-4" points="411.57 103.35 418.61 103.35 418.61 101.74 413.34 101.74 413.34 98.7 417 98.7 417 97.13 413.34 97.13 413.34 94.53 418.33 94.53 418.33 92.89 411.57 92.89 411.57 103.35 411.57 103.35"/><polygon class="cls-4" points="121.85 103.33 123.62 103.33 123.62 98.68 128.37 98.68 128.37 103.33 130.14 103.33 130.14 92.87 128.37 92.87 128.37 97.04 123.62 97.04 123.62 92.87 121.85 92.87 121.85 103.33 121.85 103.33"/><path class="cls-4" d="M138,92.82h-1.74l-3.71,10.51h1.65l.87-2.49h4l.85,2.49h1.81Zm-2.4,6.47L137,95.05h0l1.43,4.24Z"/><path class="cls-4" d="M149.43,99a2.77,2.77,0,0,0,2.32-3c0-2.14-1.44-3.14-3.93-3.14h-3.75v10.46h1.74V99.2h1.84l2.35,4.13h1.9Zm-3.62-1.31V94.48h1.93c1.49,0,2.28.36,2.28,1.57s-.8,1.61-2.27,1.61Z"/><polygon class="cls-4" points="157.15 103.38 158.81 103.38 162.45 92.87 160.78 92.87 158.04 101.03 158.01 101.03 155.31 92.87 153.51 92.87 157.15 103.38 157.15 103.38"/><path class="cls-4" d="M168.6,92.82h-1.74l-3.7,10.51h1.65l.86-2.49h4l.85,2.49h1.81Zm-2.39,6.47,1.46-4.24h0l1.42,4.24Z"/><path class="cls-4" d="M180.06,99a2.77,2.77,0,0,0,2.32-3c0-2.14-1.44-3.14-3.93-3.14H174.7v10.46h1.74V99.2h1.84l2.35,4.13h1.89Zm-3.62-1.31V94.48h1.92c1.5,0,2.28.36,2.28,1.57s-.79,1.61-2.26,1.61Z"/><path class="cls-4" d="M188.31,92.87h-3v10.46h3c3.24,0,5.43-1.54,5.43-5.27S191.59,92.87,188.31,92.87Zm.15,8.88h-1.37V94.5h1.34c2.41,0,3.54,1,3.54,3.56S190.86,101.75,188.46,101.75Z"/><path class="cls-4" d="M200.87,103.33h1.6V95.46h0a17.79,17.79,0,0,0,.63,2.2l2,5.67h1.56l2-5.67c.24-.74.47-1.42.63-2.13h0v7.8h1.72V92.87h-2.38l-2.72,8.3h0l-2.8-8.3h-2.33v10.46Z"/><polygon class="cls-4" points="214.35 103.33 221.39 103.33 221.39 101.72 216.12 101.72 216.12 98.68 219.78 98.68 219.78 97.11 216.12 97.11 216.12 94.5 221.11 94.5 221.11 92.87 214.35 92.87 214.35 103.33 214.35 103.33"/><path class="cls-4" d="M227,92.87h-3v10.46h3c3.24,0,5.43-1.54,5.43-5.27S230.25,92.87,227,92.87Zm.15,8.88h-1.37V94.5h1.35c2.4,0,3.53,1,3.53,3.56S229.51,101.75,227.12,101.75Z"/><polygon class="cls-4" points="235.24 103.33 237.03 103.33 237.03 92.87 235.24 92.87 235.24 103.33 235.24 103.33"/><path class="cls-4" d="M244.45,103.53a4.06,4.06,0,0,0,4.22-3.48L247,99.67c-.4,1.57-1.17,2.25-2.52,2.25-1.77,0-2.83-1.38-2.83-3.86s1-3.75,2.8-3.75c1.38,0,2,.71,2.39,2.09l1.68-.48a3.81,3.81,0,0,0-4.06-3.25c-2.63,0-4.6,1.89-4.6,5.4s1.91,5.46,4.6,5.46Z"/><path class="cls-4" d="M255.54,92.82H253.8l-3.71,10.51h1.66l.86-2.49h4l.85,2.49h1.82Zm-2.39,6.47,1.46-4.24h0l1.42,4.24Z"/><polygon class="cls-4" points="261.64 103.33 268.23 103.33 268.23 101.72 263.41 101.72 263.41 92.87 261.64 92.87 261.64 103.33 261.64 103.33"/><path class="cls-4" d="M278.16,103.53c2.49,0,3.95-1.34,3.95-3,0-2-1.59-2.62-3.57-3.2-1.71-.51-2.46-.83-2.46-1.81,0-.77.66-1.19,1.83-1.19a2.88,2.88,0,0,1,2.64,1.53l1.29-.89a4.12,4.12,0,0,0-3.92-2.25c-2.13,0-3.58,1.17-3.58,3,0,2,1.63,2.55,3.65,3.14,1.73.51,2.38.94,2.38,1.84s-.86,1.36-2.14,1.36a3,3,0,0,1-2.89-1.82l-1.4.73a4.35,4.35,0,0,0,4.22,2.66Z"/><path class="cls-4" d="M288.83,103.53a4.06,4.06,0,0,0,4.21-3.48l-1.69-.38c-.39,1.57-1.15,2.25-2.51,2.25-1.77,0-2.83-1.38-2.83-3.86s1-3.75,2.81-3.75c1.38,0,2,.71,2.38,2.09l1.69-.48a3.82,3.82,0,0,0-4.06-3.25c-2.64,0-4.6,1.89-4.6,5.4s1.91,5.46,4.6,5.46Z"/><polygon class="cls-4" points="295.73 103.33 297.5 103.33 297.5 98.68 302.25 98.68 302.25 103.33 304.02 103.33 304.02 92.87 302.25 92.87 302.25 97.04 297.5 97.04 297.5 92.87 295.73 92.87 295.73 103.33 295.73 103.33"/><path class="cls-4" d="M311.47,92.67c-2.66,0-4.73,1.91-4.73,5.43s2.07,5.43,4.73,5.43,4.71-1.91,4.71-5.43S314.12,92.67,311.47,92.67Zm0,9.26c-1.78,0-3-1.37-3-3.83s1.17-3.81,3-3.81,2.93,1.35,2.93,3.81S313.22,101.93,311.47,101.93Z"/><path class="cls-4" d="M323.13,92.67c-2.67,0-4.74,1.91-4.74,5.43s2.07,5.43,4.74,5.43,4.71-1.91,4.71-5.43S325.77,92.67,323.13,92.67Zm0,9.26c-1.79,0-3-1.37-3-3.83s1.17-3.81,3-3.81,2.93,1.35,2.93,3.81S324.88,101.93,323.13,101.93Z"/><polygon class="cls-4" points="330.55 103.33 337.15 103.33 337.15 101.72 332.32 101.72 332.32 92.87 330.55 92.87 330.55 103.33 330.55 103.33"/></svg>