<?xml version="1.0" encoding="utf-8"?><svg id="mass-eye-ear-color" xmlns="http://www.w3.org/2000/svg" viewBox="0 0 825.41 215.17"><defs><style>.cls-1{fill:#007fa4;}.cls-2{fill:#fff;}.cls-3{fill:#455560;}</style></defs><title>Artboard 1</title><path class="cls-1" d="M175.15,19H21.5a1.37,1.37,0,0,0-1.36,1.4c.05,2.42,1.29,59.52,2.57,72.25l.05.44A132.23,132.23,0,0,0,35.4,139C48.11,165.07,69,185.48,97.59,199.68h0a1.41,1.41,0,0,0,.74.21l.25,0a1.35,1.35,0,0,0,.47-.18h0c28.56-14.19,49.49-34.61,62.2-60.68A132.23,132.23,0,0,0,173.9,93.06l0-.44c1.29-12.73,2.53-69.83,2.58-72.25a1.35,1.35,0,0,0-.39-1,1.39,1.39,0,0,0-1-.41Z"/><path class="cls-2" d="M174.49,21.28a1.33,1.33,0,0,0-1-.4H23.12a1.31,1.31,0,0,0-.95.4,1.33,1.33,0,0,0-.38,1c.05,2.38,1.26,58.27,2.52,70.74l0,.43a129.45,129.45,0,0,0,12.38,45c12.44,25.52,32.92,45.51,60.88,59.41h0a1.42,1.42,0,0,0,.72.2l.24,0a1.43,1.43,0,0,0,.47-.18h0c28-13.9,48.45-33.88,60.89-59.41a129.45,129.45,0,0,0,12.38-45l0-.43c1.26-12.47,2.47-68.36,2.52-70.74A1.33,1.33,0,0,0,174.49,21.28ZM95.63,76.36a35.57,35.57,0,0,0-12.43,4L56,24.83h36.2ZM105,24.83h36L114.78,79.26a35.24,35.24,0,0,0-12.55-3.13h-.38Zm-65.36,0L78.1,83.75a36.24,36.24,0,0,0-8.48,9.55L26.94,64.58l-.06,0c-.53-15.79-.94-33.12-1.09-39.71ZM28.24,92.58c-.27-2.69-.55-7.48-.8-13.32h0l.47.23,39,19.2A36.86,36.86,0,0,0,65,119.88c.19.88.4,1.75.65,2.62-11.87-4.08-21-6.34-29.2-6.59-1.76,0-2.93,0-2.93,0a10.24,10.24,0,0,1-1.13,0A131.54,131.54,0,0,1,28.28,93ZM98.33,193.72c-24-12.15-42.24-29-54.32-50.07.35.16.72.34,1.14.57.14.07,4,1.71,11.24,10.71,2.79,3.48,11.74,12,20.15,15.93,8.15,3.85,14.54,5.28,21.84,4.89a31.18,31.18,0,0,0,17.42-6.37c11-8.68,10.42-8.32,16.59-12.87,8.56-6.32,14.83-5.17,14.83-5.17l.57.08C135.88,168.9,119.32,183.1,98.33,193.72Zm58.05-57.08c-1.2,2.48-2.51,4.88-3.87,7.25l-.69,0-.16,0c-.64-.06-1.27-.13-1.9-.21l-.09,0c-.64-.09-1.27-.2-1.9-.33h-.07c-.63-.13-1.26-.28-1.88-.45l0,0c-.62-.17-1.22-.37-1.81-.59h0c-.59-.23-1.17-.48-1.72-.75h0a14.92,14.92,0,0,1-1.61-.92h0c-.63-.42-1.25-.8-1.86-1.17l-.48-.28c-.53-.32-1.06-.61-1.57-.89l-.23-.13c-.59-.32-1.16-.6-1.73-.88l-.37-.18c-.49-.22-1-.44-1.43-.64l-.26-.11q-.82-.34-1.62-.63l-.2-.07c-.48-.17-.94-.33-1.4-.47l-.21-.07a29.8,29.8,0,0,0-2.92-.74c-6.86-1.38-10.68.46-10.68.46a12.56,12.56,0,0,1,6.08,4.64h0l.26.43c.07.12.14.23.2.35s.16.29.23.44.11.24.16.36.14.3.2.46.08.25.13.37c.09.27.17.55.24.83,0,.13.07.27.1.4s.05.32.08.48.1.73.11.89,0,.75,0,.91,0,1-.08,1.26,0,.34-.06.51,0,.3-.08.46-.06.33-.1.49-.06.3-.1.45-.11.37-.16.55l-.12.4c-.1.29-.21.59-.33.88,0,.13-.1.25-.16.37s-.17.39-.26.59l-.21.4c-.09.19-.2.38-.31.57s-.13.25-.21.37-.3.5-.47.74l-.15.23c-.19.28-.4.56-.62.84l-.25.32-.5.6-.29.33-.58.61-.26.26c-.29.29-.58.57-.89.84l-.19.16c-.26.23-.53.45-.8.67l-.34.26c-.24.19-.49.37-.74.55l-.37.26c-.29.2-.59.4-.9.59l-.24.15c-.39.25-.8.48-1.21.71l-.34.18-1,.49-.45.21-1,.43-.43.19c-.47.19-1,.38-1.44.56h0c-.49.17-1,.32-1.45.47l-.35.1c-.48.13-1,.25-1.43.35l-.1,0c-.45.1-.9.18-1.35.25l-.35,0c-.47.07-.94.12-1.41.16h-.17l-1.29.06h-.59l-.9,0h-.36c-.49,0-1-.06-1.48-.11l-.35-.05-1.13-.15-.52-.09-1-.19-.55-.12q-.48-.1-1-.24l-.52-.14-1.07-.32-.39-.12q-.72-.24-1.44-.51l-.3-.12c-.39-.14-.77-.3-1.15-.46l-.5-.21-1-.43-.54-.25-.93-.46-.52-.26-1-.55-.4-.21L81,158.39a2.26,2.26,0,0,0-.26-.16l-1.15-.71-.49-.31-.92-.6-.53-.35-.9-.61-.51-.36-1-.69-.41-.3-1.38-1-.19-.15c-.4-.29-.79-.6-1.18-.9l-.47-.37-.91-.72-.52-.41-.86-.7-.51-.42-.93-.78-.41-.34-1.34-1.13-.14-.13-1.18-1-.5-.43c-.28-.25-.56-.5-.85-.74l-.51-.46-.83-.73-.52-.46-.86-.77-.43-.38-1.07-1-.19-.17h0c-.53-.47-1.06-.92-1.6-1.35l-.51-.4c-.38-.29-.76-.58-1.14-.85l-.57-.4c-.38-.27-.77-.52-1.15-.77l-.5-.32c-.55-.33-1.09-.66-1.63-1l-.13-.06c-.51-.28-1-.54-1.52-.78l-.53-.25c-.38-.18-.75-.35-1.13-.51l-.57-.24L47,133.76l-.49-.18c-.53-.19-1.05-.37-1.57-.53l-.22-.07-1.35-.38-.52-.13c-.35-.09-.7-.18-1-.25l-.53-.12-1.06-.2-.43-.08-.65-.11H38c-1.1-2.54-2.07-5-2.93-7.44a18.38,18.38,0,0,1,1.84-.27h.16c1,0,2.09.06,3.17.16l.51,0,1.17.14.57.08,1.24.2.48.08c.58.1,1.16.21,1.75.34l.14,0c.55.11,1.1.24,1.66.37l.55.13,1.33.34.58.15,1.47.4.42.12,2,.58.24.07,1.75.55.58.19,1.5.49.59.2,1.77.59.29.11c.73.24,1.46.5,2.2.76l.23.08,2,.71.47.17,1.92.69.32.12,2.55.93,6,2.17c22,7.93,30.64-8.19,23.76-16s-17.37-2.58-17.37-2.58c7-16.09,33-11.83,50-.09.48.34,1,.66,1.46,1l.45.28.2.12.85.52.49.28c.38.22.76.44,1.15.64l.35.2,1.5.76.34.16c.39.19.78.38,1.17.55l.5.22,1.08.47.45.18,1.46.58h0l1.5.54.45.15,1.07.35.48.15,1.13.33.35.1,1.45.39.29.08,1.15.27.45.11,1,.22.41.08,1.31.26h0l1.34.23.37.06.95.14.4.06,1.29.19c.39,0,.73.09,1,.15C159.61,129.57,158.13,133.07,156.38,136.64Zm12-43.63a130.26,130.26,0,0,1-5.18,26.39l-.2,0a52.75,52.75,0,0,1-24.94-8.69c-.73-.5-1.49-1-2.26-1.48-.06-.66-.13-1.32-.22-2a36.92,36.92,0,0,0-2.77-9.7l36-18.09.43-.22c-.26,5.86-.53,10.65-.8,13.34Zm1.39-28.23L129.74,92a36.29,36.29,0,0,0-9.46-9.6l37.94-57.56h12.64C170.71,31.45,170.3,48.93,169.77,64.78Z"/><path class="cls-3" d="M266,34c0-2.59.14-4.36.62-5.11s1.22-.88,2.86-1l2.86-.2V25.58c-2,.07-4.16.21-6.34.21s-4.29-.14-6.47-.21L241.71,63.47l-18-37.89c-2.11.07-4.29.21-6.47.21s-4.36-.14-6.47-.21v2.05l3,.2c1.64.14,2.46.34,2.87,1s.61,2.52.61,5.11V64.55c0,2.6-.14,4.37-.61,5.11s-1.23.89-2.87,1l-3,.21v2c2.72-.06,5.45-.2,7.9-.2,2.72,0,5.18.14,8.17.2v-2l-3-.21c-1.64-.13-2.46-.33-2.86-1s-.62-2.51-.62-5.11V33.62h.14l18.87,40h1.37c1.22-2.86,2.38-5.86,3.68-8.66l12.12-25.75c.89-1.84,1.84-3.75,2.86-5.59h.14V64.55c0,2.6-.14,4.37-.61,5.11s-1.23.89-2.87,1l-2.31.21v2c2.59-.13,5.79-.2,9.13-.2,3.13,0,6.34.07,9.88.2v-2l-3.27-.21c-1.64-.06-2.46-.33-2.86-1s-.62-2.51-.62-5.11Z"/><path class="cls-3" d="M299.56,25h-2.18c-1.84,4.9-4.16,10-6.27,14.72L279,67.35c-.74,1.77-2,3.2-3.68,3.34l-2.52.2v2c2.59-.06,5.18-.2,7.84-.2,2,0,4.56.14,7.84.2v-2l-2.53-.2c-2.11-.21-3.27-.48-3.27-1.91,0-1.09,1.77-5.66,2.39-7.08l1.9-4.57h19.63L309.71,65a16,16,0,0,1,1.43,4.36c0,.82-1.36,1.3-2.79,1.37l-3.2.2v2c3.68-.06,6.67-.2,9.06-.2,3.07,0,6.06.14,9.06.2v-2l-2.32-.2c-1.22-.14-2-1-2.72-2.32s-1.57-3.27-2.18-4.63ZM288.11,54.4l8.66-20.3,8.58,20.3Z"/><path class="cls-3" d="M354.31,36.89a47.84,47.84,0,0,1,1-9.6,31.69,31.69,0,0,0-12.33-2.86c-8.18,0-17.45,4.83-17.45,15.39,0,7.09,4.23,10.43,14.93,11.65,6.94.82,12,2.66,12,9.13,0,6.75-6.07,10.5-12.2,10.5-5.38,0-10.76-2.6-11.1-5.45l-.55-4.57h-2.18a60.15,60.15,0,0,1-.48,10.42,29.05,29.05,0,0,0,11.66,2.59c10.14,0,20.57-5.59,20.57-17.23,0-7.77-6.06-10.16-15.67-11.18-8.52-1-11.24-3.81-11.24-8.45,0-6.74,5.31-9.94,10.08-9.94a15.12,15.12,0,0,1,7.43,1.63c2.52,1.57,2.79,2.25,3,4.09l.41,3.88Z"/><path class="cls-3" d="M393.07,36.89a47.81,47.81,0,0,1,.95-9.6,31.64,31.64,0,0,0-12.33-2.86c-8.18,0-17.45,4.83-17.45,15.39,0,7.09,4.23,10.43,14.92,11.65,6.95.82,12,2.66,12,9.13,0,6.75-6.07,10.5-12.2,10.5-5.38,0-10.77-2.6-11.1-5.45l-.55-4.57h-2.18a60.15,60.15,0,0,1-.48,10.42,29,29,0,0,0,11.65,2.59c10.15,0,20.58-5.59,20.58-17.23,0-7.77-6.06-10.16-15.67-11.18-8.52-1-11.24-3.81-11.24-8.45,0-6.74,5.31-9.94,10.08-9.94a15.12,15.12,0,0,1,7.43,1.63c2.52,1.57,2.79,2.25,3,4.09l.41,3.88Z"/><path class="cls-3" d="M424,25h-2.18c-1.84,4.9-4.15,10-6.27,14.72L403.38,67.35c-.75,1.77-2,3.2-3.68,3.34l-2.52.2v2c2.59-.06,5.18-.2,7.83-.2,2,0,4.57.14,7.84.2v-2l-2.52-.2c-2.11-.21-3.27-.48-3.27-1.91,0-1.09,1.77-5.66,2.38-7.08l1.91-4.57H431L434.11,65a16,16,0,0,1,1.43,4.36c0,.82-1.37,1.3-2.8,1.37l-3.2.2v2c3.68-.06,6.68-.2,9.06-.2,3.07,0,6.07.14,9.07.2v-2l-2.32-.2c-1.23-.14-2-1-2.73-2.32s-1.56-3.27-2.18-4.63ZM412.51,54.4l8.65-20.3,8.58,20.3Z"/><path class="cls-3" d="M491.75,67l-.62-.68c-3.13,2.31-8.92,4.08-13.82,4.08-13.5,0-22.42-8.72-22.42-22.21,0-11.58,6.74-20.92,19.56-20.92a25.12,25.12,0,0,1,7.62,1.16c3.14,1.16,5.86,2.32,5.86,4.23v4.9H490a50.7,50.7,0,0,1,1.3-10.35,50.16,50.16,0,0,0-15.74-2.8C468,24.42,461,26.74,455.91,31s-8.31,10.5-8.31,18.33c0,15.47,11,24.8,27.39,24.8,4.15,0,10.9-1.29,14.85-3.68Z"/><path class="cls-3" d="M543.88,34c0-2.59.13-4.36.61-5.11s1.23-1,2.86-1l3.27-.2V25.58c-3.54.14-6.74.21-9.88.21-3.34,0-6.54-.07-10.08-.21v2.05l3.27.2c1.64.07,2.45.34,2.86,1s.61,2.52.61,5.11V46.09c-.81.07-2.65.14-5.65.14h-16c-3,0-4.83-.07-5.65-.14V34c0-2.59.14-4.36.62-5.11s1.22-1,2.86-1l3.27-.2V25.58c-3.55.14-6.75.21-9.88.21-3.34,0-6.54-.07-10.09-.21v2.05l3.28.2c1.63.07,2.45.34,2.85,1s.62,2.52.62,5.11V64.55c0,2.6-.14,4.37-.62,5.11s-1.22,1-2.85,1l-3.28.21v2c3.55-.13,6.75-.2,10.09-.2,3.13,0,6.33.07,9.88.2v-2l-3.27-.21c-1.64-.06-2.46-.33-2.86-1s-.62-2.51-.62-5.11V49.36c.82-.07,2.66-.13,5.65-.13h16c3,0,4.84.06,5.65.13V64.55c0,2.6-.13,4.37-.61,5.11s-1.22,1-2.86,1l-3.27.21v2c3.54-.13,6.74-.2,10.08-.2,3.14,0,6.34.07,9.88.2v-2l-3.27-.21c-1.63-.06-2.45-.33-2.86-1s-.61-2.51-.61-5.11Z"/><path class="cls-3" d="M562.15,58.15c0,12.47,6.82,15.94,18.4,15.94,13.77,0,19.28-5.85,19.28-20.44V34c0-2.59.14-4.36.62-5.11s1.23-.88,2.86-1l3-.2V25.58c-3,.07-5.45.21-8.17.21-2.46,0-5.18-.14-7.91-.21v2.05l3,.2c1.63.14,2.45.34,2.86,1s.61,2.52.61,5.11v21.8c0,11.32-6.68,14.11-14,14.11-9,0-14-2.79-14-12.47V34c0-2.59.14-4.36.61-5.11s1.23-1,2.86-1l3.28-.2V25.58c-3.55.14-6.75.21-9.89.21-3.34,0-6.53-.07-10.08-.21v2.05l3.27.2c1.64.07,2.45.34,2.86,1s.61,2.52.61,5.11Z"/><path class="cls-3" d="M639.61,36.89a47.84,47.84,0,0,1,1-9.6,31.74,31.74,0,0,0-12.34-2.86c-8.17,0-17.44,4.83-17.44,15.39,0,7.09,4.23,10.43,14.92,11.65,6.95.82,12,2.66,12,9.13,0,6.75-6.06,10.5-12.19,10.5-5.39,0-10.77-2.6-11.11-5.45l-.54-4.57h-2.18a60.15,60.15,0,0,1-.48,10.42,29.05,29.05,0,0,0,11.66,2.59c10.14,0,20.57-5.59,20.57-17.23,0-7.77-6.07-10.16-15.67-11.18-8.52-1-11.24-3.81-11.24-8.45,0-6.74,5.31-9.94,10.08-9.94A15.14,15.14,0,0,1,634,28.92c2.52,1.57,2.79,2.25,3,4.09l.42,3.88Z"/><path class="cls-3" d="M655.28,64.55c0,2.59-.14,4.37-.62,5.12s-1.23.88-2.86,1l-2.45.2v2c2.45-.07,4.7-.21,7.29-.21,4.22,0,9.6.14,14.85.21,5,.06,10.43-.14,13.43-.21A58.71,58.71,0,0,1,686,61.56h-2.39c-.47,4.08-1.35,7.08-2.37,7.63-1.24.68-8.18.88-13.77.88a23.93,23.93,0,0,1-5.72-.54V50.45c2.11-.2,4.63-.2,7.9-.2,4.16,0,6.47.27,7.22.81.34.21.48.82.55,1.71l.34,4h2c-.07-2.46-.2-5-.2-7.57s.13-5.1.2-7.9h-2l-.34,3.55a2.61,2.61,0,0,1-.55,1.77c-.75.47-3.06.75-7.22.75-3.27,0-5.72-.07-7.9-.21V29a23.43,23.43,0,0,1,5.72-.54c4.36,0,9.74.06,13.35,1.43.55.2.62.95.62,1.83v4.43h2.38a44.89,44.89,0,0,1,1.1-10.35c-2.66-.14-5.73-.21-8.8-.21-3.88,0-10.15.21-16.08.21-3.88,0-7.77-.14-11.51-.21v2.05l3.27.2c1.63.07,2.45.34,2.86,1s.62,2.52.62,5.11Z"/><path class="cls-3" d="M707.27,64.55c0,2.59-.14,4.37-.61,5.12s-1.23,1-2.87,1l-3.26.2v2c3.54-.14,6.74-.21,10.08-.21,3.13,0,6.34.07,9.88.21v-2l-3.27-.2c-1.64-.07-2.46-.34-2.87-1s-.61-2.53-.61-5.12V35.74c0-2.59.07-4.78.27-6.82h10.56c2,0,2.6.61,2.73,2.25l.28,5.38h2.1c0-3.68.14-7.43.48-11-4.9,0-9.81.21-14.72.21h-9.87c-4.91,0-9.82-.21-14.72-.21.34,3.54.47,7.29.47,11h2.12l.28-5.38c.13-1.64.68-2.25,2.72-2.25H707c.2,2,.27,4.23.27,6.82Z"/><path class="cls-3" d="M750.68,64.55c0,2.59-.14,4.37-.61,5.12s-1.23,1-2.86,1l-3.27.2v2c3.54-.14,6.74-.21,10.08-.21,3.13,0,6.34.07,9.88.21v-2l-3.27-.2c-1.64-.07-2.45-.34-2.86-1s-.62-2.53-.62-5.12V35.74a66.64,66.64,0,0,1,.28-6.82H768c2,0,2.59.61,2.72,2.25l.27,5.38h2.12c0-3.68.14-7.43.48-11-4.91,0-9.81.21-14.72.21H749c-4.91,0-9.81-.21-14.72-.21.34,3.54.48,7.29.48,11h2.11l.28-5.38c.13-1.64.68-2.25,2.72-2.25h10.56c.2,2,.27,4.23.27,6.82Z"/><path class="cls-3" d="M806.91,36.89a47.81,47.81,0,0,1,1-9.6,31.7,31.7,0,0,0-12.34-2.86c-8.17,0-17.43,4.83-17.43,15.39,0,7.09,4.22,10.43,14.92,11.65,7,.82,12,2.66,12,9.13,0,6.75-6.07,10.5-12.2,10.5-5.38,0-10.76-2.6-11.1-5.45l-.55-4.57H779a61.12,61.12,0,0,1-.47,10.42,29,29,0,0,0,11.65,2.59c10.15,0,20.57-5.59,20.57-17.23,0-7.77-6.07-10.16-15.67-11.18-8.52-1-11.24-3.81-11.24-8.45,0-6.74,5.31-9.94,10.08-9.94a15.12,15.12,0,0,1,7.43,1.63c2.52,1.57,2.79,2.25,3,4.09l.41,3.88Z"/><path class="cls-3" d="M211.48,144.67v-2.1a13.71,13.71,0,0,0,4.59-.53,1.2,1.2,0,0,0,.66-.63,11.81,11.81,0,0,0,.47-3.5q.2-4.38.2-7.58v-17q0-4.53-.1-8.86a10.73,10.73,0,0,0-.48-3.74,2.3,2.3,0,0,0-1.23-.87,24.94,24.94,0,0,0-4.81-.35V97.37l9.48.2,10.05-.16c4.82-.07,8.31-.1,10.49-.1a50.94,50.94,0,0,1,6.22.36,26.77,26.77,0,0,0-.73,3.3c0,.2-.24,2.51-.6,6.92h-2.1a35,35,0,0,0-.43-6.19,15.17,15.17,0,0,0-4-1,60.09,60.09,0,0,0-7.45-.47c-.53,0-1.72,0-3.56.14s-3.16.16-4,.23q-.14,3.69-.2,6.92l-.14,11.25c2.6.14,5,.2,7.16.2a54.11,54.11,0,0,0,6.76-.36,2,2,0,0,0,1.36-.54,7.74,7.74,0,0,0,.53-2.73l.2-2.32h2v.63l-.17,6.92.17,7.76H239.5l-.1-2.27A7.43,7.43,0,0,0,239,123a2.14,2.14,0,0,0-1.45-.83,42.74,42.74,0,0,0-7.35-.4q-2.24,0-6.33.16-.16,3.33-.16,9.89c0,4.11.05,7.22.16,9.35q4.8.38,10.75.37a46.26,46.26,0,0,0,6-.27,13.36,13.36,0,0,0,3.33-.9,20.71,20.71,0,0,0,.79-2.79c.49-2,.82-3.46,1-4.46h2.2a89.87,89.87,0,0,0-.87,11.15,47.33,47.33,0,0,1-7,.43l-19.87-.26C219.91,144.41,217,144.49,211.48,144.67Z"/><path class="cls-3" d="M251.52,100.3v-2l8-1.56a6.46,6.46,0,0,1,1.83.88,20.82,20.82,0,0,1,2.09,2.55,83,83,0,0,1,5.46,8.62q3.1,5.46,6.59,12.48,3.53-5.43,7.23-11.78l7.09-12.09h5.09v.9q-1.83,2-6.72,8.82-2.83,3.93-7.36,11.42a49.62,49.62,0,0,0-3.2,5.67,6.13,6.13,0,0,0-.36,2v2.56q0,4.53.1,8.82a10.38,10.38,0,0,0,.48,3.76,2.26,2.26,0,0,0,1.23.88,23.29,23.29,0,0,0,4.81.35v2.13c-3.62-.18-6.74-.26-9.39-.26s-5.86.08-10,.26v-2.13a23.35,23.35,0,0,0,4.79-.35,2,2,0,0,0,1.16-.78,7.83,7.83,0,0,0,.54-3.23c0-.46.06-3.62.13-9.45v-3.9c-.47-1-.92-1.89-1.36-2.69q-.48-.84-3.4-5.73l-2.2-3.59c-1.73-2.84-3-4.86-3.86-6.06a33.31,33.31,0,0,0-4-5,5,5,0,0,0-1.81-1.16A9.24,9.24,0,0,0,251.52,100.3Z"/><path class="cls-3" d="M298.58,144.67v-2.1a13.66,13.66,0,0,0,4.59-.53,1.22,1.22,0,0,0,.67-.63,11.59,11.59,0,0,0,.46-3.5c.14-2.92.2-5.45.2-7.58v-17q0-4.53-.1-8.86a10.23,10.23,0,0,0-.48-3.74,2.23,2.23,0,0,0-1.23-.87,24.94,24.94,0,0,0-4.81-.35V97.37l9.49.2,10.05-.16c4.81-.07,8.31-.1,10.48-.1a51.23,51.23,0,0,1,6.23.36,25,25,0,0,0-.73,3.3q-.07.3-.6,6.92h-2.1a36,36,0,0,0-.43-6.19,15.27,15.27,0,0,0-4-1,60.25,60.25,0,0,0-7.46-.47c-.53,0-1.72,0-3.56.14s-3.16.16-4,.23c-.09,2.46-.15,4.77-.2,6.92l-.13,11.25c2.59.14,5,.2,7.16.2a53.94,53.94,0,0,0,6.75-.36,2,2,0,0,0,1.37-.54,8,8,0,0,0,.53-2.73l.2-2.32h2v.63l-.17,6.92.17,7.76h-2.33l-.1-2.27a7.8,7.8,0,0,0-.45-3.06,2.17,2.17,0,0,0-1.45-.83,43,43,0,0,0-7.36-.4c-1.49,0-3.59.05-6.32.16q-.17,3.33-.17,9.89c0,4.11.06,7.22.17,9.35,3.19.25,6.78.37,10.75.37a46,46,0,0,0,6-.27,13.36,13.36,0,0,0,3.33-.9,19.15,19.15,0,0,0,.8-2.79c.49-2,.81-3.46,1-4.46H335a91.57,91.57,0,0,0-.86,11.15,47.38,47.38,0,0,1-7,.43l-19.87-.26C307,144.41,304.11,144.49,298.58,144.67Z"/><path class="cls-3" d="M353.57,144.67v-2.26a17.34,17.34,0,0,0,3.27-.22,2.74,2.74,0,0,0,1.2-.7,10.15,10.15,0,0,0,1.58-2.68q.6-1.23,4.33-9.35l8.32-18.77q1.37-3.1,5.83-13.78h2.16l14.21,33.38q3.46,8.13,4.59,10.19a3.57,3.57,0,0,0,1.39,1.53,9.82,9.82,0,0,0,3.37.4v2.26q-5.19-.33-7.25-.33l-10.72.33v-2.26a38.59,38.59,0,0,0,4.53-.23,2.09,2.09,0,0,0,1.08-.49,1.12,1.12,0,0,0,.28-.78,5.41,5.41,0,0,0-.46-1.9l-4.1-10.18H367.91l-3.63,8.55a10.07,10.07,0,0,0-1,3.36,1.16,1.16,0,0,0,.26.77,2,2,0,0,0,1.13.6,24.59,24.59,0,0,0,4.33.3v2.26c-3.75-.2-6.55-.3-8.42-.3Q357.4,144.37,353.57,144.67ZM369,126h16.81l-8.32-20.07Z"/><path class="cls-3" d="M407.32,144.67v-2.1a13.66,13.66,0,0,0,4.59-.53,1.25,1.25,0,0,0,.67-.63,11.59,11.59,0,0,0,.46-3.5c.14-2.92.2-5.45.2-7.58V103.2a4.75,4.75,0,0,0-.13-1.43,4.75,4.75,0,0,0-1.2-1.43,2.83,2.83,0,0,0-1.38-.69,25.67,25.67,0,0,0-3.48-.18v-2.1q5.56.13,7,.14c1.62,0,3.23-.05,4.83-.14l4.16,5.46,6.89,8.49L440,123.44q4.83,5.79,7.76,9.12,1.86,2.19,3.13,3.46V111.69q0-3.27-.24-7.66a13,13,0,0,0-.43-3.43,1.39,1.39,0,0,0-.7-.63,14.37,14.37,0,0,0-4.56-.5v-2.1q3.93.13,8,.14,3.8,0,6.88-.14v2.1a14.34,14.34,0,0,0-4.55.5,1.22,1.22,0,0,0-.67.67,11.47,11.47,0,0,0-.47,3.49q-.19,4.4-.2,7.56v16q0,4.86.17,18.14l-3.43-1-.8-.17a1.07,1.07,0,0,1-.36-.2,12.51,12.51,0,0,1-1.27-1.33c-1.84-2.09-3.19-3.66-4.06-4.73L439.84,133l-23.6-28.19v25.53q0,3.25.23,7.68a11.8,11.8,0,0,0,.44,3.4,1.36,1.36,0,0,0,.69.67,14.55,14.55,0,0,0,4.56.49v2.1q-2.93-.22-6.45-.23C413.13,144.44,410.34,144.52,407.32,144.67Z"/><path class="cls-3" d="M465.07,144.67v-1.6c1.29-.73,2.36-1.39,3.23-2q.19-2.27.33-6.29c.16-4.57.23-7.75.23-9.52V111.69c0-2.18-.06-4.73-.2-7.66a11.69,11.69,0,0,0-.46-3.43,1.39,1.39,0,0,0-.7-.63,14.37,14.37,0,0,0-4.56-.5v-2.1c3.24.14,6.1.2,8.59.2,1.9,0,4.51,0,7.8-.13s5.85-.13,7.67-.13q8.16,0,13.12,2.08a19.53,19.53,0,0,1,8.42,7,20.22,20.22,0,0,1,3.46,12,27.19,27.19,0,0,1-1.63,9.49,25.6,25.6,0,0,1-4.43,7.73,24.44,24.44,0,0,1-6,5.25,27.08,27.08,0,0,1-6.71,2.91,37.49,37.49,0,0,1-9.63,1c-1.36,0-3.19,0-5.5-.13-3-.09-5-.13-5.92-.13C470.84,144.41,468.46,144.49,465.07,144.67ZM475.39,141a45.43,45.43,0,0,0,7.72.64,33.37,33.37,0,0,0,7.4-.74,19.29,19.29,0,0,0,5.5-2.06,16.84,16.84,0,0,0,4.41-3.93,18,18,0,0,0,3.27-6.64,30.26,30.26,0,0,0,1.15-8.37,23.66,23.66,0,0,0-2.21-10.63A15.25,15.25,0,0,0,496,102.5q-4.47-2.37-12.25-2.36a56.29,56.29,0,0,0-8.32.63c-.07,1.09-.13,3-.17,5.79l-.13,4.83v13.28l.1,10.32C475.21,136.56,475.27,138.58,475.39,141Z"/><path class="cls-3" d="M534.23,144.67v-2.1a13.78,13.78,0,0,0,4.6-.53,1.2,1.2,0,0,0,.66-.63,11.81,11.81,0,0,0,.47-3.5q.19-4.38.2-7.58v-17c0-3,0-6-.1-8.86a10.37,10.37,0,0,0-.49-3.74,2.23,2.23,0,0,0-1.23-.87,24.84,24.84,0,0,0-4.81-.35V97.37l9.49.2,10.05-.16q7.23-.1,10.48-.1a51.11,51.11,0,0,1,6.23.36,25,25,0,0,0-.73,3.3q-.07.3-.6,6.92h-2.1a36,36,0,0,0-.43-6.19,15.17,15.17,0,0,0-4-1,60.13,60.13,0,0,0-7.46-.47c-.53,0-1.71,0-3.56.14s-3.16.16-4,.23c-.09,2.46-.15,4.77-.2,6.92l-.13,11.25c2.6.14,5,.2,7.16.2a53.83,53.83,0,0,0,6.75-.36,2,2,0,0,0,1.37-.54,8,8,0,0,0,.53-2.73l.2-2.32h2v.63l-.17,6.92.17,7.76h-2.33l-.1-2.27a7.8,7.8,0,0,0-.45-3.06,2.17,2.17,0,0,0-1.45-.83,42.88,42.88,0,0,0-7.36-.4q-2.22,0-6.32.16-.17,3.33-.17,9.89c0,4.11.06,7.22.17,9.35q4.8.38,10.75.37a46.26,46.26,0,0,0,6-.27,13.4,13.4,0,0,0,3.32-.9,19.15,19.15,0,0,0,.8-2.79c.49-2,.81-3.46,1-4.46h2.2a89.87,89.87,0,0,0-.87,11.15,47.38,47.38,0,0,1-7,.43L543,144.41C542.66,144.41,539.76,144.49,534.23,144.67Z"/><path class="cls-3" d="M574.67,144.67v-2.26a17.48,17.48,0,0,0,3.28-.22,2.85,2.85,0,0,0,1.2-.7,10.76,10.76,0,0,0,1.58-2.68q.6-1.23,4.33-9.35l8.32-18.77q1.36-3.1,5.82-13.78h2.17l14.21,33.38q3.46,8.13,4.59,10.19a3.5,3.5,0,0,0,1.38,1.53,9.89,9.89,0,0,0,3.38.4v2.26q-5.19-.33-7.25-.33l-10.72.33v-2.26a38.52,38.52,0,0,0,4.52-.23,2.09,2.09,0,0,0,1.09-.49,1.16,1.16,0,0,0,.28-.78,5.46,5.46,0,0,0-.47-1.9l-4.09-10.18H589l-3.63,8.55a10.15,10.15,0,0,0-1,3.36,1.11,1.11,0,0,0,.27.77,2,2,0,0,0,1.13.6,24.5,24.5,0,0,0,4.33.3v2.26q-5.62-.3-8.42-.3C579.58,144.37,577.22,144.47,574.67,144.67ZM590.15,126H607l-8.32-20.07Z"/><path class="cls-3" d="M628,99.5V97.37l4,.1,6.39.17c1.26,0,3.23,0,5.89-.13,3.46-.14,5.47-.2,6-.2q6.36,0,9.27,1.13a9,9,0,0,1,4.51,3.68,10.16,10.16,0,0,1,1.6,5.54,11.56,11.56,0,0,1-1.5,5.56,12.51,12.51,0,0,1-4.34,4.59,22.8,22.8,0,0,1-7.41,2.83q.84,1.17,3.93,5.19l8.39,11c2.4,3.09,3.79,4.81,4.19,5.16a1.8,1.8,0,0,0,.6.33,8.35,8.35,0,0,0,2.2.17v2.13c-1.69-.13-3.16-.2-4.43-.2s-2.92.07-4.83.2q-2.16-2.49-7.25-9.75-2.84-4-5-6.72-3.5-4.47-6.66-8.09l.33-1c1.16.07,2,.1,2.63.1q6.06,0,9.19-2.86a9.78,9.78,0,0,0,3.13-7.56,8.3,8.3,0,0,0-2.7-6.51c-1.8-1.6-4.51-2.41-8.15-2.41a22.66,22.66,0,0,0-6.73,1c-.08,1.2-.15,2.32-.2,3.36,0,.32-.1,3.54-.23,9.69v14.78q0,4.53.13,8.82a10.68,10.68,0,0,0,.45,3.76,2.25,2.25,0,0,0,1.25.88,23.4,23.4,0,0,0,4.8.35v2.13c-3.16-.18-6.05-.26-8.69-.26-2.13,0-5.72.08-10.75.26v-2.13a23.27,23.27,0,0,0,4.79-.35,2.21,2.21,0,0,0,1.2-.78,8.67,8.67,0,0,0,.5-3.23c0-.46.06-3.62.13-9.45V113.32q0-4.53-.1-8.86a10.73,10.73,0,0,0-.48-3.74,2.3,2.3,0,0,0-1.23-.87A24.94,24.94,0,0,0,628,99.5Z"/></svg>