<svg id="Layer_1" data-name="Layer 1" xmlns="http://www.w3.org/2000/svg" viewBox="0 0 515.6 171.56"><defs><style>.cls-1,.cls-3,.cls-4,.cls-5,.cls-6,.cls-7,.cls-8{fill:#fff;}.cls-1,.cls-2,.cls-5,.cls-6,.cls-7,.cls-8{stroke:#008ba6;}.cls-1,.cls-2,.cls-4,.cls-5,.cls-6,.cls-7,.cls-8{stroke-miterlimit:3.86;}.cls-1{stroke-width:0.31px;}.cls-2{fill:#008ba6;stroke-width:0.23px;}.cls-4{stroke:#fff;stroke-width:0.19px;}.cls-5{stroke-width:0.34px;}.cls-6{stroke-width:0.34px;}.cls-7{stroke-width:0.74px;}.cls-8{stroke-width:0.32px;}.cls-9{fill:#41535d;}</style></defs><title>mgh-color-logo</title><path class="cls-1" d="M50.65,139.89C8.32,117.62,8,87.42,8,40.34H93.29C93.29,87.45,93.15,117.62,50.65,139.89Z"/><path class="cls-2" d="M50.68,136.12C9.45,114.92,11,79.6,11,43.72H90.15C90.15,80,91.48,114.92,50.68,136.12Z"/><path class="cls-3" d="M36.56,100.6c.26-.11.24.25.24.59v7c0,.53-.39.71-.9.74l-1.14,0v.58c1.85,0,2.53,0,3.21,0s1.36,0,2.8,0V109l-1,0c-.5,0-.9-.21-.9-.74v-5.1c0-1.9.11-3.26.16-4l-.19-.15a46.18,46.18,0,0,1-4.73,1.59,2.57,2.57,0,0,0,.22,1.11Z"/><path class="cls-3" d="M46.51,105.17c.9.4,1.65.89,1.65,2a1.73,1.73,0,0,1-1.7,1.8,2,2,0,0,1-2-2.1,2.52,2.52,0,0,1,1.09-2.12Zm0-2.16c-.74-.32-1.52-.75-1.52-1.7a1.37,1.37,0,0,1,1.52-1.4,1.57,1.57,0,0,1,1.63,1.72,2.12,2.12,0,0,1-.93,1.68Zm.21-3.93c-2.15,0-3.36,1.21-3.36,2.94a2.64,2.64,0,0,0,1.59,2.44A2.93,2.93,0,0,0,43,107c0,1.36,1,2.76,3.18,2.76a3.5,3.5,0,0,0,3.68-3.49,2.8,2.8,0,0,0-2-2.72,2.67,2.67,0,0,0,1.49-2.17C49.42,99.79,48.12,99.08,46.67,99.08Z"/><path class="cls-3" d="M54.43,100.6c.25-.11.24.25.24.59v7c0,.53-.4.71-.91.74l-1.13,0v.58c1.85,0,2.53,0,3.21,0s1.36,0,2.8,0V109l-1,0c-.51,0-.9-.21-.9-.74v-5.1c0-1.9.11-3.26.15-4l-.19-.15A45.38,45.38,0,0,1,52,100.52a2.73,2.73,0,0,0,.22,1.11Z"/><path class="cls-3" d="M62.77,100.6c.25-.11.24.25.24.59v7c0,.53-.4.71-.9.74L61,109v.58c1.85,0,2.53,0,3.21,0s1.36,0,2.8,0V109l-1,0c-.51,0-.9-.21-.9-.74v-5.1c0-1.9.11-3.26.16-4l-.19-.15a46.31,46.31,0,0,1-4.74,1.59,2.59,2.59,0,0,0,.23,1.11Z"/><path class="cls-4" d="M60.17,85.11c0-.61.42-.7,1.24-.87v-.82c-1.19,0-2.6.07-3.78.07s-2.38,0-3.56-.07v1l1.28,0c.77,0,1.38.14,1.38.89v3.2a8.45,8.45,0,0,1-3.08.61c-4.35,0-6.51-3.66-6.51-7.85,0-3.83,2.13-6.68,6.15-6.68,2,0,4.14.55,5.09,1.67l.12,2.08h.94A32.92,32.92,0,0,1,60,74.67l-.15-.26a16.68,16.68,0,0,0-6.66-1.14c-5.15,0-9.68,2.78-9.68,8.35,0,5.79,4.07,8.89,9.59,8.89a19.36,19.36,0,0,0,7.07-1.45Z"/><path class="cls-5" d="M41,60.2c0-4.16,4.53-7.53,10.12-7.53S61.23,56,61.23,60.2s-4.53,7.54-10.12,7.54S41,64.36,41,60.2Z"/><rect class="cls-6" x="39.13" y="57.67" width="24.04" height="6.57"/><polygon class="cls-7" points="27.42 67.85 51.04 60.48 74.75 67.85 27.42 67.85"/><path class="cls-8" d="M48.07,53h6c0-2.06-1.62-3.63-3-4.89C49.63,49.39,48.07,50.89,48.07,53Z"/><path class="cls-4" d="M40.22,77a5.67,5.67,0,0,1,.17-2c.12-.24.36-.36,1-.41l.9-.07v-.9c-1.22,0-2.09.07-2.81.07s-1.6-.05-2.79-.07c-.36.85-.75,1.84-1.18,2.74L31.07,85.5l-3.83-8c-.51-1.09-1.38-2.91-1.82-3.9-1,0-1.93.07-2.9.07s-1.94-.05-2.91-.07v.9l.9.07c.63,0,.87.17,1,.41a5.94,5.94,0,0,1,.17,2v9.88a5.94,5.94,0,0,1-.17,2c-.12.24-.36.37-1,.41l-.9.08v.89c.92,0,1.87-.07,2.79-.07s1.84.05,2.76.07v-.89l-.9-.08c-.63,0-.87-.17-1-.41a5.67,5.67,0,0,1-.17-2v-10h0l5.52,11.5c.31.68.63,1.33.87,2h.82c.39-1,.95-2.15,1.45-3.2l4.95-10.29h0v10a5.67,5.67,0,0,1-.17,2c-.09.19-.36.29-1,.34l-.89.07v1c1,0,2.32-.07,3.77-.07s2.76.05,3.76.07v-1l-.9-.07c-.63,0-.9-.15-1-.34a5.67,5.67,0,0,1-.17-2Z"/><path class="cls-4" d="M68.57,77a5.7,5.7,0,0,1,.17-2c.1-.19.37-.29,1-.34l.91-.07v-1c-1,0-2.35.07-3.79.07s-2.81-.05-3.82-.07v1l.91.07c.63,0,.9.15,1,.34a5.7,5.7,0,0,1,.17,2v9.89a5.7,5.7,0,0,1-.17,2c-.1.19-.37.29-1,.34l-.91.07v1c1,0,2.35-.07,3.82-.07s2.79,0,3.79.07v-1l-.91-.07c-.63,0-.9-.15-1-.34a5.7,5.7,0,0,1-.17-2V82.23c.37,0,.83,0,2,0h3.57c1.15,0,1.62,0,2,0v4.61a5.7,5.7,0,0,1-.17,2c-.1.19-.36.29-1,.34l-.91.07v1c1,0,2.35-.07,3.82-.07s2.79,0,3.79.07v-1l-.9-.07c-.64,0-.91-.15-1-.34a6,6,0,0,1-.17-2V77a6,6,0,0,1,.17-2c.1-.19.37-.29,1-.34l.9-.07v-1c-1,0-2.35.07-3.79.07S75,73.63,74,73.61v1l.91.07c.64,0,.9.15,1,.34a5.7,5.7,0,0,1,.17,2v3.83c-.36,0-.83,0-2,0H70.55c-1.15,0-1.61,0-2,0Z"/><path class="cls-9" d="M135,105.91a3.6,3.6,0,0,1-.19,1.55c-.23.68-2.38,1.32-5.29,1.32-7.79,0-12.17-5.4-12.17-12.92,0-6.73,3.74-11.45,10.92-11.45a16.12,16.12,0,0,1,5.29.68c1.78.64,3.14,1.24,3.14,3v2h1.17a23.34,23.34,0,0,1,.76-5.75,29.88,29.88,0,0,0-9.38-1.55c-9.1,0-16,5.37-16,13.68,0,9.49,6.81,13.87,15.24,13.87a42.26,42.26,0,0,0,9.94-1.93V102.1c0-1.1,0-1.25.41-1.4l1.1-.38-.15-.95c-1.55,0-3.1.08-4.65.08s-3.06,0-4.61-.08v1.14l3.13.26c1,.08,1.29.46,1.29,1.33Z"/><path class="cls-9" d="M146.48,105.08a6.79,6.79,0,0,1-.34,2.84c-.23.37-.68.49-1.59.56l-1.36.11v1.14c1.36,0,2.61-.11,4-.11,2.35,0,5.33.07,8.24.11s5.79-.08,7.45-.11a33.1,33.1,0,0,1,.6-6.2H162.2c-.26,2.27-.75,3.93-1.32,4.23s-4.54.49-7.64.49a12.8,12.8,0,0,1-3.17-.3V97.26c1.17-.12,2.57-.12,4.38-.12,2.31,0,3.59.15,4,.46.19.11.26.45.3.94l.19,2.23h1.13c0-1.36-.11-2.79-.11-4.19s.08-2.84.11-4.39H159l-.19,2c0,.49-.11.83-.3,1-.42.26-1.7.42-4,.42-1.81,0-3.17,0-4.38-.12V85.35a13.29,13.29,0,0,1,3.17-.3c2.42,0,5.41,0,7.41.79.3.12.34.53.34,1v2.46h1.32a25.1,25.1,0,0,1,.61-5.75c-1.47-.07-3.18-.11-4.88-.11-2.15,0-5.63.11-8.92.11-2.15,0-4.31-.07-6.38-.11V84.6l1.81.11c.91,0,1.36.19,1.59.57a6.71,6.71,0,0,1,.34,2.83Z"/><path class="cls-9" d="M170.53,105.08a6.79,6.79,0,0,1-.34,2.84c-.23.37-.68.49-1.59.56l-1.66.11v1.14c1.51,0,3-.11,4.38-.11,1.51,0,2.87.07,4.54.11v-1.14l-1.67-.11c-.9-.07-1.36-.19-1.58-.56a6.62,6.62,0,0,1-.34-2.84V87.66h.07l17.8,22.11,3.4.6c0-.45-.11-.94-.11-1.4V88.11a6.71,6.71,0,0,1,.34-2.83c.23-.38.68-.5,1.59-.57L197,84.6V83.46c-1.66,0-3,.11-4.53.11s-2.88-.07-4.39-.11V84.6l1.66.11c.91.07,1.37.19,1.59.57a6.54,6.54,0,0,1,.34,2.83v17.65h-.11l-18.07-22.3c-.68,0-1.36.11-2,.11-1.36,0-2.87-.07-4.53-.11V84.6l1.66.11c.91.07,1.36.19,1.59.57a6.71,6.71,0,0,1,.34,2.83Z"/><path class="cls-9" d="M203.65,105.08a6.79,6.79,0,0,1-.34,2.84c-.23.37-.68.49-1.59.56l-1.36.11v1.14c1.36,0,2.61-.11,4-.11,2.35,0,5.33.07,8.24.11s5.79-.08,7.45-.11a33.1,33.1,0,0,1,.6-6.2h-1.32c-.26,2.27-.76,3.93-1.32,4.23s-4.54.49-7.64.49a12.8,12.8,0,0,1-3.17-.3V97.26c1.17-.12,2.57-.12,4.38-.12,2.31,0,3.59.15,4,.46.19.11.26.45.3.94l.19,2.23h1.13c0-1.36-.11-2.79-.11-4.19s.08-2.84.11-4.39h-1.13l-.19,2c0,.49-.11.83-.3,1-.42.26-1.7.42-4,.42-1.81,0-3.17,0-4.38-.12V85.35a13.29,13.29,0,0,1,3.17-.3c2.42,0,5.41,0,7.41.79.3.12.34.53.34,1v2.46h1.32a25.1,25.1,0,0,1,.61-5.75c-1.48-.07-3.18-.11-4.88-.11-2.15,0-5.63.11-8.92.11-2.15,0-4.31-.07-6.38-.11V84.6l1.81.11c.91,0,1.36.19,1.59.57a6.71,6.71,0,0,1,.34,2.83Z"/><path class="cls-9" d="M231.84,85.35a15,15,0,0,1,3.86-.45c3,0,6,1.13,6,5.22a5.57,5.57,0,0,1-4.91,5.28,14.62,14.62,0,0,1-3.33.16l-.22.45c.64.79,1.36,1.51,2,2.34l7,9.34c.49.68,1.05,1.32,1.54,2,.87,0,1.71-.11,2.58-.11s1.73.07,2.72.11v-1.14a2.88,2.88,0,0,1-2.31-1l-8.58-11.19c3.67-.71,7.37-3.17,7.37-7.29,0-2.72-1.59-5.78-7.63-5.67-2.2,0-4.39.11-6.62.11s-4.42-.07-6.42-.11V84.6l1.55.11c.9.07,1.36.19,1.58.57a6.54,6.54,0,0,1,.34,2.83v17a6.62,6.62,0,0,1-.34,2.84c-.22.37-.68.52-1.58.56l-1.82.11v1.14c2-.08,3.74-.11,5.6-.11s3.51,0,5.48.11v-1.14l-1.82-.11c-.9,0-1.36-.19-1.59-.56a6.79,6.79,0,0,1-.34-2.84Z"/><path class="cls-9" d="M263.51,83.16H262.3c-1,2.72-2.31,5.52-3.48,8.16l-6.73,15.31a2.68,2.68,0,0,1-2,1.85l-1.4.11v1.14c1.44,0,2.88-.11,4.35-.11,1.1,0,2.53.07,4.35.11v-1.14l-1.4-.11c-1.17-.11-1.82-.26-1.82-1.06a22.23,22.23,0,0,1,1.33-3.93l1.06-2.53H267.4l1.74,4.35a8.65,8.65,0,0,1,.79,2.42c0,.45-.75.71-1.55.75l-1.77.11v1.14c2,0,3.7-.11,5-.11,1.71,0,3.37.07,5,.11v-1.14l-1.28-.11c-.68-.07-1.1-.56-1.52-1.28s-.86-1.82-1.21-2.57Zm-6.35,16.29L262,88.19l4.76,11.26Z"/><path class="cls-9" d="M286.07,88.11a6.71,6.71,0,0,1,.34-2.83c.23-.38.68-.53,1.59-.57l1.81-.11V83.46c-2,.08-3.74.11-5.48.11s-3.62,0-5.59-.11V84.6l1.81.11c.91,0,1.37.19,1.59.57a6.54,6.54,0,0,1,.34,2.83V106a2.39,2.39,0,0,1-.94,2.22l-1.18.61v.87c1,0,1.93-.11,3.22-.11,2.34,0,4.84.07,8.24.11,2.79,0,5.78-.08,7.44-.11.3-1.89.57-4.43.8-6.5h-1.21l-.46,1.88a6.47,6.47,0,0,1-.79,2.42c-.64.61-5.25.72-8.35.72a12.88,12.88,0,0,1-3.18-.3Z"/><path class="cls-9" d="M337.08,88.11a6.71,6.71,0,0,1,.34-2.83c.23-.38.68-.53,1.59-.57l1.81-.11V83.46c-2,.08-3.74.11-5.48.11s-3.63,0-5.59-.11V84.6l1.81.11c.91,0,1.36.19,1.59.57a6.71,6.71,0,0,1,.34,2.83v6.73c-.45,0-1.47.07-3.13.07h-8.85c-1.66,0-2.68,0-3.14-.07V88.11a6.71,6.71,0,0,1,.34-2.83c.23-.38.68-.53,1.59-.57l1.81-.11V83.46c-2,.08-3.74.11-5.47.11s-3.63,0-5.6-.11V84.6l1.81.11c.91,0,1.37.19,1.59.57a6.54,6.54,0,0,1,.34,2.83v17a6.62,6.62,0,0,1-.34,2.84c-.22.37-.68.52-1.59.56l-1.81.11v1.14c2-.08,3.74-.11,5.6-.11s3.51,0,5.47.11v-1.14l-1.81-.11c-.91,0-1.36-.19-1.59-.56a6.79,6.79,0,0,1-.34-2.84V96.65c.46,0,1.48-.07,3.14-.07h8.85c1.66,0,2.68,0,3.13.07v8.43a6.79,6.79,0,0,1-.34,2.84c-.23.37-.68.52-1.59.56l-1.81.11v1.14c2-.08,3.74-.11,5.59-.11s3.52,0,5.48.11v-1.14l-1.81-.11c-.91,0-1.36-.19-1.59-.56a6.79,6.79,0,0,1-.34-2.84Z"/><path class="cls-9" d="M355.92,110.37a14.47,14.47,0,0,0,14.62-14.62c0-8.4-5.74-12.93-13.83-12.93-8.77,0-14.21,6-14.21,13.79C342.5,105.08,348.25,110.37,355.92,110.37Zm.19-26c7,0,10.39,5,10.39,12.51,0,7-3.06,11.86-9.37,11.86-7.49,0-10.59-7-10.59-13.56C346.54,89,349.53,84.41,356.11,84.41Z"/><path class="cls-9" d="M390.06,89.74a26.3,26.3,0,0,1,.53-5.33,17.53,17.53,0,0,0-6.84-1.59c-4.53,0-9.67,2.68-9.67,8.54,0,3.93,2.34,5.78,8.27,6.46,3.86.46,6.66,1.48,6.66,5.07s-3.37,5.82-6.77,5.82c-3,0-6-1.44-6.16-3l-.3-2.54h-1.21a32.9,32.9,0,0,1-.27,5.79,16.33,16.33,0,0,0,6.47,1.43c5.63,0,11.41-3.1,11.41-9.56,0-4.31-3.36-5.63-8.69-6.2-4.73-.53-6.24-2.11-6.24-4.68a5.38,5.38,0,0,1,5.59-5.52,8.38,8.38,0,0,1,4.12.9c1.4.87,1.56,1.25,1.67,2.27l.22,2.16Z"/><path class="cls-9" d="M403,85.35a15,15,0,0,1,3.86-.45c3.74,0,6.12,1.7,6.12,5.63a5.44,5.44,0,0,1-5.45,5.63,8,8,0,0,1-2.49-.38l.38,1.36a11.66,11.66,0,0,0,2.27.23c5,0,9.07-3.4,9.07-8.13,0-4.27-4.16-5.85-7.83-5.78-2,0-4.23.11-6.42.11s-4.31-.07-6.8-.11V84.6l1.7.11c.94.07,1.36.26,1.62.64a6.24,6.24,0,0,1,.38,2.76v17a6.79,6.79,0,0,1-.34,2.84c-.23.37-.68.52-1.59.56l-1.81.11v1.14c2-.08,3.74-.11,5.59-.11s3.52,0,5.48.11v-1.14l-1.81-.11c-.91,0-1.36-.19-1.59-.56a6.79,6.79,0,0,1-.34-2.84Z"/><path class="cls-9" d="M426.4,88.11a6.54,6.54,0,0,1,.34-2.83c.22-.38.68-.53,1.59-.57l1.81-.11V83.46c-2,.08-3.74.11-5.48.11s-3.63,0-5.6-.11V84.6l1.82.11c.91,0,1.36.19,1.58.57a6.49,6.49,0,0,1,.35,2.83v17a6.58,6.58,0,0,1-.35,2.84c-.22.37-.67.52-1.58.56l-1.82.11v1.14c2-.08,3.75-.11,5.6-.11s3.51,0,5.48.11v-1.14l-1.81-.11c-.91,0-1.37-.19-1.59-.56a6.62,6.62,0,0,1-.34-2.84Z"/><path class="cls-9" d="M441.59,105.08a6.62,6.62,0,0,1-.34,2.84c-.23.37-.68.52-1.59.56l-1.81.11v1.14c2-.08,3.74-.11,5.59-.11s3.52,0,5.48.11v-1.14l-1.81-.11c-.91,0-1.36-.19-1.59-.56a6.79,6.79,0,0,1-.34-2.84v-16c0-1.43,0-2.64.15-3.78h5.86c1.14,0,1.44.34,1.51,1.25l.15,3H454c0-2,.07-4.12.26-6.09-2.72,0-5.44.11-8.16.11h-5.48c-2.72,0-5.45-.11-8.17-.11.19,2,.27,4.05.27,6.09h1.17l.15-3c.08-.91.38-1.25,1.51-1.25h5.86a36.21,36.21,0,0,1,.15,3.78Z"/><path class="cls-9" d="M467,83.16h-1.21c-1,2.72-2.3,5.52-3.48,8.16l-6.72,15.31a2.71,2.71,0,0,1-2,1.85l-1.4.11v1.14c1.43,0,2.87-.11,4.35-.11,1.09,0,2.53.07,4.34.11v-1.14l-1.4-.11c-1.17-.11-1.81-.26-1.81-1.06a22.14,22.14,0,0,1,1.32-3.93L460,101h10.88l1.74,4.35a8.73,8.73,0,0,1,.8,2.42c0,.45-.76.71-1.55.75l-1.78.11v1.14c2,0,3.71-.11,5-.11,1.7,0,3.36.07,5,.11v-1.14l-1.28-.11c-.68-.07-1.1-.56-1.51-1.28s-.87-1.82-1.21-2.57Zm-6.35,16.29,4.8-11.26,4.76,11.26Z"/><path class="cls-9" d="M488.55,88.11a6.71,6.71,0,0,1,.34-2.83c.23-.38.68-.53,1.59-.57l1.81-.11V83.46c-2,.08-3.74.11-5.48.11s-3.62,0-5.59-.11V84.6l1.81.11c.91,0,1.37.19,1.59.57a6.54,6.54,0,0,1,.34,2.83V106a2.39,2.39,0,0,1-.94,2.22l-1.17.61v.87c1,0,1.92-.11,3.21-.11,2.34,0,4.84.07,8.24.11,2.8,0,5.78-.08,7.44-.11.31-1.89.57-4.43.8-6.5h-1.21l-.46,1.88a6.66,6.66,0,0,1-.79,2.42c-.64.61-5.25.72-8.35.72a12.88,12.88,0,0,1-3.18-.3Z"/><path class="cls-9" d="M143.73,48.33a6.62,6.62,0,0,1,.34-2.84c.23-.38.68-.49,1.59-.56l1.58-.12V43.68c-1.09,0-2.3.11-3.51.11s-2.38-.07-3.59-.11l-9.9,21-10-21c-1.17,0-2.38.11-3.59.11s-2.42-.07-3.59-.11v1.13l1.66.12c.91.07,1.36.18,1.59.56a6.79,6.79,0,0,1,.34,2.84v17a6.74,6.74,0,0,1-.34,2.83c-.23.38-.68.49-1.59.57l-1.66.11V70c1.51,0,3-.12,4.38-.12,1.51,0,2.87.08,4.54.12V68.81l-1.67-.11c-.9-.08-1.36-.19-1.58-.57a6.57,6.57,0,0,1-.34-2.83V48.14h.07L129,70.32h.76c.68-1.58,1.32-3.25,2-4.8l6.73-14.28c.49-1,1-2.08,1.58-3.1h.08V65.3a6.74,6.74,0,0,1-.34,2.83c-.23.38-.68.49-1.59.57l-1.28.11V70c1.43-.08,3.21-.12,5.06-.12s3.52,0,5.48.12V68.81l-1.81-.11c-.91,0-1.36-.19-1.59-.57a6.57,6.57,0,0,1-.34-2.83Z"/><path class="cls-9" d="M162.33,43.38h-1.21c-1,2.72-2.31,5.51-3.48,8.16l-6.73,15.31a2.7,2.7,0,0,1-2,1.85l-1.4.11V70c1.44,0,2.88-.12,4.35-.12,1.1,0,2.53.08,4.35.12V68.81l-1.4-.11c-1.17-.11-1.82-.27-1.82-1.06a22,22,0,0,1,1.33-3.93l1.06-2.53h10.88L168,65.52a8.75,8.75,0,0,1,.79,2.42c0,.46-.75.72-1.55.76l-1.77.11V70c2,0,3.7-.12,5-.12,1.7,0,3.37.08,5,.12V68.81l-1.29-.11c-.67-.08-1.09-.57-1.51-1.29s-.87-1.81-1.21-2.57ZM156,59.66l4.8-11.26,4.76,11.26Z"/><path class="cls-9" d="M192.7,50a26.44,26.44,0,0,1,.53-5.33A17.78,17.78,0,0,0,186.39,43c-4.54,0-9.68,2.68-9.68,8.54,0,3.93,2.35,5.78,8.28,6.46,3.86.45,6.65,1.47,6.65,5.06,0,3.75-3.36,5.83-6.76,5.83-3,0-6-1.44-6.16-3l-.31-2.53h-1.2a34.78,34.78,0,0,1-.27,5.78,16.13,16.13,0,0,0,6.46,1.44c5.63,0,11.42-3.1,11.42-9.56,0-4.31-3.37-5.64-8.7-6.2-4.72-.53-6.23-2.12-6.23-4.69a5.39,5.39,0,0,1,5.59-5.52,8.41,8.41,0,0,1,4.12.91c1.4.87,1.55,1.25,1.66,2.27l.23,2.15Z"/><path class="cls-9" d="M214.2,50a26.44,26.44,0,0,1,.53-5.33A17.79,17.79,0,0,0,207.88,43c-4.53,0-9.67,2.68-9.67,8.54,0,3.93,2.34,5.78,8.28,6.46,3.85.45,6.65,1.47,6.65,5.06,0,3.75-3.37,5.83-6.77,5.83-3,0-6-1.44-6.16-3l-.3-2.53H198.7a33.69,33.69,0,0,1-.26,5.78,16,16,0,0,0,6.46,1.44c5.63,0,11.41-3.1,11.41-9.56,0-4.31-3.36-5.64-8.69-6.2-4.72-.53-6.24-2.12-6.24-4.69a5.39,5.39,0,0,1,5.6-5.52,8.43,8.43,0,0,1,4.12.91c1.4.87,1.55,1.25,1.66,2.27L213,50Z"/><path class="cls-9" d="M231.33,43.38h-1.21c-1,2.72-2.3,5.51-3.47,8.16l-6.73,15.31a2.73,2.73,0,0,1-2,1.85l-1.4.11V70c1.43,0,2.87-.12,4.34-.12,1.1,0,2.54.08,4.35.12V68.81l-1.4-.11c-1.17-.11-1.81-.27-1.81-1.06a21.87,21.87,0,0,1,1.32-3.93l1.06-2.53h10.89L237,65.52a8.83,8.83,0,0,1,.8,2.42c0,.46-.76.72-1.55.76l-1.78.11V70c2,0,3.71-.12,5-.12,1.7,0,3.36.08,5,.12V68.81l-1.28-.11c-.68-.08-1.1-.57-1.51-1.29a28.08,28.08,0,0,1-1.21-2.57ZM225,59.66l4.8-11.26,4.76,11.26Z"/><path class="cls-9" d="M268.94,66.66l-.34-.38a14.41,14.41,0,0,1-7.67,2.27c-7.49,0-12.44-4.84-12.44-12.32,0-6.43,3.74-11.61,10.85-11.61a13.83,13.83,0,0,1,4.23.65c1.74.64,3.25,1.28,3.25,2.34v2.72H268a28,28,0,0,1,.72-5.75A27.93,27.93,0,0,0,260,43a17.05,17.05,0,0,0-10.92,3.62,12.65,12.65,0,0,0-4.61,10.17c0,8.58,6.12,13.76,15.19,13.76a18.57,18.57,0,0,0,8.24-2Z"/><path class="cls-9" d="M297.86,48.33a6.62,6.62,0,0,1,.34-2.84c.22-.38.68-.53,1.58-.56l1.82-.12V43.68c-2,.07-3.74.11-5.48.11s-3.63,0-5.6-.11v1.13l1.82.12c.9,0,1.36.18,1.58.56a6.58,6.58,0,0,1,.35,2.84v6.72c-.46,0-1.48.08-3.14.08h-8.85c-1.66,0-2.68,0-3.13-.08V48.33a6.62,6.62,0,0,1,.34-2.84c.22-.38.68-.53,1.58-.56l1.82-.12V43.68c-2,.07-3.74.11-5.48.11s-3.63,0-5.6-.11v1.13l1.82.12c.91,0,1.36.18,1.59.56a6.79,6.79,0,0,1,.34,2.84v17a6.74,6.74,0,0,1-.34,2.83c-.23.38-.68.53-1.59.57l-1.82.11V70c2-.08,3.75-.12,5.6-.12s3.51,0,5.48.12V68.81l-1.82-.11c-.9,0-1.36-.19-1.58-.57a6.57,6.57,0,0,1-.34-2.83V56.87c.45,0,1.47-.08,3.13-.08h8.85c1.66,0,2.68,0,3.14.08V65.3a6.52,6.52,0,0,1-.35,2.83c-.22.38-.68.53-1.58.57l-1.82.11V70c2-.08,3.75-.12,5.6-.12s3.51,0,5.48.12V68.81l-1.82-.11c-.9,0-1.36-.19-1.58-.57a6.57,6.57,0,0,1-.34-2.83Z"/><path class="cls-9" d="M308,61.74c0,6.92,3.78,8.85,10.2,8.85,7.63,0,10.7-3.25,10.7-11.34V48.33a6.62,6.62,0,0,1,.34-2.84c.22-.38.68-.49,1.59-.56l1.66-.12V43.68c-1.66,0-3,.11-4.54.11s-2.87-.07-4.38-.11v1.13l1.66.12c.91.07,1.36.18,1.59.56a6.79,6.79,0,0,1,.34,2.84V60.42c0,6.27-3.71,7.82-7.79,7.82-5,0-7.78-1.55-7.78-6.91v-13a6.62,6.62,0,0,1,.34-2.84c.22-.38.68-.53,1.59-.56l1.81-.12V43.68c-2,.07-3.74.11-5.48.11s-3.63,0-5.6-.11v1.13l1.82.12c.91,0,1.36.18,1.59.56a6.79,6.79,0,0,1,.34,2.84Z"/><path class="cls-9" d="M351,50a26.44,26.44,0,0,1,.53-5.33A17.78,17.78,0,0,0,344.65,43c-4.53,0-9.68,2.68-9.68,8.54,0,3.93,2.35,5.78,8.28,6.46,3.86.45,6.65,1.47,6.65,5.06,0,3.75-3.36,5.83-6.76,5.83-3,0-6-1.44-6.16-3l-.3-2.53h-1.21a34.78,34.78,0,0,1-.27,5.78,16.14,16.14,0,0,0,6.47,1.44c5.63,0,11.41-3.1,11.41-9.56,0-4.31-3.36-5.64-8.69-6.2-4.73-.53-6.24-2.12-6.24-4.69a5.39,5.39,0,0,1,5.59-5.52,8.38,8.38,0,0,1,4.12.91c1.4.87,1.55,1.25,1.67,2.27l.22,2.15Z"/><path class="cls-9" d="M359.65,65.3a6.57,6.57,0,0,1-.34,2.83c-.23.38-.68.49-1.59.57l-1.36.11V70c1.36,0,2.61-.12,4.05-.12,2.34,0,5.33.08,8.24.12s5.78-.08,7.44-.12a33.26,33.26,0,0,1,.6-6.2h-1.32c-.26,2.27-.75,3.93-1.32,4.24s-4.53.49-7.63.49a13.38,13.38,0,0,1-3.18-.3V57.47c1.17-.11,2.57-.11,4.39-.11,2.3,0,3.59.15,4,.45.19.12.27.46.3.95l.19,2.23h1.14c0-1.36-.12-2.8-.12-4.2s.08-2.83.12-4.38h-1.14l-.19,2a1.41,1.41,0,0,1-.3,1c-.41.26-1.7.41-4,.41-1.82,0-3.18,0-4.39-.11V45.57a12.88,12.88,0,0,1,3.18-.3c2.41,0,5.4,0,7.4.79.3.11.34.53.34,1v2.46h1.33a25.62,25.62,0,0,1,.6-5.75c-1.47-.07-3.17-.11-4.87-.11-2.16,0-5.64.11-8.92.11-2.16,0-4.31-.07-6.39-.11v1.13l1.81.12c.91,0,1.36.18,1.59.56a6.62,6.62,0,0,1,.34,2.84Z"/><path class="cls-9" d="M388.49,65.3a6.57,6.57,0,0,1-.34,2.83c-.22.38-.68.53-1.59.57l-1.81.11V70c2-.08,3.74-.12,5.6-.12s3.51,0,5.48.12V68.81L394,68.7c-.9,0-1.36-.19-1.59-.57a6.74,6.74,0,0,1-.34-2.83v-16a35.77,35.77,0,0,1,.16-3.78h5.85c1.14,0,1.44.34,1.51,1.25l.16,3h1.17c0-2,.07-4.12.26-6.08-2.72,0-5.44.11-8.16.11h-5.48c-2.72,0-5.44-.11-8.17-.11.19,2,.27,4,.27,6.08h1.17l.15-3c.08-.91.38-1.25,1.51-1.25h5.86a36,36,0,0,1,.15,3.78Z"/><path class="cls-9" d="M412.58,65.3a6.74,6.74,0,0,1-.34,2.83c-.23.38-.69.53-1.59.57l-1.82.11V70c2-.08,3.75-.12,5.6-.12s3.51,0,5.48.12V68.81l-1.81-.11c-.91,0-1.37-.19-1.59-.57a6.57,6.57,0,0,1-.34-2.83v-16a36,36,0,0,1,.15-3.78h5.86c1.13,0,1.43.34,1.51,1.25l.15,3H425c0-2,.08-4.12.27-6.08-2.73,0-5.45.11-8.17.11h-5.48c-2.72,0-5.44-.11-8.16-.11.19,2,.26,4,.26,6.08h1.17l.16-3c.07-.91.37-1.25,1.51-1.25h5.85a35.77,35.77,0,0,1,.16,3.78Z"/><path class="cls-9" d="M443.77,50a26.41,26.41,0,0,1,.52-5.33A17.78,17.78,0,0,0,437.45,43c-4.53,0-9.67,2.68-9.67,8.54,0,3.93,2.34,5.78,8.27,6.46,3.86.45,6.66,1.47,6.66,5.06,0,3.75-3.37,5.83-6.77,5.83-3,0-6-1.44-6.16-3l-.3-2.53h-1.21a32.75,32.75,0,0,1-.27,5.78,16.14,16.14,0,0,0,6.47,1.44c5.63,0,11.41-3.1,11.41-9.56,0-4.31-3.36-5.64-8.69-6.2-4.73-.53-6.24-2.12-6.24-4.69a5.39,5.39,0,0,1,5.59-5.52,8.38,8.38,0,0,1,4.12.91c1.4.87,1.55,1.25,1.67,2.27l.22,2.15Z"/></svg>