<svg id="Layer_1" data-name="Layer 1" xmlns="http://www.w3.org/2000/svg" viewBox="0 0 515.6 171.56"><defs><style>.cls-1{fill:none;stroke:#008bb0;stroke-width:0.94px;}.cls-2{fill:#008bb0;}.cls-3{fill:#5b6670;}</style></defs><title>nwh-color-logo</title><path class="cls-1" d="M95.3,41.74V67.86A74.35,74.35,0,0,1,88.64,99c-10,21.57-30.81,30.85-30.81,30.85S37,120.54,27,99a74.35,74.35,0,0,1-6.66-31.11V41.74Z"/><path class="cls-2" d="M92.74,65.15V44.53H23.25L23.19,62c22.17-10.34,33.86,3.09,33.86,3.09l-4.41,4.52c-11.88-12.37-29.42-5-29.42-5l.12,8.17c22.84-10,33.74,3.39,33.74,3.39l-4.46,4.56C41,67.93,23.48,75.59,23.48,75.59,27.26,114.06,58,126.74,58,126.74,89.6,109.91,92,79.36,92,79.36c-23.23,9.55-33.46-3.79-33.46-3.79L63,71.05C75,83.66,92.22,76.38,92.22,76.38a44,44,0,0,0,.38-8.55c-23.62,10.34-34-3.31-34-3.31L63,60C75.24,72.5,92.74,65.15,92.74,65.15ZM47.35,92.74l-.06.07c-.81.13-.92.29-.94.75-.07,1.06-.08,2.86-.08,4.6,0,1.11,0,3.06.09,4.12l-.13.13a10.69,10.69,0,0,0-1.72-.2,42,42,0,0,1-2.65-3.35c-.43-.56-2.31-3.07-2.7-3.58,0,.51,0,1.22,0,2.29,0,1.63.08,3,.1,3.17.1.5.19.5,1,.6l.07.07v.72l-.07.08c-.2,0-1.36-.08-1.58-.08s-1.45.06-1.62.08l-.07-.08v-.72l.07-.07.59-.13c.39-.08.44-.11.44-2.32V95.26c0-2.21-.05-2.24-.44-2.32L37,92.81l-.07-.07V92L37,92c.19,0,1.37.07,1.6.07S40,92,40.23,92c1.29,1.89,3.25,4.59,4.94,6.66V97a26.07,26.07,0,0,0-.09-3.67c0-.35-.14-.4-.93-.5l-.07-.07V92l.07-.07,1.57.07c.25,0,1.4-.06,1.57-.07l.06.07Zm20,8.74.06-.08.58-.13c.36-.07.41-.1.41-2.32V95.33c0-2.22,0-2.25-.41-2.32l-.58-.13-.06-.08v-.72l.06-.07c.71,0,1.42.07,2.16.07S71,92,71.71,92l.06.07v.72l-.06.08-.58.13c-.36.07-.4.1-.4,2.32v1.11h4.33V95.33c0-2.22,0-2.25-.4-2.32l-.58-.13L74,92.8v-.72l.06-.07c.71,0,1.42.07,2.16.07s1.45,0,2.16-.07l.06.07v.72l-.06.08-.58.13c-.36.07-.41.1-.41,2.32V99c0,2.22,0,2.25.41,2.32l.58.13.06.08v.71l-.06.08-2.24-.07-2.08.07-.06-.08v-.71l.06-.08.58-.13c.35-.07.4-.1.4-2.32V97.5H70.73V99c0,2.22,0,2.25.4,2.32l.58.13.06.08v.71l-.06.08c-.71,0-1.42-.08-2.16-.08s-1.45,0-2.16.08l-.06-.08ZM64.47,92l.06.07v.72l-.06.07c-.66.07-.74.07-1.11,1.54l-2,7.93H60.17l-2.62-6.9-2.84,6.9h-1.2l-1.7-8c-.29-1.38-.4-1.38-1-1.44l-.06-.07V92l.06-.07c.29,0,1.84.07,2.16.07S55.05,92,55.33,92l.06.07v.72l-.06.07c-.7.12-1,.19-1,.53a8.57,8.57,0,0,0,.18,1.26l.72,3.74h0L58,92h.94l2.42,6.39h0l1-4.49a5,5,0,0,0,.09-.66c0-.2-.09-.26-.87-.38l-.07-.07V92l.07-.07c.18,0,1.24.07,1.45.07S64.31,92,64.47,92ZM62.22,81.49,57.81,86,53.4,81.49,57.81,77Zm0-11.19-4.4,4.53L53.43,70.3l4.41-4.52ZM57.8,63.83l-4.41-4.52,4.41-4.53,4.4,4.53Z"/><path class="cls-3" d="M136.24,65.37V47.79c0-2-.63-2.37-2.79-2.37l-.57,0V44.32c1.41.11,2.83.18,4.25.18s2.83-.07,4.21-.18v1.06l-.57,0c-2.23,0-2.9.32-2.9,2.37V68.27l.1,1.32-2.79-.5L118.09,48.32V65.59c0,2,.67,2.37,2.9,2.37l.57,0v1.06c-1.38-.11-2.8-.17-4.21-.17s-2.84.06-4.25.17V68l.57,0c2.16,0,2.79-.32,2.79-2.37V47.79c0-2-.56-2.37-2.54-2.41h-.5V44.32a28.46,28.46,0,0,0,3.08.18,28,28,0,0,0,3-.18Z"/><path class="cls-3" d="M149.76,64.2a18.1,18.1,0,0,0,.18,3,39.53,39.53,0,0,0,4.81.18,20.53,20.53,0,0,0,5.69-.61,8.63,8.63,0,0,0,.43-1.8l.32-1.95h1.16a15,15,0,0,0-.35,2.87v2.94c-1.31.17-3.68.14-5.87.17s-4.22-.17-6.37-.17-4.25.06-6.41.17V68c1.77-.07,3.05-.81,3.05-3.18V48.57c0-2.76,0-3-3.36-3.19V44.32c2.15.11,4.28.18,6.47.18s4.35-.07,6.47-.18,4.67,0,5.88.18a12,12,0,0,0-.57,3.43c0,.74-.1,1.35-.1,2.09h-1.1a16.44,16.44,0,0,0-.5-3.47,17.64,17.64,0,0,0-5.27-.6,32.6,32.6,0,0,0-4.38.18,16.62,16.62,0,0,0-.18,2.93v6.62c7.71.07,8.21.49,8.24-3h1.17v8.17H158c0-4-.25-3.79-8.24-3.5Z"/><path class="cls-3" d="M167,48.14l-.21-.81c-.43-1.63-.75-1.81-2.41-1.91l-.35,0V44.32c1.48.11,2.93.18,4.46.18s3-.07,4.45-.18v1.06c-3.43-.21-2.93,1.17-2.65,2.51L171,51.4l2.8,12.28,4.39-11,3.18-8.53h1.13l1.06,3.29,5.91,16.52,2.8-10,1.62-6.3c.36-1.41.82-2.47-2.79-2.26V44.32c1.24.11,2.44.18,3.71.18s2.48-.07,3.72-.18v1.06c-1.49.11-1.73,0-2.23,1.35l-5.2,17-1.38,5.48h-1.8l-2.52-7.28-4.42-12-6.16,15.64-1.27,3.64H171.8c-.28-1.2-.53-2.4-.81-3.64Z"/><path class="cls-3" d="M209.33,49.66c0-1.34,0-2.47-.14-3.53l-5.45.17c-.74,0-1.17.14-1.24,1.07a20,20,0,0,0-.39,2.72h-1.06c0-.67,0-1.31,0-2,0-1.24-.07-2.48-.17-3.79,3.36.11,6.72.18,10.19.18s6.79-.07,10.22-.18c-.1,1.31-.14,2.55-.17,3.79,0,.67,0,1.31,0,2H220a21.7,21.7,0,0,0-.39-2.72c-.07-.93-.49-1-1.24-1.07l-5.52-.17c-.1,1.06-.1,2.19-.14,3.53V64.81c0,2.76,0,3,3.36,3.18v1.06c-1.7-.11-3.36-.17-5.09-.17s-3.4.06-5,.17V68c3.4-.17,3.36-.42,3.36-3.18Z"/><path class="cls-3" d="M248.29,55.89a13.55,13.55,0,0,1-13.69,13.7c-7.19,0-12.56-5-12.56-13,0-7.21,5.09-12.88,13.3-12.77C242.91,43.79,248.29,48,248.29,55.89ZM244.51,57c0-7-3.15-11.68-9.73-11.68-6.16,0-9,4.28-9,10.09,0,6.19,2.91,12.66,9.91,12.66C241.64,67.68,244.51,63.5,244.51,57Z"/><path class="cls-3" d="M272.6,65.37V47.79c0-2-.64-2.37-2.8-2.37l-.57,0V44.32c1.42.11,2.83.18,4.25.18s2.83-.07,4.21-.18v1.06l-.57,0c-2.22,0-2.9.32-2.9,2.37V68.27l.11,1.32-2.79-.5L254.45,48.32V65.59c0,2,.67,2.37,2.9,2.37l.56,0v1.06c-1.37-.11-2.79-.17-4.2-.17s-2.84.06-4.25.17V68l.56,0c2.16,0,2.8-.32,2.8-2.37V47.79c0-2-.57-2.37-2.55-2.41h-.49V44.32a26.1,26.1,0,0,0,6.12,0Z"/><path class="cls-3" d="M279.24,61.27l-.17-.18.95-2.37h9.31l.18.18-1.07,2.37Z"/><path class="cls-3" d="M293.51,48.14l-.22-.81c-.42-1.63-.74-1.81-2.4-1.91l-.36,0V44.32c1.49.11,2.94.18,4.46.18s3-.07,4.46-.18v1.06c-3.43-.21-2.94,1.17-2.65,2.51l.74,3.51,2.79,12.28,4.39-11,3.19-8.53H309l1.06,3.29L316,63.92l2.79-10,1.63-6.3c.36-1.41.82-2.47-2.79-2.26V44.32c1.24.11,2.44.18,3.71.18s2.48-.07,3.72-.18v1.06c-1.49.11-1.73,0-2.23,1.35l-5.2,17-1.38,5.48h-1.81l-2.51-7.28-4.42-12-6.16,15.64-1.27,3.64h-1.77c-.28-1.2-.53-2.4-.82-3.64Z"/><path class="cls-3" d="M333.28,64.2a19.35,19.35,0,0,0,.17,3,39.78,39.78,0,0,0,4.82.18,20.57,20.57,0,0,0,5.69-.61,8.63,8.63,0,0,0,.42-1.8l.33-1.95h1.16a15,15,0,0,0-.35,2.87v2.94c-1.31.17-3.68.14-5.87.17s-4.22-.17-6.37-.17-4.25.06-6.41.17V68c1.77-.07,3-.81,3-3.18V48.57c0-2.76,0-3-3.36-3.19V44.32c2.16.11,4.29.18,6.48.18s4.35-.07,6.47-.18,4.67,0,5.88.18a12,12,0,0,0-.57,3.43c0,.74-.1,1.35-.1,2.09h-1.1a16.44,16.44,0,0,0-.5-3.47,17.64,17.64,0,0,0-5.27-.6,32.76,32.76,0,0,0-4.39.18,17.76,17.76,0,0,0-.17,2.93v6.62c7.71.07,8.2.49,8.24-3h1.17v8.17h-1.17c0-4-.25-3.79-8.24-3.5Z"/><path class="cls-3" d="M354.89,65.94l.11,1.31a44.33,44.33,0,0,0,5,.18,20.64,20.64,0,0,0,5.7-.61,6.32,6.32,0,0,0,.35-1.13l.81-3,1.14.07c-.11.5-.22,1.41-.36,2.37l-.39,3.72c-1.13.17-3.4.14-5.48.17s-4-.17-6.05-.17-4,.06-6.09.17V68c1.67-.28,1.92-1.31,1.92-4.14V48.57c0-2.76,0-3-3.37-3.19V44.32c1.59.11,3.26.18,5,.18s3.4-.07,5.1-.18v1.06c-3.4.18-3.37.43-3.37,3.19Z"/><path class="cls-3" d="M375.43,65.94l.1,1.31a44.51,44.51,0,0,0,5,.18,20.53,20.53,0,0,0,5.69-.61,6.32,6.32,0,0,0,.35-1.13l.81-3,1.14.07c-.11.5-.22,1.41-.36,2.37l-.38,3.72c-1.14.17-3.4.14-5.49.17s-4-.17-6.05-.17-4,.06-6.08.17V68c1.66-.28,1.91-1.31,1.91-4.14V48.57c0-2.76,0-3-3.36-3.19V44.32c1.59.11,3.25.18,5,.18s3.4-.07,5.1-.18v1.06c-3.4.18-3.36.43-3.36,3.19Z"/><path class="cls-3" d="M396.33,64.2a19.35,19.35,0,0,0,.17,3,39.69,39.69,0,0,0,4.81.18,20.6,20.6,0,0,0,5.7-.61,8.63,8.63,0,0,0,.42-1.8l.32-1.95h1.17a15,15,0,0,0-.35,2.87v2.94c-1.31.17-3.68.14-5.87.17s-4.22-.17-6.37-.17-4.25.06-6.41.17V68c1.77-.07,3.05-.81,3.05-3.18V48.57c0-2.76,0-3-3.37-3.19V44.32c2.16.11,4.28.18,6.48.18s4.35-.07,6.47-.18,4.67,0,5.87.18a11.6,11.6,0,0,0-.56,3.43c0,.74-.11,1.35-.11,2.09h-1.09a16.44,16.44,0,0,0-.5-3.47,17.64,17.64,0,0,0-5.27-.6,32.76,32.76,0,0,0-4.39.18,17.76,17.76,0,0,0-.17,2.93v6.62c7.71.07,8.2.49,8.24-3h1.17v8.17h-1.17c0-4-.25-3.79-8.24-3.5Z"/><path class="cls-3" d="M425.6,50.27a6,6,0,0,0-.35-2.84c-1-1.48-3.47-2-5.13-2a5.11,5.11,0,0,0-5.38,5.07c0,7.67,14.08,1.3,14.08,10.18,0,6.05-5.41,9-10.68,9a15.55,15.55,0,0,1-6.05-1.35c.13-1.35.21-3,.24-4.42v-1h1.2v1.66a2.46,2.46,0,0,0,.5,1.84A8.63,8.63,0,0,0,419.51,68c3.19,0,6.3-1.88,6.3-5.38,0-8.57-14-.57-14-10.87,0-4.84,4.11-7.92,8.67-7.92a19.19,19.19,0,0,1,6.86,1.63,16.28,16.28,0,0,0-.28,1.7c-.07,1.06-.21,2.09-.24,3.15Z"/><path class="cls-3" d="M437.24,65.94l.11,1.31a44.24,44.24,0,0,0,5,.18,20.57,20.57,0,0,0,5.69-.61,7.19,7.19,0,0,0,.36-1.13l.81-3,1.13.07c-.11.5-.21,1.41-.35,2.37l-.39,3.72c-1.13.17-3.4.14-5.49.17s-4-.17-6.05-.17-4,.06-6.08.17V68c1.66-.28,1.91-1.31,1.91-4.14V48.57c0-2.76,0-3-3.36-3.19V44.32c1.59.11,3.25.18,5,.18s3.39-.07,5.09-.18v1.06c-3.39.18-3.36.43-3.36,3.19Z"/><path class="cls-3" d="M458.13,64.2a19.22,19.22,0,0,0,.18,3,39.69,39.69,0,0,0,4.81.18,20.56,20.56,0,0,0,5.7-.61,8.63,8.63,0,0,0,.43-1.8l.32-1.95h1.16a15,15,0,0,0-.35,2.87v2.94c-1.31.17-3.68.14-5.87.17s-4.21-.17-6.38-.17-4.24.06-6.4.17V68c1.77-.07,3-.81,3-3.18V48.57c0-2.76,0-3-3.37-3.19V44.32c2.16.11,4.28.18,6.48.18s4.35-.07,6.47-.18,4.68,0,5.88.18a12,12,0,0,0-.57,3.43c0,.74-.1,1.35-.1,2.09h-1.1a16.44,16.44,0,0,0-.5-3.47,17.61,17.61,0,0,0-5.27-.6,32.83,32.83,0,0,0-4.39.18,17.64,17.64,0,0,0-.18,2.93v6.62c7.72.07,8.22.49,8.25-3h1.17v8.17h-1.17c0-4-.24-3.79-8.25-3.5Z"/><path class="cls-3" d="M485,56.81,488.6,51c1.34-2.26,2.65-4.45,3.82-6.72h2.83v.53c-3,3.44-7.25,9.41-8.7,12.56a6,6,0,0,0-.5,2.65v4.75c0,2.76,0,3,3.36,3.18v1.06c-1.69-.11-3.36-.17-5.09-.17s-3.4.06-5,.17V68c3.4-.17,3.36-.42,3.36-3.18v-5.2a2.71,2.71,0,0,0-.17-1.1l-4.25-7.43c-1.17-2-3.33-5.48-5.84-5.2v-1l3.75-.74c1-.18,1.56.42,2.16,1.17a25.05,25.05,0,0,1,1.56,2.3Z"/><path class="cls-3" d="M138.25,98.91c0,2.76,0,3,3.33,3.19v1.06c-1.68-.11-3.33-.18-5-.18s-3.36.07-4.94.18V102.1c3.36-.18,3.33-.43,3.33-3.19V90.7h-14v8.21c0,2.76,0,3,3.33,3.19v1.06c-1.68-.11-3.33-.18-5-.18s-3.37.07-4.94.18V102.1c3.36-.18,3.32-.43,3.32-3.19V82.67c0-2.76,0-3-3.32-3.19V78.42c1.57.11,3.22.18,4.94.18s3.36-.07,5-.18v1.06c-3.36.18-3.33.43-3.33,3.19v6.55h14V82.67c0-2.76,0-3-3.33-3.19V78.42c1.58.11,3.22.18,4.94.18s3.36-.07,5-.18v1.06c-3.36.18-3.33.43-3.33,3.19Z"/><path class="cls-3" d="M168.52,90A13.49,13.49,0,0,1,155,103.69c-7.1,0-12.42-5-12.42-13,0-7.22,5-12.88,13.16-12.78C163.19,77.89,168.52,82.14,168.52,90Zm-3.75,1.09c0-7-3.12-11.68-9.63-11.68-6.09,0-8.86,4.29-8.86,10.09,0,6.19,2.87,12.67,9.81,12.67C161.93,101.78,164.77,97.6,164.77,91.09Z"/><path class="cls-3" d="M184.79,84.37a6,6,0,0,0-.35-2.83c-.94-1.49-3.43-2.06-5.07-2.06A5.08,5.08,0,0,0,174,84.54C174,92.22,188,85.86,188,94.73c0,6-5.36,9-10.57,9a15.09,15.09,0,0,1-6-1.35c.14-1.34.21-3,.24-4.42v-1h1.19v1.66a2.46,2.46,0,0,0,.49,1.84,8.5,8.5,0,0,0,5.43,1.63c3.15,0,6.23-1.87,6.23-5.38,0-8.56-13.86-.56-13.86-10.86,0-4.85,4.06-7.93,8.58-7.93a18.93,18.93,0,0,1,6.79,1.63,12.55,12.55,0,0,0-.28,1.7c-.07,1.06-.21,2.09-.25,3.15Z"/><path class="cls-3" d="M193,82.67c0-2.76,0-3-3.32-3.19V78.42c2,.11,4.06.18,6.16.18s4.1-.07,6.13-.18c3.39,0,7.25,1.49,7.25,5.49,0,4.42-3.79,7.32-8.16,7.5a8.13,8.13,0,0,1-2.28-.21l-.38-1.31a11.27,11.27,0,0,0,2.24.32,4.88,4.88,0,0,0,5.08-5.1c0-3.68-2.21-5.38-5.71-5.38a18.72,18.72,0,0,0-3.47.5,7.81,7.81,0,0,0-.21,2.44V98.91c0,2.76,0,3,3.33,3.19v1.06c-1.68-.11-3.33-.18-5-.18s-3.37.07-4.94.18V102.1c3.36-.18,3.32-.43,3.32-3.19Z"/><path class="cls-3" d="M217.46,98.91c0,2.76,0,3,3.32,3.19v1.06c-1.67-.11-3.32-.18-5-.18s-3.36.07-4.93.18V102.1c3.36-.18,3.32-.43,3.32-3.19V82.67c0-2.76,0-3-3.32-3.19V78.42c1.57.11,3.22.18,4.93.18s3.37-.07,5-.18v1.06c-3.36.18-3.32.43-3.32,3.19Z"/><path class="cls-3" d="M231.45,83.77c0-1.35,0-2.48-.14-3.54l-5.39.17c-.74,0-1.16.15-1.23,1.07a20.26,20.26,0,0,0-.38,2.72h-1.05c0-.67,0-1.31,0-2,0-1.24-.07-2.48-.18-3.79,3.33.11,6.66.18,10.09.18s6.72-.07,10.12-.18c-.11,1.31-.14,2.55-.18,3.79,0,.67,0,1.31,0,2h-1a22,22,0,0,0-.39-2.72c-.07-.92-.49-1-1.23-1.07l-5.46-.17c-.1,1.06-.1,2.19-.13,3.54V98.91c0,2.76,0,3,3.32,3.19v1.06c-1.68-.11-3.32-.18-5-.18s-3.36.07-4.94.18V102.1c3.36-.18,3.33-.43,3.33-3.19Z"/><path class="cls-3" d="M263.32,98.34a8.7,8.7,0,0,0,1.79,3.15,3.17,3.17,0,0,0,1.92.61v1.06c-1.54-.11-3.08-.18-4.65-.18s-3.12.07-4.66.18V102.1a6.05,6.05,0,0,0,2.63-.5c.49-.25.52-.82.24-1.45L258.46,95h-9.95c-.42,1-2.35,5.17-2.35,6,0,1.17,1.73,1,3,1.17v1.06c-1.33-.11-2.66-.18-4-.18s-2.7.07-4,.18V102.1c2-.4,2.21-.08,3-1.91l1.71-3.65,4.73-10.68c1.12-2.52,2.27-5.1,3.18-7.65h1.13Zm-5.49-4.88-4.38-10.54-4.38,10.54Z"/><path class="cls-3" d="M274.64,100l.11,1.31a43.43,43.43,0,0,0,4.94.18,20.2,20.2,0,0,0,5.64-.6,7.82,7.82,0,0,0,.34-1.14l.81-3,1.12.07c-.11.5-.21,1.42-.35,2.37l-.38,3.72c-1.13.18-3.37.14-5.43.18s-4-.18-6-.18-4,.07-6,.18V102.1c1.64-.29,1.89-1.32,1.89-4.14V82.67c0-2.76,0-3-3.33-3.19V78.42c1.58.11,3.22.18,4.94.18s3.36-.07,5-.18v1.06c-3.36.18-3.33.43-3.33,3.19Z"/></svg>