<svg id="Layer_1" data-name="Layer 1" xmlns="http://www.w3.org/2000/svg" viewBox="0 0 225 100"><defs><style>.cls-1{fill:#99a4ae;}.cls-2{fill:#333e48;}</style></defs><title>Partners FORUM 2015 LOGO (Disruptive Dozen) 160818_1112</title><path class="cls-1" d="M37.07,51.77V50.86l0.17-.15a10.07,10.07,0,0,0,2-.29,1.18,1.18,0,0,0,.58-0.55,5.54,5.54,0,0,0,.27-2q0-1.59,0-4.31v-3.7q0-1.7,0-3.8a7.5,7.5,0,0,0-.28-2.51,1.22,1.22,0,0,0-.6-0.55,9.69,9.69,0,0,0-1.95-.27l-0.17-.17V31.63l0.17-.15q2.15,0.17,4.68.17t4.7-.17l0.17,0.15v0.91l-0.17.17a10.46,10.46,0,0,0-2,.29,1.09,1.09,0,0,0-.57.55,6.25,6.25,0,0,0-.26,2q-0.05,1.59-.05,4.29v3.7q0,1.78,0,3.85a7.75,7.75,0,0,0,.27,2.48,1.11,1.11,0,0,0,.6.54,11.64,11.64,0,0,0,2,.28l0.17,0.15v0.91l-0.17.17q-2.16-.17-4.7-0.17t-4.68.17Z"/><path class="cls-1" d="M52.26,46.55h1l0.13,0.13a6.21,6.21,0,0,0,.4,2.56,2.82,2.82,0,0,0,1.47,1.32,6.31,6.31,0,0,0,2.59.48,6,6,0,0,0,4-1.23,4,4,0,0,0,1.41-3.21A3.91,3.91,0,0,0,62.92,45a2.34,2.34,0,0,0-1-1.1,5,5,0,0,0-1.41-.53q-0.73-.15-2-0.37A17.93,17.93,0,0,1,55,42.13,4.08,4.08,0,0,1,53,40.52a5,5,0,0,1-.76-2.81,6.57,6.57,0,0,1,1-3.49,6.17,6.17,0,0,1,2.86-2.47,10.7,10.7,0,0,1,9.43.63,19.15,19.15,0,0,0-.48,4.11L65,36.63H64.1L64,36.5a8.79,8.79,0,0,0-.23-2.29A2.49,2.49,0,0,0,62.61,33a4.46,4.46,0,0,0-2.38-.58,5.16,5.16,0,0,0-3.47,1.09,3.57,3.57,0,0,0-1.27,2.85,2.9,2.9,0,0,0,.47,1.71,2.45,2.45,0,0,0,1.21.92,16.06,16.06,0,0,0,2.44.54,28.64,28.64,0,0,1,4.31.95A4.14,4.14,0,0,1,66,42.16a5.23,5.23,0,0,1,.82,3,6.53,6.53,0,0,1-2.52,5.19,10,10,0,0,1-6.63,2.12,14.59,14.59,0,0,1-5.81-1.17,30.2,30.2,0,0,0,.3-4.59Z"/><path class="cls-1" d="M79,41.39l0.3-.41H79.9q3.17,0,4.38-1.19a4,4,0,0,0,1.21-3A3.77,3.77,0,0,0,84.43,34a4.36,4.36,0,0,0-3.19-1,13.4,13.4,0,0,0-3,.37V43.55q0,1.78,0,3.85a7.72,7.72,0,0,0,.27,2.48,1.11,1.11,0,0,0,.6.54,11.59,11.59,0,0,0,2,.28l0.17,0.15v0.91l-0.17.17q-2.15-.17-4.7-0.17t-4.68.17l-0.17-.17V50.86l0.17-.15a10,10,0,0,0,2-.29,1.17,1.17,0,0,0,.58-0.55,5.54,5.54,0,0,0,.27-2q0-1.59,0-4.31v-3.7q0-1.7,0-3.8a7.56,7.56,0,0,0-.28-2.51,1.22,1.22,0,0,0-.6-0.55,9.69,9.69,0,0,0-1.95-.27l-0.17-.17V31.63l0.17-.15q2,0.17,4.68.17,0.57,0,3.22-.09l4-.09a9.39,9.39,0,0,1,3,.41,4.4,4.4,0,0,1,2.09,1.51A4.06,4.06,0,0,1,89.51,36a5,5,0,0,1-1.33,3.37A8,8,0,0,1,84,41.59l6.31,7.48a7.61,7.61,0,0,0,1.36,1.35,2.55,2.55,0,0,0,1.25.28l0.17,0.15v0.91l-0.17.17a22.42,22.42,0,0,0-2.44-.15,24.94,24.94,0,0,0-2.7.15Z"/><path class="cls-1" d="M95.52,32.54V31.63l0.17-.15q2.15,0.17,4.68.17t4.7-.17l0.17,0.15v0.91l-0.17.17a10.43,10.43,0,0,0-2,.29,1.08,1.08,0,0,0-.57.55,6.17,6.17,0,0,0-.26,2q-0.05,1.59-.05,4.29V43.7a11.83,11.83,0,0,0,.46,3.82,3.7,3.7,0,0,0,1.7,2,6.83,6.83,0,0,0,3.42.72,8,8,0,0,0,3-.47,3.87,3.87,0,0,0,1.73-1.31,5.77,5.77,0,0,0,.87-2.33,23.88,23.88,0,0,0,.27-4.08l0-5.18a24.28,24.28,0,0,0-.1-3.07,1.09,1.09,0,0,0-.44-0.68,6.91,6.91,0,0,0-2.34-.39l-0.15-.17V31.63l0.15-.15q1.94,0.17,3.72.17t3.83-.17l0.17,0.15v0.91l-0.17.17a8.06,8.06,0,0,0-2.26.36,0.94,0.94,0,0,0-.47.65,27.46,27.46,0,0,0-.14,3.1l-0.11,7.42a13.48,13.48,0,0,1-.55,4.08,5.55,5.55,0,0,1-1.66,2.43,7.4,7.4,0,0,1-2.56,1.42,12.17,12.17,0,0,1-3.6.44,13.28,13.28,0,0,1-3.76-.47,7,7,0,0,1-2.57-1.32,5.24,5.24,0,0,1-1.51-2.24,11.06,11.06,0,0,1-.51-3.72v-5q0-1.7,0-3.8a7.52,7.52,0,0,0-.28-2.51,1.22,1.22,0,0,0-.6-0.55,9.71,9.71,0,0,0-1.95-.27Z"/><path class="cls-1" d="M129.63,33.35v10.2q0,1.78,0,3.85a7.72,7.72,0,0,0,.27,2.48,1.11,1.11,0,0,0,.6.54,11.59,11.59,0,0,0,2,.28l0.17,0.15v0.91l-0.17.17q-2.15-.17-4.7-0.17t-4.68.17L123,51.77V50.86l0.17-.15a10,10,0,0,0,2-.29,1.17,1.17,0,0,0,.58-0.55,5.54,5.54,0,0,0,.27-2q0-1.59,0-4.31v-3.7q0-1.7,0-3.8a7.56,7.56,0,0,0-.28-2.51,1.22,1.22,0,0,0-.6-0.55,9.69,9.69,0,0,0-1.95-.27L123,32.54V31.63l0.17-.15q2.15,0.17,4.68.17,0.57,0,2.44-.06,2.07-.07,3.87-0.06a11.07,11.07,0,0,1,4.12.58,4.24,4.24,0,0,1,2,1.8,5,5,0,0,1,.71,2.52,5.31,5.31,0,0,1-1.1,3.21A6.31,6.31,0,0,1,137,41.8a9.66,9.66,0,0,1-3.48.69,10.67,10.67,0,0,1-2-.17l-0.2-.87,0.15-.15a10.66,10.66,0,0,0,3.23-.38,3.12,3.12,0,0,0,1.75-1.4,4.59,4.59,0,0,0,.61-2.39A4,4,0,0,0,135.94,34,4.77,4.77,0,0,0,132.62,33,12.41,12.41,0,0,0,129.63,33.35Z"/><path class="cls-1" d="M144.08,31.63l0.17-.15q4.24,0.22,9.5.22t9.51-.22l0.15,0.15q-0.13,2.87-.13,4.85l-0.13.13h-0.87l-0.13-.13a16.74,16.74,0,0,0-.46-2.77,0.94,0.94,0,0,0-.49-0.55A3.77,3.77,0,0,0,160,33h-4.42l-0.09,5.57v5q0,1.61,0,3.75a8.61,8.61,0,0,0,.26,2.56,1.13,1.13,0,0,0,.59.55,10.5,10.5,0,0,0,2,.29l0.17,0.15v0.91l-0.17.17q-2.18-.17-4.59-0.17t-4.59.17L149,51.77V50.86l0.17-.15a10.29,10.29,0,0,0,2-.29,1.11,1.11,0,0,0,.58-0.57,6.47,6.47,0,0,0,.26-2.11q0-1.69,0-4.19V38.65Q152,35.82,151.94,33h-4.42a3.57,3.57,0,0,0-1.25.14,1,1,0,0,0-.48.61,19.63,19.63,0,0,0-.45,2.71l-0.13.13h-0.85l-0.15-.13Q144.21,35.61,144.08,31.63Z"/><path class="cls-1" d="M167.52,51.77V50.86l0.17-.15a10.07,10.07,0,0,0,2-.29,1.17,1.17,0,0,0,.58-0.55,5.48,5.48,0,0,0,.27-2q0-1.59,0-4.31v-3.7q0-1.7,0-3.8a7.46,7.46,0,0,0-.28-2.51,1.2,1.2,0,0,0-.6-0.55,9.67,9.67,0,0,0-1.95-.27l-0.17-.17V31.63l0.17-.15q2.15,0.17,4.68.17t4.7-.17l0.17,0.15v0.91l-0.17.17a10.41,10.41,0,0,0-2,.29,1.09,1.09,0,0,0-.57.55,6.25,6.25,0,0,0-.26,2q-0.05,1.59-.05,4.29v3.7q0,1.78,0,3.85a7.79,7.79,0,0,0,.27,2.48,1.12,1.12,0,0,0,.6.54,11.67,11.67,0,0,0,2,.28l0.17,0.15v0.91l-0.17.17q-2.16-.17-4.7-0.17t-4.68.17Z"/><path class="cls-1" d="M193.26,52h-2l-4.81-11.36q-2.48-5.85-2.85-6.45a3,3,0,0,0-.9-0.95,5.11,5.11,0,0,0-1.82-.57l-0.17-.17V31.63l0.17-.15q2.57,0.17,4.7.17,2.33,0,4.63-.17l0.15,0.15v0.91l-0.15.17a5.57,5.57,0,0,0-2,.57,0.83,0.83,0,0,0-.34.65,1.93,1.93,0,0,0,.14.7c0.09,0.25.4,1,.9,2.26l4.44,10.73h0.39l3.76-9.14q1-2.44,1.22-3.08a3.52,3.52,0,0,0,.22-1.08,1.26,1.26,0,0,0-.42-0.95,5.31,5.31,0,0,0-2.43-.66l-0.17-.17V31.63l0.17-.15q2.35,0.17,4.15.17a37.12,37.12,0,0,0,3.74-.17l0.17,0.15v0.91l-0.17.17a4.18,4.18,0,0,0-1.38.41,4.37,4.37,0,0,0-1.17,1.13,19,19,0,0,0-1.8,3.3q-1.13,2.45-3,6.82Z"/><path class="cls-1" d="M224.87,46L225,46.18q-0.3,2.63-.48,5.59l-0.15.13-8.12-.13q-5.16,0-8.7.17l-0.17-.17V50.86l0.17-.15a10.07,10.07,0,0,0,2-.29,1.17,1.17,0,0,0,.58-0.55,5.48,5.48,0,0,0,.27-2q0-1.59,0-4.31v-3.7q0-1.7,0-3.8a7.57,7.57,0,0,0-.28-2.51,1.21,1.21,0,0,0-.6-0.55,9.67,9.67,0,0,0-1.95-.27l-0.17-.17V31.63l0.17-.15q2.8,0.17,8.7.17,5.24,0,7.81-.17l0.11,0.17a23.22,23.22,0,0,0-.44,4.42v0.59l-0.13.11h-1l-0.13-.11a15.72,15.72,0,0,0-.51-3.25c-0.14-.24-0.83-0.36-2.08-0.36l-3.52,0-2.22,0Q214,34.85,214,36.8q0,3.26,0,3.94l2.35,0q2.42,0,2.81-.12a0.86,0.86,0,0,0,.6-0.42,9.12,9.12,0,0,0,.47-2.28l0.13-.13h0.93l0.11,0.13q0,2,0,2.72,0,3.13.06,4.42l-0.13.13h-1L220.26,45a8.5,8.5,0,0,0-.37-2.26,1,1,0,0,0-.67-0.59,16.49,16.49,0,0,0-2.72-.17l-2.44,0q0,2.24,0,3.37,0.06,2.5.11,5l2.59,0q1.65,0,3.67-.09a6.93,6.93,0,0,0,2.31-.29,2.16,2.16,0,0,0,.5-1.16l0.61-2.57L224,46h0.92Z"/><path class="cls-2" d="M83.59,69.82C83.59,75.54,80.12,79,75,79s-8.2-3.91-8.2-8.88c0-5.23,3.34-9.14,8.49-9.14C80.67,61,83.59,65,83.59,69.82ZM71,70.06c0,3.42,1.61,5.82,4.24,5.82s4.19-2.54,4.19-5.93c0-3.13-1.5-5.82-4.22-5.82S71,66.67,71,70.06Z"/><path class="cls-2" d="M100.58,76.6l8.31-12v-0.1h-7.53V61.28H114v2.28l-8.12,11.8v0.1h8.25v3.26H100.58V76.6Z"/><path class="cls-2" d="M142.52,71.35H136.1v4.14h7.17v3.24H132.14V61.28h10.76v3.24h-6.8v3.62h6.42v3.21Z"/><path class="cls-2" d="M161.48,78.73V61.28h4.61l3.62,6.39a50.89,50.89,0,0,1,2.85,6h0.08a64.53,64.53,0,0,1-.34-7.27v-5.1h3.62V78.73h-4.14L168.05,72a64.32,64.32,0,0,1-3-6.16l-0.08,0c0.1,2.3.16,4.76,0.16,7.61v5.25h-3.62Z"/><path class="cls-1" d="M1.83,22.56a4.93,4.93,0,0,1,1.08.21,1.06,1.06,0,0,1,.46.29,1.66,1.66,0,0,1,.25.61,8.41,8.41,0,0,1,.15,1.45q0,1,0,2.62l0,4.94v5.21L7.9,42l0-3.8V31.32q0-4.48.17-8a35.15,35.15,0,0,1,5.61-.44q7.07,0,10.36,3.39t3.28,9.55a18.06,18.06,0,0,1-1.5,7.5,10.54,10.54,0,0,1-4.54,5,14.16,14.16,0,0,1-5.45,1.55l1.8,1.8c0.45-.06.9-0.11,1.33-0.19a15.49,15.49,0,0,0,4.82-1.86A15.87,15.87,0,0,0,28.05,46,16.88,16.88,0,0,0,31,40.81,17.2,17.2,0,0,0,32,35a14.53,14.53,0,0,0-1.12-5.69,13.47,13.47,0,0,0-3.29-4.68,12.23,12.23,0,0,0-4.95-2.83A25.93,25.93,0,0,0,15.49,21L5.31,21.2Q3.94,21.2.17,21L0,21.18v1.09l0.17,0.15Z"/><path class="cls-2" d="M38.06,72.12V64.34a8.12,8.12,0,0,1,1.79-.16c3.39,0,5.51,1.92,5.49,5.54,0,3.29-1.47,5.18-3.83,5.83L44,78.09a8.53,8.53,0,0,0,2.6-1.43,8.85,8.85,0,0,0,2.9-7.06,7.71,7.71,0,0,0-3-6.57c-1.68-1.27-3.83-1.86-7.14-1.86a35.18,35.18,0,0,0-5.33.36v6.64Z"/></svg>