<svg id="Layer_1" data-name="Layer 1" xmlns="http://www.w3.org/2000/svg" viewBox="0 0 225 87.97372"><defs><style>.cls-1{fill:#99a4ae;}.cls-2{fill:#333e48;}.cls-3{fill:#007297;}</style></defs><title>Partners FORUM 2018 LOGO (First Look) 180315_1422</title><path class="cls-1" d="M905.21674,231.25187h-3.10415V230.131h7.55705v1.12085h-3.1211v9.08626h-1.3318Z" transform="translate(-902 -170.74957)"/><path class="cls-1" d="M910.6507,229.58627h1.3335v4.5732h.0305a2.46133,2.46133,0,0,1,.954-.9387,2.7394,2.7394,0,0,1,1.3623-.3787c.98445,0,2.55855.60575,2.55855,3.13465v4.3614h-1.3318v-4.20975c0-1.18185-.43885-2.1807-1.6961-2.1807a1.91455,1.91455,0,0,0-1.7876,1.33265,1.63375,1.63375,0,0,0-.0898.6354v4.4224h-1.3335Z" transform="translate(-902 -170.74957)"/><path class="cls-1" d="M919.79542,236.91543a2.34709,2.34709,0,0,0,2.51281,2.54415,4.81289,4.81289,0,0,0,2.0299-.3787l.22705.954a5.92522,5.92522,0,0,1-2.43825.45495,3.40348,3.40348,0,0,1-3.604-3.6955c0-2.21035,1.3013-3.9522,3.438-3.9522,2.3925,0,3.0279,2.10445,3.0279,3.45235a4.99243,4.99243,0,0,1-.04575.621Zm3.90561-.954a1.89657,1.89657,0,0,0-1.8469-2.16545,2.2077,2.2077,0,0,0-2.04345,2.16545Z" transform="translate(-902 -170.74957)"/><path class="cls-1" d="M929.89069,240.33813V230.131h1.44025l3.27021,5.16455a28.861,28.861,0,0,1,1.83165,3.316l.0305-.01525c-.1203-1.3623-.1508-2.6043-.1508-4.1945V230.131h1.242v10.20711H936.221l-3.23971-5.179a32.17087,32.17087,0,0,1-1.9079-3.40745l-.04575.01525c.07455,1.2869.10505,2.51365.10505,4.20975v4.3614Z" transform="translate(-902 -170.74957)"/><path class="cls-1" d="M940.54851,236.91543a2.34833,2.34833,0,0,0,2.5145,2.54415,4.80409,4.80409,0,0,0,2.0282-.3787l.22705.954a5.91871,5.91871,0,0,1-2.43825.45495,3.40433,3.40433,0,0,1-3.604-3.6955c0-2.21035,1.303-3.9522,3.438-3.9522,2.3925,0,3.0296,2.10445,3.0296,3.45235a4.99243,4.99243,0,0,1-.04575.621Zm3.9073-.954a1.89758,1.89758,0,0,0-1.8469-2.16545,2.20926,2.20926,0,0,0-2.04515,2.16545Z" transform="translate(-902 -170.74957)"/><path class="cls-1" d="M947.96662,233.00812l1.04545,1.5758c.2728.40835.49985.78705.74215,1.19625H949.8c.2423-.4397.4846-.8184.7269-1.2115l1.0285-1.56055h1.43855l-2.49756,3.54385,2.5738,3.78615h-1.5148l-1.07425-1.65035c-.288-.42445-.53035-.83365-.7879-1.2725h-.0305c-.2423.43885-.49985.8328-.77265,1.2725l-1.059,1.65035H946.362l2.6043-3.7404-2.484-3.5896Z" transform="translate(-902 -170.74957)"/><path class="cls-1" d="M956.15739,230.90367v2.10445h1.9079v1.01495h-1.9079v3.95305c0,.9082.25586,1.4233.998,1.4233a2.94012,2.94012,0,0,0,.77265-.0915l.061.9997a3.2614,3.2614,0,0,1-1.181.18215,1.84372,1.84372,0,0,1-1.43855-.56085,2.70889,2.70889,0,0,1-.5151-1.9079v-3.998h-1.13525v-1.01495h1.13525v-1.75625Z" transform="translate(-902 -170.74957)"/><path class="cls-1" d="M963.9381,240.33813,961.34736,230.131h1.3945l1.2115,5.16455c.3016,1.27165.5744,2.54415.75571,3.52776h.0305c.16775-1.0141.4846-2.2256.83365-3.543l1.3623-5.1493h1.37925l1.24031,5.1798c.288,1.2115.56085,2.423.71165,3.4981h.0305c.2118-1.12085.49985-2.25695.8184-3.5286l1.34705-5.1493h1.34875l-2.89235,10.20711h-1.37925l-1.28605-5.31535a30.39587,30.39587,0,0,1-.6659-3.33205h-.0305a32.40007,32.40007,0,0,1-.7879,3.33205l-1.4538,5.31535Z" transform="translate(-902 -170.74957)"/><path class="cls-1" d="M978.59133,240.33813l-.10505-.92345h-.04575a2.7299,2.7299,0,0,1-2.2417,1.09035,2.08733,2.08733,0,0,1-2.24-2.1053c0-1.7715,1.5741-2.7407,4.40546-2.7263v-.1508a1.51063,1.51063,0,0,0-1.6656-1.6961,3.65424,3.65424,0,0,0-1.9079.54475l-.3033-.87855a4.55725,4.55725,0,0,1,2.40775-.65065c2.2417,0,2.7873,1.5292,2.7873,2.99825v2.7407a10.44007,10.44007,0,0,0,.1203,1.7571Zm-.19655-3.7404c-1.4538-.0305-3.10415.22705-3.10415,1.65035a1.18,1.18,0,0,0,1.25725,1.2725,1.8258,1.8258,0,0,0,1.77235-1.22675,1.43459,1.43459,0,0,0,.07455-.42445Z" transform="translate(-902 -170.74957)"/><path class="cls-1" d="M982.22414,233.00812l1.43855,4.1191a19.18615,19.18615,0,0,1,.59135,1.87825h.04405c.16775-.60575.37955-1.2115.62185-1.87825l1.4233-4.1191h1.3928l-2.8771,7.33h-1.2725l-2.7856-7.33Z" transform="translate(-902 -170.74957)"/><path class="cls-1" d="M989.583,236.91543a2.34709,2.34709,0,0,0,2.51281,2.54415,4.81289,4.81289,0,0,0,2.0299-.3787l.22705.954a5.92522,5.92522,0,0,1-2.43825.45495,3.40348,3.40348,0,0,1-3.604-3.6955c0-2.21035,1.3013-3.9522,3.438-3.9522,2.3925,0,3.02791,2.10445,3.02791,3.45235a4.99241,4.99241,0,0,1-.04575.621Zm3.90561-.954a1.89657,1.89657,0,0,0-1.8469-2.16545,2.2077,2.2077,0,0,0-2.04345,2.16545Z" transform="translate(-902 -170.74957)"/><path class="cls-1" d="M1006.26608,236.613a3.58238,3.58238,0,0,1-3.64975,3.89205,3.48483,3.48483,0,0,1-3.51251-3.7709,3.57862,3.57862,0,0,1,3.6345-3.89205A3.47051,3.47051,0,0,1,1006.26608,236.613Zm-5.8152.0754c0,1.60545.92345,2.817,2.22645,2.817,1.2725,0,2.22645-1.19625,2.22645-2.84745,0-1.24115-.62185-2.8161-2.196-2.8161C1001.132,233.84177,1000.45088,235.29557,1000.45088,236.68838Z" transform="translate(-902 -170.74957)"/><path class="cls-1" d="M1008.08079,240.33813v-6.31505h-1.0302v-1.01495h1.0302v-.3482a3.4538,3.4538,0,0,1,.8489-2.5594,2.54862,2.54862,0,0,1,1.7859-.68115,3.10078,3.10078,0,0,1,1.13695.2118l-.183,1.0302a1.98985,1.98985,0,0,0-.8472-.1669c-1.13695,0-1.4233.9997-1.4233,2.12055v.3931h1.77066v1.01495H1009.399v6.31505Z" transform="translate(-902 -170.74957)"/><path class="cls-1" d="M1017.27125,237.12723l-1.0607,3.2109h-1.3623L1018.315,230.131h1.591l3.482,10.20711H1021.98l-1.0895-3.2109Zm3.34645-1.02935-.9997-2.9381c-.22705-.6659-.37785-1.27165-.53035-1.86215h-.0305c-.1508.60575-.31685,1.2259-.5151,1.8469l-.998,2.95335Z" transform="translate(-902 -170.74957)"/><path class="cls-1" d="M1026.20247,230.131v10.20711h-1.31825V230.131Z" transform="translate(-902 -170.74957)"/><path class="cls-1" d="M1031.71268,230.26742a12.77553,12.77553,0,0,1,2.40775-.2118,4.2125,4.2125,0,0,1,2.80085.74215,2.13922,2.13922,0,0,1,.8489,1.802,2.42174,2.42174,0,0,1-1.7266,2.24085v.0305a2.63006,2.63006,0,0,1,2.10445,2.5594,2.74961,2.74961,0,0,1-.86245,2.0443,5.12264,5.12264,0,0,1-3.52776.954,15.32278,15.32278,0,0,1-2.04515-.12115Zm1.31825,4.1801h1.19625c1.3928,0,2.20951-.7269,2.20951-1.71135,0-1.19625-.9082-1.66645-2.24-1.66645a5.60135,5.60135,0,0,0-1.16575.0915Zm0,4.89091a6.96944,6.96944,0,0,0,1.10475.061c1.3623,0,2.61955-.49985,2.61955-1.98415,0-1.3928-1.19625-1.9689-2.6348-1.9689h-1.0895Z" transform="translate(-902 -170.74957)"/><path class="cls-1" d="M1039.87295,235.29557c0-.8633-.01525-1.60545-.061-2.28745h1.16575l.04575,1.4394h.061a2.19745,2.19745,0,0,1,2.0282-1.60545,1.43827,1.43827,0,0,1,.37955.04575v1.2564a1.99857,1.99857,0,0,0-.4541-.0449,1.86839,1.86839,0,0,0-1.7876,1.7105,3.73276,3.73276,0,0,0-.061.621v3.9073h-1.31655Z" transform="translate(-902 -170.74957)"/><path class="cls-1" d="M1045.41366,236.91543a2.34709,2.34709,0,0,0,2.51281,2.54415,4.81288,4.81288,0,0,0,2.0299-.3787l.22705.954a5.92521,5.92521,0,0,1-2.43825.45495,3.40348,3.40348,0,0,1-3.604-3.6955c0-2.21035,1.3013-3.9522,3.438-3.9522,2.3925,0,3.0279,2.10445,3.0279,3.45235a4.99235,4.99235,0,0,1-.04575.621Zm3.90561-.954a1.89657,1.89657,0,0,0-1.8469-2.16545,2.2077,2.2077,0,0,0-2.04345,2.16545Z" transform="translate(-902 -170.74957)"/><path class="cls-1" d="M1056.31378,240.33813l-.10675-.92345h-.04405a2.73483,2.73483,0,0,1-2.2417,1.09035,2.08881,2.08881,0,0,1-2.2417-2.1053c0-1.7715,1.5758-2.7407,4.40715-2.7263v-.1508a1.51063,1.51063,0,0,0-1.6656-1.6961,3.64965,3.64965,0,0,0-1.9079.54475l-.3033-.87855a4.5528,4.5528,0,0,1,2.40775-.65065c2.2417,0,2.78561,1.5292,2.78561,2.99825v2.7407a10.25409,10.25409,0,0,0,.122,1.7571Zm-.19655-3.7404c-1.4538-.0305-3.10415.22705-3.10415,1.65035a1.17871,1.17871,0,0,0,1.25555,1.2725,1.82416,1.82416,0,0,0,1.77235-1.22675,1.38487,1.38487,0,0,0,.07625-.42445Z" transform="translate(-902 -170.74957)"/><path class="cls-1" d="M1060.87,236.37067h.0305c.1813-.25755.43885-.57525.65065-.8328l2.1502-2.52975h1.6046l-2.83135,3.01435,3.22615,4.31565h-1.62155l-2.52805-3.51335-.68115.7574v2.756h-1.31825V229.58627H1060.87Z" transform="translate(-902 -170.74957)"/><path class="cls-1" d="M1068.25765,230.90367v2.10445h1.9079v1.01495h-1.9079v3.95305c0,.9082.25586,1.4233.998,1.4233a2.94011,2.94011,0,0,0,.77265-.0915l.061.9997a3.2614,3.2614,0,0,1-1.181.18215,1.84372,1.84372,0,0,1-1.43855-.56085,2.70889,2.70889,0,0,1-.5151-1.9079v-3.998h-1.13525v-1.01495h1.13525v-1.75625Z" transform="translate(-902 -170.74957)"/><path class="cls-1" d="M1071.66171,229.58627h1.3335v4.5732h.0305a2.46134,2.46134,0,0,1,.954-.9387,2.7394,2.7394,0,0,1,1.3623-.3787c.98445,0,2.55855.60575,2.55855,3.13465v4.3614h-1.3318v-4.20975c0-1.18185-.43885-2.1807-1.6961-2.1807a1.91455,1.91455,0,0,0-1.7876,1.33265,1.63377,1.63377,0,0,0-.0898.6354v4.4224h-1.3335Z" transform="translate(-902 -170.74957)"/><path class="cls-1" d="M1080.06428,235.29557c0-.8633-.01525-1.60545-.061-2.28745h1.16575l.04575,1.4394h.061a2.19745,2.19745,0,0,1,2.02821-1.60545,1.43826,1.43826,0,0,1,.37955.04575v1.2564a1.99856,1.99856,0,0,0-.4541-.0449,1.86839,1.86839,0,0,0-1.7876,1.7105,3.73287,3.73287,0,0,0-.061.621v3.9073h-1.31655Z" transform="translate(-902 -170.74957)"/><path class="cls-1" d="M1091.49475,236.613a3.58238,3.58238,0,0,1-3.64975,3.89205,3.48483,3.48483,0,0,1-3.5125-3.7709,3.57862,3.57862,0,0,1,3.6345-3.89205A3.47052,3.47052,0,0,1,1091.49475,236.613Zm-5.8152.0754c0,1.60545.92345,2.817,2.22645,2.817,1.2725,0,2.22645-1.19625,2.22645-2.84745,0-1.24115-.62185-2.8161-2.196-2.8161C1086.36069,233.84177,1085.67954,235.29557,1085.67954,236.68838Z" transform="translate(-902 -170.74957)"/><path class="cls-1" d="M1099.306,238.33873c0,.7574.01525,1.42415.061,1.9994h-1.181l-.07625-1.19625h-.0305a2.75594,2.75594,0,0,1-2.423,1.36315c-1.1505,0-2.52805-.63625-2.52805-3.2109v-4.286h1.3318v4.059c0,1.39365.4253,2.33235,1.6368,2.33235a1.87741,1.87741,0,0,0,1.8774-1.8935v-4.4978h1.3318Z" transform="translate(-902 -170.74957)"/><path class="cls-1" d="M1107.83052,233.00812c-.0305.53035-.061,1.12085-.061,2.01465v4.2555c0,1.68085-.3338,2.7102-1.04545,3.34645a3.88394,3.88394,0,0,1-2.6653.87855,4.7326,4.7326,0,0,1-2.43825-.60575l.3338-1.01495a4.12956,4.12956,0,0,0,2.1502.57525c1.3623,0,2.362-.71165,2.362-2.55855v-.8184h-.0305a2.61436,2.61436,0,0,1-2.3315,1.22675,3.27543,3.27543,0,0,1-3.1194-3.5735c0-2.484,1.61985-3.89205,3.3007-3.89205a2.439,2.439,0,0,1,2.28745,1.27165h.0305l.0593-1.1056Zm-1.37925,2.8932a1.94664,1.94664,0,0,0-1.9384-2.01465c-1.27081,0-2.1807,1.0751-2.1807,2.7712,0,1.43855.7269,2.63565,2.16545,2.63565a1.94936,1.94936,0,0,0,1.8486-1.36315,2.35229,2.35229,0,0,0,.10505-.71165Z" transform="translate(-902 -170.74957)"/><path class="cls-1" d="M1109.97734,229.58627h1.3318v4.5732h.0305a2.47284,2.47284,0,0,1,.954-.9387,2.74436,2.74436,0,0,1,1.3623-.3787c.98445,0,2.56025.60575,2.56025,3.13465v4.3614h-1.3335v-4.20975c0-1.18185-.43885-2.1807-1.6961-2.1807a1.91407,1.91407,0,0,0-1.7859,1.33265,1.60079,1.60079,0,0,0-.0915.6354v4.4224h-1.3318Z" transform="translate(-902 -170.74957)"/><path class="cls-1" d="M1118.1969,238.975a3.48712,3.48712,0,0,0,1.7571.53035c.9692,0,1.4233-.4846,1.4233-1.09035,0-.63625-.37955-.98445-1.364-1.3479-1.31656-.46935-1.9384-1.19625-1.9384-2.0748a2.26076,2.26076,0,0,1,2.52975-2.1502,3.66476,3.66476,0,0,1,1.80285.4541l-.3338.9692a2.8601,2.8601,0,0,0-1.49955-.4236c-.7879,0-1.22675.4541-1.22675.99885,0,.60575.43885.87855,1.3928,1.242,1.2725.4846,1.92315,1.12085,1.92315,2.2112,0,1.2869-.998,2.196-2.73986,2.196a4.187,4.187,0,0,1-2.0604-.49985Z" transform="translate(-902 -170.74957)"/><path class="cls-1" d="M904.71689,249.16768a.82521.82521,0,0,1-1.65035,0,.81141.81141,0,0,1,.832-.83365A.79166.79166,0,0,1,904.71689,249.16768Zm-1.4843,9.38871v-7.33h1.3335v7.33Z" transform="translate(-902 -170.74957)"/><path class="cls-1" d="M906.77559,253.21054c0-.7574-.01525-1.37755-.061-1.98415h1.181l.07625,1.2115h.0305a2.69434,2.69434,0,0,1,2.423-1.37755c1.01326,0,2.58905.60575,2.58905,3.1194v4.37665h-1.3335v-4.225c0-1.181-.43885-2.16545-1.6961-2.16545a1.95675,1.95675,0,0,0-1.8774,1.9833v4.40715h-1.3318Z" transform="translate(-902 -170.74957)"/><path class="cls-1" d="M919.74967,248.34928V252.62h4.93581v-4.27075h1.3335v10.20711h-1.3335v-4.785h-4.93581v4.785h-1.31825V248.34928Z" transform="translate(-902 -170.74957)"/><path class="cls-1" d="M928.99774,255.13369a2.34833,2.34833,0,0,0,2.5145,2.54415,4.80409,4.80409,0,0,0,2.0282-.3787l.22705.954a5.91871,5.91871,0,0,1-2.43825.45495,3.40433,3.40433,0,0,1-3.604-3.6955c0-2.21035,1.303-3.9522,3.438-3.9522,2.3925,0,3.0296,2.10445,3.0296,3.45235a4.99243,4.99243,0,0,1-.04575.621Zm3.9073-.954a1.89758,1.89758,0,0,0-1.8469-2.16545,2.20926,2.20926,0,0,0-2.04515,2.16545Z" transform="translate(-902 -170.74957)"/><path class="cls-1" d="M939.89786,258.55639l-.10505-.92345h-.04575a2.7299,2.7299,0,0,1-2.2417,1.09035,2.08733,2.08733,0,0,1-2.24-2.1053c0-1.7715,1.5741-2.7407,4.40546-2.7263v-.1508a1.51063,1.51063,0,0,0-1.6656-1.6961,3.65424,3.65424,0,0,0-1.9079.54475l-.3033-.87855a4.55725,4.55725,0,0,1,2.40775-.65065c2.2417,0,2.7873,1.5292,2.7873,2.99825v2.7407a10.44008,10.44008,0,0,0,.1203,1.7571Zm-.19655-3.7404c-1.4538-.0305-3.10415.22705-3.10415,1.65035a1.18,1.18,0,0,0,1.25725,1.2725,1.8258,1.8258,0,0,0,1.77235-1.22675,1.43459,1.43459,0,0,0,.07455-.42445Z" transform="translate(-902 -170.74957)"/><path class="cls-1" d="M943.13757,247.80453h1.3318v10.75186h-1.3318Z" transform="translate(-902 -170.74957)"/><path class="cls-1" d="M948.31567,249.12193v2.10445h1.9079v1.01495h-1.9079v3.95305c0,.9082.25586,1.4233.998,1.4233a2.94011,2.94011,0,0,0,.77265-.0915l.061.9997a3.2614,3.2614,0,0,1-1.181.18215,1.84372,1.84372,0,0,1-1.43855-.56085,2.70889,2.70889,0,0,1-.5151-1.9079v-3.998h-1.13525v-1.01495h1.13525v-1.75625Z" transform="translate(-902 -170.74957)"/><path class="cls-1" d="M951.71974,247.80453h1.3335v4.5732h.0305a2.46133,2.46133,0,0,1,.954-.9387,2.7394,2.7394,0,0,1,1.3623-.3787c.98445,0,2.55855.60575,2.55855,3.13465v4.3614h-1.3318v-4.20975c0-1.18185-.43885-2.1807-1.6961-2.1807a1.91455,1.91455,0,0,0-1.7876,1.33265,1.63376,1.63376,0,0,0-.0898.6354v4.4224h-1.3335Z" transform="translate(-902 -170.74957)"/><path class="cls-1" d="M970.509,258.22344a6.54037,6.54037,0,0,1-2.6958.4846,4.76994,4.76994,0,0,1-5.04255-5.16455,5.07907,5.07907,0,0,1,5.3306-5.36026,5.467,5.467,0,0,1,2.423.4541l-.31855,1.0751a4.79757,4.79757,0,0,0-2.0587-.42445c-2.3925,0-3.98355,1.53-3.98355,4.2106,0,2.4984,1.43855,4.10385,3.92255,4.10385a5.26989,5.26989,0,0,0,2.1502-.42445Z" transform="translate(-902 -170.74957)"/><path class="cls-1" d="M976.06328,258.55639l-.10505-.92345h-.04575a2.7299,2.7299,0,0,1-2.2417,1.09035,2.08733,2.08733,0,0,1-2.24-2.1053c0-1.7715,1.5741-2.7407,4.40546-2.7263v-.1508a1.51063,1.51063,0,0,0-1.6656-1.6961,3.65424,3.65424,0,0,0-1.9079.54475l-.3033-.87855a4.55725,4.55725,0,0,1,2.40775-.65065c2.2417,0,2.7873,1.5292,2.7873,2.99825v2.7407a10.44008,10.44008,0,0,0,.1203,1.7571Zm-.19655-3.7404c-1.4538-.0305-3.10415.22705-3.10415,1.65035a1.18,1.18,0,0,0,1.25725,1.2725,1.8258,1.8258,0,0,0,1.77235-1.22675,1.43459,1.43459,0,0,0,.07455-.42445Z" transform="translate(-902 -170.74957)"/><path class="cls-1" d="M979.303,253.51384c0-.8633-.01525-1.60545-.061-2.28745h1.16575l.04575,1.4394h.061a2.19745,2.19745,0,0,1,2.0282-1.60545,1.43827,1.43827,0,0,1,.37955.04575v1.2564a1.99857,1.99857,0,0,0-.4541-.0449,1.86839,1.86839,0,0,0-1.7876,1.7105,3.73284,3.73284,0,0,0-.061.621v3.9073H979.303Z" transform="translate(-902 -170.74957)"/><path class="cls-1" d="M984.8437,255.13369a2.34833,2.34833,0,0,0,2.5145,2.54415,4.80409,4.80409,0,0,0,2.0282-.3787l.22705.954a5.91871,5.91871,0,0,1-2.43825.45495,3.40433,3.40433,0,0,1-3.604-3.6955c0-2.21035,1.303-3.9522,3.438-3.9522,2.3925,0,3.0296,2.10445,3.0296,3.45235a4.99243,4.99243,0,0,1-.04575.621Zm3.9073-.954a1.89758,1.89758,0,0,0-1.8469-2.16545,2.20926,2.20926,0,0,0-2.04515,2.16545Z" transform="translate(-902 -170.74957)"/><path class="cls-2" d="M902,173.09208h23.61834v4.74942H907.661v14.57444H924.2518v4.68419H907.661v19.844H902Z" transform="translate(-902 -170.74957)"/><path class="cls-2" d="M937.2013,176.60544a3.54568,3.54568,0,0,1-7.09109,0,3.48837,3.48837,0,0,1,3.57774-3.57859A3.39807,3.39807,0,0,1,937.2013,176.60544Zm-6.37605,40.33874V185.45363h5.7254v31.49055Z" transform="translate(-902 -170.74957)"/><path class="cls-2" d="M943.77221,195.27865c0-3.70906-.06439-6.89708-.25924-9.825h5.00867l.19655,6.1812h.25924c1.43177-4.22924,4.87989-6.89624,8.71942-6.89624a6.18681,6.18681,0,0,1,1.62663.19486v5.40007a8.59585,8.59585,0,0,0-1.952-.19486c-4.03438,0-6.89793,3.05756-7.67736,7.352a16.06125,16.06125,0,0,0-.26094,2.667v16.78649h-5.661Z" transform="translate(-902 -170.74957)"/><path class="cls-2" d="M962.64113,211.08831a15.00086,15.00086,0,0,0,7.54689,2.27728c4.16485,0,6.11681-2.08158,6.11681-4.68419,0-2.73308-1.62663-4.22924-5.85587-5.79064-5.661-2.01719-8.328-5.14-8.328-8.91343,0-5.07475,4.09877-9.23875,10.86454-9.23875a15.72769,15.72769,0,0,1,7.74344,1.95111l-1.43177,4.164a12.259,12.259,0,0,0-6.44044-1.82149c-3.38373,0-5.2713,1.952-5.2713,4.29447,0,2.60261,1.88757,3.77344,5.98634,5.33484,5.46446,2.08243,8.26362,4.81466,8.26362,9.49884,0,5.53054-4.29532,9.43446-11.77782,9.43446a17.95926,17.95926,0,0,1-8.84819-2.14681Z" transform="translate(-902 -170.74957)"/><path class="cls-2" d="M994.457,176.41058v9.043h8.19754v4.35971H994.457v16.98135c0,3.90307,1.10645,6.116,4.29363,6.116a12.75738,12.75738,0,0,0,3.31934-.39056l.25924,4.29363a13.99758,13.99758,0,0,1-5.07475.78112,7.935,7.935,0,0,1-6.1812-2.40775c-1.62663-1.691-2.2112-4.48933-2.2112-8.19754v-17.1762h-4.87989v-4.35971h4.87989v-7.54689Z" transform="translate(-902 -170.74957)"/><path class="cls-2" d="M1021.13375,173.09208h5.65932v39.10267h18.73845v4.74942h-24.39776Z" transform="translate(-902 -170.74957)"/><path class="cls-2" d="M1106.24521,199.8976h.12877c.78112-1.1056,1.88757-2.47214,2.79747-3.57859l9.2396-10.86538h6.89624l-12.16584,12.94781L1127,216.94418h-6.96232l-10.86623-15.09462-2.92624,3.25326v11.84136h-5.661V170.74957h5.661Z" transform="translate(-902 -170.74957)"/><path class="cls-2" d="M1080.1529,184.73859a16.06121,16.06121,0,0,0-7.71336,1.88942,14.87615,14.87615,0,0,1,3.42313,3.37521,8.91234,8.91234,0,0,1,4.15977-.971c6.76746,0,9.43446,6.76661,9.43446,12.10145,0,7.09194-4.09877,12.23192-9.56493,12.23192a8.334,8.334,0,0,1-4.15214-1.09649,15.36709,15.36709,0,0,1-3.65907,3.47316,15.28415,15.28415,0,0,0,7.552,1.9178c7.61128,0,15.68-5.07475,15.68-16.72125C1095.31276,191.3095,1089.196,184.73859,1080.1529,184.73859Z" transform="translate(-902 -170.74957)"/><path class="cls-3" d="M1067.33005,191.32522a18.12638,18.12638,0,0,0-2.79281,10.13377,17.61974,17.61974,0,0,0,2.60091,9.6031,10.17,10.17,0,0,0,3.734-5.60309,16.20485,16.20485,0,0,1-.54348-4.19487,17.39591,17.39591,0,0,1,.54136-4.34091A10.16029,10.16029,0,0,0,1067.33005,191.32522Z" transform="translate(-902 -170.74957)"/><path class="cls-2" d="M1078.25728,200.93881c0,11.64651-8.06707,16.72125-15.68,16.72125-8.52287,0-15.09378-6.24643-15.09378-16.20107,0-10.54006,6.89624-16.72041,15.61565-16.72041C1072.14217,184.73859,1078.25728,191.3095,1078.25728,200.93881Zm-24.984.32533c0,6.89624,3.97,12.10145,9.56493,12.10145,5.46446,0,9.56323-5.14,9.56323-12.23192,0-5.33484-2.667-12.10145-9.43276-12.10145C1056.20119,189.03222,1053.27326,195.27865,1053.27326,201.26414Z" transform="translate(-902 -170.74957)"/></svg>