<svg id="Layer_1" data-name="Layer 1" xmlns="http://www.w3.org/2000/svg" viewBox="0 0 515.6 171.56"><defs><style>.cls-1{fill:none;stroke:#008bb0;stroke-width:0.4px;}.cls-2{fill:#008bb0;}.cls-3{fill:#fff;}</style></defs><title>srn-color-logo</title><path class="cls-1" d="M58.39,130.17c-37.76-19.86-38-46.8-38-88.78H96.42c0,42-.13,68.92-38,88.78"/><path class="cls-2" d="M58.41,126.81C21.65,107.91,23.05,76.4,23.05,44.4H93.62c0,32.35,1.18,63.52-35.21,82.42"/><path class="cls-3" d="M61.54,50.34c0,5.28,4,6.93,4,8.69V69.94c-2.53,0-2.47-2.88-2.81-6.69A1.26,1.26,0,0,0,61.4,62h0a1.37,1.37,0,0,0-1.47,1.25V74.88a1.37,1.37,0,0,1-1.47,1.24h0A1.37,1.37,0,0,1,57,74.88v-9a.43.43,0,0,0-.39-.47h0a.44.44,0,0,0-.4.47v9.47a1.36,1.36,0,0,1-1.47,1.24h0a1.37,1.37,0,0,1-1.47-1.24V65.89a.44.44,0,0,0-.4-.47h0a.44.44,0,0,0-.4.47v9A1.36,1.36,0,0,1,51,76.12h0a1.37,1.37,0,0,1-1.48-1.24v-.72c.91-.63,1.15-1.57,1.15-3H49.51l0-5.23a.44.44,0,0,0-.4-.47h0a.44.44,0,0,0-.4.47v5.22H45.8V56.74a15.12,15.12,0,0,0,2.42-6.34Z"/><path class="cls-3" d="M30.44,75.81c5.28,0,6.81-4,8.57-4H49.92c0,2.52-2.87,2.46-6.69,2.8A1.26,1.26,0,0,0,42,75.94h0a1.38,1.38,0,0,0,1.25,1.48H54.85a1.38,1.38,0,0,1,1.26,1.47h0a1.38,1.38,0,0,1-1.26,1.47h-9a.43.43,0,0,0-.47.4h0a.43.43,0,0,0,.47.39h9.47a1.37,1.37,0,0,1,1.25,1.47h0a1.37,1.37,0,0,1-1.25,1.46H45.87a.44.44,0,0,0-.47.4h0a.43.43,0,0,0,.47.39h9a1.37,1.37,0,0,1,1.26,1.46h0a1.38,1.38,0,0,1-1.26,1.47h-.76c-.64-.9-1.52-1.15-3-1.15v1.15H45.87a.44.44,0,0,0-.47.4h0a.45.45,0,0,0,.47.41H51.1v3H36.72a15.12,15.12,0,0,0-6.34-2.42Z"/><path class="cls-3" d="M55.79,106.94c0-5.28-4-6.86-4-8.62V87.4c2.52,0,2.46,2.88,2.8,6.69a1.26,1.26,0,0,0,1.32,1.25h0a1.38,1.38,0,0,0,1.48-1.25V82.49a1.37,1.37,0,0,1,1.47-1.25h0a1.37,1.37,0,0,1,1.47,1.25v9a.43.43,0,0,0,.4.47h0a.43.43,0,0,0,.39-.47V82a1.38,1.38,0,0,1,1.47-1.26h0A1.38,1.38,0,0,1,64.06,82v9.44a.44.44,0,0,0,.4.47h0a.43.43,0,0,0,.4-.47v-9a1.37,1.37,0,0,1,1.47-1.25h0a1.37,1.37,0,0,1,1.47,1.25v.77c-.88.63-1.15,1.52-1.15,3h1.11l0,5.23a.44.44,0,0,0,.4.47h0a.45.45,0,0,0,.41-.47V86.23h2.94v14.38a15.14,15.14,0,0,0-2.43,6.33Z"/><path class="cls-3" d="M87,81.55c-5.28,0-6.92,4-8.69,4H67.4c0-2.51,2.88-2.45,6.69-2.79a1.26,1.26,0,0,0,1.25-1.32h0A1.37,1.37,0,0,0,74.09,80H62.47a1.37,1.37,0,0,1-1.25-1.47h0A1.37,1.37,0,0,1,62.47,77h9a.43.43,0,0,0,.47-.4h0a.43.43,0,0,0-.47-.39H62a1.37,1.37,0,0,1-1.25-1.47h0A1.37,1.37,0,0,1,62,73.28h9.46a.44.44,0,0,0,.47-.4h0a.44.44,0,0,0-.47-.4h-9A1.37,1.37,0,0,1,61.22,71h0a1.37,1.37,0,0,1,1.25-1.46h.71c.63.9,1.57,1.14,3,1.14V69.59l5.23,0a.44.44,0,0,0,.47-.4h0a.44.44,0,0,0-.47-.4H66.23V65.82H80.6a15.12,15.12,0,0,0,6.34,2.42Z"/><path class="cls-2" d="M480.36,79.14h-.3c0-.78,0-1.33-.05-1.62l1.67,0,1.24,0,1.55,0,1.29,0c0,.36-.07.9-.08,1.62h-.32l0-.47c0-.28-.05-.45-.06-.49s0-.07,0-.08l-.08,0-.49,0L484,78h-.6c0,.31-.05.74-.05,1.26v2.88c0,.45,0,.88,0,1.31a1.5,1.5,0,0,0,.07.55.34.34,0,0,0,.17.13,3.86,3.86,0,0,0,.72.05v.31l-1.32,0-1.54,0v-.31a3.63,3.63,0,0,0,.71-.05.32.32,0,0,0,.17-.12,1.19,1.19,0,0,0,.08-.47c0-.07,0-.54,0-1.4V79.28c0-.14,0-.29,0-.45l0-.83h-.73a9.14,9.14,0,0,0-1,0,.26.26,0,0,0-.15.07,2,2,0,0,0-.09.53Z"/><path class="cls-2" d="M486.15,77.83v-.31l1,0,.91,0c.29.64.56,1.23.79,1.72l1.87,3.83,1.68-3.51c.46-1,.76-1.64.92-2l.88,0,1.06,0v.31a3.63,3.63,0,0,0-.71,0,.32.32,0,0,0-.17.12,1,1,0,0,0-.08.47c0,.07,0,.53,0,1.4v2.27c0,.45,0,.88,0,1.31a1.41,1.41,0,0,0,.08.55.34.34,0,0,0,.17.13,3.81,3.81,0,0,0,.71.05v.31c-.66,0-1.12,0-1.4,0l-1.45,0v-.31a3.72,3.72,0,0,0,.71-.05.26.26,0,0,0,.17-.12,1,1,0,0,0,.08-.47c0-.07,0-.54,0-1.4V78.53l-1.7,3.55c-.26.56-.47,1-.62,1.34s-.27.63-.49,1.17h-.19a1.54,1.54,0,0,0-.12-.3l-.33-.72-2.36-4.87v3.44c0,.45,0,.88,0,1.31a1.66,1.66,0,0,0,.08.55.33.33,0,0,0,.18.13,3.72,3.72,0,0,0,.71.05v.31l-1.19,0-1.22,0v-.31a3.58,3.58,0,0,0,.7-.05A.32.32,0,0,0,487,84a1.25,1.25,0,0,0,.07-.47c0-.07,0-.54,0-1.4V79.87c0-.45,0-.88,0-1.31A1.6,1.6,0,0,0,487,78a.35.35,0,0,0-.18-.13A3.72,3.72,0,0,0,486.15,77.83Z"/><path class="cls-2" d="M120.41,83.07a69.79,69.79,0,0,0,.56-9.2h2a21.84,21.84,0,0,0,.49,5.1,4.46,4.46,0,0,0,1.64,1.68,13.55,13.55,0,0,0,3.5,1.58,14.05,14.05,0,0,0,4.23.69,11.27,11.27,0,0,0,5.51-1.38A8.59,8.59,0,0,0,142,77.93a10.14,10.14,0,0,0,1.16-4.78,8.8,8.8,0,0,0-.58-3.37,5.24,5.24,0,0,0-1.76-2.3,7.38,7.38,0,0,0-2.92-1.22q-1.09-.18-4.38-.6t-5.59-.93a12.53,12.53,0,0,1-4.53-2.22,9.06,9.06,0,0,1-2.34-3.34,10.83,10.83,0,0,1-.91-4.45A12.77,12.77,0,0,1,122,48.15a12.18,12.18,0,0,1,5.38-4.79,17.69,17.69,0,0,1,7.74-1.72,25.47,25.47,0,0,1,5.48.67,24.45,24.45,0,0,1,5.55,1.94,32.51,32.51,0,0,0-.6,3.47c-.11,1.08-.21,2.66-.27,4.75h-2a32.67,32.67,0,0,0-.27-5,7.34,7.34,0,0,0-2-1.93,12.81,12.81,0,0,0-6.36-1.71,8.88,8.88,0,0,0-9.42,9.38,7,7,0,0,0,.91,3.88,6.29,6.29,0,0,0,3.29,2.2,30,30,0,0,0,5.32,1.06c2.46.33,4.68.69,6.66,1.06a11.25,11.25,0,0,1,4.1,2,8.74,8.74,0,0,1,2.2,3,10.43,10.43,0,0,1,.85,4.34A13.43,13.43,0,0,1,143.65,81q-4.87,4.38-12.62,4.38A24,24,0,0,1,120.41,83.07Z"/><path class="cls-2" d="M153,44.42V42.53q5.94.21,9.41.21c1.53,0,3.17,0,4.91-.07l4.64-.17,1.42,0a21.45,21.45,0,0,1,7.39,1,8.72,8.72,0,0,1,4.2,3.3A9.14,9.14,0,0,1,186.46,52a11.69,11.69,0,0,1-1.26,5.18,12,12,0,0,1-3.65,4.36,16,16,0,0,1-5,2.56,14.13,14.13,0,0,1-4,.53,22.55,22.55,0,0,1-4.08-.41L167.83,62a19.4,19.4,0,0,0,4.14.62,8.74,8.74,0,0,0,4.21-1.08,7.44,7.44,0,0,0,3.11-3.26,10.58,10.58,0,0,0,1.1-4.82,9.78,9.78,0,0,0-1.07-4.6A7.07,7.07,0,0,0,176,45.73a12.16,12.16,0,0,0-5.34-1.07,20.35,20.35,0,0,0-6,1c-.17,2.09-.26,5.35-.26,9.8v14.9c0,2.67,0,5.29.09,7.83a9.52,9.52,0,0,0,.42,3.34,2,2,0,0,0,1.1.78,21.74,21.74,0,0,0,4.27.31v1.89q-5.47-.21-8.05-.21c-.66,0-3.75.07-9.25.21V82.63a21.68,21.68,0,0,0,4.24-.31,2,2,0,0,0,1.06-.69,7.79,7.79,0,0,0,.44-2.87c0-.42.07-3.21.15-8.39V56.69q0-4-.09-7.87a9.52,9.52,0,0,0-.43-3.32,2.05,2.05,0,0,0-1.1-.77A21.65,21.65,0,0,0,153,44.42Z"/><path class="cls-2" d="M184.69,84.52v-2a16.73,16.73,0,0,0,2.92-.19,2.6,2.6,0,0,0,1.06-.63,9.32,9.32,0,0,0,1.41-2.38q.53-1.08,3.85-8.31l7.4-16.67q1.21-2.74,5.18-12.25h1.89l12.65,29.66q3.07,7.23,4.08,9.05a3,3,0,0,0,1.23,1.36,8.68,8.68,0,0,0,3,.36v2c-3.08-.19-5.23-.3-6.46-.3l-9.52.3v-2a32.07,32.07,0,0,0,4-.21,1.79,1.79,0,0,0,1-.42,1,1,0,0,0,.25-.7,4.83,4.83,0,0,0-.42-1.69l-3.63-9H197.45L194.23,78a9,9,0,0,0-.86,3,1,1,0,0,0,.24.67,1.69,1.69,0,0,0,1,.53,21.8,21.8,0,0,0,3.84.27v2c-3.33-.18-5.83-.26-7.49-.26C189.05,84.26,187,84.34,184.69,84.52Zm13.78-16.59h14.9L206,50.13Z"/><path class="cls-2" d="M231.67,44.42V42.53c3.21.14,6.21.21,9,.21s5.58-.07,8.34-.21v1.89a21.59,21.59,0,0,0-4.24.31,1.76,1.76,0,0,0-1,.7,7,7,0,0,0-.47,2.86q0,.59-.15,8.4V67.62c0,4.23.27,7,.81,8.37a7.76,7.76,0,0,0,2.59,3.36A10.91,10.91,0,0,0,250.16,81a20.36,20.36,0,0,0,5.14.61,19.47,19.47,0,0,0,5.88-.82,10.39,10.39,0,0,0,3.87-2A7.88,7.88,0,0,0,267,76.15a13.88,13.88,0,0,0,.91-4,58.67,58.67,0,0,0,.29-6.39v-9.1c0-2.68-.06-5.3-.15-7.87a9.07,9.07,0,0,0-.4-3.32,2,2,0,0,0-1.1-.77,21.68,21.68,0,0,0-4.24-.31V42.53q4.88.21,7.11.21,2,0,7.35-.21v1.89a21.55,21.55,0,0,0-4.25.31,1.9,1.9,0,0,0-1,.7A7.38,7.38,0,0,0,271,48.3q0,.57-.12,8.39v9.89c0,4.87-.33,8.27-1,10.2a11.63,11.63,0,0,1-3.74,5.11,14.56,14.56,0,0,1-5.25,2.57,28.71,28.71,0,0,1-15-.16,12.52,12.52,0,0,1-5.09-2.83,10,10,0,0,1-2.4-3.6,28.35,28.35,0,0,1-.82-8.12V56.69q0-4-.09-7.87A9.26,9.26,0,0,0,237,45.5a2.06,2.06,0,0,0-1.09-.77A21.79,21.79,0,0,0,231.67,44.42Z"/><path class="cls-2" d="M281.65,84.52V83A9.86,9.86,0,0,0,284,81.63a1.47,1.47,0,0,0,.41-.69,15.56,15.56,0,0,0,.35-3.54c.1-2.7.16-4.31.16-4.82V56.69q0-4-.1-7.87a9.26,9.26,0,0,0-.43-3.32,2,2,0,0,0-1.09-.77,21.74,21.74,0,0,0-4.27-.31V42.53q7.22.21,8.93.21,1.89,0,8.48-.21v1.89a21.83,21.83,0,0,0-4.27.31,2,2,0,0,0-1.05.7,7.63,7.63,0,0,0-.44,2.86c0,.39-.07,3.19-.15,8.4V76.54c0,2.07.05,3.75.15,5,2.25.14,4.47.21,6.68.21q8.34,0,11.68-1.07a13.52,13.52,0,0,0,.68-2l1.19-4.9h2c-.42,2.94-.85,6.38-1.26,10.35a18.3,18.3,0,0,1-1.93.29c-1,.06-2.6.09-4.73.09l-17.5-.21C285.52,84.31,283.6,84.38,281.65,84.52Z"/><path class="cls-2" d="M317.58,84.52V83.11c1.13-.66,2.07-1.25,2.84-1.78.12-1.34.22-3.2.29-5.59q.21-6.08.21-8.44v-12c0-1.93-.05-4.2-.15-6.79a10.41,10.41,0,0,0-.41-3,1.19,1.19,0,0,0-.63-.56,12.78,12.78,0,0,0-4.08-.45V42.53q4.32.15,7.64.15c1.69,0,4,0,6.93-.1s5.2-.11,6.82-.11a30.67,30.67,0,0,1,11.65,1.85,17.27,17.27,0,0,1,7.48,6.19,17.86,17.86,0,0,1,3.07,10.6,24.09,24.09,0,0,1-1.45,8.43,22.49,22.49,0,0,1-3.93,6.87,21.54,21.54,0,0,1-5.31,4.65,23.63,23.63,0,0,1-6,2.59,33.18,33.18,0,0,1-8.55.87c-1.2,0-2.83,0-4.88-.11-2.68-.06-4.43-.1-5.26-.1Q322.1,84.31,317.58,84.52Zm9.13-3.22a40.89,40.89,0,0,0,6.86.56,30.13,30.13,0,0,0,6.59-.65A17.43,17.43,0,0,0,345,79.38,15,15,0,0,0,349,75.89a15.9,15.9,0,0,0,2.91-5.9,26.67,26.67,0,0,0,1-7.43,21,21,0,0,0-2-9.44,13.53,13.53,0,0,0-5.93-6c-2.64-1.39-6.27-2.1-10.88-2.1a50.65,50.65,0,0,0-7.4.56c0,1-.1,2.68-.14,5.15L326.45,55V66.76l.09,9.16C326.56,77.31,326.62,79.11,326.71,81.3Z"/><path class="cls-2" d="M380.53,82.63v1.89q-6.28-.21-8.26-.21l-9.12.21V82.63a21.54,21.54,0,0,0,4.23-.31,2,2,0,0,0,1.06-.69,7.51,7.51,0,0,0,.45-2.87c0-.42.07-3.21.14-8.39V56.69q0-4-.09-7.87a9.36,9.36,0,0,0-.42-3.32,2.13,2.13,0,0,0-1.1-.77,21.74,21.74,0,0,0-4.27-.31V42.53c3.75.14,6.66.21,8.7.21s4.87-.07,8.68-.21v1.89a21.55,21.55,0,0,0-4.25.31,1.93,1.93,0,0,0-1,.7,7.44,7.44,0,0,0-.44,2.87q0,.57-.15,8.39V70.37c0,2.67,0,5.29.09,7.83a9.41,9.41,0,0,0,.43,3.34,2,2,0,0,0,1.09.78A21.74,21.74,0,0,0,380.53,82.63Z"/><path class="cls-2" d="M383.85,84.52V82.63a12.42,12.42,0,0,0,4.1-.47,1.22,1.22,0,0,0,.6-.56,10.84,10.84,0,0,0,.41-3.1q.15-3.9.15-6.73v-24a4.17,4.17,0,0,0-.12-1.27,4.07,4.07,0,0,0-1.07-1.27,2.66,2.66,0,0,0-1.22-.61,25,25,0,0,0-3.09-.16V42.53q5.11.12,6.43.12c1.48,0,3,0,4.43-.12,1.66,2.18,2.87,3.8,3.65,4.84l6.05,7.52L413,65.62q4.23,5.13,6.8,8.08c1.09,1.3,2,2.32,2.75,3.07V55.23c0-1.92-.08-4.18-.21-6.77a11.86,11.86,0,0,0-.38-3,1.22,1.22,0,0,0-.63-.55,12.65,12.65,0,0,0-4.05-.45V42.53c2.33.08,4.68.12,7.07.12s4.28,0,6.12-.12v1.89a12.88,12.88,0,0,0-4.08.45,1.07,1.07,0,0,0-.59.59,10,10,0,0,0-.42,3.1q-.15,3.9-.15,6.7v14.2q0,4.32.15,16.09l-3-.88-.71-.15a1.06,1.06,0,0,1-.33-.18,11.36,11.36,0,0,1-1.12-1.19q-2.46-2.82-3.61-4.24L412.74,74l-21-25.32V71.63q0,2.93.21,6.9a11.58,11.58,0,0,0,.38,3,1.25,1.25,0,0,0,.62.6,12.72,12.72,0,0,0,4.06.45v1.89c-1.74-.14-3.65-.21-5.75-.21Q387.87,84.31,383.85,84.52Z"/><path class="cls-2" d="M474.6,82.21a46.4,46.4,0,0,1-17,3.17A26.62,26.62,0,0,1,445.5,82.7a19.61,19.61,0,0,1-8.22-7.5,21.69,21.69,0,0,1-2.9-11.38,20.49,20.49,0,0,1,7.29-16.44,23.29,23.29,0,0,1,6.23-3.84,32,32,0,0,1,11.76-1.9,37.14,37.14,0,0,1,6.91.76c2.42.48,5.14,1.15,8.18,2a22.42,22.42,0,0,0-.68,3q-.24,1.45-.63,5.94h-1.8l-.14-3.37c0-.51,0-.92-.07-1.24a3.16,3.16,0,0,0-.38-1.21,7,7,0,0,0-2.54-1.93,32.54,32.54,0,0,0-5-1.53,24.37,24.37,0,0,0-4.68-.39,19,19,0,0,0-9.73,2.4,15.38,15.38,0,0,0-6.23,6.86,22.66,22.66,0,0,0-2.11,9.76,22,22,0,0,0,2.47,10.48,17.66,17.66,0,0,0,6.62,7.13,18.69,18.69,0,0,0,9.69,2.47,24.62,24.62,0,0,0,5-.51,15.05,15.05,0,0,0,4.12-1.39A18.75,18.75,0,0,0,469,77V73.75a9,9,0,0,0-.27-3c-.17-.3-.65-.52-1.43-.66a42.91,42.91,0,0,0-5.37-.34V67.9l9.23.21c1.8,0,3.62-.07,5.5-.21l.18,1.42-2.22,1.3a51.67,51.67,0,0,0-.35,5.83A50.1,50.1,0,0,0,474.6,82.21Z"/><path class="cls-2" d="M118,103.24v-.8l1.49,0,2.41,0c.48,0,1.22,0,2.22,0l2.27-.07a10.25,10.25,0,0,1,3.49.43,3.37,3.37,0,0,1,1.7,1.38,3.88,3.88,0,0,1,.6,2.09,4.4,4.4,0,0,1-.56,2.09,4.76,4.76,0,0,1-1.64,1.73,8.43,8.43,0,0,1-2.79,1.06c.21.3.7,1,1.48,2l3.16,4.15c.9,1.16,1.43,1.81,1.58,1.94a.85.85,0,0,0,.22.13,3.5,3.5,0,0,0,.83.06v.8c-.63,0-1.18-.08-1.66-.08s-1.09,0-1.8.08q-.83-.93-2.74-3.66c-.72-1-1.35-1.86-1.89-2.53-.88-1.12-1.72-2.14-2.51-3l.12-.38c.44,0,.77,0,1,0a5,5,0,0,0,3.46-1.08,3.66,3.66,0,0,0,1.18-2.84,3.14,3.14,0,0,0-1-2.46,4.5,4.5,0,0,0-3.07-.9,8.4,8.4,0,0,0-2.53.39c0,.44-.06.87-.07,1.26,0,.11,0,1.33-.09,3.64v5.56c0,1.14,0,2.24.06,3.32a3.9,3.9,0,0,0,.17,1.42.81.81,0,0,0,.47.33,9.15,9.15,0,0,0,1.79.13v.8c-1.18,0-2.27-.08-3.27-.08-.8,0-2.15,0-4,.08v-.8a9.38,9.38,0,0,0,1.8-.13.82.82,0,0,0,.45-.29,3.35,3.35,0,0,0,.19-1.22c0-.17,0-1.36.06-3.56v-5.79c0-1.14,0-2.25,0-3.34a4,4,0,0,0-.18-1.41.89.89,0,0,0-.46-.32A9.48,9.48,0,0,0,118,103.24Z"/><path class="cls-2" d="M135.46,120.23v-.8a5,5,0,0,0,1.73-.2.45.45,0,0,0,.25-.24,4,4,0,0,0,.18-1.31c0-1.1.07-2.05.07-2.85v-6.4q0-1.7,0-3.33a3.92,3.92,0,0,0-.19-1.41.85.85,0,0,0-.46-.32,9.34,9.34,0,0,0-1.81-.13v-.8l3.57.07,3.79-.06c1.81,0,3.13,0,3.95,0a19.37,19.37,0,0,1,2.34.14,8.73,8.73,0,0,0-.28,1.24c0,.08-.09.94-.22,2.61h-.79a13.85,13.85,0,0,0-.17-2.33,5.08,5.08,0,0,0-1.51-.39,22.09,22.09,0,0,0-2.81-.18l-1.34,0c-.69,0-1.19.06-1.49.09,0,.92-.06,1.79-.08,2.6l0,4.22c1,.06,1.88.08,2.7.08a20.47,20.47,0,0,0,2.54-.13.82.82,0,0,0,.52-.2,3.24,3.24,0,0,0,.2-1l.07-.88h.75v.24l-.06,2.6.06,2.93H146l0-.86a2.86,2.86,0,0,0-.17-1.15.84.84,0,0,0-.55-.31,16.23,16.23,0,0,0-2.76-.15c-.57,0-1.36,0-2.39.06q-.06,1.26-.06,3.72c0,1.55,0,2.72.06,3.52,1.2.1,2.55.14,4,.14a17.09,17.09,0,0,0,2.27-.1,4.89,4.89,0,0,0,1.25-.34,7.51,7.51,0,0,0,.3-1,15.58,15.58,0,0,0,.36-1.68h.84a35.4,35.4,0,0,0-.32,4.2,17.74,17.74,0,0,1-2.62.16l-7.48-.08Z"/><path class="cls-2" d="M150.88,103.24v-.8l3.83.08,3.54-.08v.8a9.2,9.2,0,0,0-1.8.13.86.86,0,0,0-.45.29,3.2,3.2,0,0,0-.18,1.22c0,.17,0,1.35-.07,3.56v1.74q2.48.09,6,.09,2.72,0,4.35-.09v-1.74c0-1.14,0-2.25-.06-3.34a4.3,4.3,0,0,0-.18-1.41.92.92,0,0,0-.47-.32,9.2,9.2,0,0,0-1.8-.13v-.8c1.8,0,3,.08,3.7.08l3.66-.08v.8a9.38,9.38,0,0,0-1.8.13.76.76,0,0,0-.43.29,2.9,2.9,0,0,0-.2,1.22c0,.17,0,1.35-.06,3.56v5.79c0,1.14,0,2.24.06,3.32a3.68,3.68,0,0,0,.17,1.42.81.81,0,0,0,.46.33,9.38,9.38,0,0,0,1.8.13v.8c-1.61,0-2.93-.08-4-.08s-2.23,0-3.4.08v-.8a9.25,9.25,0,0,0,1.81-.13.86.86,0,0,0,.45-.29,2.91,2.91,0,0,0,.19-1.22c0-.17,0-1.35.06-3.54V111.4c-2.34-.06-4.12-.09-5.33-.09s-3,0-5,.09v2.85c0,1.13,0,2.23,0,3.31A4.3,4.3,0,0,0,156,119a.84.84,0,0,0,.47.33,9.25,9.25,0,0,0,1.81.13v.8c-1.13,0-2.29-.08-3.49-.08s-2.6,0-3.88.08v-.8a9.15,9.15,0,0,0,1.79-.13.82.82,0,0,0,.45-.29,3.14,3.14,0,0,0,.19-1.22c0-.17,0-1.36.06-3.56v-5.79c0-1.14,0-2.25,0-3.34a3.78,3.78,0,0,0-.18-1.41.85.85,0,0,0-.46-.32A9.34,9.34,0,0,0,150.88,103.24Z"/><path class="cls-2" d="M171.23,120.23v-.85a6.51,6.51,0,0,0,1.24-.08,1.15,1.15,0,0,0,.45-.26,4.05,4.05,0,0,0,.6-1c.15-.31.69-1.49,1.63-3.52l3.14-7.07q.51-1.17,2.19-5.19h.81l5.35,12.57c.87,2,1.45,3.32,1.74,3.83a1.2,1.2,0,0,0,.52.58,3.74,3.74,0,0,0,1.27.15v.85c-1.3-.08-2.22-.12-2.74-.12l-4,.12v-.85a12.73,12.73,0,0,0,1.71-.09.78.78,0,0,0,.41-.18.43.43,0,0,0,.1-.29,2.21,2.21,0,0,0-.17-.72l-1.54-3.83h-7.26l-1.36,3.22a3.61,3.61,0,0,0-.37,1.27.43.43,0,0,0,.1.28.78.78,0,0,0,.43.23,9.3,9.3,0,0,0,1.63.11v.85c-1.41-.07-2.47-.11-3.17-.11S172.2,120.16,171.23,120.23Zm5.84-7h6.32l-3.12-7.54Z"/><path class="cls-2" d="M192.14,120.23v-.59a5.6,5.6,0,0,0,.86-.48.64.64,0,0,0,.14-.33,14.24,14.24,0,0,0,.13-1.6c0-.81.06-1.43.06-1.85v-7.55c0-.82,0-1.77-.06-2.88a4.66,4.66,0,0,0-.18-1.29.56.56,0,0,0-.27-.23,5.37,5.37,0,0,0-1.72-.19v-.8l1,0,2.61.06,4.62-.11a8.27,8.27,0,0,1,2.82.38,3.13,3.13,0,0,1,1.55,1.22,3.35,3.35,0,0,1,.55,1.89,3.72,3.72,0,0,1-.33,1.55,4.17,4.17,0,0,1-.89,1.26,5,5,0,0,1-1.24.86,9.23,9.23,0,0,1-1.79.61,12.44,12.44,0,0,1,2.37.41,3.89,3.89,0,0,1,1.51.8,3.38,3.38,0,0,1,.93,1.3,4.6,4.6,0,0,1,.31,1.7,5.14,5.14,0,0,1-1.12,3.26,6.63,6.63,0,0,1-2.89,2.08,8.67,8.67,0,0,1-3.13.5l-3.64-.1C194,120.13,193.24,120.17,192.14,120.23Zm3.57-10.4c.48,0,.9,0,1.26,0a9.27,9.27,0,0,0,2.4-.24,3.48,3.48,0,0,0,1.31-.63,3.07,3.07,0,0,0,.78-1,3.73,3.73,0,0,0,.3-1.55,2.54,2.54,0,0,0-1-2.26,5,5,0,0,0-2.91-.7,10.13,10.13,0,0,0-2,.2c-.07.69-.11,1.76-.11,3.21Zm0,9.11a8.46,8.46,0,0,0,2,.23,6,6,0,0,0,2.68-.51,3.55,3.55,0,0,0,1.56-1.53,5,5,0,0,0,.55-2.35,4.38,4.38,0,0,0-.52-2.21,3.11,3.11,0,0,0-1.54-1.33,9.36,9.36,0,0,0-3.37-.43c-.36,0-.82,0-1.38,0v4.74C195.71,116.06,195.72,117.17,195.75,118.94Z"/><path class="cls-2" d="M214.41,119.43v.8c-1.78,0-2.95-.08-3.5-.08l-3.87.08v-.8a9.15,9.15,0,0,0,1.79-.13.82.82,0,0,0,.45-.29,3.14,3.14,0,0,0,.19-1.22c0-.17,0-1.36.06-3.56v-5.79c0-1.14,0-2.25,0-3.34a3.78,3.78,0,0,0-.18-1.41.85.85,0,0,0-.46-.32,9.34,9.34,0,0,0-1.81-.13v-.8c1.59,0,2.82.08,3.69.08s2.06,0,3.68-.08v.8a9.2,9.2,0,0,0-1.8.13.9.9,0,0,0-.45.29,3.2,3.2,0,0,0-.18,1.22c0,.17,0,1.35-.07,3.56v5.79c0,1.14,0,2.24,0,3.32a4.33,4.33,0,0,0,.18,1.42.84.84,0,0,0,.47.33A9.25,9.25,0,0,0,214.41,119.43Z"/><path class="cls-2" d="M216.69,120.23v-.65a4.07,4.07,0,0,0,1-.57.61.61,0,0,0,.17-.29,6.42,6.42,0,0,0,.15-1.51c0-1.14.07-1.82.07-2v-6.73c0-1.14,0-2.25,0-3.34a4.3,4.3,0,0,0-.18-1.41.88.88,0,0,0-.47-.32,9.25,9.25,0,0,0-1.81-.13v-.8c2,0,3.3.08,3.79.08s1.73,0,3.59-.08v.8a9.43,9.43,0,0,0-1.81.13.83.83,0,0,0-.44.29,3.14,3.14,0,0,0-.19,1.22c0,.17,0,1.35-.06,3.56v8.41c0,.88,0,1.59.06,2.14.95.06,1.9.09,2.83.09a18.51,18.51,0,0,0,4.95-.45,5.21,5.21,0,0,0,.29-.87l.5-2.08h.84c-.18,1.25-.36,2.71-.54,4.39a8.11,8.11,0,0,1-.81.13c-.44,0-1.1,0-2,0l-7.42-.08C218.33,120.15,217.52,120.18,216.69,120.23Z"/><path class="cls-2" d="M238.73,119.43v.8c-1.77,0-2.94-.08-3.5-.08l-3.86.08v-.8a9.15,9.15,0,0,0,1.79-.13.82.82,0,0,0,.45-.29,3.35,3.35,0,0,0,.19-1.22c0-.17,0-1.36.06-3.56v-5.79c0-1.14,0-2.25,0-3.34a3.78,3.78,0,0,0-.18-1.41.89.89,0,0,0-.46-.32,9.34,9.34,0,0,0-1.81-.13v-.8c1.59,0,2.82.08,3.69.08s2.06,0,3.67-.08v.8a9.38,9.38,0,0,0-1.8.13.83.83,0,0,0-.44.29,3.35,3.35,0,0,0-.19,1.22c0,.17,0,1.35-.06,3.56v5.79c0,1.14,0,2.24,0,3.32a3.81,3.81,0,0,0,.18,1.42.85.85,0,0,0,.46.33A9.43,9.43,0,0,0,238.73,119.43Z"/><path class="cls-2" d="M240.87,106.58h-.78c0-2-.05-3.38-.13-4.14l4.29.12c1.58,0,2.63,0,3.16,0s1.88,0,4-.07l3.27-.1c-.1.93-.17,2.32-.2,4.14h-.8l-.11-1.2c-.06-.73-.11-1.14-.13-1.24a.41.41,0,0,0-.11-.21.46.46,0,0,0-.21-.1,11.76,11.76,0,0,0-1.25-.1c-.72,0-1.29-.07-1.7-.07h-1.53a31,31,0,0,0-.13,3.25v7.32c0,1.14,0,2.24,0,3.32a3.81,3.81,0,0,0,.18,1.42.85.85,0,0,0,.46.33,9.48,9.48,0,0,0,1.82.13v.8c-1.5-.06-2.62-.1-3.38-.1l-3.91.1v-.8a9.34,9.34,0,0,0,1.81-.13.75.75,0,0,0,.44-.29,3.08,3.08,0,0,0,.2-1.22c0-.17,0-1.36.06-3.56v-7.3c0-.35,0-.73,0-1.15l-.08-2.12h-1.87a19.5,19.5,0,0,0-2.57.13.5.5,0,0,0-.38.16,4.14,4.14,0,0,0-.25,1.37Z"/><path class="cls-2" d="M253.07,120.23v-.85a6.43,6.43,0,0,0,1.24-.08,1.08,1.08,0,0,0,.45-.26,4.05,4.05,0,0,0,.6-1c.15-.31.7-1.49,1.63-3.52l3.14-7.07q.51-1.17,2.2-5.19h.8l5.36,12.57c.87,2,1.44,3.32,1.73,3.83a1.25,1.25,0,0,0,.52.58,3.79,3.79,0,0,0,1.27.15v.85q-2-.12-2.73-.12l-4,.12v-.85a12.66,12.66,0,0,0,1.7-.09.75.75,0,0,0,.41-.18.44.44,0,0,0,.11-.29,2,2,0,0,0-.18-.72l-1.54-3.83h-7.26l-1.36,3.22a3.77,3.77,0,0,0-.36,1.27.39.39,0,0,0,.1.28.71.71,0,0,0,.42.23,9.44,9.44,0,0,0,1.64.11v.85c-1.42-.07-2.48-.11-3.18-.11S254,120.16,253.07,120.23Zm5.85-7h6.31l-3.12-7.54Z"/><path class="cls-2" d="M271.55,106.58h-.77c0-2-.06-3.38-.13-4.14l4.29.12c1.58,0,2.63,0,3.15,0s1.89,0,4-.07l3.28-.1c-.11.93-.17,2.32-.21,4.14h-.8l-.1-1.2a10.89,10.89,0,0,0-.14-1.24.41.41,0,0,0-.1-.21.51.51,0,0,0-.21-.1,12.07,12.07,0,0,0-1.25-.1c-.72,0-1.29-.07-1.71-.07h-1.53c-.08.81-.12,1.89-.12,3.25v7.32c0,1.14,0,2.24,0,3.32a4,4,0,0,0,.19,1.42.81.81,0,0,0,.46.33,9.34,9.34,0,0,0,1.81.13v.8c-1.49-.06-2.62-.1-3.37-.1l-3.91.1v-.8a9.43,9.43,0,0,0,1.81-.13.83.83,0,0,0,.44-.29,3.14,3.14,0,0,0,.19-1.22c0-.17,0-1.36.07-3.56v-7.3c0-.35,0-.73,0-1.15l-.07-2.12H274.9a19.39,19.39,0,0,0-2.57.13.55.55,0,0,0-.39.16,4.79,4.79,0,0,0-.25,1.37Z"/><path class="cls-2" d="M293.8,119.43v.8c-1.78,0-2.95-.08-3.5-.08l-3.87.08v-.8a9.15,9.15,0,0,0,1.79-.13.82.82,0,0,0,.45-.29,3.14,3.14,0,0,0,.19-1.22c0-.17,0-1.36.06-3.56v-5.79c0-1.14,0-2.25,0-3.34a4.3,4.3,0,0,0-.18-1.41.92.92,0,0,0-.47-.32,9.34,9.34,0,0,0-1.81-.13v-.8c1.59,0,2.82.08,3.69.08s2.06,0,3.68-.08v.8a9.2,9.2,0,0,0-1.8.13.86.86,0,0,0-.45.29,3.2,3.2,0,0,0-.18,1.22c0,.17,0,1.35-.07,3.56v5.79c0,1.14,0,2.24,0,3.32a4.33,4.33,0,0,0,.18,1.42.88.88,0,0,0,.47.33A9.25,9.25,0,0,0,293.8,119.43Z"/><path class="cls-2" d="M295.1,111.45a10.81,10.81,0,0,1,.6-3.66,7.71,7.71,0,0,1,2-3,9.34,9.34,0,0,1,3.12-2,11,11,0,0,1,4-.68,11.45,11.45,0,0,1,3.76.58,8.24,8.24,0,0,1,2.77,1.54,7.58,7.58,0,0,1,2.47,4.11,10.26,10.26,0,0,1,.29,2.47,9.5,9.5,0,0,1-2.84,7,9.79,9.79,0,0,1-7.17,2.81,10.52,10.52,0,0,1-3.67-.64,7.52,7.52,0,0,1-2.88-1.9,8.31,8.31,0,0,1-1.79-3.06A10.93,10.93,0,0,1,295.1,111.45Zm2.61-1a12.64,12.64,0,0,0,.24,2.42,11.67,11.67,0,0,0,.6,2.11,7.88,7.88,0,0,0,1.57,2.53,6.15,6.15,0,0,0,2.17,1.5,6.87,6.87,0,0,0,2.65.49,6.18,6.18,0,0,0,3.51-1,5.92,5.92,0,0,0,2.23-2.77,10.92,10.92,0,0,0,.73-4.11,12.3,12.3,0,0,0-.53-3.68,7.92,7.92,0,0,0-.86-1.86,6,6,0,0,0-3.22-2.5,7.7,7.7,0,0,0-2.57-.43,6.68,6.68,0,0,0-3.5.9,5.52,5.52,0,0,0-2.26,2.57A9.14,9.14,0,0,0,297.71,110.41Z"/><path class="cls-2" d="M315.38,120.23v-.8a5.15,5.15,0,0,0,1.74-.2.45.45,0,0,0,.25-.24,4,4,0,0,0,.18-1.31q.06-1.65.06-2.85V104.64a1.57,1.57,0,0,0-.05-.54,1.76,1.76,0,0,0-.45-.54,1.1,1.1,0,0,0-.52-.25,9.57,9.57,0,0,0-1.31-.07v-.8l2.72,0c.64,0,1.26,0,1.89,0,.7.92,1.21,1.6,1.54,2l2.56,3.18,3.74,4.55c1.19,1.45,2.16,2.59,2.88,3.43.46.55.85,1,1.17,1.3v-9.13c0-.81,0-1.77-.09-2.87a5.5,5.5,0,0,0-.16-1.29.58.58,0,0,0-.27-.24,5.84,5.84,0,0,0-1.72-.18v-.8c1,0,2,0,3,0s1.82,0,2.59,0v.8a5.37,5.37,0,0,0-1.72.19.47.47,0,0,0-.26.24A4.44,4.44,0,0,0,333,105c0,1.1-.06,2.05-.06,2.84v6q0,1.83.06,6.82l-1.29-.37-.3-.07a.37.37,0,0,1-.14-.07,5.62,5.62,0,0,1-.48-.51q-1-1.19-1.53-1.8l-1.61-2.06-8.89-10.73v9.71c0,.83,0,1.8.09,2.93A4.83,4.83,0,0,0,319,119a.53.53,0,0,0,.26.25,5.41,5.41,0,0,0,1.72.19v.8c-.73,0-1.54-.08-2.43-.08S316.52,120.18,315.38,120.23Z"/><path class="cls-2" d="M344.76,120.23v-.8a5.15,5.15,0,0,0,1.74-.2.51.51,0,0,0,.26-.24,4.8,4.8,0,0,0,.17-1.31q.06-1.65.06-2.85V104.64a1.57,1.57,0,0,0-.05-.54,1.76,1.76,0,0,0-.45-.54,1.1,1.1,0,0,0-.52-.25,9.44,9.44,0,0,0-1.31-.07v-.8l2.72,0c.64,0,1.26,0,1.89,0,.7.92,1.21,1.6,1.54,2l2.56,3.18,3.74,4.55q1.8,2.18,2.88,3.43c.47.55.85,1,1.16,1.3v-9.13c0-.81,0-1.77-.08-2.87a5,5,0,0,0-.16-1.29.63.63,0,0,0-.27-.24,5.74,5.74,0,0,0-1.72-.18v-.8c1,0,2,0,3,0s1.82,0,2.59,0v.8a5.41,5.41,0,0,0-1.72.19.45.45,0,0,0-.25.24,4,4,0,0,0-.18,1.32c0,1.1-.06,2.05-.06,2.84v6q0,1.83.06,6.82l-1.29-.37-.3-.07a.37.37,0,0,1-.14-.07,5.62,5.62,0,0,1-.48-.51q-1-1.19-1.53-1.8L357,115.79l-8.89-10.73v9.71c0,.83,0,1.8.09,2.93a4.83,4.83,0,0,0,.16,1.29.53.53,0,0,0,.26.25,5.41,5.41,0,0,0,1.72.19v.8c-.73,0-1.54-.08-2.43-.08S345.9,120.18,344.76,120.23Z"/><path class="cls-2" d="M365.85,120.23v-.8a5.08,5.08,0,0,0,1.73-.2.49.49,0,0,0,.25-.24,4.41,4.41,0,0,0,.17-1.31c.05-1.1.08-2.05.08-2.85v-6.4c0-1.13,0-2.24,0-3.33a3.78,3.78,0,0,0-.18-1.41.89.89,0,0,0-.46-.32,9.48,9.48,0,0,0-1.82-.13v-.8l3.58.07,3.78-.06c1.82,0,3.13,0,3.95,0a19.12,19.12,0,0,1,2.34.14,10.14,10.14,0,0,0-.27,1.24c0,.08-.09.94-.23,2.61h-.79a12.92,12.92,0,0,0-.16-2.33,5.14,5.14,0,0,0-1.52-.39,21.94,21.94,0,0,0-2.8-.18l-1.34,0c-.7,0-1.2.06-1.49.09,0,.92-.06,1.79-.08,2.6l-.05,4.22c1,.06,1.87.08,2.69.08a20.53,20.53,0,0,0,2.55-.13c.27,0,.44-.1.51-.2a3,3,0,0,0,.2-1l.07-.88h.76v.24l-.06,2.6.06,2.93h-.88l0-.86a2.92,2.92,0,0,0-.16-1.15.84.84,0,0,0-.55-.31,16.38,16.38,0,0,0-2.77-.15c-.56,0-1.35,0-2.38.06q-.06,1.26-.06,3.72c0,1.55,0,2.72.06,3.52,1.2.1,2.55.14,4,.14a16.91,16.91,0,0,0,2.26-.1,5.08,5.08,0,0,0,1.26-.34,7.51,7.51,0,0,0,.3-1q.27-1.11.36-1.68h.84a33.67,33.67,0,0,0-.33,4.2,17.74,17.74,0,0,1-2.62.16l-7.48-.08Z"/><path class="cls-2" d="M382.09,106.58h-.78c0-2-.05-3.38-.12-4.14l4.28.12c1.58,0,2.64,0,3.16,0s1.89,0,3.95-.07l3.27-.1c-.1.93-.16,2.32-.2,4.14h-.8l-.1-1.2c-.07-.73-.11-1.14-.14-1.24a.41.41,0,0,0-.1-.21.51.51,0,0,0-.21-.1,12.39,12.39,0,0,0-1.25-.1c-.72,0-1.29-.07-1.71-.07h-1.53c-.08.81-.12,1.89-.12,3.25v7.32c0,1.14,0,2.24,0,3.32a4,4,0,0,0,.19,1.42.81.81,0,0,0,.46.33,9.34,9.34,0,0,0,1.81.13v.8c-1.5-.06-2.62-.1-3.37-.1l-3.91.1v-.8a9.43,9.43,0,0,0,1.81-.13.76.76,0,0,0,.43-.29,2.9,2.9,0,0,0,.2-1.22c0-.17,0-1.36.06-3.56v-7.3c0-.35,0-.73,0-1.15l-.08-2.12h-1.86a19.29,19.29,0,0,0-2.57.13.55.55,0,0,0-.39.16,4.44,4.44,0,0,0-.25,1.37Z"/><path class="cls-2" d="M402.08,120.37l-1.14-5.22-2.42-10.31a3.16,3.16,0,0,0-.5-1.3,4.12,4.12,0,0,0-1.56-.35v-.75c1.41,0,2.47.08,3.19.08s1.73,0,3.25-.08v.75a7.27,7.27,0,0,0-1.89.19c-.11.05-.16.17-.16.35a6.94,6.94,0,0,0,.15,1.11c.28,1.49.46,2.44.55,2.84l2,8.68,3.1-7.71c.81-2,1.6-4.15,2.39-6.4h.8q1.15,3.56,2.07,6.1l2.95,8.17,2.13-7.47q.57-2,1.05-4.17a10.7,10.7,0,0,0,.23-1.14.41.41,0,0,0-.22-.38,8.4,8.4,0,0,0-2-.17v-.75c1.28,0,2.18.08,2.68.08s1.41,0,2.68-.08v.75a2.94,2.94,0,0,0-1.15.17,1.16,1.16,0,0,0-.48.59c-.13.29-.48,1.39-1.05,3.31l-1.29,4.22c-.13.41-.39,1.36-.79,2.84L415,120.37h-1.28c-.93-2.76-1.64-4.83-2.15-6.22l-2.86-7.73-2.49,6.19-1.57,4.1c-.22.56-.41,1.06-.56,1.5l-.75,2.16Z"/><path class="cls-2" d="M421.64,111.45a10.81,10.81,0,0,1,.6-3.66,7.71,7.71,0,0,1,2-3,9.34,9.34,0,0,1,3.12-2,11,11,0,0,1,4-.68,11.45,11.45,0,0,1,3.76.58,8.39,8.39,0,0,1,2.78,1.54,7.74,7.74,0,0,1,1.7,2.1,8,8,0,0,1,.76,2,10.27,10.27,0,0,1,.28,2.47,9.49,9.49,0,0,1-2.83,7,9.79,9.79,0,0,1-7.17,2.81,10.52,10.52,0,0,1-3.67-.64,7.52,7.52,0,0,1-2.88-1.9,8.17,8.17,0,0,1-1.79-3.06A10.93,10.93,0,0,1,421.64,111.45Zm2.61-1a12.64,12.64,0,0,0,.24,2.42,10.91,10.91,0,0,0,.6,2.11,7.71,7.71,0,0,0,1.57,2.53,6.15,6.15,0,0,0,2.17,1.5,6.87,6.87,0,0,0,2.65.49,6.18,6.18,0,0,0,3.51-1,5.9,5.9,0,0,0,2.22-2.77,10.72,10.72,0,0,0,.74-4.11,12.3,12.3,0,0,0-.53-3.68,7.92,7.92,0,0,0-.86-1.86,6,6,0,0,0-3.23-2.5,7.64,7.64,0,0,0-2.56-.43,6.68,6.68,0,0,0-3.5.9,5.52,5.52,0,0,0-2.26,2.57A9.14,9.14,0,0,0,424.25,110.41Z"/><path class="cls-2" d="M441.77,103.24v-.8l1.49,0,2.41,0c.47,0,1.21,0,2.22,0l2.26-.07a10.31,10.31,0,0,1,3.5.43,3.39,3.39,0,0,1,1.69,1.38,3.89,3.89,0,0,1,.61,2.09,4.3,4.3,0,0,1-.57,2.09,4.65,4.65,0,0,1-1.63,1.73,8.61,8.61,0,0,1-2.79,1.06c.21.3.7,1,1.48,2l3.16,4.15a23.32,23.32,0,0,0,1.58,1.94.85.85,0,0,0,.22.13,3.5,3.5,0,0,0,.83.06v.8c-.64,0-1.19-.08-1.66-.08s-1.09,0-1.81.08c-.54-.62-1.46-1.84-2.74-3.66-.71-1-1.34-1.86-1.88-2.53-.88-1.12-1.72-2.14-2.52-3l.13-.38c.43,0,.77,0,1,0a5,5,0,0,0,3.46-1.08,3.7,3.7,0,0,0,1.18-2.84,3.14,3.14,0,0,0-1-2.46,4.52,4.52,0,0,0-3.07-.9,8.35,8.35,0,0,0-2.53.39c0,.44-.06.87-.08,1.26,0,.11,0,1.33-.08,3.64v5.56c0,1.14,0,2.24.06,3.32a3.9,3.9,0,0,0,.17,1.42.81.81,0,0,0,.46.33,9.38,9.38,0,0,0,1.8.13v.8c-1.19,0-2.28-.08-3.27-.08-.8,0-2.15,0-4.05.08v-.8a9.15,9.15,0,0,0,1.79-.13A.82.82,0,0,0,444,119a3.14,3.14,0,0,0,.19-1.22c0-.17,0-1.36.06-3.56v-5.79c0-1.14,0-2.25,0-3.34a4.3,4.3,0,0,0-.18-1.41.88.88,0,0,0-.47-.32A9.34,9.34,0,0,0,441.77,103.24Z"/><path class="cls-2" d="M466.32,119.43v.8l-3.78-.08-3.55.08v-.8a9.38,9.38,0,0,0,1.8-.13.83.83,0,0,0,.44-.29,3.14,3.14,0,0,0,.19-1.22c0-.17,0-1.36.06-3.56v-5.79c0-1.14,0-2.25,0-3.34a4.3,4.3,0,0,0-.18-1.41.88.88,0,0,0-.47-.32,9.25,9.25,0,0,0-1.81-.13v-.8c1.62,0,2.86.08,3.72.08s2.06,0,3.61-.08v.8a9.15,9.15,0,0,0-1.79.13.79.79,0,0,0-.44.29,3,3,0,0,0-.2,1.22c0,.16,0,1.35-.06,3.55V111a7.63,7.63,0,0,0,1.6-1.28l1.58-1.55,2.8-2.83c1.08-1.1,1.74-1.8,2-2.11v-.8c1,0,1.78,0,2.34,0s1.27,0,2,0v.8a7.91,7.91,0,0,0-1.6.1,2.6,2.6,0,0,0-.82.37c-.53.4-1.35,1.1-2.45,2.11l-5,4.57,7.52,7c1.21,1.13,1.9,1.75,2.06,1.85a2.19,2.19,0,0,0,1,.17v.77l-1.64,0-2,0-2.09-2L469.81,117l-5.69-5.34-.29.17v2.43c0,1.14,0,2.24.06,3.32a3.9,3.9,0,0,0,.17,1.42.81.81,0,0,0,.47.33A9.15,9.15,0,0,0,466.32,119.43Z"/></svg>