<?xml version="1.0" encoding="UTF-8"?> <svg xmlns="http://www.w3.org/2000/svg" xmlns:xlink="http://www.w3.org/1999/xlink" viewBox="0 0 515.6 171.56"> <defs> <style>.cls-1{fill:none;}.cls-2{fill:#f1efef;}.cls-3{clip-path:url(#clip-path);}.cls-4{fill:#f2f0f0;}.cls-5{fill:#f3f1f1;}.cls-6{fill:#f3f2f2;}.cls-7{fill:#f4f3f4;}.cls-8{fill:#f5f5f5;}.cls-9{fill:#f6f5f6;}.cls-10{fill:#f7f7f6;}.cls-11{fill:#f7f8f8;}.cls-12{fill:#f9f9fa;}.cls-13{fill:#fafbfc;}.cls-14{fill:#fbfcfc;}.cls-15{fill:#fdfeff;}.cls-16{fill:#fff;}.cls-17{fill:#fcfdfd;}.cls-18{fill:#fbfcfe;}.cls-19{fill:#fafafb;}.cls-20{fill:#f9fbfb;}.cls-21{fill:#f8fafb;}.cls-22{fill:#f7f9fa;}.cls-23{fill:#f7f8f9;}.cls-24{fill:#f7f7f8;}.cls-25{fill:#f6f7f7;}.cls-26{fill:#f6f6f7;}.cls-27{fill:#f5f6f6;}.cls-28{fill:#f4f5f5;}.cls-29{fill:#f3f4f5;}.cls-30{fill:#f3f4f4;}.cls-31{fill:#f2f3f3;}.cls-32{fill:#f2f3f4;}.cls-33{fill:#f2f2f2;}.cls-34{fill:#f1f1f2;}.cls-35{fill:#f1f1f1;}.cls-36{fill:#f0f0f1;}.cls-37{fill:#f0f1f1;}.cls-38{fill:#efeff0;}.cls-39{fill:#efeeee;}.cls-40{fill:#eeeeef;}.cls-41{fill:#eceded;}.cls-42{fill:#ebeced;}.cls-43{fill:#eaeced;}.cls-44{fill:#eaeaec;}.cls-45{fill:#e9e9ea;}.cls-46{fill:#e8e8ea;}.cls-47{fill:#e6e7e8;}.cls-48{fill:#e6e7e7;}.cls-49{fill:#e4e6e6;}.cls-50{fill:#e5e5e6;}.cls-51{fill:#e4e4e6;}.cls-52{fill:#e2e4e4;}.cls-53{fill:#e1e3e4;}.cls-54{fill:#e1e2e4;}.cls-55{fill:#e1e2e3;}.cls-56{fill:#e0e1e2;}.cls-57{fill:#dfe0e2;}.cls-58{fill:#dddfe1;}.cls-59{fill:#dddee0;}.cls-60{fill:#dcdfdf;}.cls-61{fill:#dbddde;}.cls-62{fill:#d9dbdd;}.cls-63{fill:#d8dadc;}.cls-64{fill:#d7dbdc;}.cls-65{fill:#d7d9db;}.cls-66{fill:#d6d8da;}.cls-67{fill:#d5d7d9;}.cls-68{fill:#d5d7d8;}.cls-69{fill:#d4d6d7;}.cls-70{fill:#d3d5d7;}.cls-71{fill:#d2d5d7;}.cls-72{fill:#d1d4d5;}.cls-73{fill:#d0d3d4;}.cls-74{fill:#cfd2d3;}.cls-75{fill:#ced1d2;}.cls-76{fill:#cdd0d1;}.cls-77{fill:#cbced1;}.cls-78{fill:#cacccf;}.cls-79{fill:#c9ccce;}.cls-80{fill:#c8cbcd;}.cls-81{fill:#c7cacd;}.cls-82{fill:#c6c9cc;}.cls-83{fill:#c5c8ca;}.cls-84{fill:#c5c7ca;}.cls-85{fill:#c3c6c9;}.cls-86{fill:#c3c5c8;}.cls-87{fill:#c2c4c7;}.cls-88{fill:#c1c3c6;}.cls-89{fill:#bec2c5;}.cls-90{fill:#bdc1c4;}.cls-91{fill:#bdc0c3;}.cls-92{fill:#bcbfc3;}.cls-93{fill:#bbbec1;}.cls-94{fill:#babdc1;}.cls-95{fill:#b7bbbf;}.cls-96{fill:#b7babe;}.cls-97{fill:#b6b9bd;}.cls-98{fill:#b5b8bc;}.cls-99{fill:#b3b7bb;}.cls-100{fill:#b2b7ba;}.cls-101{fill:#b1b4b9;}.cls-102{fill:#b0b3b8;}.cls-103{fill:#afb2b6;}.cls-104{fill:#adb2b6;}.cls-105{fill:#acb0b4;}.cls-106{fill:#abafb4;}.cls-107{fill:#aaaeb3;}.cls-108{fill:#a7acb0;}.cls-109{fill:#a7abaf;}.cls-110{fill:#a6aaae;}.cls-111{fill:#a3a8ad;}.cls-112{fill:#a2a7ac;}.cls-113{fill:#a1a6aa;}.cls-114{fill:#9fa5a9;}.cls-115{fill:#9da2a7;}.cls-116{fill:#9ca1a6;}.cls-117{fill:#9aa1a6;}.cls-118{fill:#9a9fa4;}.cls-119{fill:#989da3;}.cls-120{fill:#979da3;}.cls-121{fill:#969aa0;}.cls-122{fill:#949a9f;}.cls-123{fill:#94999e;}.cls-124{fill:#92989e;}.cls-125{fill:#90969b;}.cls-126{fill:#8e949b;}.cls-127{fill:#8e9399;}.cls-128{fill:#8b9298;}.cls-129{fill:#8a9096;}.cls-130{fill:#889096;}.cls-131{fill:#878e94;}.cls-132{fill:#858c93;}.cls-133{fill:#848b91;}.cls-134{fill:#828990;}.cls-135{fill:#81888f;}.cls-136{fill:#80868d;}.cls-137{fill:#7e858b;}.cls-138{fill:#7c838a;}.cls-139{fill:#7a8288;}.cls-140{fill:#798087;}.cls-141{fill:#787f86;}.cls-142{fill:#777d85;}.cls-143{fill:#757b83;}.cls-144{fill:#737b82;}.cls-145{fill:#727980;}.cls-146{fill:#70777e;}.cls-147{fill:#6e757d;}.cls-148{fill:#6d757c;}.cls-149{fill:#6b737a;}.cls-150{fill:#697179;}.cls-151{fill:#687077;}.cls-152{fill:#666e76;}.cls-153{fill:#646d74;}.cls-154{fill:#626b73;}.cls-155{fill:#616971;}.cls-156{fill:#5f686f;}.cls-157{fill:#5d666e;}.cls-158{fill:#5b646c;}.cls-159{fill:#5a636b;}.cls-160{fill:#586169;}.cls-161{fill:#565f67;}.cls-162{fill:#545d66;}.cls-163{fill:#525c64;}.cls-164{fill:#515a63;}.cls-165{fill:#4f5861;}.cls-166{fill:#4d575f;}.cls-167{fill:#4b555e;}.cls-168{fill:#49535c;}.cls-169{fill:#47515a;}.cls-170{fill:#454f59;}.cls-171{fill:#434e57;}.cls-172{fill:#424b55;}.cls-173{fill:#404a53;}.cls-174{fill:#3e4852;}.cls-175{fill:#3c4650;}.cls-176{fill:#39454e;}.cls-177{fill:#38434d;}.cls-178{fill:#36414b;}.cls-179{fill:#343f49;}.cls-180{clip-path:url(#clip-path-2);}.cls-181{clip-path:url(#clip-path-3);}</style> <clipPath id="clip-path"> <path id="SVGID" class="cls-1" d="M40.57,127.9a53.86,53.86,0,0,0,3.64,4.28,35.15,35.15,0,0,0,16-7.83,35,35,0,0,1-9.28-39.81c0-.09.45-1,.49-1.07C43.93,85.61,39.28,87.94,34,94.08,29.73,105.29,33.64,118.75,40.57,127.9Z"></path> </clipPath> <clipPath id="clip-path-2"> <path id="SVGID-2" data-name="SVGID" class="cls-1" d="M55.54,85.91a49.89,49.89,0,0,0-5.55,1,35,35,0,0,0-1.16,17.73,35.4,35.4,0,0,1,8.23-1.74,35,35,0,0,1,30.87,13.62c.07.09.62.87.67,1,1.88-7.62,2.2-12.77-.49-20.33C80.54,87.88,66.94,84.48,55.54,85.91Z"></path> </clipPath> <clipPath id="clip-path-3"> <path id="SVGID-3" data-name="SVGID" class="cls-1" d="M84.43,119.87a53.86,53.86,0,0,0,1.89-5.24,35.07,35.07,0,0,0-14.78-9.89,35,35,0,0,1-29.82,27.93l-1.19.1c5.66,5.4,10,8.24,17.89,9.68C70.26,140.57,80,130.46,84.43,119.87Z"></path> </clipPath> </defs> <title>bwh-new-logo</title> <g id="Layer_1" data-name="Layer 1"> <path class="cls-2" d="M19.71,15.09h8.58c4,0,8.42.85,8.42,5.85a5.18,5.18,0,0,1-4,5.07v.06a5.51,5.51,0,0,1,5,5.62c0,4.81-4.55,6.4-8.64,6.4H19.71Zm5.07,9.2h3.67c1.56,0,3.19-.65,3.19-2.5s-1.82-2.4-3.41-2.4H24.78Zm0,9.52h4.55c1.59,0,3.38-.68,3.38-2.7,0-2.18-2.44-2.54-4.09-2.54H24.78ZM46.27,15.09h8.91c4.71,0,8.68,1.63,8.68,7,0,3.22-1.72,5.72-5,6.3l5.85,9.72H58.65l-4.81-9.2h-2.5v9.2H46.27Zm5.07,9.52h3c1.85,0,4.26-.06,4.26-2.57,0-2.31-2.08-2.67-3.93-2.67H51.34Zm20.55-9.52H77v23H71.89Zm35.39,21.39a20.63,20.63,0,0,1-9.65,2.21c-7.18,0-12.42-4.71-12.42-12.09S90.45,14.5,97.63,14.5c3.64,0,6.86.81,9.16,3l-3.57,3.9a7.08,7.08,0,0,0-5.59-2.18c-4.32,0-7.15,3.12-7.15,7.41S93.31,34,97.63,34a9.94,9.94,0,0,0,4.78-1.14V29.13H98.28V24.45h9Zm10.2-21.39h5.07v8.58h9.85V15.09h5.07v23H132.4V28.16h-9.85V38.1h-5.07Zm35.84,0h4.19l10,23h-5.72l-2-4.87h-8.94L149,38.1h-5.59Zm2,6.7-2.79,7.15h5.62Zm18.16-6.7h7.67l5.3,15h.06l5.33-15h7.64v23h-5.07V20.45h-.07l-6,17.65h-3.87l-5.82-17.65h-.06V38.1h-5.07Zm50,0h5.07v8.58h9.85V15.09h5.07v23H238.4V28.16h-9.85V38.1h-5.07Zm31.61,0h15.63v4.68H260.17v4.29h10v4.68h-10v4.68h11.15V38.1H255.1Zm32.73,0H292l10,23h-5.72l-2-4.87h-8.94l-1.92,4.88h-5.59Zm2,6.7L287,28.93h5.62Zm19-6.7h5.07V33.42h9.39V38.1H308.75Zm21.69,4.49h-6.57V15.09h18.2v4.49h-6.56V38.1h-5.07Zm18.45-4.49H354v8.58h9.85V15.09h5.07v23h-5.07V28.16H354V38.1H348.9Z"></path> </g> <g id="Layer_2" data-name="Layer 2"> <path class="cls-2" d="M60.09,152.76l-.18-.1C18.66,131,18.66,101.35,18.66,56.52v-.39h82.87v.39c0,44.89,0,74.55-41.25,96.15ZM19.43,56.91c0,44.26.12,73.56,40.67,95,40.55-21.33,40.67-50.66,40.67-95Z"></path> <path class="cls-2" d="M40.33,72.76a5.35,5.35,0,0,0-2-.3h-.68V79a10.15,10.15,0,0,0,1.23,0A2.8,2.8,0,0,0,41,78.14a3.6,3.6,0,0,0,.82-2.54,3.75,3.75,0,0,0-.43-1.9A2.34,2.34,0,0,0,40.33,72.76Z"></path> <path class="cls-2" d="M39.5,70.75a2.38,2.38,0,0,0,1-.41,2.14,2.14,0,0,0,.63-.87,3.33,3.33,0,0,0,.27-1.36,2.66,2.66,0,0,0-.3-1.31,1.69,1.69,0,0,0-.75-.75,3.62,3.62,0,0,0-1.46-.22,10.58,10.58,0,0,0-1.17.06c0,.49-.05,1.07-.06,1.73v3.21h.47A7.7,7.7,0,0,0,39.5,70.75Z"></path> <path class="cls-2" d="M98.36,62.94V59.51H21.68v3.92c0,17,0,33.08,4.75,47.8a59.72,59.72,0,0,0,11.39,20.69,71,71,0,0,0,22.18,17l.11.06.1-.06a71,71,0,0,0,22.1-17,59.82,59.82,0,0,0,11.33-20.72C98.39,96.35,98.37,80.14,98.36,62.94ZM45.23,77.58a5.56,5.56,0,0,1-1.35,1.64A6.61,6.61,0,0,1,42,80.29a7.85,7.85,0,0,1-2.65.4h0l-3.85-.09c-.61,0-1.61,0-2.63.1v-.87a7.79,7.79,0,0,0,1.07-.7c0-.36.06-.79.09-1.28V71.77c0-.76,0-2-.06-3.68a11.92,11.92,0,0,0-.12-2.14.21.21,0,0,0-.09-.13,6.75,6.75,0,0,0-1.82-.24V64.24h6c1.07,0,1.82-.07,2.14-.07a8.83,8.83,0,0,1,3,.41,3.14,3.14,0,0,1,2.14,3,3.55,3.55,0,0,1-.58,1.94,4,4,0,0,1-1.47,1.38,7.23,7.23,0,0,1-1.38.52,7.65,7.65,0,0,1,2,.56,3.33,3.33,0,0,1,1.38,1.43,4.13,4.13,0,0,1,.52,2.05A4.43,4.43,0,0,1,45.23,77.58Zm43.5-11.93-1.49.06a.82.82,0,0,0-.27.1.32.32,0,0,0-.1.15,6.65,6.65,0,0,0-.12,1.58v9.9A7.7,7.7,0,0,0,86.87,79a.55.55,0,0,0,.11.16.62.62,0,0,0,.26.1l1.5.06v1.41s-2.84-.14-4.15-.14-3.51.1-3.51.1V79.31s1.47-.06,1.59-.1a.33.33,0,0,0,.2-.1,2.63,2.63,0,0,0,.1-.68c.06-.77.09-1.87.09-3.36V72.82c-.49,0-1.54-.06-3.14-.06h-4V77.3C76,78.55,76,78.92,76,79a.26.26,0,0,0,.06.11.42.42,0,0,0,.18.07c.07,0,.58.06,1.58.1v1.41c-1-.05-2.29-.1-3.52-.1s-2.9,0-4.16.1V79.31l1.49-.06a.66.66,0,0,0,.27-.1A.26.26,0,0,0,72,79a6.42,6.42,0,0,0,.12-1.54v-9.9A6.42,6.42,0,0,0,72,66a.32.32,0,0,0-.09-.15.77.77,0,0,0-.28-.1l-2.33-.11a2.5,2.5,0,0,0-.8.11.79.79,0,0,0-.24.27,18.74,18.74,0,0,0-.76,2.31c-.42,1.4-1.07,3.69-1.87,6.81s-1.29,5.14-1.38,5.66h-2l-1.28-3.46-3-7.49c-.48,1.07-1.55,3.61-3.33,7.8l-1.27,3.21h-2L48.71,68.41A15.53,15.53,0,0,0,48.1,66a.58.58,0,0,0-.25-.29,5,5,0,0,0-1.32-.15V64.24l3.41.09,3.95-.09V65.6H52.6a.62.62,0,0,0-.34.12.33.33,0,0,0-.07.25,1.93,1.93,0,0,0,0,.27c0,.11.09.55.24,1.32.3,1.59.5,2.6.62,3.21l.89,4L54.64,73l1.47-3.35,1.82-4.34c.15-.36.35-.89.51-1.29h1.34c.29.8.62,1.67.88,2.34,1.16,3,1.9,4.86,2.14,5.46L64,74.68l1.18-4.56c.51-2.07.8-3.27.88-3.72a1.78,1.78,0,0,0,0-.31.42.42,0,0,0-.06-.25.44.44,0,0,0-.22-.13l-1.59-.14V64.23l2.69.1,3.52-.09c1.26,0,2.6.09,4,.09s3.52-.1,3.52-.1v1.41h-.19a7.15,7.15,0,0,0-1.4.1.37.37,0,0,0-.2.1,2.62,2.62,0,0,0-.1.7c-.07.78-.11,1.9-.11,3.35V71c.61,0,1.7.06,3.26.06,2,0,3.3,0,3.92-.06v-3.4c-.06-1-.11-1.57-.13-1.68a.28.28,0,0,0-.05-.12.62.62,0,0,0-.18-.07L81,65.64V64.23s2.28.1,3.51.1,4.15-.1,4.15-.1Z"></path> <g class="cls-3"> <polygon class="cls-2" points="43.4 132.21 60.17 122.48 60.17 132.21 43.4 132.21"></polygon> <polygon class="cls-2" points="42.28 132.21 60.17 121.84 60.17 122.48 43.4 132.21 42.28 132.21"></polygon> <polygon class="cls-4" points="41.18 132.21 60.17 121.2 60.17 121.84 42.28 132.21 41.18 132.21"></polygon> <polygon class="cls-5" points="40.08 132.21 60.17 120.57 60.17 121.2 41.18 132.21 40.08 132.21"></polygon> <polygon class="cls-6" points="39.05 132.21 39.03 132.18 60.17 119.93 60.17 120.57 40.08 132.21 39.05 132.21"></polygon> <polygon class="cls-7" points="39.03 132.18 38.75 131.7 60.17 119.28 60.17 119.93 39.03 132.18"></polygon> <polygon class="cls-8" points="38.75 131.7 38.49 131.22 60.17 118.64 60.17 119.28 38.75 131.7"></polygon> <polygon class="cls-9" points="38.49 131.22 38.21 130.75 60.17 118.01 60.17 118.64 38.49 131.22"></polygon> <polygon class="cls-10" points="38.21 130.75 37.93 130.26 60.17 117.37 60.17 118.01 38.21 130.75"></polygon> <polygon class="cls-11" points="37.93 130.26 37.65 129.78 60.17 116.73 60.17 117.37 37.93 130.26"></polygon> <polygon class="cls-12" points="37.65 129.78 37.37 129.3 60.17 116.08 60.17 116.73 37.65 129.78"></polygon> <polygon class="cls-13" points="37.37 129.3 37.09 128.83 60.17 115.45 60.17 116.08 37.37 129.3"></polygon> <polygon class="cls-14" points="37.09 128.83 36.82 128.35 60.17 114.81 60.17 115.45 37.09 128.83"></polygon> <polygon class="cls-15" points="36.82 128.35 36.54 127.87 60.17 114.17 60.17 114.81 36.82 128.35"></polygon> <polygon class="cls-16" points="36.54 127.87 36.26 127.39 60.17 113.53 60.17 114.17 36.54 127.87"></polygon> <polygon class="cls-16" points="36.26 127.39 35.98 126.91 60.17 112.88 60.17 113.53 36.26 127.39"></polygon> <polygon class="cls-16" points="35.98 126.91 35.7 126.43 60.17 112.25 60.17 112.88 35.98 126.91"></polygon> <polygon class="cls-16" points="35.7 126.43 35.64 126.31 60.17 112.09 60.17 112.25 35.7 126.43"></polygon> <polygon class="cls-16" points="35.64 126.31 35.56 126.2 60.17 111.93 60.17 112.09 35.64 126.31"></polygon> <polygon class="cls-16" points="35.56 126.2 35.5 126.08 60.17 111.77 60.17 111.93 35.56 126.2"></polygon> <polygon class="cls-16" points="35.5 126.08 35.42 125.95 60.17 111.61 60.17 111.77 35.5 126.08"></polygon> <polygon class="cls-16" points="35.42 125.95 35.36 125.83 60.17 111.45 60.17 111.61 35.42 125.95"></polygon> <polygon class="cls-16" points="35.36 125.83 35.3 125.72 60.17 111.3 60.17 111.45 35.36 125.83"></polygon> <polygon class="cls-16" points="35.3 125.72 35.22 125.6 60.17 111.14 60.17 111.3 35.3 125.72"></polygon> <polygon class="cls-16" points="35.22 125.6 35.16 125.48 60.17 110.98 60.17 111.14 35.22 125.6"></polygon> <polygon class="cls-16" points="35.16 125.48 35.08 125.36 60.17 110.82 60.17 110.98 35.16 125.48"></polygon> <polygon class="cls-16" points="35.08 125.36 35.02 125.25 60.17 110.66 60.17 110.82 35.08 125.36"></polygon> <polygon class="cls-16" points="35.02 125.25 34.94 125.13 60.17 110.5 60.17 110.66 35.02 125.25"></polygon> <polygon class="cls-16" points="34.94 125.13 34.88 125.01 60.17 110.34 60.17 110.5 34.94 125.13"></polygon> <polygon class="cls-16" points="34.88 125.01 34.81 124.89 60.17 110.19 60.17 110.34 34.88 125.01"></polygon> <polygon class="cls-16" points="34.81 124.89 34.74 124.76 60.17 110.03 60.17 110.19 34.81 124.89"></polygon> <polygon class="cls-16" points="34.74 124.76 34.68 124.64 60.17 109.87 60.17 110.03 34.74 124.76"></polygon> <polygon class="cls-16" points="34.68 124.64 34.6 124.53 60.17 109.71 60.17 109.87 34.68 124.64"></polygon> <polygon class="cls-16" points="34.6 124.53 34.54 124.41 60.17 109.55 60.17 109.71 34.6 124.53"></polygon> <polygon class="cls-16" points="34.54 124.41 34.46 124.29 60.17 109.39 60.17 109.55 34.54 124.41"></polygon> <polygon class="cls-16" points="34.46 124.29 34.4 124.17 60.17 109.23 60.17 109.39 34.46 124.29"></polygon> <polygon class="cls-16" points="34.4 124.17 34.32 124.06 60.17 109.08 60.17 109.23 34.4 124.17"></polygon> <polygon class="cls-16" points="34.32 124.06 34.26 123.94 60.17 108.91 60.17 109.08 34.32 124.06"></polygon> <polygon class="cls-16" points="34.26 123.94 34.18 123.82 60.17 108.75 60.17 108.91 34.26 123.94"></polygon> <polygon class="cls-15" points="34.18 123.82 34.12 123.69 60.17 108.59 60.17 108.75 34.18 123.82"></polygon> <polygon class="cls-15" points="34.12 123.69 34.06 123.58 60.17 108.43 60.17 108.59 34.12 123.69"></polygon> <polygon class="cls-15" points="34.06 123.58 33.98 123.46 60.17 108.28 60.17 108.43 34.06 123.58"></polygon> <polygon class="cls-15" points="33.98 123.46 33.92 123.34 60.17 108.12 60.17 108.28 33.98 123.46"></polygon> <polygon class="cls-17" points="33.92 123.34 33.84 123.22 60.17 107.96 60.17 108.12 33.92 123.34"></polygon> <polygon class="cls-18" points="33.84 123.22 33.78 123.1 60.17 107.8 60.17 107.96 33.84 123.22"></polygon> <polygon class="cls-14" points="33.78 123.1 33.7 122.99 60.17 107.64 60.17 107.8 33.78 123.1"></polygon> <polygon class="cls-14" points="33.7 122.99 33.64 122.87 60.17 107.48 60.17 107.64 33.7 122.99"></polygon> <polygon class="cls-19" points="33.64 122.87 33.57 122.75 60.17 107.32 60.17 107.48 33.64 122.87"></polygon> <polygon class="cls-13" points="33.57 122.75 33.5 122.62 60.17 107.17 60.17 107.32 33.57 122.75"></polygon> <polygon class="cls-13" points="33.5 122.62 33.44 122.5 60.17 107.01 60.17 107.17 33.5 122.62"></polygon> <polygon class="cls-20" points="33.44 122.5 33.36 122.39 60.17 106.85 60.17 107.01 33.44 122.5"></polygon> <polygon class="cls-21" points="33.36 122.39 33.3 122.27 60.17 106.69 60.17 106.85 33.36 122.39"></polygon> <polygon class="cls-12" points="33.3 122.27 33.22 122.15 60.17 106.53 60.17 106.69 33.3 122.27"></polygon> <polygon class="cls-22" points="33.22 122.15 33.16 122.03 60.17 106.37 60.17 106.53 33.22 122.15"></polygon> <polygon class="cls-23" points="33.16 122.03 33.09 121.92 60.17 106.22 60.17 106.37 33.16 122.03"></polygon> <polygon class="cls-11" points="33.09 121.92 33.02 121.8 60.17 106.06 60.17 106.22 33.09 121.92"></polygon> <polygon class="cls-24" points="33.02 121.8 32.95 121.68 60.17 105.9 60.17 106.06 33.02 121.8"></polygon> <polygon class="cls-11" points="32.95 121.68 32.88 121.55 60.17 105.74 60.17 105.9 32.95 121.68"></polygon> <polygon class="cls-25" points="32.88 121.55 32.81 121.44 60.17 105.58 60.17 105.74 32.88 121.55"></polygon> <polygon class="cls-26" points="32.81 121.44 32.74 121.32 60.17 105.42 60.17 105.58 32.81 121.44"></polygon> <polygon class="cls-27" points="32.74 121.32 32.67 121.2 60.17 105.27 60.17 105.42 32.74 121.32"></polygon> <polygon class="cls-8" points="32.67 121.2 32.6 121.08 60.17 105.11 60.17 105.27 32.67 121.2"></polygon> <polygon class="cls-28" points="32.6 121.08 32.54 120.96 60.17 104.94 60.17 105.11 32.6 121.08"></polygon> <polygon class="cls-28" points="32.54 120.96 32.46 120.85 60.17 104.78 60.17 104.94 32.54 120.96"></polygon> <polygon class="cls-29" points="32.46 120.85 32.4 120.73 60.17 104.62 60.17 104.78 32.46 120.85"></polygon> <polygon class="cls-30" points="32.4 120.73 32.33 120.61 60.17 104.46 60.17 104.62 32.4 120.73"></polygon> <polygon class="cls-30" points="32.33 120.61 32.26 120.48 60.17 104.3 60.17 104.46 32.33 120.61"></polygon> <polygon class="cls-31" points="32.26 120.48 32.19 120.36 60.17 104.15 60.17 104.3 32.26 120.48"></polygon> <polygon class="cls-32" points="32.19 120.36 32.12 120.25 60.17 103.99 60.17 104.15 32.19 120.36"></polygon> <polygon class="cls-33" points="32.12 120.25 32.05 120.13 60.17 103.83 60.17 103.99 32.12 120.25"></polygon> <polygon class="cls-34" points="32.05 120.13 31.98 120.01 60.17 103.67 60.17 103.83 32.05 120.13"></polygon> <polygon class="cls-35" points="31.98 120.01 31.91 119.89 60.17 103.51 60.17 103.67 31.98 120.01"></polygon> <polygon class="cls-36" points="31.91 119.89 31.85 119.78 60.17 103.36 60.17 103.51 31.91 119.89"></polygon> <polygon class="cls-37" points="31.85 119.78 31.78 119.66 60.17 103.2 60.17 103.36 31.85 119.78"></polygon> <polygon class="cls-38" points="31.78 119.66 31.71 119.54 60.17 103.04 60.17 103.2 31.78 119.66"></polygon> <polygon class="cls-39" points="31.71 119.54 31.64 119.42 60.17 102.88 60.17 103.04 31.71 119.54"></polygon> <polygon class="cls-40" points="31.64 119.42 31.57 119.3 60.17 102.72 60.17 102.88 31.64 119.42"></polygon> <polygon class="cls-41" points="31.57 119.3 31.5 119.18 60.17 102.56 60.17 102.72 31.57 119.3"></polygon> <polygon class="cls-41" points="31.5 119.18 31.43 119.06 60.17 102.4 60.17 102.56 31.5 119.18"></polygon> <polygon class="cls-42" points="31.43 119.06 31.36 118.94 60.17 102.25 60.17 102.4 31.43 119.06"></polygon> <polygon class="cls-43" points="31.36 118.94 31.3 118.82 60.17 102.09 60.17 102.25 31.36 118.94"></polygon> <polygon class="cls-44" points="31.3 118.82 31.23 118.71 60.17 101.93 60.17 102.09 31.3 118.82"></polygon> <polygon class="cls-45" points="31.23 118.71 31.16 118.59 60.17 101.77 60.17 101.93 31.23 118.71"></polygon> <polygon class="cls-45" points="31.16 118.59 31.09 118.47 60.17 101.61 60.17 101.77 31.16 118.59"></polygon> <polygon class="cls-45" points="31.09 118.47 31.02 118.35 60.17 101.44 60.17 101.61 31.09 118.47"></polygon> <polygon class="cls-46" points="31.02 118.35 30.95 118.22 60.17 101.28 60.17 101.44 31.02 118.35"></polygon> <polygon class="cls-47" points="30.95 118.22 30.88 118.11 60.17 101.13 60.17 101.28 30.95 118.22"></polygon> <polygon class="cls-48" points="30.88 118.11 30.81 117.99 60.17 100.97 60.17 101.13 30.88 118.11"></polygon> <polygon class="cls-47" points="30.81 117.99 30.74 117.87 60.17 100.81 60.17 100.97 30.81 117.99"></polygon> <polygon class="cls-49" points="30.74 117.87 30.67 117.75 60.17 100.65 60.17 100.81 30.74 117.87"></polygon> <polygon class="cls-50" points="30.67 117.75 30.61 117.64 60.17 100.49 60.17 100.65 30.67 117.75"></polygon> <polygon class="cls-51" points="30.61 117.64 30.54 117.52 60.17 100.33 60.17 100.49 30.61 117.64"></polygon> <polygon class="cls-52" points="30.54 117.52 30.47 117.4 60.17 100.18 60.17 100.33 30.54 117.52"></polygon> <polygon class="cls-53" points="30.47 117.4 30.4 117.28 60.17 100.02 60.17 100.18 30.47 117.4"></polygon> <polygon class="cls-54" points="30.4 117.28 30.33 117.15 60.17 99.86 60.17 100.02 30.4 117.28"></polygon> <polygon class="cls-55" points="30.33 117.15 30.26 117.04 60.17 99.7 60.17 99.86 30.33 117.15"></polygon> <polygon class="cls-56" points="30.26 117.04 30.19 116.92 60.17 99.54 60.17 99.7 30.26 117.04"></polygon> <polygon class="cls-57" points="30.19 116.92 30.13 116.8 60.17 99.38 60.17 99.54 30.19 116.92"></polygon> <polygon class="cls-58" points="30.13 116.8 30.05 116.68 60.17 99.22 60.17 99.38 30.13 116.8"></polygon> <polygon class="cls-59" points="30.05 116.68 29.99 116.57 60.17 99.07 60.17 99.22 30.05 116.68"></polygon> <polygon class="cls-60" points="29.99 116.57 29.91 116.45 60.17 98.91 60.17 99.07 29.99 116.57"></polygon> <polygon class="cls-61" points="29.91 116.45 29.85 116.33 60.17 98.75 60.17 98.91 29.91 116.45"></polygon> <polygon class="cls-61" points="29.85 116.33 29.77 116.21 60.17 98.59 60.17 98.75 29.85 116.33"></polygon> <polygon class="cls-62" points="29.77 116.21 29.73 116.14 29.73 116.07 60.17 98.43 60.17 98.59 29.77 116.21"></polygon> <polygon class="cls-63" points="29.73 115.91 60.17 98.28 60.17 98.43 29.73 116.07 29.73 115.91"></polygon> <polygon class="cls-64" points="29.73 115.75 60.17 98.12 60.17 98.28 29.73 115.91 29.73 115.75"></polygon> <polygon class="cls-65" points="29.73 115.6 60.17 97.96 60.17 98.12 29.73 115.75 29.73 115.6"></polygon> <polygon class="cls-66" points="29.73 115.44 60.17 97.8 60.17 97.96 29.73 115.6 29.73 115.44"></polygon> <polygon class="cls-67" points="29.73 115.28 60.17 97.64 60.17 97.8 29.73 115.44 29.73 115.28"></polygon> <polygon class="cls-68" points="29.73 115.12 60.17 97.47 60.17 97.64 29.73 115.28 29.73 115.12"></polygon> <polygon class="cls-69" points="29.73 114.96 60.17 97.31 60.17 97.47 29.73 115.12 29.73 114.96"></polygon> <polygon class="cls-70" points="29.73 114.8 60.17 97.16 60.17 97.31 29.73 114.96 29.73 114.8"></polygon> <polygon class="cls-71" points="29.73 114.65 60.17 97 60.17 97.16 29.73 114.8 29.73 114.65"></polygon> <polygon class="cls-72" points="29.73 114.49 60.17 96.84 60.17 97 29.73 114.65 29.73 114.49"></polygon> <polygon class="cls-73" points="29.73 114.33 60.17 96.68 60.17 96.84 29.73 114.49 29.73 114.33"></polygon> <polygon class="cls-74" points="29.73 114.17 60.17 96.52 60.17 96.68 29.73 114.33 29.73 114.17"></polygon> <polygon class="cls-75" points="29.73 114.01 60.17 96.36 60.17 96.52 29.73 114.17 29.73 114.01"></polygon> <polygon class="cls-76" points="29.73 113.85 60.17 96.2 60.17 96.36 29.73 114.01 29.73 113.85"></polygon> <polygon class="cls-77" points="29.73 113.69 60.17 96.05 60.17 96.2 29.73 113.85 29.73 113.69"></polygon> <polygon class="cls-78" points="29.73 113.54 60.17 95.89 60.17 96.05 29.73 113.69 29.73 113.54"></polygon> <polygon class="cls-79" points="29.73 113.38 60.17 95.73 60.17 95.89 29.73 113.54 29.73 113.38"></polygon> <polygon class="cls-80" points="29.73 113.22 60.17 95.57 60.17 95.73 29.73 113.38 29.73 113.22"></polygon> <polygon class="cls-81" points="29.73 113.06 60.17 95.41 60.17 95.57 29.73 113.22 29.73 113.06"></polygon> <polygon class="cls-82" points="29.73 112.89 60.17 95.26 60.17 95.41 29.73 113.06 29.73 112.89"></polygon> <polygon class="cls-83" points="29.73 112.73 60.17 95.1 60.17 95.26 29.73 112.89 29.73 112.73"></polygon> <polygon class="cls-84" points="29.73 112.58 60.17 94.94 60.17 95.1 29.73 112.73 29.73 112.58"></polygon> <polygon class="cls-85" points="29.73 112.42 60.17 94.78 60.17 94.94 29.73 112.58 29.73 112.42"></polygon> <polygon class="cls-86" points="29.73 112.26 60.17 94.62 60.17 94.78 29.73 112.42 29.73 112.26"></polygon> <polygon class="cls-87" points="29.73 112.1 60.15 94.48 60.17 94.51 60.17 94.62 29.73 112.26 29.73 112.1"></polygon> <polygon class="cls-88" points="29.73 111.94 60.07 94.35 60.15 94.48 29.73 112.1 29.73 111.94"></polygon> <polygon class="cls-89" points="29.73 111.78 60.01 94.23 60.07 94.35 29.73 111.94 29.73 111.78"></polygon> <polygon class="cls-90" points="29.73 111.62 59.93 94.11 60.01 94.23 29.73 111.78 29.73 111.62"></polygon> <polygon class="cls-91" points="29.73 111.47 59.87 94 59.93 94.11 29.73 111.62 29.73 111.47"></polygon> <polygon class="cls-92" points="29.73 111.31 59.8 93.88 59.87 94 29.73 111.47 29.73 111.31"></polygon> <polygon class="cls-93" points="29.73 111.15 59.73 93.76 59.8 93.88 29.73 111.31 29.73 111.15"></polygon> <polygon class="cls-94" points="29.73 110.99 59.66 93.64 59.73 93.76 29.73 111.15 29.73 110.99"></polygon> <polygon class="cls-95" points="29.73 110.83 59.59 93.53 59.66 93.64 29.73 110.99 29.73 110.83"></polygon> <polygon class="cls-96" points="29.73 110.67 59.52 93.41 59.59 93.53 29.73 110.83 29.73 110.67"></polygon> <polygon class="cls-97" points="29.73 110.52 59.45 93.28 59.52 93.41 29.73 110.67 29.73 110.52"></polygon> <polygon class="cls-98" points="29.73 110.36 59.39 93.16 59.45 93.28 29.73 110.52 29.73 110.36"></polygon> <polygon class="cls-99" points="29.73 110.2 59.31 93.04 59.39 93.16 29.73 110.36 29.73 110.2"></polygon> <polygon class="cls-100" points="29.73 110.04 59.25 92.93 59.31 93.04 29.73 110.2 29.73 110.04"></polygon> <polygon class="cls-101" points="29.73 109.88 59.17 92.81 59.25 92.93 29.73 110.04 29.73 109.88"></polygon> <polygon class="cls-102" points="29.73 109.72 59.11 92.69 59.17 92.81 29.73 109.88 29.73 109.72"></polygon> <polygon class="cls-103" points="29.73 109.57 59.04 92.57 59.11 92.69 29.73 109.72 29.73 109.57"></polygon> <polygon class="cls-104" points="29.73 109.41 58.97 92.46 59.04 92.57 29.73 109.57 29.73 109.41"></polygon> <polygon class="cls-105" points="29.73 109.25 58.9 92.34 58.97 92.46 29.73 109.41 29.73 109.25"></polygon> <polygon class="cls-106" points="29.73 109.09 58.83 92.21 58.9 92.34 29.73 109.25 29.73 109.09"></polygon> <polygon class="cls-107" points="29.73 108.92 58.77 92.09 58.83 92.21 29.73 109.09 29.73 108.92"></polygon> <polygon class="cls-108" points="29.73 108.76 58.7 91.97 58.77 92.09 29.73 108.92 29.73 108.76"></polygon> <polygon class="cls-109" points="29.73 108.6 58.63 91.86 58.7 91.97 29.73 108.76 29.73 108.6"></polygon> <polygon class="cls-110" points="29.73 108.45 58.56 91.74 58.63 91.86 29.73 108.6 29.73 108.45"></polygon> <polygon class="cls-111" points="29.73 108.29 58.49 91.62 58.56 91.74 29.73 108.45 29.73 108.29"></polygon> <polygon class="cls-112" points="29.73 108.13 58.42 91.5 58.49 91.62 29.73 108.29 29.73 108.13"></polygon> <polygon class="cls-113" points="29.73 107.97 58.35 91.39 58.42 91.5 29.73 108.13 29.73 107.97"></polygon> <polygon class="cls-114" points="29.73 107.81 58.28 91.27 58.35 91.39 29.73 107.97 29.73 107.81"></polygon> <polygon class="cls-115" points="29.73 107.65 58.21 91.14 58.28 91.27 29.73 107.81 29.73 107.65"></polygon> <polygon class="cls-116" points="29.73 107.5 58.14 91.02 58.21 91.14 29.73 107.65 29.73 107.5"></polygon> <polygon class="cls-117" points="29.73 107.34 58.08 90.9 58.14 91.02 29.73 107.5 29.73 107.34"></polygon> <polygon class="cls-118" points="29.73 107.18 58.01 90.79 58.08 90.9 29.73 107.34 29.73 107.18"></polygon> <polygon class="cls-119" points="29.73 107.02 57.94 90.67 58.01 90.79 29.73 107.18 29.73 107.02"></polygon> <polygon class="cls-120" points="29.73 106.86 57.87 90.55 57.94 90.67 29.73 107.02 29.73 106.86"></polygon> <polygon class="cls-121" points="29.73 106.7 57.8 90.43 57.87 90.55 29.73 106.86 29.73 106.7"></polygon> <polygon class="cls-122" points="29.73 106.55 57.73 90.31 57.8 90.43 29.73 106.7 29.73 106.55"></polygon> <polygon class="cls-123" points="29.73 106.39 57.66 90.2 57.73 90.31 29.73 106.55 29.73 106.39"></polygon> <polygon class="cls-124" points="29.73 106.23 57.59 90.08 57.66 90.2 29.73 106.39 29.73 106.23"></polygon> <polygon class="cls-125" points="29.73 106.07 57.52 89.96 57.59 90.08 29.73 106.23 29.73 106.07"></polygon> <polygon class="cls-126" points="29.73 105.91 57.45 89.83 57.52 89.96 29.73 106.07 29.73 105.91"></polygon> <polygon class="cls-127" points="29.73 105.75 57.38 89.72 57.45 89.83 29.73 105.91 29.73 105.75"></polygon> <polygon class="cls-128" points="29.73 105.59 57.32 89.6 57.38 89.72 29.73 105.75 29.73 105.59"></polygon> <polygon class="cls-129" points="29.73 105.44 57.24 89.48 57.32 89.6 29.73 105.59 29.73 105.44"></polygon> <polygon class="cls-130" points="29.73 105.28 57.18 89.36 57.24 89.48 29.73 105.44 29.73 105.28"></polygon> <polygon class="cls-131" points="29.73 105.11 57.11 89.25 57.18 89.36 29.73 105.28 29.73 105.11"></polygon> <polygon class="cls-132" points="29.73 104.95 57.04 89.13 57.11 89.25 29.73 105.11 29.73 104.95"></polygon> <polygon class="cls-133" points="29.73 104.79 56.97 89.01 57.04 89.13 29.73 104.95 29.73 104.79"></polygon> <polygon class="cls-134" points="29.73 104.63 56.9 88.89 56.97 89.01 29.73 104.79 29.73 104.63"></polygon> <polygon class="cls-135" points="29.73 104.48 56.84 88.76 56.9 88.89 29.73 104.63 29.73 104.48"></polygon> <polygon class="cls-136" points="29.73 104.32 56.76 88.65 56.84 88.76 29.73 104.48 29.73 104.32"></polygon> <polygon class="cls-137" points="29.73 104.16 56.7 88.53 56.76 88.65 29.73 104.32 29.73 104.16"></polygon> <polygon class="cls-138" points="29.73 104 56.63 88.41 56.7 88.53 29.73 104.16 29.73 104"></polygon> <polygon class="cls-139" points="29.73 103.84 56.56 88.29 56.63 88.41 29.73 104 29.73 103.84"></polygon> <polygon class="cls-140" points="29.73 103.68 56.49 88.17 56.56 88.29 29.73 103.84 29.73 103.68"></polygon> <polygon class="cls-141" points="29.73 103.53 56.42 88.06 56.49 88.17 29.73 103.68 29.73 103.53"></polygon> <polygon class="cls-142" points="29.73 103.37 56.36 87.94 56.42 88.06 29.73 103.53 29.73 103.37"></polygon> <polygon class="cls-143" points="29.73 103.21 56.28 87.82 56.36 87.94 29.73 103.37 29.73 103.21"></polygon> <polygon class="cls-144" points="29.73 103.05 56.22 87.69 56.28 87.82 29.73 103.21 29.73 103.05"></polygon> <polygon class="cls-145" points="29.73 102.89 56.14 87.58 56.22 87.69 29.73 103.05 29.73 102.89"></polygon> <polygon class="cls-146" points="29.73 102.73 56.08 87.46 56.14 87.58 29.73 102.89 29.73 102.73"></polygon> <polygon class="cls-147" points="29.73 102.57 56 87.34 56.08 87.46 29.73 102.73 29.73 102.57"></polygon> <polygon class="cls-148" points="29.73 102.42 55.94 87.22 56 87.34 29.73 102.57 29.73 102.42"></polygon> <polygon class="cls-149" points="29.73 102.26 55.87 87.11 55.94 87.22 29.73 102.42 29.73 102.26"></polygon> <polygon class="cls-150" points="29.73 102.1 55.8 86.99 55.87 87.11 29.73 102.26 29.73 102.1"></polygon> <polygon class="cls-151" points="29.73 101.94 55.73 86.87 55.8 86.99 29.73 102.1 29.73 101.94"></polygon> <polygon class="cls-152" points="29.73 101.78 55.66 86.75 55.73 86.87 29.73 101.94 29.73 101.78"></polygon> <polygon class="cls-153" points="29.73 101.62 55.6 86.62 55.66 86.75 29.73 101.78 29.73 101.62"></polygon> <polygon class="cls-154" points="29.73 101.47 55.52 86.51 55.6 86.62 29.73 101.62 29.73 101.47"></polygon> <polygon class="cls-155" points="29.73 101.31 55.46 86.39 55.52 86.51 29.73 101.47 29.73 101.31"></polygon> <polygon class="cls-156" points="29.73 101.14 55.38 86.27 55.46 86.39 29.73 101.31 29.73 101.14"></polygon> <polygon class="cls-157" points="29.73 100.98 55.32 86.15 55.38 86.27 29.73 101.14 29.73 100.98"></polygon> <polygon class="cls-158" points="29.73 100.82 55.24 86.03 55.32 86.15 29.73 100.98 29.73 100.82"></polygon> <polygon class="cls-159" points="29.73 100.66 55.18 85.92 55.24 86.03 29.73 100.82 29.73 100.66"></polygon> <polygon class="cls-160" points="29.73 100.5 55.1 85.8 55.18 85.92 29.73 100.66 29.73 100.5"></polygon> <polygon class="cls-161" points="29.73 100.35 55.04 85.68 55.1 85.8 29.73 100.5 29.73 100.35"></polygon> <polygon class="cls-162" points="29.73 100.19 54.98 85.56 55.04 85.68 29.73 100.35 29.73 100.19"></polygon> <polygon class="cls-163" points="29.73 100.03 54.9 85.44 54.98 85.56 29.73 100.19 29.73 100.03"></polygon> <polygon class="cls-164" points="29.73 99.87 54.84 85.32 54.9 85.44 29.73 100.03 29.73 99.87"></polygon> <polygon class="cls-165" points="29.73 99.71 54.76 85.2 54.84 85.32 29.73 99.87 29.73 99.71"></polygon> <polygon class="cls-166" points="29.73 99.55 54.7 85.08 54.76 85.2 29.73 99.71 29.73 99.55"></polygon> <polygon class="cls-167" points="29.73 99.4 54.62 84.97 54.7 85.08 29.73 99.55 29.73 99.4"></polygon> <polygon class="cls-168" points="29.73 99.24 54.56 84.85 54.62 84.97 29.73 99.4 29.73 99.24"></polygon> <polygon class="cls-169" points="29.73 99.08 54.49 84.73 54.56 84.85 29.73 99.24 29.73 99.08"></polygon> <polygon class="cls-170" points="29.73 98.92 54.42 84.61 54.49 84.73 29.73 99.08 29.73 98.92"></polygon> <polygon class="cls-171" points="29.73 98.76 54.36 84.49 54.42 84.61 29.73 98.92 29.73 98.76"></polygon> <polygon class="cls-172" points="29.73 98.6 54.28 84.36 54.36 84.49 29.73 98.76 29.73 98.6"></polygon> <polygon class="cls-173" points="29.73 98.45 54.22 84.25 54.28 84.36 29.73 98.6 29.73 98.45"></polygon> <polygon class="cls-174" points="29.73 98.29 54.14 84.13 54.22 84.25 29.73 98.45 29.73 98.29"></polygon> <polygon class="cls-175" points="29.73 98.13 54.08 84.01 54.14 84.13 29.73 98.29 29.73 98.13"></polygon> <polygon class="cls-176" points="29.73 97.97 54 83.89 54.08 84.01 29.73 98.13 29.73 97.97"></polygon> <polygon class="cls-177" points="29.73 97.81 53.94 83.78 54 83.89 29.73 97.97 29.73 97.81"></polygon> <polygon class="cls-178" points="29.73 97.65 53.87 83.66 53.94 83.78 29.73 97.81 29.73 97.65"></polygon> <polygon class="cls-179" points="29.73 97.48 53.8 83.54 53.87 83.66 29.73 97.65 29.73 97.48"></polygon> <polygon class="cls-179" points="53.77 83.48 53.8 83.54 29.73 97.48 29.73 83.48 53.77 83.48"></polygon> </g> <g class="cls-180"> <polygon class="cls-2" points="50.4 84.48 50.46 117.51 47.68 117.51 47.68 84.48 50.4 84.48"></polygon> <polygon class="cls-2" points="50.95 84.48 51.02 117.51 50.46 117.51 50.4 84.48 50.95 84.48"></polygon> <polygon class="cls-4" points="51.51 84.48 51.57 117.51 51.02 117.51 50.95 84.48 51.51 84.48"></polygon> <polygon class="cls-5" points="52.05 84.48 52.12 117.51 51.57 117.51 51.51 84.48 52.05 84.48"></polygon> <polygon class="cls-6" points="52.61 84.48 52.68 117.51 52.12 117.51 52.05 84.48 52.61 84.48"></polygon> <polygon class="cls-7" points="53.17 84.48 53.23 117.51 52.68 117.51 52.61 84.48 53.17 84.48"></polygon> <polygon class="cls-8" points="53.71 84.48 53.78 117.51 53.23 117.51 53.17 84.48 53.71 84.48"></polygon> <polygon class="cls-9" points="54.27 84.48 54.34 117.51 53.78 117.51 53.71 84.48 54.27 84.48"></polygon> <polygon class="cls-10" points="54.83 84.48 54.89 117.51 54.34 117.51 54.27 84.48 54.83 84.48"></polygon> <polygon class="cls-11" points="55.37 84.48 55.45 117.51 54.89 117.51 54.83 84.48 55.37 84.48"></polygon> <polygon class="cls-12" points="55.93 84.48 55.99 117.51 55.45 117.51 55.37 84.48 55.93 84.48"></polygon> <polygon class="cls-13" points="56.49 84.48 56.55 117.51 55.99 117.51 55.93 84.48 56.49 84.48"></polygon> <polygon class="cls-14" points="57.04 84.48 57.11 117.51 56.55 117.51 56.49 84.48 57.04 84.48"></polygon> <polygon class="cls-15" points="57.59 84.48 57.65 117.51 57.11 117.51 57.04 84.48 57.59 84.48"></polygon> <polygon class="cls-16" points="58.14 84.48 58.21 117.51 57.65 117.51 57.59 84.48 58.14 84.48"></polygon> <polygon class="cls-16" points="58.7 84.48 58.77 117.51 58.21 117.51 58.14 84.48 58.7 84.48"></polygon> <polygon class="cls-16" points="59.25 84.48 59.31 117.51 58.77 117.51 58.7 84.48 59.25 84.48"></polygon> <polygon class="cls-16" points="59.39 84.48 59.45 117.51 59.31 117.51 59.25 84.48 59.39 84.48"></polygon> <polygon class="cls-16" points="59.52 84.48 59.59 117.51 59.45 117.51 59.39 84.48 59.52 84.48"></polygon> <polygon class="cls-16" points="59.66 84.48 59.73 117.51 59.59 117.51 59.52 84.48 59.66 84.48"></polygon> <polygon class="cls-16" points="59.8 84.48 59.87 117.51 59.73 117.51 59.66 84.48 59.8 84.48"></polygon> <polygon class="cls-16" points="59.94 84.48 60.01 117.51 59.87 117.51 59.8 84.48 59.94 84.48"></polygon> <polygon class="cls-16" points="60.07 84.48 60.13 117.51 60.01 117.51 59.94 84.48 60.07 84.48"></polygon> <polygon class="cls-16" points="60.21 84.48 60.27 117.51 60.13 117.51 60.07 84.48 60.21 84.48"></polygon> <polygon class="cls-16" points="60.35 84.48 60.41 117.51 60.27 117.51 60.21 84.48 60.35 84.48"></polygon> <polygon class="cls-16" points="60.49 84.48 60.55 117.51 60.41 117.51 60.35 84.48 60.49 84.48"></polygon> <polygon class="cls-16" points="60.63 84.48 60.69 117.51 60.55 117.51 60.49 84.48 60.63 84.48"></polygon> <polygon class="cls-16" points="60.77 84.48 60.83 117.51 60.69 117.51 60.63 84.48 60.77 84.48"></polygon> <polygon class="cls-16" points="60.91 84.48 60.96 117.51 60.83 117.51 60.77 84.48 60.91 84.48"></polygon> <polygon class="cls-16" points="61.03 84.48 61.1 117.51 60.96 117.51 60.91 84.48 61.03 84.48"></polygon> <polygon class="cls-16" points="61.17 84.48 61.24 117.51 61.1 117.51 61.03 84.48 61.17 84.48"></polygon> <polygon class="cls-16" points="61.31 84.48 61.38 117.51 61.24 117.51 61.17 84.48 61.31 84.48"></polygon> <polygon class="cls-16" points="61.45 84.48 61.52 117.51 61.38 117.51 61.31 84.48 61.45 84.48"></polygon> <polygon class="cls-16" points="61.59 84.48 61.65 117.51 61.52 117.51 61.45 84.48 61.59 84.48"></polygon> <polygon class="cls-16" points="61.72 84.48 61.79 117.51 61.65 117.51 61.59 84.48 61.72 84.48"></polygon> <polygon class="cls-16" points="61.86 84.48 61.92 117.51 61.79 117.51 61.72 84.48 61.86 84.48"></polygon> <polygon class="cls-16" points="62 84.48 62.06 117.51 61.92 117.51 61.86 84.48 62 84.48"></polygon> <polygon class="cls-16" points="62.14 84.48 62.2 117.51 62.06 117.51 62 84.48 62.14 84.48"></polygon> <polygon class="cls-16" points="62.27 84.48 62.34 117.51 62.2 117.51 62.14 84.48 62.27 84.48"></polygon> <polygon class="cls-15" points="62.41 84.48 62.48 117.51 62.34 117.51 62.27 84.48 62.41 84.48"></polygon> <polygon class="cls-15" points="62.55 84.48 62.62 117.51 62.48 117.51 62.41 84.48 62.55 84.48"></polygon> <polygon class="cls-15" points="62.68 84.48 62.75 117.51 62.62 117.51 62.55 84.48 62.68 84.48"></polygon> <polygon class="cls-15" points="62.82 84.48 62.88 117.51 62.75 117.51 62.68 84.48 62.82 84.48"></polygon> <polygon class="cls-17" points="62.96 84.48 63.02 117.51 62.88 117.51 62.82 84.48 62.96 84.48"></polygon> <polygon class="cls-18" points="63.1 84.48 63.16 117.51 63.02 117.51 62.96 84.48 63.1 84.48"></polygon> <polygon class="cls-14" points="63.24 84.48 63.3 117.51 63.16 117.51 63.1 84.48 63.24 84.48"></polygon> <polygon class="cls-14" points="63.38 84.48 63.44 117.51 63.3 117.51 63.24 84.48 63.38 84.48"></polygon> <polygon class="cls-19" points="63.52 84.48 63.57 117.51 63.44 117.51 63.38 84.48 63.52 84.48"></polygon> <polygon class="cls-13" points="63.65 84.48 63.71 117.51 63.57 117.51 63.52 84.48 63.65 84.48"></polygon> <polygon class="cls-13" points="63.78 84.48 63.85 117.51 63.71 117.51 63.65 84.48 63.78 84.48"></polygon> <polygon class="cls-20" points="63.92 84.48 63.99 117.51 63.85 117.51 63.78 84.48 63.92 84.48"></polygon> <polygon class="cls-21" points="64.06 84.48 64.13 117.51 63.99 117.51 63.92 84.48 64.06 84.48"></polygon> <polygon class="cls-12" points="64.2 84.48 64.27 117.51 64.13 117.51 64.06 84.48 64.2 84.48"></polygon> <polygon class="cls-22" points="64.33 84.48 64.39 117.51 64.27 117.51 64.2 84.48 64.33 84.48"></polygon> <polygon class="cls-23" points="64.47 84.48 64.53 117.51 64.39 117.51 64.33 84.48 64.47 84.48"></polygon> <polygon class="cls-11" points="64.61 84.48 64.67 117.51 64.53 117.51 64.47 84.48 64.61 84.48"></polygon> <polygon class="cls-24" points="64.75 84.48 64.81 117.51 64.67 117.51 64.61 84.48 64.75 84.48"></polygon> <polygon class="cls-11" points="64.89 84.48 64.95 117.51 64.81 117.51 64.75 84.48 64.89 84.48"></polygon> <polygon class="cls-25" points="65.03 84.48 65.09 117.51 64.95 117.51 64.89 84.48 65.03 84.48"></polygon> <polygon class="cls-26" points="65.16 84.48 65.23 117.51 65.09 117.51 65.03 84.48 65.16 84.48"></polygon> <polygon class="cls-27" points="65.29 84.48 65.36 117.51 65.23 117.51 65.16 84.48 65.29 84.48"></polygon> <polygon class="cls-8" points="65.43 84.48 65.5 117.51 65.36 117.51 65.29 84.48 65.43 84.48"></polygon> <polygon class="cls-28" points="65.57 84.48 65.64 117.51 65.5 117.51 65.43 84.48 65.57 84.48"></polygon> <polygon class="cls-28" points="65.71 84.48 65.77 117.51 65.64 117.51 65.57 84.48 65.71 84.48"></polygon> <polygon class="cls-29" points="65.85 84.48 65.91 117.51 65.77 117.51 65.71 84.48 65.85 84.48"></polygon> <polygon class="cls-30" points="65.99 84.48 66.05 117.51 65.91 117.51 65.85 84.48 65.99 84.48"></polygon> <polygon class="cls-30" points="66.12 84.48 66.18 117.51 66.05 117.51 65.99 84.48 66.12 84.48"></polygon> <polygon class="cls-31" points="66.26 84.48 66.32 117.51 66.18 117.51 66.12 84.48 66.26 84.48"></polygon> <polygon class="cls-32" points="66.39 84.48 66.46 117.51 66.32 117.51 66.26 84.48 66.39 84.48"></polygon> <polygon class="cls-33" points="66.53 84.48 66.6 117.51 66.46 117.51 66.39 84.48 66.53 84.48"></polygon> <polygon class="cls-34" points="66.67 84.48 66.74 117.51 66.6 117.51 66.53 84.48 66.67 84.48"></polygon> <polygon class="cls-35" points="66.81 84.48 66.88 117.51 66.74 117.51 66.67 84.48 66.81 84.48"></polygon> <polygon class="cls-36" points="66.95 84.48 67 117.51 66.88 117.51 66.81 84.48 66.95 84.48"></polygon> <polygon class="cls-37" points="67.08 84.48 67.14 117.51 67 117.51 66.95 84.48 67.08 84.48"></polygon> <polygon class="cls-38" points="67.22 84.48 67.28 117.51 67.14 117.51 67.08 84.48 67.22 84.48"></polygon> <polygon class="cls-39" points="67.36 84.48 67.42 117.51 67.28 117.51 67.22 84.48 67.36 84.48"></polygon> <polygon class="cls-40" points="67.5 84.48 67.56 117.51 67.42 117.51 67.36 84.48 67.5 84.48"></polygon> <polygon class="cls-41" points="67.64 84.48 67.7 117.51 67.56 117.51 67.5 84.48 67.64 84.48"></polygon> <polygon class="cls-41" points="67.77 84.48 67.84 117.51 67.7 117.51 67.64 84.48 67.77 84.48"></polygon> <polygon class="cls-42" points="67.9 84.48 67.97 117.51 67.84 117.51 67.77 84.48 67.9 84.48"></polygon> <polygon class="cls-43" points="68.04 84.48 68.11 117.51 67.97 117.51 67.9 84.48 68.04 84.48"></polygon> <polygon class="cls-44" points="68.18 84.48 68.25 117.51 68.11 117.51 68.04 84.48 68.18 84.48"></polygon> <polygon class="cls-45" points="68.32 84.48 68.39 117.51 68.25 117.51 68.18 84.48 68.32 84.48"></polygon> <polygon class="cls-45" points="68.46 84.48 68.53 117.51 68.39 117.51 68.32 84.48 68.46 84.48"></polygon> <polygon class="cls-45" points="68.6 84.48 68.66 117.51 68.53 117.51 68.46 84.48 68.6 84.48"></polygon> <polygon class="cls-46" points="68.73 84.48 68.79 117.51 68.66 117.51 68.6 84.48 68.73 84.48"></polygon> <polygon class="cls-47" points="68.87 84.48 68.93 117.51 68.79 117.51 68.73 84.48 68.87 84.48"></polygon> <polygon class="cls-48" points="69.01 84.48 69.07 117.51 68.93 117.51 68.87 84.48 69.01 84.48"></polygon> <polygon class="cls-47" points="69.14 84.48 69.21 117.51 69.07 117.51 69.01 84.48 69.14 84.48"></polygon> <polygon class="cls-49" points="69.28 84.48 69.35 117.51 69.21 117.51 69.14 84.48 69.28 84.48"></polygon> <polygon class="cls-50" points="69.42 84.48 69.49 117.51 69.35 117.51 69.28 84.48 69.42 84.48"></polygon> <polygon class="cls-51" points="69.55 84.48 69.62 117.51 69.49 117.51 69.42 84.48 69.55 84.48"></polygon> <polygon class="cls-52" points="69.69 84.48 69.75 117.51 69.62 117.51 69.55 84.48 69.69 84.48"></polygon> <polygon class="cls-53" points="69.83 84.48 69.89 117.51 69.75 117.51 69.69 84.48 69.83 84.48"></polygon> <polygon class="cls-54" points="69.97 84.48 70.03 117.51 69.89 117.51 69.83 84.48 69.97 84.48"></polygon> <polygon class="cls-55" points="70.11 84.48 70.17 117.51 70.03 117.51 69.97 84.48 70.11 84.48"></polygon> <polygon class="cls-56" points="70.25 84.48 70.31 117.51 70.17 117.51 70.11 84.48 70.25 84.48"></polygon> <polygon class="cls-57" points="70.39 84.48 70.44 117.51 70.31 117.51 70.25 84.48 70.39 84.48"></polygon> <polygon class="cls-58" points="70.52 84.48 70.58 117.51 70.44 117.51 70.39 84.48 70.52 84.48"></polygon> <polygon class="cls-59" points="70.65 84.48 70.72 117.51 70.58 117.51 70.52 84.48 70.65 84.48"></polygon> <polygon class="cls-60" points="70.79 84.48 70.86 117.51 70.72 117.51 70.65 84.48 70.79 84.48"></polygon> <polygon class="cls-61" points="70.93 84.48 71 117.51 70.86 117.51 70.79 84.48 70.93 84.48"></polygon> <polygon class="cls-61" points="71.07 84.48 71.14 117.51 71 117.51 70.93 84.48 71.07 84.48"></polygon> <polygon class="cls-62" points="71.2 84.48 71.28 117.51 71.14 117.51 71.07 84.48 71.2 84.48"></polygon> <polygon class="cls-63" points="71.34 84.48 71.4 117.51 71.28 117.51 71.2 84.48 71.34 84.48"></polygon> <polygon class="cls-64" points="71.48 84.48 71.54 117.51 71.4 117.51 71.34 84.48 71.48 84.48"></polygon> <polygon class="cls-65" points="71.62 84.48 71.68 117.51 71.54 117.51 71.48 84.48 71.62 84.48"></polygon> <polygon class="cls-66" points="71.76 84.48 71.82 117.51 71.68 117.51 71.62 84.48 71.76 84.48"></polygon> <polygon class="cls-67" points="71.9 84.48 71.96 117.51 71.82 117.51 71.76 84.48 71.9 84.48"></polygon> <polygon class="cls-68" points="72.03 84.48 72.1 117.51 71.96 117.51 71.9 84.48 72.03 84.48"></polygon> <polygon class="cls-69" points="72.16 84.48 72.23 117.51 72.1 117.51 72.03 84.48 72.16 84.48"></polygon> <polygon class="cls-70" points="72.3 84.48 72.37 117.51 72.23 117.51 72.16 84.48 72.3 84.48"></polygon> <polygon class="cls-71" points="72.44 84.48 72.51 117.51 72.37 117.51 72.3 84.48 72.44 84.48"></polygon> <polygon class="cls-72" points="72.58 84.48 72.64 117.51 72.51 117.51 72.44 84.48 72.58 84.48"></polygon> <polygon class="cls-73" points="72.72 84.48 72.78 117.51 72.64 117.51 72.58 84.48 72.72 84.48"></polygon> <polygon class="cls-74" points="72.86 84.48 72.92 117.51 72.78 117.51 72.72 84.48 72.86 84.48"></polygon> <polygon class="cls-75" points="73 84.48 73.06 117.51 72.92 117.51 72.86 84.48 73 84.48"></polygon> <polygon class="cls-76" points="73.13 84.48 73.19 117.51 73.06 117.51 73 84.48 73.13 84.48"></polygon> <polygon class="cls-77" points="73.27 84.48 73.33 117.51 73.19 117.51 73.13 84.48 73.27 84.48"></polygon> <polygon class="cls-78" points="73.41 84.48 73.47 117.51 73.33 117.51 73.27 84.48 73.41 84.48"></polygon> <polygon class="cls-79" points="73.54 84.48 73.61 117.51 73.47 117.51 73.41 84.48 73.54 84.48"></polygon> <polygon class="cls-80" points="73.68 84.48 73.75 117.51 73.61 117.51 73.54 84.48 73.68 84.48"></polygon> <polygon class="cls-81" points="73.82 84.48 73.88 117.51 73.75 117.51 73.68 84.48 73.82 84.48"></polygon> <polygon class="cls-82" points="73.95 84.48 74.02 117.51 73.88 117.51 73.82 84.48 73.95 84.48"></polygon> <polygon class="cls-83" points="74.09 84.48 74.15 117.51 74.02 117.51 73.95 84.48 74.09 84.48"></polygon> <polygon class="cls-84" points="74.23 84.48 74.29 117.51 74.15 117.51 74.09 84.48 74.23 84.48"></polygon> <polygon class="cls-85" points="74.37 84.48 74.43 117.51 74.29 117.51 74.23 84.48 74.37 84.48"></polygon> <polygon class="cls-86" points="74.51 84.48 74.57 117.51 74.43 117.51 74.37 84.48 74.51 84.48"></polygon> <polygon class="cls-87" points="74.65 84.48 74.71 117.51 74.57 117.51 74.51 84.48 74.65 84.48"></polygon> <polygon class="cls-88" points="74.77 84.48 74.84 117.51 74.71 117.51 74.65 84.48 74.77 84.48"></polygon> <polygon class="cls-89" points="74.91 84.48 74.98 117.51 74.84 117.51 74.77 84.48 74.91 84.48"></polygon> <polygon class="cls-90" points="75.05 84.48 75.12 117.51 74.98 117.51 74.91 84.48 75.05 84.48"></polygon> <polygon class="cls-91" points="75.19 84.48 75.26 117.51 75.12 117.51 75.05 84.48 75.19 84.48"></polygon> <polygon class="cls-92" points="75.33 84.48 75.39 117.51 75.26 117.51 75.19 84.48 75.33 84.48"></polygon> <polygon class="cls-93" points="75.47 84.48 75.53 117.51 75.39 117.51 75.33 84.48 75.47 84.48"></polygon> <polygon class="cls-94" points="75.6 84.48 75.66 117.51 75.53 117.51 75.47 84.48 75.6 84.48"></polygon> <polygon class="cls-95" points="75.74 84.48 75.8 117.51 75.66 117.51 75.6 84.48 75.74 84.48"></polygon> <polygon class="cls-96" points="75.88 84.48 75.94 117.51 75.8 117.51 75.74 84.48 75.88 84.48"></polygon> <polygon class="cls-97" points="76.02 84.48 76.08 117.51 75.94 117.51 75.88 84.48 76.02 84.48"></polygon> <polygon class="cls-98" points="76.16 84.48 76.22 117.51 76.08 117.51 76.02 84.48 76.16 84.48"></polygon> <polygon class="cls-99" points="76.29 84.48 76.36 117.51 76.22 117.51 76.16 84.48 76.29 84.48"></polygon> <polygon class="cls-100" points="76.43 84.48 76.5 117.51 76.36 117.51 76.29 84.48 76.43 84.48"></polygon> <polygon class="cls-101" points="76.56 84.48 76.63 117.51 76.5 117.51 76.43 84.48 76.56 84.48"></polygon> <polygon class="cls-102" points="76.7 84.48 76.77 117.51 76.63 117.51 76.56 84.48 76.7 84.48"></polygon> <polygon class="cls-103" points="76.84 84.48 76.9 117.51 76.77 117.51 76.7 84.48 76.84 84.48"></polygon> <polygon class="cls-104" points="76.98 84.48 77.04 117.51 76.9 117.51 76.84 84.48 76.98 84.48"></polygon> <polygon class="cls-105" points="77.12 84.48 77.18 117.51 77.04 117.51 76.98 84.48 77.12 84.48"></polygon> <polygon class="cls-106" points="77.25 84.48 77.31 117.51 77.18 117.51 77.12 84.48 77.25 84.48"></polygon> <polygon class="cls-107" points="77.39 84.48 77.45 117.51 77.31 117.51 77.25 84.48 77.39 84.48"></polygon> <polygon class="cls-108" points="77.53 84.48 77.59 117.51 77.45 117.51 77.39 84.48 77.53 84.48"></polygon> <polygon class="cls-109" points="77.66 84.48 77.73 117.51 77.59 117.51 77.53 84.48 77.66 84.48"></polygon> <polygon class="cls-110" points="77.8 84.48 77.87 117.51 77.73 117.51 77.66 84.48 77.8 84.48"></polygon> <polygon class="cls-111" points="77.94 84.48 78.01 117.51 77.87 117.51 77.8 84.48 77.94 84.48"></polygon> <polygon class="cls-112" points="78.08 84.48 78.14 117.51 78.01 117.51 77.94 84.48 78.08 84.48"></polygon> <polygon class="cls-113" points="78.21 84.48 78.27 117.51 78.14 117.51 78.08 84.48 78.21 84.48"></polygon> <polygon class="cls-114" points="78.35 84.48 78.41 117.51 78.27 117.51 78.21 84.48 78.35 84.48"></polygon> <polygon class="cls-115" points="78.49 84.48 78.55 117.51 78.41 117.51 78.35 84.48 78.49 84.48"></polygon> <polygon class="cls-116" points="78.63 84.48 78.69 117.51 78.55 117.51 78.49 84.48 78.63 84.48"></polygon> <polygon class="cls-117" points="78.77 84.48 78.83 117.51 78.69 117.51 78.63 84.48 78.77 84.48"></polygon> <polygon class="cls-118" points="78.91 84.48 78.97 117.51 78.83 117.51 78.77 84.48 78.91 84.48"></polygon> <polygon class="cls-119" points="79.03 84.48 79.1 117.51 78.97 117.51 78.91 84.48 79.03 84.48"></polygon> <polygon class="cls-120" points="79.17 84.48 79.24 117.51 79.1 117.51 79.03 84.48 79.17 84.48"></polygon> <polygon class="cls-121" points="79.31 84.48 79.38 117.51 79.24 117.51 79.17 84.48 79.31 84.48"></polygon> <polygon class="cls-122" points="79.45 84.48 79.52 117.51 79.38 117.51 79.31 84.48 79.45 84.48"></polygon> <polygon class="cls-123" points="79.59 84.48 79.65 117.51 79.52 117.51 79.45 84.48 79.59 84.48"></polygon> <polygon class="cls-124" points="79.73 84.48 79.79 117.51 79.65 117.51 79.59 84.48 79.73 84.48"></polygon> <polygon class="cls-125" points="79.87 84.48 79.92 117.51 79.79 117.51 79.73 84.48 79.87 84.48"></polygon> <polygon class="cls-126" points="80 84.48 80.06 117.51 79.92 117.51 79.87 84.48 80 84.48"></polygon> <polygon class="cls-127" points="80.14 84.48 80.2 117.51 80.06 117.51 80 84.48 80.14 84.48"></polygon> <polygon class="cls-128" points="80.28 84.48 80.34 117.51 80.2 117.51 80.14 84.48 80.28 84.48"></polygon> <polygon class="cls-129" points="80.41 84.48 80.48 117.51 80.34 117.51 80.28 84.48 80.41 84.48"></polygon> <polygon class="cls-130" points="80.55 84.48 80.62 117.51 80.48 117.51 80.41 84.48 80.55 84.48"></polygon> <polygon class="cls-131" points="80.69 84.48 80.75 117.51 80.62 117.51 80.55 84.48 80.69 84.48"></polygon> <polygon class="cls-132" points="80.82 84.48 80.89 117.51 80.75 117.51 80.69 84.48 80.82 84.48"></polygon> <polygon class="cls-133" points="80.96 84.48 81.02 117.51 80.89 117.51 80.82 84.48 80.96 84.48"></polygon> <polygon class="cls-134" points="81.1 84.48 81.16 117.51 81.02 117.51 80.96 84.48 81.1 84.48"></polygon> <polygon class="cls-135" points="81.24 84.48 81.3 117.51 81.16 117.51 81.1 84.48 81.24 84.48"></polygon> <polygon class="cls-136" points="81.38 84.48 81.44 117.51 81.3 117.51 81.24 84.48 81.38 84.48"></polygon> <polygon class="cls-137" points="81.52 84.48 81.58 117.51 81.44 117.51 81.38 84.48 81.52 84.48"></polygon> <polygon class="cls-138" points="81.64 84.48 81.71 117.51 81.58 117.51 81.52 84.48 81.64 84.48"></polygon> <polygon class="cls-139" points="81.78 84.48 81.85 117.51 81.71 117.51 81.64 84.48 81.78 84.48"></polygon> <polygon class="cls-140" points="81.92 84.48 81.99 117.51 81.85 117.51 81.78 84.48 81.92 84.48"></polygon> <polygon class="cls-141" points="82.06 84.48 82.13 117.51 81.99 117.51 81.92 84.48 82.06 84.48"></polygon> <polygon class="cls-142" points="82.2 84.48 82.27 117.51 82.13 117.51 82.06 84.48 82.2 84.48"></polygon> <polygon class="cls-143" points="82.34 84.48 82.4 117.51 82.27 117.51 82.2 84.48 82.34 84.48"></polygon> <polygon class="cls-144" points="82.48 84.48 82.53 117.51 82.4 117.51 82.34 84.48 82.48 84.48"></polygon> <polygon class="cls-145" points="82.61 84.48 82.67 117.51 82.53 117.51 82.48 84.48 82.61 84.48"></polygon> <polygon class="cls-146" points="82.75 84.48 82.81 117.51 82.67 117.51 82.61 84.48 82.75 84.48"></polygon> <polygon class="cls-147" points="82.89 84.48 82.95 117.51 82.81 117.51 82.75 84.48 82.89 84.48"></polygon> <polygon class="cls-148" points="83.03 84.48 83.09 117.51 82.95 117.51 82.89 84.48 83.03 84.48"></polygon> <polygon class="cls-149" points="83.16 84.48 83.23 117.51 83.09 117.51 83.03 84.48 83.16 84.48"></polygon> <polygon class="cls-150" points="83.3 84.48 83.37 117.51 83.23 117.51 83.16 84.48 83.3 84.48"></polygon> <polygon class="cls-151" points="83.43 84.48 83.5 117.51 83.37 117.51 83.3 84.48 83.43 84.48"></polygon> <polygon class="cls-152" points="83.57 84.48 83.64 117.51 83.5 117.51 83.43 84.48 83.57 84.48"></polygon> <polygon class="cls-153" points="83.71 84.48 83.77 117.51 83.64 117.51 83.57 84.48 83.71 84.48"></polygon> <polygon class="cls-154" points="83.85 84.48 83.91 117.51 83.77 117.51 83.71 84.48 83.85 84.48"></polygon> <polygon class="cls-155" points="83.99 84.48 84.05 117.51 83.91 117.51 83.85 84.48 83.99 84.48"></polygon> <polygon class="cls-156" points="84.13 84.48 84.19 117.51 84.05 117.51 83.99 84.48 84.13 84.48"></polygon> <polygon class="cls-157" points="84.26 84.48 84.32 117.51 84.19 117.51 84.13 84.48 84.26 84.48"></polygon> <polygon class="cls-158" points="84.39 84.48 84.46 117.51 84.32 117.51 84.26 84.48 84.39 84.48"></polygon> <polygon class="cls-159" points="84.53 84.48 84.6 117.51 84.46 117.51 84.39 84.48 84.53 84.48"></polygon> <polygon class="cls-160" points="84.67 84.48 84.74 117.51 84.6 117.51 84.53 84.48 84.67 84.48"></polygon> <polygon class="cls-161" points="84.81 84.48 84.88 117.51 84.74 117.51 84.67 84.48 84.81 84.48"></polygon> <polygon class="cls-162" points="84.95 84.48 85.02 117.51 84.88 117.51 84.81 84.48 84.95 84.48"></polygon> <polygon class="cls-163" points="85.09 84.48 85.14 117.51 85.02 117.51 84.95 84.48 85.09 84.48"></polygon> <polygon class="cls-164" points="85.22 84.48 85.28 117.51 85.14 117.51 85.09 84.48 85.22 84.48"></polygon> <polygon class="cls-165" points="85.36 84.48 85.42 117.51 85.28 117.51 85.22 84.48 85.36 84.48"></polygon> <polygon class="cls-166" points="85.5 84.48 85.56 117.51 85.42 117.51 85.36 84.48 85.5 84.48"></polygon> <polygon class="cls-167" points="85.64 84.48 85.7 117.51 85.56 117.51 85.5 84.48 85.64 84.48"></polygon> <polygon class="cls-168" points="85.78 84.48 85.84 117.51 85.7 117.51 85.64 84.48 85.78 84.48"></polygon> <polygon class="cls-169" points="85.91 84.48 85.98 117.51 85.84 117.51 85.78 84.48 85.91 84.48"></polygon> <polygon class="cls-170" points="86.04 84.48 86.11 117.51 85.98 117.51 85.91 84.48 86.04 84.48"></polygon> <polygon class="cls-171" points="86.18 84.48 86.25 117.51 86.11 117.51 86.04 84.48 86.18 84.48"></polygon> <polygon class="cls-172" points="86.32 84.48 86.39 117.51 86.25 117.51 86.18 84.48 86.32 84.48"></polygon> <polygon class="cls-173" points="86.46 84.48 86.52 117.51 86.39 117.51 86.32 84.48 86.46 84.48"></polygon> <polygon class="cls-174" points="86.6 84.48 86.66 117.51 86.52 117.51 86.46 84.48 86.6 84.48"></polygon> <polygon class="cls-175" points="86.73 84.48 86.79 117.51 86.66 117.51 86.6 84.48 86.73 84.48"></polygon> <polygon class="cls-176" points="86.87 84.48 86.93 117.51 86.79 117.51 86.73 84.48 86.87 84.48"></polygon> <polygon class="cls-177" points="87.01 84.48 87.07 117.51 86.93 117.51 86.87 84.48 87.01 84.48"></polygon> <polygon class="cls-178" points="87.14 84.48 87.21 117.51 87.07 117.51 87.01 84.48 87.14 84.48"></polygon> <polygon class="cls-179" points="87.28 84.48 87.35 117.51 87.21 117.51 87.14 84.48 87.28 84.48"></polygon> <polygon class="cls-179" points="87.35 117.51 87.28 84.48 90.82 84.48 90.82 117.51 87.35 117.51"></polygon> </g> <g class="cls-181"> <polygon class="cls-2" points="86.32 115.05 68.31 104.69 86.32 104.69 86.32 115.05"></polygon> <polygon class="cls-2" points="86.32 115.69 67.2 104.69 68.31 104.69 86.32 115.05 86.32 115.69"></polygon> <polygon class="cls-4" points="86.32 116.32 66.08 104.69 67.2 104.69 86.32 115.69 86.32 116.32"></polygon> <polygon class="cls-5" points="86.32 116.96 64.97 104.69 66.08 104.69 86.32 116.32 86.32 116.96"></polygon> <polygon class="cls-6" points="86.32 117.6 63.87 104.69 64.97 104.69 86.32 116.96 86.32 117.6"></polygon> <polygon class="cls-7" points="86.32 118.23 62.76 104.69 63.87 104.69 86.32 117.6 86.32 118.23"></polygon> <polygon class="cls-8" points="86.32 118.88 61.64 104.69 62.76 104.69 86.32 118.23 86.32 118.88"></polygon> <polygon class="cls-9" points="86.32 119.51 60.54 104.69 61.64 104.69 86.32 118.88 86.32 119.51"></polygon> <polygon class="cls-10" points="86.32 120.15 59.43 104.69 60.54 104.69 86.32 119.51 86.32 120.15"></polygon> <polygon class="cls-11" points="86.32 120.79 58.32 104.69 59.43 104.69 86.32 120.15 86.32 120.79"></polygon> <polygon class="cls-12" points="86.32 121.42 57.2 104.69 58.32 104.69 86.32 120.79 86.32 121.42"></polygon> <polygon class="cls-13" points="86.32 122.07 56.1 104.69 57.2 104.69 86.32 121.42 86.32 122.07"></polygon> <polygon class="cls-14" points="86.32 122.71 54.99 104.69 56.1 104.69 86.32 122.07 86.32 122.71"></polygon> <polygon class="cls-15" points="86.32 123.34 54.16 104.86 54.26 104.69 54.99 104.69 86.32 122.71 86.32 123.34"></polygon> <polygon class="cls-16" points="86.32 123.52 86.12 123.86 53.88 105.34 54.16 104.86 86.32 123.34 86.32 123.52"></polygon> <rect class="cls-16" x="69.6" y="96.25" width="0.56" height="37.18" transform="translate(-64.51 118.19) rotate(-60.11)"></rect> <rect class="cls-16" x="69.32" y="96.73" width="0.56" height="37.18" transform="translate(-65.06 118.19) rotate(-60.11)"></rect> <rect class="cls-16" x="69.36" y="97.03" width="0.14" height="37.18" transform="translate(-65.41 118.19) rotate(-60.11)"></rect> <rect class="cls-16" x="69.29" y="97.15" width="0.14" height="37.18" transform="translate(-65.55 118.19) rotate(-60.11)"></rect> <rect class="cls-16" x="69.22" y="97.26" width="0.14" height="37.18" transform="translate(-65.68 118.19) rotate(-60.11)"></rect> <rect class="cls-16" x="69.14" y="97.38" width="0.14" height="37.18" transform="translate(-65.82 118.19) rotate(-60.11)"></rect> <rect class="cls-16" x="69.08" y="97.5" width="0.14" height="37.18" transform="translate(-65.96 118.18) rotate(-60.11)"></rect> <rect class="cls-16" x="69" y="97.62" width="0.14" height="37.18" transform="translate(-66.1 118.18) rotate(-60.11)"></rect> <rect class="cls-16" x="68.94" y="97.74" width="0.14" height="37.18" transform="translate(-66.23 118.19) rotate(-60.11)"></rect> <rect class="cls-16" x="68.87" y="97.86" width="0.14" height="37.18" transform="translate(-66.37 118.19) rotate(-60.11)"></rect> <rect class="cls-16" x="68.81" y="97.99" width="0.14" height="37.18" transform="matrix(0.5, -0.87, 0.87, 0.5, -66.52, 118.2)"></rect> <rect class="cls-16" x="68.74" y="98.1" width="0.14" height="37.18" transform="translate(-66.65 118.2) rotate(-60.11)"></rect> <rect class="cls-16" x="68.66" y="98.23" width="0.14" height="37.18" transform="translate(-66.8 118.19) rotate(-60.11)"></rect> <rect class="cls-16" x="68.6" y="98.34" width="0.14" height="37.18" transform="translate(-66.93 118.19) rotate(-60.11)"></rect> <rect class="cls-16" x="68.53" y="98.46" width="0.14" height="37.18" transform="translate(-67.06 118.19) rotate(-60.11)"></rect> <rect class="cls-16" x="68.46" y="98.58" width="0.14" height="37.18" transform="matrix(0.5, -0.87, 0.87, 0.5, -67.2, 118.2)"></rect> <rect class="cls-16" x="68.39" y="98.69" width="0.14" height="37.18" transform="translate(-67.34 118.19) rotate(-60.11)"></rect> <rect class="cls-16" x="68.33" y="98.82" width="0.14" height="37.18" transform="matrix(0.5, -0.87, 0.87, 0.5, -67.48, 118.2)"></rect> <rect class="cls-16" x="68.26" y="98.94" width="0.14" height="37.18" transform="translate(-67.61 118.2) rotate(-60.11)"></rect> <rect class="cls-16" x="68.19" y="99.05" width="0.14" height="37.18" transform="translate(-67.75 118.2) rotate(-60.11)"></rect> <rect class="cls-16" x="68.12" y="99.18" width="0.14" height="37.18" transform="matrix(0.5, -0.87, 0.87, 0.5, -67.89, 118.19)"></rect> <rect class="cls-16" x="68.05" y="99.29" width="0.14" height="37.18" transform="translate(-68.03 118.19) rotate(-60.11)"></rect> <rect class="cls-16" x="67.98" y="99.41" width="0.14" height="37.18" transform="translate(-68.17 118.2) rotate(-60.11)"></rect> <rect class="cls-16" x="67.91" y="99.53" width="0.14" height="37.18" transform="translate(-68.3 118.2) rotate(-60.11)"></rect> <rect class="cls-15" x="67.85" y="99.64" width="0.14" height="37.18" transform="translate(-68.43 118.19) rotate(-60.11)"></rect> <rect class="cls-15" x="67.78" y="99.77" width="0.14" height="37.18" transform="translate(-68.58 118.2) rotate(-60.11)"></rect> <rect class="cls-15" x="67.71" y="99.89" width="0.14" height="37.18" transform="translate(-68.71 118.2) rotate(-60.11)"></rect> <rect class="cls-15" x="67.64" y="100.01" width="0.14" height="37.18" transform="matrix(0.5, -0.87, 0.87, 0.5, -68.86, 118.2)"></rect> <rect class="cls-17" x="67.57" y="100.12" width="0.14" height="37.18" transform="matrix(0.5, -0.87, 0.87, 0.5, -68.99, 118.19)"></rect> <rect class="cls-18" x="67.5" y="100.24" width="0.14" height="37.18" transform="translate(-69.12 118.19) rotate(-60.11)"></rect> <rect class="cls-14" x="67.74" y="100.25" width="0.14" height="37.3" transform="translate(-69.07 118.45) rotate(-60.11)"></rect> <rect class="cls-14" x="67.37" y="100.48" width="0.14" height="37.18" transform="matrix(0.5, -0.87, 0.87, 0.5, -69.4, 118.2)"></rect> <rect class="cls-19" x="67.29" y="100.6" width="0.14" height="37.18" transform="translate(-69.54 118.19) rotate(-60.11)"></rect> <rect class="cls-13" x="67.23" y="100.72" width="0.14" height="37.18" transform="translate(-69.67 118.2) rotate(-60.11)"></rect> <rect class="cls-13" x="67.16" y="100.83" width="0.14" height="37.18" transform="matrix(0.5, -0.87, 0.87, 0.5, -69.81, 118.2)"></rect> <rect class="cls-20" x="67.09" y="100.96" width="0.14" height="37.18" transform="translate(-69.95 118.2) rotate(-60.11)"></rect> <rect class="cls-21" x="67.02" y="101.08" width="0.14" height="37.18" transform="translate(-70.1 118.2) rotate(-60.11)"></rect> <rect class="cls-12" x="66.96" y="101.21" width="0.14" height="37.18" transform="matrix(0.5, -0.87, 0.87, 0.5, -70.23, 118.21)"></rect> <rect class="cls-22" x="66.89" y="101.32" width="0.14" height="37.18" transform="translate(-70.37 118.2) rotate(-60.11)"></rect> <rect class="cls-23" x="66.82" y="101.43" width="0.14" height="37.18" transform="translate(-70.5 118.2) rotate(-60.11)"></rect> <rect class="cls-11" x="66.75" y="101.56" width="0.14" height="37.18" transform="matrix(0.5, -0.87, 0.87, 0.5, -70.65, 118.21)"></rect> <rect class="cls-24" x="66.68" y="101.68" width="0.14" height="37.18" transform="translate(-70.78 118.21) rotate(-60.11)"></rect> <rect class="cls-11" x="66.61" y="101.8" width="0.14" height="37.18" transform="translate(-70.93 118.2) rotate(-60.11)"></rect> <rect class="cls-25" x="66.54" y="101.92" width="0.14" height="37.18" transform="matrix(0.5, -0.87, 0.87, 0.5, -71.06, 118.2)"></rect> <rect class="cls-26" x="66.48" y="102.03" width="0.14" height="37.18" transform="translate(-71.19 118.21) rotate(-60.11)"></rect> <rect class="cls-27" x="66.41" y="102.15" width="0.14" height="37.18" transform="translate(-71.33 118.21) rotate(-60.11)"></rect> <rect class="cls-8" x="66.34" y="102.27" width="0.14" height="37.18" transform="translate(-71.47 118.2) rotate(-60.11)"></rect> <rect class="cls-28" x="66.26" y="102.39" width="0.14" height="37.18" transform="matrix(0.5, -0.87, 0.87, 0.5, -71.61, 118.2)"></rect> <rect class="cls-28" x="66.2" y="102.51" width="0.14" height="37.18" transform="translate(-71.74 118.21) rotate(-60.11)"></rect> <rect class="cls-29" x="66.13" y="102.62" width="0.14" height="37.18" transform="translate(-71.88 118.21) rotate(-60.11)"></rect> <rect class="cls-30" x="66.06" y="102.75" width="0.14" height="37.18" transform="matrix(0.5, -0.87, 0.87, 0.5, -72.02, 118.2)"></rect> <rect class="cls-30" x="66" y="102.86" width="0.14" height="37.18" transform="matrix(0.5, -0.87, 0.87, 0.5, -72.15, 118.21)"></rect> <rect class="cls-31" x="65.93" y="102.99" width="0.14" height="37.18" transform="translate(-72.29 118.21) rotate(-60.11)"></rect> <rect class="cls-32" x="65.86" y="103.1" width="0.14" height="37.18" transform="matrix(0.5, -0.87, 0.87, 0.5, -72.43, 118.21)"></rect> <rect class="cls-33" x="65.79" y="103.22" width="0.14" height="37.18" transform="matrix(0.5, -0.87, 0.87, 0.5, -72.56, 118.2)"></rect> <rect class="cls-34" x="65.72" y="103.34" width="0.14" height="37.18" transform="translate(-72.71 118.2) rotate(-60.11)"></rect> <rect class="cls-35" x="65.66" y="103.46" width="0.14" height="37.18" transform="matrix(0.5, -0.87, 0.87, 0.5, -72.84, 118.21)"></rect> <rect class="cls-36" x="65.58" y="103.58" width="0.14" height="37.18" transform="translate(-72.99 118.21) rotate(-60.11)"></rect> <rect class="cls-37" x="65.52" y="103.7" width="0.14" height="37.18" transform="translate(-73.11 118.21) rotate(-60.11)"></rect> <rect class="cls-38" x="65.45" y="103.81" width="0.14" height="37.18" transform="translate(-73.25 118.21) rotate(-60.11)"></rect> <rect class="cls-39" x="65.38" y="103.93" width="0.14" height="37.18" transform="matrix(0.5, -0.87, 0.87, 0.5, -73.39, 118.21)"></rect> <rect class="cls-40" x="65.31" y="104.05" width="0.14" height="37.18" transform="translate(-73.53 118.21) rotate(-60.11)"></rect> <rect class="cls-41" x="65.24" y="104.17" width="0.14" height="37.18" transform="translate(-73.67 118.2) rotate(-60.11)"></rect> <rect class="cls-41" x="65.18" y="104.3" width="0.14" height="37.18" transform="matrix(0.5, -0.87, 0.87, 0.5, -73.81, 118.22)"></rect> <rect class="cls-42" x="65.11" y="104.42" width="0.14" height="37.18" transform="translate(-73.95 118.21) rotate(-60.11)"></rect> <rect class="cls-43" x="65.04" y="104.54" width="0.14" height="37.18" transform="translate(-74.09 118.22) rotate(-60.11)"></rect> <rect class="cls-44" x="64.97" y="104.65" width="0.14" height="37.18" transform="matrix(0.5, -0.87, 0.87, 0.5, -74.22, 118.22)"></rect> <rect class="cls-45" x="64.9" y="104.78" width="0.14" height="37.18" transform="translate(-74.36 118.22) rotate(-60.11)"></rect> <rect class="cls-45" x="64.83" y="104.89" width="0.14" height="37.18" transform="translate(-74.5 118.21) rotate(-60.11)"></rect> <rect class="cls-45" x="64.76" y="105.01" width="0.14" height="37.18" transform="translate(-74.63 118.21) rotate(-60.11)"></rect> <rect class="cls-46" x="64.69" y="105.13" width="0.14" height="37.18" transform="matrix(0.5, -0.87, 0.87, 0.5, -74.78, 118.21)"></rect> <rect class="cls-47" x="64.63" y="105.25" width="0.14" height="37.18" transform="translate(-74.91 118.22) rotate(-60.11)"></rect> <rect class="cls-48" x="64.56" y="105.37" width="0.14" height="37.18" transform="translate(-75.05 118.22) rotate(-60.11)"></rect> <rect class="cls-47" x="64.49" y="105.49" width="0.14" height="37.18" transform="matrix(0.5, -0.87, 0.87, 0.5, -75.18, 118.22)"></rect> <rect class="cls-49" x="64.43" y="105.6" width="0.14" height="37.18" transform="translate(-75.32 118.22) rotate(-60.11)"></rect> <rect class="cls-50" x="64.35" y="105.73" width="0.14" height="37.18" transform="translate(-75.46 118.22) rotate(-60.11)"></rect> <rect class="cls-51" x="64.28" y="105.84" width="0.14" height="37.18" transform="matrix(0.5, -0.87, 0.87, 0.5, -75.59, 118.21)"></rect> <rect class="cls-52" x="64.21" y="105.96" width="0.14" height="37.18" transform="translate(-75.74 118.21) rotate(-60.11)"></rect> <rect class="cls-53" x="64.15" y="106.08" width="0.14" height="37.18" transform="matrix(0.5, -0.87, 0.87, 0.5, -75.87, 118.22)"></rect> <rect class="cls-54" x="64.08" y="106.2" width="0.14" height="37.18" transform="matrix(0.5, -0.87, 0.87, 0.5, -76.01, 118.22)"></rect> <rect class="cls-55" x="64.02" y="106.32" width="0.14" height="37.18" transform="translate(-76.15 118.22) rotate(-60.11)"></rect> <rect class="cls-56" x="63.95" y="106.44" width="0.14" height="37.18" transform="translate(-76.28 118.22) rotate(-60.11)"></rect> <rect class="cls-57" x="63.87" y="106.56" width="0.14" height="37.18" transform="translate(-76.42 118.22) rotate(-60.11)"></rect> <rect class="cls-58" x="63.8" y="106.67" width="0.14" height="37.18" transform="matrix(0.5, -0.87, 0.87, 0.5, -76.56, 118.22)"></rect> <rect class="cls-59" x="63.73" y="106.79" width="0.14" height="37.18" transform="translate(-76.69 118.21) rotate(-60.11)"></rect> <rect class="cls-60" x="63.66" y="106.91" width="0.14" height="37.18" transform="translate(-76.84 118.21) rotate(-60.11)"></rect> <rect class="cls-61" x="63.6" y="107.03" width="0.14" height="37.18" transform="translate(-76.97 118.22) rotate(-60.11)"></rect> <rect class="cls-61" x="63.54" y="107.16" width="0.14" height="37.18" transform="matrix(0.5, -0.87, 0.87, 0.5, -77.11, 118.23)"></rect> <rect class="cls-62" x="63.47" y="107.27" width="0.14" height="37.18" transform="translate(-77.24 118.22) rotate(-60.11)"></rect> <rect class="cls-63" x="63.4" y="107.38" width="0.14" height="37.18" transform="matrix(0.5, -0.87, 0.87, 0.5, -77.38, 118.22)"></rect> <rect class="cls-64" x="63.32" y="107.52" width="0.14" height="37.18" transform="translate(-77.53 118.22) rotate(-60.11)"></rect> <rect class="cls-65" x="63.25" y="107.63" width="0.14" height="37.18" transform="translate(-77.66 118.22) rotate(-60.11)"></rect> <rect class="cls-66" x="63.18" y="107.76" width="0.14" height="37.18" transform="translate(-77.81 118.22) rotate(-60.11)"></rect> <rect class="cls-67" x="63.11" y="107.87" width="0.14" height="37.18" transform="translate(-77.94 118.22) rotate(-60.11)"></rect> <rect class="cls-68" x="63.06" y="107.99" width="0.14" height="37.18" transform="translate(-78.07 118.23) rotate(-60.11)"></rect> <rect class="cls-69" x="62.99" y="108.11" width="0.14" height="37.18" transform="matrix(0.5, -0.87, 0.87, 0.5, -78.22, 118.23)"></rect> <rect class="cls-70" x="62.92" y="108.23" width="0.14" height="37.18" transform="translate(-78.35 118.23) rotate(-60.11)"></rect> <rect class="cls-71" x="62.84" y="108.35" width="0.14" height="37.18" transform="matrix(0.5, -0.87, 0.87, 0.5, -78.49, 118.23)"></rect> <rect class="cls-72" x="62.78" y="108.47" width="0.14" height="37.18" transform="matrix(0.5, -0.87, 0.87, 0.5, -78.63, 118.22)"></rect> <rect class="cls-73" x="62.71" y="108.58" width="0.14" height="37.18" transform="matrix(0.5, -0.87, 0.87, 0.5, -78.76, 118.22)"></rect> <rect class="cls-74" x="62.63" y="108.7" width="0.14" height="37.18" transform="translate(-78.91 118.22) rotate(-60.11)"></rect> <rect class="cls-75" x="62.58" y="108.82" width="0.14" height="37.18" transform="translate(-79.03 118.24) rotate(-60.11)"></rect> <rect class="cls-76" x="62.51" y="108.94" width="0.14" height="37.18" transform="matrix(0.5, -0.87, 0.87, 0.5, -79.17, 118.23)"></rect> <rect class="cls-77" x="62.44" y="109.06" width="0.14" height="37.18" transform="translate(-79.31 118.23) rotate(-60.11)"></rect> <rect class="cls-78" x="62.37" y="109.18" width="0.14" height="37.18" transform="translate(-79.45 118.23) rotate(-60.11)"></rect> <rect class="cls-79" x="62.3" y="109.3" width="0.14" height="37.18" transform="matrix(0.5, -0.87, 0.87, 0.5, -79.59, 118.23)"></rect> <rect class="cls-80" x="62.23" y="109.41" width="0.14" height="37.18" transform="translate(-79.72 118.22) rotate(-60.11)"></rect> <rect class="cls-81" x="62.16" y="109.53" width="0.14" height="37.18" transform="translate(-79.86 118.22) rotate(-60.11)"></rect> <rect class="cls-82" x="62.09" y="109.65" width="0.14" height="37.18" transform="translate(-80 118.23) rotate(-60.11)"></rect> <rect class="cls-83" x="62.03" y="109.77" width="0.14" height="37.18" transform="translate(-80.13 118.24) rotate(-60.11)"></rect> <rect class="cls-84" x="61.96" y="109.9" width="0.14" height="37.18" transform="translate(-80.28 118.23) rotate(-60.11)"></rect> <rect class="cls-85" x="61.89" y="110.01" width="0.14" height="37.18" transform="translate(-80.41 118.23) rotate(-60.11)"></rect> <rect class="cls-86" x="61.82" y="110.12" width="0.14" height="37.18" transform="matrix(0.5, -0.87, 0.87, 0.5, -80.54, 118.23)"></rect> <rect class="cls-87" x="61.75" y="110.25" width="0.14" height="37.18" transform="translate(-80.69 118.23) rotate(-60.11)"></rect> <rect class="cls-88" x="61.68" y="110.36" width="0.14" height="37.18" transform="translate(-80.82 118.22) rotate(-60.11)"></rect> <rect class="cls-89" x="61.61" y="110.49" width="0.14" height="37.18" transform="translate(-80.96 118.23) rotate(-60.11)"></rect> <rect class="cls-90" x="61.55" y="110.6" width="0.14" height="37.18" transform="translate(-81.09 118.23) rotate(-60.11)"></rect> <rect class="cls-91" x="61.49" y="110.72" width="0.14" height="37.18" transform="translate(-81.23 118.24) rotate(-60.11)"></rect> <rect class="cls-92" x="61.41" y="110.85" width="0.14" height="37.18" transform="translate(-81.38 118.24) rotate(-60.11)"></rect> <rect class="cls-93" x="61.34" y="110.97" width="0.14" height="37.18" transform="translate(-81.52 118.24) rotate(-60.11)"></rect> <rect class="cls-94" x="61.27" y="111.09" width="0.14" height="37.18" transform="translate(-81.66 118.23) rotate(-60.11)"></rect> <rect class="cls-95" x="61.2" y="111.21" width="0.14" height="37.18" transform="translate(-81.79 118.23) rotate(-60.11)"></rect> <rect class="cls-96" x="61.14" y="111.32" width="0.14" height="37.18" transform="matrix(0.5, -0.87, 0.87, 0.5, -81.92, 118.24)"></rect> <rect class="cls-97" x="61.07" y="111.44" width="0.14" height="37.18" transform="translate(-82.07 118.24) rotate(-60.11)"></rect> <rect class="cls-98" x="61.01" y="111.56" width="0.14" height="37.18" transform="matrix(0.5, -0.87, 0.87, 0.5, -82.2, 118.24)"></rect> <rect class="cls-99" x="60.93" y="111.69" width="0.14" height="37.18" transform="translate(-82.34 118.24) rotate(-60.11)"></rect> <rect class="cls-100" x="60.86" y="111.8" width="0.14" height="37.18" transform="translate(-82.48 118.24) rotate(-60.11)"></rect> <rect class="cls-101" x="60.79" y="111.92" width="0.14" height="37.18" transform="translate(-82.61 118.24) rotate(-60.11)"></rect> <rect class="cls-102" x="60.72" y="112.04" width="0.14" height="37.18" transform="translate(-82.76 118.23) rotate(-60.11)"></rect> <rect class="cls-103" x="60.65" y="112.15" width="0.14" height="37.18" transform="translate(-82.89 118.23) rotate(-60.11)"></rect> <rect class="cls-104" x="60.59" y="112.28" width="0.14" height="37.18" transform="matrix(0.5, -0.87, 0.87, 0.5, -83.03, 118.24)"></rect> <rect class="cls-105" x="60.52" y="112.39" width="0.14" height="37.18" transform="matrix(0.5, -0.87, 0.87, 0.5, -83.16, 118.24)"></rect> <rect class="cls-106" x="60.46" y="112.51" width="0.14" height="37.18" transform="translate(-83.3 118.24) rotate(-60.11)"></rect> <rect class="cls-107" x="60.38" y="112.63" width="0.14" height="37.18" transform="translate(-83.44 118.24) rotate(-60.11)"></rect> <rect class="cls-108" x="60.31" y="112.75" width="0.14" height="37.18" transform="translate(-83.58 118.24) rotate(-60.11)"></rect> <rect class="cls-109" x="60.24" y="112.87" width="0.14" height="37.18" transform="translate(-83.72 118.24) rotate(-60.11)"></rect> <rect class="cls-110" x="60.17" y="112.99" width="0.14" height="37.18" transform="translate(-83.85 118.23) rotate(-60.11)"></rect> <rect class="cls-111" x="60.11" y="113.1" width="0.14" height="37.18" transform="translate(-83.98 118.24) rotate(-60.11)"></rect> <rect class="cls-112" x="60.04" y="113.23" width="0.14" height="37.18" transform="matrix(0.5, -0.87, 0.87, 0.5, -84.13, 118.24)"></rect> <rect class="cls-113" x="59.97" y="113.34" width="0.14" height="37.18" transform="translate(-84.26 118.24) rotate(-60.11)"></rect> <rect class="cls-114" x="59.9" y="113.47" width="0.14" height="37.18" transform="translate(-84.4 118.24) rotate(-60.11)"></rect> <rect class="cls-115" x="59.83" y="113.58" width="0.14" height="37.18" transform="matrix(0.5, -0.87, 0.87, 0.5, -84.54, 118.24)"></rect> <rect class="cls-116" x="59.77" y="113.7" width="0.14" height="37.18" transform="translate(-84.67 118.24) rotate(-60.11)"></rect> <rect class="cls-117" x="59.69" y="113.82" width="0.14" height="37.18" transform="translate(-84.82 118.24) rotate(-60.11)"></rect> <rect class="cls-118" x="59.63" y="113.93" width="0.14" height="37.18" transform="translate(-84.94 118.24) rotate(-60.11)"></rect> <rect class="cls-119" x="59.56" y="114.07" width="0.14" height="37.18" transform="translate(-85.1 118.25) rotate(-60.11)"></rect> <rect class="cls-120" x="59.49" y="114.18" width="0.14" height="37.18" transform="translate(-85.23 118.24) rotate(-60.11)"></rect> <rect class="cls-121" x="59.43" y="114.3" width="0.14" height="37.18" transform="matrix(0.5, -0.87, 0.87, 0.5, -85.37, 118.25)"></rect> <rect class="cls-122" x="59.36" y="114.43" width="0.14" height="37.18" transform="translate(-85.51 118.25) rotate(-60.11)"></rect> <rect class="cls-123" x="59.29" y="114.54" width="0.14" height="37.18" transform="translate(-85.64 118.25) rotate(-60.11)"></rect> <polygon class="cls-124" points="75.44 142.45 75.42 142.5 75.22 142.5 43.14 124.05 43.2 123.93 75.44 142.45"></polygon> <polygon class="cls-125" points="74.96 142.5 43.07 124.16 43.14 124.05 75.22 142.5 74.96 142.5"></polygon> <polygon class="cls-126" points="74.68 142.5 43 124.28 43.07 124.16 74.96 142.5 74.68 142.5"></polygon> <polygon class="cls-127" points="74.4 142.5 42.94 124.4 43 124.28 74.68 142.5 74.4 142.5"></polygon> <polygon class="cls-128" points="74.12 142.5 42.86 124.52 42.94 124.4 74.4 142.5 74.12 142.5"></polygon> <polygon class="cls-129" points="73.85 142.5 42.8 124.64 42.86 124.52 74.12 142.5 73.85 142.5"></polygon> <polygon class="cls-130" points="73.58 142.5 42.72 124.76 42.8 124.64 73.85 142.5 73.58 142.5"></polygon> <polygon class="cls-131" points="73.3 142.5 42.66 124.88 42.72 124.76 73.58 142.5 73.3 142.5"></polygon> <polygon class="cls-132" points="73.02 142.5 42.59 125 42.66 124.88 73.3 142.5 73.02 142.5"></polygon> <polygon class="cls-133" points="72.75 142.5 42.52 125.12 42.59 125 73.02 142.5 72.75 142.5"></polygon> <polygon class="cls-134" points="72.47 142.5 42.46 125.23 42.52 125.12 72.75 142.5 72.47 142.5"></polygon> <polygon class="cls-135" points="72.19 142.5 42.38 125.35 42.46 125.23 72.47 142.5 72.19 142.5"></polygon> <polygon class="cls-136" points="71.92 142.5 42.32 125.47 42.38 125.35 72.19 142.5 71.92 142.5"></polygon> <polygon class="cls-137" points="71.65 142.5 42.24 125.6 42.32 125.47 71.92 142.5 71.65 142.5"></polygon> <polygon class="cls-138" points="71.37 142.5 42.18 125.72 42.24 125.6 71.65 142.5 71.37 142.5"></polygon> <polygon class="cls-139" points="71.09 142.5 42.11 125.83 42.18 125.72 71.37 142.5 71.09 142.5"></polygon> <polygon class="cls-140" points="70.81 142.5 42.04 125.95 42.11 125.83 71.09 142.5 70.81 142.5"></polygon> <polygon class="cls-141" points="70.55 142.5 41.98 126.07 42.04 125.95 70.81 142.5 70.55 142.5"></polygon> <polygon class="cls-142" points="70.27 142.5 41.9 126.19 41.98 126.07 70.55 142.5 70.27 142.5"></polygon> <polygon class="cls-143" points="69.99 142.5 41.84 126.3 41.9 126.19 70.27 142.5 69.99 142.5"></polygon> <polygon class="cls-144" points="69.71 142.5 41.77 126.43 41.84 126.3 69.99 142.5 69.71 142.5"></polygon> <polygon class="cls-145" points="69.44 142.5 41.7 126.55 41.77 126.43 69.71 142.5 69.44 142.5"></polygon> <polygon class="cls-146" points="69.17 142.5 41.63 126.67 41.7 126.55 69.44 142.5 69.17 142.5"></polygon> <polygon class="cls-147" points="68.89 142.5 41.56 126.79 41.63 126.67 69.17 142.5 68.89 142.5"></polygon> <polygon class="cls-148" points="68.61 142.5 41.49 126.9 41.56 126.79 68.89 142.5 68.61 142.5"></polygon> <polygon class="cls-149" points="68.33 142.5 41.43 127.02 41.49 126.9 68.61 142.5 68.33 142.5"></polygon> <polygon class="cls-150" points="68.06 142.5 41.35 127.14 41.43 127.02 68.33 142.5 68.06 142.5"></polygon> <polygon class="cls-151" points="67.79 142.5 41.29 127.26 41.35 127.14 68.06 142.5 67.79 142.5"></polygon> <polygon class="cls-152" points="67.51 142.5 41.22 127.39 41.29 127.26 67.79 142.5 67.51 142.5"></polygon> <polygon class="cls-153" points="67.23 142.5 41.15 127.5 41.22 127.39 67.51 142.5 67.23 142.5"></polygon> <polygon class="cls-154" points="66.96 142.5 41.09 127.62 41.15 127.5 67.23 142.5 66.96 142.5"></polygon> <polygon class="cls-155" points="66.68 142.5 41.01 127.74 41.09 127.62 66.96 142.5 66.68 142.5"></polygon> <polygon class="cls-156" points="66.41 142.5 40.95 127.86 41.01 127.74 66.68 142.5 66.41 142.5"></polygon> <polygon class="cls-157" points="66.13 142.5 40.87 127.97 40.95 127.86 66.41 142.5 66.13 142.5"></polygon> <polygon class="cls-158" points="65.85 142.5 40.81 128.09 40.87 127.97 66.13 142.5 65.85 142.5"></polygon> <polygon class="cls-159" points="65.58 142.5 40.74 128.21 40.81 128.09 65.85 142.5 65.58 142.5"></polygon> <polygon class="cls-160" points="65.3 142.5 40.67 128.34 40.74 128.21 65.58 142.5 65.3 142.5"></polygon> <polygon class="cls-161" points="65.03 142.5 40.6 128.46 40.67 128.34 65.3 142.5 65.03 142.5"></polygon> <polygon class="cls-162" points="64.75 142.5 40.53 128.57 40.6 128.46 65.03 142.5 64.75 142.5"></polygon> <polygon class="cls-163" points="64.48 142.5 40.53 128.72 40.53 128.58 40.53 128.57 64.75 142.5 64.48 142.5"></polygon> <polygon class="cls-164" points="64.2 142.5 40.53 128.88 40.53 128.72 64.48 142.5 64.2 142.5"></polygon> <polygon class="cls-165" points="63.92 142.5 40.53 129.04 40.53 128.88 64.2 142.5 63.92 142.5"></polygon> <polygon class="cls-166" points="63.65 142.5 40.53 129.2 40.53 129.04 63.92 142.5 63.65 142.5"></polygon> <polygon class="cls-167" points="63.38 142.5 40.53 129.37 40.53 129.2 63.65 142.5 63.38 142.5"></polygon> <polygon class="cls-168" points="63.1 142.5 40.53 129.51 40.53 129.37 63.38 142.5 63.1 142.5"></polygon> <polygon class="cls-169" points="62.82 142.5 40.53 129.68 40.53 129.51 63.1 142.5 62.82 142.5"></polygon> <polygon class="cls-170" points="62.54 142.5 40.53 129.84 40.53 129.68 62.82 142.5 62.54 142.5"></polygon> <polygon class="cls-171" points="62.27 142.5 40.53 130 40.53 129.84 62.54 142.5 62.27 142.5"></polygon> <polygon class="cls-172" points="62 142.5 40.53 130.16 40.53 130 62.27 142.5 62 142.5"></polygon> <polygon class="cls-173" points="61.72 142.5 40.53 130.31 40.53 130.16 62 142.5 61.72 142.5"></polygon> <polygon class="cls-174" points="61.44 142.5 40.53 130.47 40.53 130.31 61.72 142.5 61.44 142.5"></polygon> <polygon class="cls-175" points="61.17 142.5 40.53 130.63 40.53 130.47 61.44 142.5 61.17 142.5"></polygon> <polygon class="cls-176" points="60.9 142.5 40.53 130.79 40.53 130.63 61.17 142.5 60.9 142.5"></polygon> <polygon class="cls-177" points="60.62 142.5 40.53 130.95 40.53 130.79 60.9 142.5 60.62 142.5"></polygon> <polygon class="cls-178" points="60.34 142.5 40.53 131.1 40.53 130.95 60.62 142.5 60.34 142.5"></polygon> <polygon class="cls-179" points="60.07 142.5 40.53 131.26 40.53 131.1 60.34 142.5 60.07 142.5"></polygon> <polygon class="cls-179" points="40.53 131.26 60.07 142.5 40.53 142.5 40.53 131.26"></polygon> </g> <path class="cls-2" d="M142.74,116.18c1,2.55,1.86,4.67,2.7,7.57h1.92a28.64,28.64,0,0,1,1.07-3.71l5.83-19.77a1.44,1.44,0,0,1,1.44-1.07l1.22-.11V98c-1.33,0-2.63.11-4,.11s-2.66-.07-4-.11v1.07l1.52.11c1.44.11,2,.33,1.76,1.21l-5,17.85h-.07l-5.91-15.93a42.54,42.54,0,0,1-1.56-4.62h-1.22c-1.07,3-2.26,5.94-3.44,8.85L130.3,118h-.07l-3.78-16.38c-.49-2.14.27-2.35,1.26-2.42l1.59-.11V98c-1.59,0-3.21.11-4.8.11s-3.21-.07-4.8-.11V99.1l1.07.11c.8.07,1.53.25,1.9,1.84L127.19,120c.31,1.28.61,2.42.88,3.78H130c.39-1.28.88-2.54,1.37-3.78L138,103.75l4.76,12.45"></path> <path class="cls-2" d="M169.45,98.92c7.1,0,10.49,4.88,10.49,12.16,0,6.76-3.08,11.54-9.45,11.54-7.54,0-10.7-6.75-10.7-13.18,0-6,3-10.5,9.63-10.5m-.18,25.23c8.35,0,14.75-6.31,14.75-14.21,0-8.14-5.79-12.55-13.91-12.55-8.84,0-14.33,5.84-14.33,13.41,0,8.21,5.79,13.34,13.53,13.34Z"></path> <path class="cls-2" d="M215.63,102.53a6.21,6.21,0,0,1,.34-2.76c.22-.36.67-.48,1.61-.55l1.61-.11V98c-1.07,0-2.33.11-3.54.11s-2.41-.07-3.63-.11l-10,20.42L192,98c-1.19,0-2.41.11-3.63.11s-2.43-.07-3.62-.11v1.07l1.68.11c.91.07,1.37.18,1.61.55a6.42,6.42,0,0,1,.33,2.76V119a6.42,6.42,0,0,1-.33,2.75c-.24.37-.68.47-1.61.55l-1.68.11v1.07c1.53,0,3-.11,4.43-.11s2.89.07,4.57.11v-1.07l-1.68-.11c-.92-.07-1.37-.18-1.61-.55a6.22,6.22,0,0,1-.34-2.75V102.34h.07l10.56,21.55h.73c.67-1.54,1.33-3.16,2.05-4.67l6.78-13.91c.49-1,1.07-2,1.59-3H212V119a6.29,6.29,0,0,1-.33,2.75c-.24.37-.68.47-1.61.55l-1.29.11v1.07c1.44-.06,3.21-.11,5.12-.11s3.54,0,5.52.11v-1.07l-1.83-.11c-.92,0-1.38-.18-1.61-.55a6.21,6.21,0,0,1-.34-2.75V102.53"></path> <path class="cls-2" d="M225.59,119a6.34,6.34,0,0,1-.34,2.75c-.22.37-.68.47-1.61.55l-1.37.11v1.07c1.37,0,2.63-.11,4.09-.11,2.37,0,5.35.07,8.3.11s5.83-.06,7.49-.11a31.16,31.16,0,0,1,.6-6h-1.34c-.26,2.22-.76,3.82-1.33,4.12s-4.57.47-7.69.47a13.72,13.72,0,0,1-3.21-.29V111.42c1.18-.11,2.6-.11,4.42-.11,2.32,0,3.63.15,4,.44.19.12.27.44.3.92l.19,2.14h1.15c0-1.32-.12-2.71-.12-4.07s.07-2.76.12-4.28h-1.15l-.19,1.9a1.19,1.19,0,0,1-.3,1c-.42.26-1.71.41-4,.41-1.83,0-3.21,0-4.42-.12V99.85a13.71,13.71,0,0,1,3.21-.3,24.45,24.45,0,0,1,7.49.77c.3.11.34.51.34,1v2.39h1.33a23.75,23.75,0,0,1,.62-5.58C240.69,98,239,98,237.26,98c-2.14,0-5.68.11-9,.11-2.14,0-4.34-.07-6.42-.11v1.07l1.83.11c.92,0,1.38.18,1.61.55a6.34,6.34,0,0,1,.34,2.76V119"></path> <path class="cls-2" d="M248.68,119a6.31,6.31,0,0,1-.34,2.75c-.22.37-.67.47-1.59.55l-1.69.11v1.07c1.54,0,3.06-.11,4.43-.11s2.89.07,4.57.11v-1.07l-1.67-.11c-.92-.07-1.37-.18-1.61-.55a6.34,6.34,0,0,1-.34-2.75V102.08h.07l18,21.49,3.42.59c0-.44-.11-.92-.11-1.36V102.53a6.23,6.23,0,0,1,.34-2.76c.24-.36.68-.48,1.61-.55l1.67-.11V98c-1.67,0-3,.11-4.57.11s-2.89-.07-4.42-.11v1.07l1.68.11c.92.07,1.38.18,1.61.55a6.31,6.31,0,0,1,.34,2.76v17.12H270L251.76,98c-.68,0-1.38.11-2.07.11-1.37,0-2.89-.07-4.58-.11V99l1.69.11c.92.07,1.37.18,1.59.55a6.31,6.31,0,0,1,.34,2.76V119"></path> <path class="cls-2" d="M279,106.16a31.67,31.67,0,0,0,4.91-8.3l-.49-.48c-1.23.36-2.45.81-3.7,1.07a16.84,16.84,0,0,1-3,8.2l.58.36,1.68-.88"></path> <path class="cls-2" d="M301.46,104.11a24.49,24.49,0,0,1,.54-5.19,18.47,18.47,0,0,0-6.9-1.54c-4.57,0-9.76,2.61-9.76,8.3,0,3.82,2.36,5.62,8.35,6.28,3.88.44,6.71,1.43,6.71,4.91s-3.39,5.65-6.82,5.65c-3,0-6-1.39-6.21-2.93l-.29-2.46h-1.22a31.46,31.46,0,0,1-.27,5.62,16.81,16.81,0,0,0,6.52,1.4c5.68,0,11.51-3,11.51-9.29,0-4.18-3.4-5.48-8.78-6-4.76-.52-6.29-2.07-6.29-4.56a5.35,5.35,0,0,1,5.34-5.36h.3a8.76,8.76,0,0,1,4.16.88c1.41.85,1.56,1.21,1.67,2.2l.24,2.14h1.21"></path> <path class="cls-2" d="M127.3,61.51a13.61,13.61,0,0,1,3.21-.3c3.21,0,5.76.81,5.76,4.28s-2.93,5-6.25,5c-1.15,0-2,0-2.71-.07V61.51m0,10.36c.68,0,1.49-.07,2.55-.07,4.88,0,7.54,1.62,7.54,5.65s-2.66,6.28-6.9,6.28a13.3,13.3,0,0,1-3.21-.3Zm-3.63,9.8c0,1-.16,2.14-.83,2.39l-1,.36v.85c1.37,0,2.74-.11,4.15-.11s2.75.07,4.16.11c8.35.21,11.16-4.85,11.16-8.45,0-4.28-3.78-5.83-7.66-5.95v-.11c3.14-.47,6.37-2.63,6.37-6,0-3.9-3.27-5.15-6.82-5.07-3,0-5.15.11-7.35.11-1.22,0-3.39-.07-5.49-.11v1.07l1.37.11c.92.07,1.37.18,1.61.56a6.29,6.29,0,0,1,.34,2.75Z"></path> <path class="cls-2" d="M176,61.51c.24-.36.68-.51,1.61-.56l1.83-.11V59.77c-2,.07-3.77.11-5.52.11s-3.66,0-5.65-.11v1.07l1.83.11c.92,0,1.37.18,1.61.56a6.29,6.29,0,0,1,.34,2.75V80.75a6.34,6.34,0,0,1-.34,2.75c-.24.36-.68.5-1.61.55l-2.85.09a2.73,2.73,0,0,1-2-.92l-8.65-10.87c3.69-.7,7.43-3.08,7.43-7.08,0-2.64-1.59-5.62-7.69-5.51-2.22,0-4.42.11-6.68.11s-4.46-.07-6.47-.11v1.07l1.56.11c.92.07,1.37.18,1.61.56a6.2,6.2,0,0,1,.34,2.75V80.75a6.23,6.23,0,0,1-.34,2.75c-.22.36-.68.5-1.61.55l-1.83.11v1.07c2-.07,3.77-.11,5.64-.11s3.54,0,5.52.11V84.15L152.23,84c-.92,0-1.38-.18-1.61-.55a6.3,6.3,0,0,1-.34-2.75V61.58a15,15,0,0,1,3.88-.45c3,0,6,1.07,6,5.07,0,2.71-2.28,4.7-5,5.15a15,15,0,0,1-3.35.14l-.24.45c.64.77,1.37,1.47,2,2.27l7,9.06c.5.66,1.07,1.28,1.57,2h2.93c2.33,0,7.65-.11,8.74-.11,1.76,0,3.54,0,5.52.11V84.18l-1.83-.11c-.92,0-1.37-.18-1.61-.55a6.42,6.42,0,0,1-.33-2.75V64.27A6.42,6.42,0,0,1,176,61.51Z"></path> <path class="cls-2" d="M203.31,81.56a3.27,3.27,0,0,1-.19,1.5c-.22.66-2.4,1.28-5.35,1.28-7.85,0-12.27-5.24-12.27-12.55,0-6.54,3.77-11.13,11-11.13a17,17,0,0,1,5.35.66c1.8.62,3.21,1.21,3.21,2.94v1.95h1.19a22,22,0,0,1,.76-5.58,31,31,0,0,0-9.45-1.51c-9.18,0-16.05,5.21-16.05,13.29,0,9.21,6.86,13.47,15.36,13.47a44.08,44.08,0,0,0,10-1.88V77.85c0-1.07,0-1.22.42-1.36l1.07-.36-.15-.92c-1.57,0-3.14.07-4.7.07s-3.08,0-4.66-.07v1.07l3.21.26c1,.07,1.29.44,1.29,1.28v3.75"></path> <path class="cls-2" d="M298.22,84.05c-.92,0-1.38-.18-1.61-.55a6.34,6.34,0,0,1-.34-2.75V64.27a6.29,6.29,0,0,1,.34-2.75c.24-.36.7-.48,1.61-.56l1.59-.11V59.78c-1.07,0-2.32.11-3.54.11s-2.4-.07-3.62-.11l-10,20.42L272.61,59.78c-1.19,0-2.4.11-3.62.11s-2.44-.07-3.63-.11v1.07L267,61c.92.07,1.37.18,1.61.56a6.31,6.31,0,0,1,.34,2.75V80.75a6.35,6.35,0,0,1-.34,2.75c-.24.36-.68.47-1.61.55h-1.81c-.7-.07-1.07-.55-1.52-1.25a26.36,26.36,0,0,1-1.25-2.48l-9.22-20.87H252c-1.07,2.64-2.32,5.35-3.51,7.93l-6.78,14.87a2.69,2.69,0,0,1-2.07,1.8H238s-1.37-.18-1.61-.55a6.34,6.34,0,0,1-.34-2.75V64.27a6.29,6.29,0,0,1,.34-2.75c.24-.36.68-.51,1.61-.56l1.83-.11V59.78c-2,.07-3.78.11-5.53.11s-3.66,0-5.64-.11v1.07l1.83.11c.91,0,1.38.18,1.61.56a6.29,6.29,0,0,1,.34,2.75v6.49c-.46,0-1.49.07-3.21.07h-8.92a31.2,31.2,0,0,1-3.21-.07V64.23a6.19,6.19,0,0,1,.34-2.75c.22-.36.68-.51,1.61-.56l1.83-.11V59.74c-2,.07-3.78.11-5.53.11s-3.66,0-5.64-.11v1.07l1.83.11c.92,0,1.38.18,1.61.56a6.32,6.32,0,0,1,.33,2.75V80.75a6.42,6.42,0,0,1-.33,2.75c-.22.36-.7.5-1.61.55l-1.83.11v1.07c2-.07,3.77-.11,5.64-.11s3.54,0,5.53.11V84.15L219.08,84c-.92,0-1.37-.18-1.61-.55a6.23,6.23,0,0,1-.34-2.75V72.57c.46,0,1.49-.07,3.21-.07h8.92a31.08,31.08,0,0,1,3.21.07v8.19a6.34,6.34,0,0,1-.34,2.75c-.22.36-.7.5-1.61.55l-1.83.11v1.07c2-.07,3.78-.11,5.64-.11s1.92,0,3.88.11c1.44,0,2.9-.11,4.39-.11,1.07,0,2.56.07,4.39.11V84.16l-1.4-.11c-1.19-.11-1.83-.26-1.83-1.07a20.33,20.33,0,0,1,1.34-3.82l1.07-2.46h11l1.76,4.23a8.34,8.34,0,0,1,.8,2.34c0,.45-.76.7-1.57.74l-1.79.11v1.07c2.05,0,3.73-.11,5.07-.11,1.71,0,3.39.07,5.06.11s1.89-.11,3.26-.11,2.9.07,4.57.11V84.12L272.64,84c-.91-.07-1.38-.18-1.61-.55a6.34,6.34,0,0,1-.34-2.75V64.08h.07l10.56,21.55h.76c.68-1.54,1.33-3.16,2.05-4.67l6.78-13.91c.49-1,1.07-2,1.61-3h.06v16.7a6.15,6.15,0,0,1-.34,2.75c-.24.36-.68.47-1.61.55l-1.28.11v1.07c1.44-.07,3.21-.11,5.1-.11s3.54,0,5.52.11V84.15Zm-51.37-8.78,4.84-10.95,4.8,10.94Z"></path> <path class="cls-2" d="M379.31,59.74c-1.67,0-4.12.11-6.63.11s-5-.07-7.49-.11c-1.69,0-3.41.11-4.93.11s-2.89-.07-4.42-.11v1.07l1.68.11c.92.07,1.37.18,1.59.56a6.09,6.09,0,0,1,.35,2.75V81.45h-.11L341.16,59.78c-.7,0-1.37.11-2.05.11-1.37,0-2.9-.07-4.57-.11v1.07l1.67.11c.92.07,1.37.18,1.61.56a6.17,6.17,0,0,1,.35,2.75V80.75a6.22,6.22,0,0,1-.35,2.75c-.24.36-.67.47-1.61.55h-1.1c-.68-.07-1.07-.55-1.53-1.25a23.33,23.33,0,0,1-1.22-2.49l-9.22-20.87h-1.27c-1.07,2.64-2.32,5.35-3.51,7.93l-6.78,14.87a2.71,2.71,0,0,1-2,1.82l-1.41.11v1.07c1.44,0,2.9-.11,4.39-.11,1.07,0,2.56.07,4.39.11V84.16l-1.41-.11c-1.18-.11-1.83-.26-1.83-1.07A20.84,20.84,0,0,1,315,79.16l1.07-2.46h11l1.76,4.23a8.34,8.34,0,0,1,.8,2.34c0,.45-.76.7-1.56.74l-1.8.11v1.07c2.05,0,3.73-.11,5.07-.11,1.71,0,2.69.07,4.36.11s1.89-.11,3.21-.11,2.9.07,4.58.11V84.12L341.8,84c-.91-.07-1.38-.18-1.61-.55a6.34,6.34,0,0,1-.34-2.75V63.82h.07l18,21.49,3.42.58c0-.44-.11-.92-.11-1.36V64.27a6.09,6.09,0,0,1,.35-2.75c.21-.36.67-.48,1.59-.56l2-.11,1.52.11c.91.07,1.38.18,1.61.56a6.42,6.42,0,0,1,.34,2.75v17.4a2.32,2.32,0,0,1-1,2.14l-1.18.59v.85c1.8,0,3.46-.11,5.18-.11s3.39.07,4.92.11A20,20,0,0,0,384.78,84c4.61-1.83,8.2-7,8.2-13C393,63.82,387.13,59.56,379.31,59.74ZM316.67,75.28l4.86-10.95,4.79,10.94Zm66.15,7.31a14.56,14.56,0,0,1-6.21,1.07,23.23,23.23,0,0,1-4.34-.3V61.51a23.24,23.24,0,0,1,4.34-.3c6.86,0,12.27,1.65,12.27,10.75C388.89,76.93,387,80.72,382.81,82.59Z"></path> <path class="cls-2" d="M341.77,102.53a6.23,6.23,0,0,1,.34-2.76c.24-.36.68-.51,1.59-.55l1.83-.11V98c-2,.07-3.77.11-5.52.11s-3.66,0-5.64-.11v1.07l1.82.11c.92,0,1.38.18,1.61.55a6.31,6.31,0,0,1,.34,2.76v6.53c-.46,0-1.49.07-3.21.07H326a31.08,31.08,0,0,1-3.21-.07v-6.53a6.19,6.19,0,0,1,.35-2.76c.22-.36.67-.51,1.61-.55l1.82-.11V98c-2,.07-3.77.11-5.52.11s-3.65,0-5.64-.11v1.07l1.83.11c.92,0,1.38.18,1.61.55a6.42,6.42,0,0,1,.33,2.76V119a6.42,6.42,0,0,1-.33,2.75c-.22.37-.68.51-1.61.55l-1.83.11v1.07c2-.06,3.78-.11,5.64-.11s3.55,0,5.52.11v-1.07l-1.82-.11c-.92,0-1.38-.18-1.61-.55a6.19,6.19,0,0,1-.35-2.75v-8.2c.46,0,1.49-.06,3.21-.06h8.91c1.68,0,2.71,0,3.21.06V119a6.31,6.31,0,0,1-.34,2.75c-.24.37-.68.51-1.61.55l-1.82.11v1.07c2-.06,3.77-.11,5.64-.11s3.54,0,5.52.11v-1.07l-1.83-.11c-.91,0-1.36-.18-1.59-.55a6.22,6.22,0,0,1-.34-2.75V102.53"></path> <path class="cls-2" d="M360.81,98.92c7.1,0,10.48,4.88,10.48,12.16,0,6.76-3.08,11.54-9.45,11.54-7.54,0-10.7-6.75-10.7-13.18,0-6,3-10.5,9.63-10.5m-.18,25.23c8.34,0,14.75-6.31,14.75-14.21,0-8.14-5.79-12.55-13.91-12.55-8.84,0-14.33,5.84-14.33,13.41,0,8.21,5.79,13.34,13.54,13.34Z"></path> <path class="cls-2" d="M394.18,104.11a24.46,24.46,0,0,1,.54-5.19,18.45,18.45,0,0,0-6.9-1.54c-4.59,0-9.76,2.61-9.76,8.3,0,3.82,2.35,5.62,8.35,6.28,3.88.44,6.71,1.43,6.71,4.91s-3.39,5.65-6.83,5.65c-3,0-6-1.39-6.22-2.93l-.3-2.47h-1.23a32.19,32.19,0,0,1-.26,5.62,16.73,16.73,0,0,0,6.51,1.4c5.67,0,11.51-3,11.51-9.29,0-4.18-3.4-5.48-8.76-6-4.76-.52-6.29-2.07-6.29-4.56a5.35,5.35,0,0,1,5.34-5.36h.3a8.71,8.71,0,0,1,4.15.88c1.41.85,1.56,1.21,1.67,2.2l.22,2.14h1.23"></path> <path class="cls-2" d="M405.61,99.85a15.38,15.38,0,0,1,3.9-.44c3.77,0,6.17,1.66,6.17,5.47a5.35,5.35,0,0,1-5.23,5.47h-.3a8.27,8.27,0,0,1-2.51-.36l.37,1.33a12.19,12.19,0,0,0,2.29.21c5,0,9.15-3.31,9.15-7.9,0-4.15-4.19-5.69-7.9-5.62-2.05,0-4.28.11-6.47.11s-4.36-.07-6.86-.11v1.07l1.72.11c.94.07,1.36.25,1.64.63a6,6,0,0,1,.39,2.69V119a6.31,6.31,0,0,1-.34,2.75c-.24.37-.7.51-1.61.55l-1.82.11v1.07c2-.06,3.77-.11,5.64-.11s3.54,0,5.52.11v-1.07l-1.83-.11c-.91,0-1.37-.18-1.61-.55a6.42,6.42,0,0,1-.33-2.75V99.85"></path> <path class="cls-2" d="M428.83,102.53a6.35,6.35,0,0,1,.34-2.76c.24-.36.68-.51,1.61-.55l1.83-.11V98c-2,.07-3.78.11-5.52.11s-3.66,0-5.64-.11v1.07l1.83.11c.92,0,1.37.18,1.61.55a6.31,6.31,0,0,1,.34,2.76V119a6.31,6.31,0,0,1-.34,2.75c-.22.37-.68.51-1.61.55l-1.83.11v1.07c2-.06,3.77-.11,5.64-.11s3.54,0,5.52.11v-1.07l-1.83-.11c-.92,0-1.38-.18-1.61-.55a6.35,6.35,0,0,1-.34-2.75V102.53"></path> <path class="cls-2" d="M444.39,119a6.35,6.35,0,0,1-.33,2.75c-.24.37-.7.51-1.61.55l-1.83.11v1.07c2-.06,3.77-.11,5.64-.11s3.54,0,5.52.11v-1.07l-1.83-.11c-.92,0-1.37-.18-1.61-.55A6.42,6.42,0,0,1,448,119V103.48a36,36,0,0,1,.15-3.67H454c1.15,0,1.46.33,1.52,1.21l.15,2.9h1.19c0-2,.07-4,.27-5.91-2.74,0-5.49.11-8.23.11h-5.53c-2.74,0-5.48-.11-8.23-.11.19,1.9.27,3.93.27,5.91h1.19l.15-2.9c.07-.89.37-1.21,1.52-1.21h5.91c.11,1.07.15,2.27.15,3.67V119"></path> <path class="cls-2" d="M502.31,117.1l-.45,1.81a6.53,6.53,0,0,1-.8,2.35c-.64.59-5.35.7-8.43.7a13.73,13.73,0,0,1-3.21-.29V102.53a6.28,6.28,0,0,1,.35-2.76c.22-.36.67-.51,1.59-.55l1.84-.11V98c-2,.07-3.79.11-5.53.11S484,98.15,482,98v1.07l1.83.11c.92,0,1.37.18,1.61.55a6.31,6.31,0,0,1,.34,2.76V120a2.31,2.31,0,0,1-1,2.14,8.74,8.74,0,0,1-2.34.33l-1.29-.11c-.68-.07-1.07-.55-1.52-1.25a24.36,24.36,0,0,1-1.22-2.49l-9.21-20.88H468c-1.07,2.63-2.32,5.35-3.51,7.93l-6.78,14.87a2.71,2.71,0,0,1-2.05,1.8l-1.41.11v1.07c1.46,0,2.9-.11,4.38-.11,1.07,0,2.56.07,4.38.11v-1.07l-1.4-.11c-1.19-.11-1.84-.26-1.84-1.07a20.71,20.71,0,0,1,1.35-3.82l1.07-2.46h11l1.74,4.22a8.24,8.24,0,0,1,.8,2.35c0,.44-.76.7-1.56.73l-1.8.11v1.07c2.07,0,3.73-.11,5.08-.11,1.54,0,3.06.05,4.57.1h.48c1.18,0,3.21-.1,4.41-.1,2.35,0,4.88.07,8.31.11,2.83,0,5.82-.06,7.49-.11.31-1.84.58-4.28.8-6.31Zm-39.47-3.54,4.85-10.95,4.79,10.95Z"></path> </g> </svg> 