<?xml version="1.0" encoding="UTF-8"?> <svg xmlns="http://www.w3.org/2000/svg" id="Layer_1" data-name="Layer 1" viewBox="0 0 115.27 25.36"> <defs> <style>.cls-1{fill:#fff;}.cls-2{fill:none;stroke:#fff;stroke-miterlimit:10;stroke-width:0.5px;}</style> </defs> <title>footer-logo-mclean</title> <path class="cls-1" d="M37.62,10.8H33.46V10.33l0.58,0a1.46,1.46,0,0,0,.49-0.11,0.86,0.86,0,0,0,.3-0.29,0.79,0.79,0,0,0,.1-0.41V2.63h-0.1l-3.21,8H31.28L28.22,2.46H28.14V8.08a5.63,5.63,0,0,0,.1,1.24,1.15,1.15,0,0,0,.32.61,1.53,1.53,0,0,0,.6.27,3.6,3.6,0,0,0,.6.13V10.8H26V10.33a4.81,4.81,0,0,0,.63-0.1A1.22,1.22,0,0,0,27.09,10a1,1,0,0,0,.32-0.57,6.64,6.64,0,0,0,.09-1.29V3.34a2,2,0,0,0-.1-0.68,1.07,1.07,0,0,0-.29-0.43A1.31,1.31,0,0,0,26.61,2,2.54,2.54,0,0,0,26,1.86V1.39h3.21l2.7,7.07,2.3-5.91a5.86,5.86,0,0,0,.22-0.68,3.18,3.18,0,0,0,.1-0.47h3.07V1.86a3.4,3.4,0,0,0-.47.06,3.09,3.09,0,0,0-.42.1,0.49,0.49,0,0,0-.31.27,1,1,0,0,0-.08.4V9.48a0.87,0.87,0,0,0,.08.39,0.68,0.68,0,0,0,.31.28,1.53,1.53,0,0,0,.42.12,3.48,3.48,0,0,0,.48.06V10.8Z" transform="translate(-1.06 0.07)"></path> <path class="cls-1" d="M39.86,11A2.76,2.76,0,0,1,37.64,10a3.77,3.77,0,0,1-.8-2.53,3.79,3.79,0,0,1,.22-1.29,3.56,3.56,0,0,1,.63-1.09,2.93,2.93,0,0,1,1-.76,2.89,2.89,0,0,1,1.29-.29,2.51,2.51,0,0,1,1.57.46,1.5,1.5,0,0,1,.6,1.26,1.09,1.09,0,0,1-.16.59,0.57,0.57,0,0,1-.52.26,0.86,0.86,0,0,1-.61-0.2A0.59,0.59,0,0,1,40.61,6a2.48,2.48,0,0,1,.08-0.61,3.37,3.37,0,0,0,.09-0.46,0.59,0.59,0,0,0-.35-0.27,1.78,1.78,0,0,0-.51-0.07,1.4,1.4,0,0,0-.61.14,1.56,1.56,0,0,0-.56.5,2.68,2.68,0,0,0-.4.9,5.22,5.22,0,0,0-.15,1.35,3.43,3.43,0,0,0,.55,2,1.68,1.68,0,0,0,1.43.78,1.79,1.79,0,0,0,1.08-.31A3.06,3.06,0,0,0,42.07,9L42.5,9.28a3.43,3.43,0,0,1-1.15,1.24A2.71,2.71,0,0,1,39.86,11Z" transform="translate(-1.06 0.07)"></path> <path class="cls-1" d="M49.95,8l-0.2,2.8H42.39V10.33l0.46,0a1.58,1.58,0,0,0,.42-0.09,0.57,0.57,0,0,0,.29-0.25,0.89,0.89,0,0,0,.09-0.42V2.78a1,1,0,0,0-.08-0.4,0.58,0.58,0,0,0-.3-0.28,2.28,2.28,0,0,0-.43-0.16,2.45,2.45,0,0,0-.45-0.09V1.39h4V1.86a3.09,3.09,0,0,0-.48.07L45.46,2a0.49,0.49,0,0,0-.31.27,1,1,0,0,0-.08.41V9a4.11,4.11,0,0,0,0,.68,0.61,0.61,0,0,0,.2.37,0.91,0.91,0,0,0,.45.16,7.44,7.44,0,0,0,.85,0h0.51l0.5-.05a2.58,2.58,0,0,0,.43-0.11,0.68,0.68,0,0,0,.29-0.18A5.94,5.94,0,0,0,49,9a6.64,6.64,0,0,0,.5-1h0.47Z" transform="translate(-1.06 0.07)"></path> <path class="cls-1" d="M55.89,9.26a3.35,3.35,0,0,1-1.1,1.25A2.77,2.77,0,0,1,53.2,11a3.22,3.22,0,0,1-1.38-.28,2.71,2.71,0,0,1-1-.76,3.21,3.21,0,0,1-.57-1.11,4.71,4.71,0,0,1-.19-1.35,4,4,0,0,1,.2-1.25,3.53,3.53,0,0,1,.59-1.1,2.87,2.87,0,0,1,.94-0.76,2.71,2.71,0,0,1,1.26-.29,3,3,0,0,1,1.23.23,2.18,2.18,0,0,1,.83.62,2.46,2.46,0,0,1,.45.88,3.83,3.83,0,0,1,.15,1.09V7.33H51.4a5.15,5.15,0,0,0,.12,1.17,2.8,2.8,0,0,0,.39.92,1.85,1.85,0,0,0,.68.61,2.09,2.09,0,0,0,1,.22,1.83,1.83,0,0,0,1-.28,2.73,2.73,0,0,0,.83-1ZM54.43,6.77A5.41,5.41,0,0,0,54.36,6a2.43,2.43,0,0,0-.2-0.71,1.35,1.35,0,0,0-.42-0.5,1.14,1.14,0,0,0-.68-0.19,1.42,1.42,0,0,0-1.16.58,2.7,2.7,0,0,0-.5,1.61h3Z" transform="translate(-1.06 0.07)"></path> <path class="cls-1" d="M62.56,10.68L62,10.87a1.88,1.88,0,0,1-.53.07,1.3,1.3,0,0,1-.83-0.24A1.12,1.12,0,0,1,60.26,10h0a3.24,3.24,0,0,1-.93.73A2.59,2.59,0,0,1,58.1,11a1.69,1.69,0,0,1-1.21-.45,1.56,1.56,0,0,1-.47-1.18,2,2,0,0,1,.11-0.68,1.62,1.62,0,0,1,.32-0.54,1.59,1.59,0,0,1,.44-0.36,3.83,3.83,0,0,1,.51-0.25L59,7.1a9.08,9.08,0,0,0,1.23-.48V6a2.8,2.8,0,0,0,0-.33A1.39,1.39,0,0,0,60,5.17a1.32,1.32,0,0,0-.37-0.43A1.12,1.12,0,0,0,59,4.56a1.54,1.54,0,0,0-.57.1,1,1,0,0,0-.37.22,1.8,1.8,0,0,0,.06.39,2,2,0,0,1,.06.48,0.57,0.57,0,0,1-.21.42,0.82,0.82,0,0,1-.58.19,0.54,0.54,0,0,1-.49-0.24A0.93,0.93,0,0,1,56.95,5a2.17,2.17,0,0,1,.56-0.5,3,3,0,0,1,.72-0.32,2.84,2.84,0,0,1,.83-0.13,5.43,5.43,0,0,1,1,.08,1.78,1.78,0,0,1,.75.33,1.54,1.54,0,0,1,.51.67,2.85,2.85,0,0,1,.18,1.08q0,0.95,0,1.68t0,1.6a0.81,0.81,0,0,0,.09.41,0.72,0.72,0,0,0,.28.26,0.67,0.67,0,0,0,.31.07h0.44v0.42Zm-2.32-3.5q-0.56.17-1,.33a4,4,0,0,0-.79.4,1.8,1.8,0,0,0-.52.54,1.36,1.36,0,0,0-.19.73A1,1,0,0,0,58,10a1.05,1.05,0,0,0,.73.26A1.51,1.51,0,0,0,59.6,10a2.42,2.42,0,0,0,.6-0.54Z" transform="translate(-1.06 0.07)"></path> <path class="cls-1" d="M70,10.8h-3.2V10.37l0.33,0a1.25,1.25,0,0,0,.3-0.05,0.48,0.48,0,0,0,.28-0.21,0.75,0.75,0,0,0,.09-0.39V6.32a1.59,1.59,0,0,0-.33-1.07,1,1,0,0,0-.8-0.38A1.83,1.83,0,0,0,66,5a2.28,2.28,0,0,0-.52.27,1.48,1.48,0,0,0-.35.33,3,3,0,0,0-.19.28V9.62A0.68,0.68,0,0,0,65,10a0.6,0.6,0,0,0,.28.23,1.29,1.29,0,0,0,.3.1l0.33,0V10.8h-3.2V10.37l0.32,0a1.2,1.2,0,0,0,.28-0.05,0.48,0.48,0,0,0,.28-0.21,0.75,0.75,0,0,0,.09-0.39v-4a0.9,0.9,0,0,0-.1-0.41,0.82,0.82,0,0,0-.27-0.31A0.9,0.9,0,0,0,63,4.82l-0.37,0V4.33l2.18-.15,0.09,0.09V5.2h0l0.4-.38a3.47,3.47,0,0,1,.45-0.36,2.37,2.37,0,0,1,.58-0.27,2.54,2.54,0,0,1,.76-0.11,1.66,1.66,0,0,1,1.4.59A2.49,2.49,0,0,1,69,6.23v3.4a0.77,0.77,0,0,0,.08.37,0.53,0.53,0,0,0,.27.22l0.28,0.09,0.32,0V10.8Z" transform="translate(-1.06 0.07)"></path> <path class="cls-1" d="M79.06,10.8H76.41V10.48l0.31,0A0.94,0.94,0,0,0,77,10.4a0.38,0.38,0,0,0,.2-0.16A0.57,0.57,0,0,0,77.26,10V7.68h-3V9.9a0.61,0.61,0,0,0,.05.27,0.45,0.45,0,0,0,.2.19,1.15,1.15,0,0,0,.27.08l0.31,0V10.8H72.45V10.48l0.31,0A0.93,0.93,0,0,0,73,10.4a0.38,0.38,0,0,0,.2-0.16A0.57,0.57,0,0,0,73.31,10V5.35a0.59,0.59,0,0,0-.06-0.26A0.41,0.41,0,0,0,73,4.9a1.64,1.64,0,0,0-.29-0.1l-0.3-.05V4.42H75.1V4.74l-0.31,0-0.27.07a0.32,0.32,0,0,0-.2.18,0.71,0.71,0,0,0-.05.27v2h3V5.35a0.59,0.59,0,0,0-.06-0.26A0.4,0.4,0,0,0,77,4.9a1.64,1.64,0,0,0-.29-0.1l-0.3-.05V4.42h2.65V4.74l-0.31,0-0.27.07a0.32,0.32,0,0,0-.2.18,0.71,0.71,0,0,0-.05.27V9.9a0.61,0.61,0,0,0,.05.27,0.44,0.44,0,0,0,.2.19,1.14,1.14,0,0,0,.27.08l0.31,0V10.8Z" transform="translate(-1.06 0.07)"></path> <path class="cls-1" d="M84.43,5.18a3.14,3.14,0,0,1,.66,1.06,3.83,3.83,0,0,1,.24,1.38A3.76,3.76,0,0,1,85.08,9a3.07,3.07,0,0,1-.67,1.06,2.92,2.92,0,0,1-1,.67,3.12,3.12,0,0,1-2.41,0,2.85,2.85,0,0,1-1-.69A3.15,3.15,0,0,1,79.43,9a3.79,3.79,0,0,1-.23-1.33,3.72,3.72,0,0,1,.24-1.39,3.23,3.23,0,0,1,.67-1.05,2.89,2.89,0,0,1,1-.67,3.09,3.09,0,0,1,2.37,0A2.86,2.86,0,0,1,84.43,5.18ZM83.76,9.7a3,3,0,0,0,.37-0.93,5.35,5.35,0,0,0,.11-1.16,5.28,5.28,0,0,0-.13-1.2,3,3,0,0,0-.38-0.93,1.8,1.8,0,0,0-.62-0.6,1.69,1.69,0,0,0-.85-0.21,1.64,1.64,0,0,0-.92.25,1.93,1.93,0,0,0-.62.66,3.17,3.17,0,0,0-.33.93,5.48,5.48,0,0,0-.11,1.11,5.37,5.37,0,0,0,.12,1.17,3,3,0,0,0,.37.93,1.81,1.81,0,0,0,.61.62,1.67,1.67,0,0,0,.88.22,1.69,1.69,0,0,0,.87-0.22A1.76,1.76,0,0,0,83.76,9.7Z" transform="translate(-1.06 0.07)"></path> <path class="cls-1" d="M90,7.88a1.49,1.49,0,0,1,.3.49,1.83,1.83,0,0,1,.1.62,1.77,1.77,0,0,1-.62,1.39,2.27,2.27,0,0,1-1.55.55,2.87,2.87,0,0,1-.85-0.13,3.29,3.29,0,0,1-.74-0.32l-0.19.33H86.09L86,8.62h0.36a4.85,4.85,0,0,0,.26.73,2.55,2.55,0,0,0,.4.61,1.8,1.8,0,0,0,.55.42,1.59,1.59,0,0,0,.73.16,1.64,1.64,0,0,0,.54-0.08,1,1,0,0,0,.38-0.23,0.94,0.94,0,0,0,.21-0.35,1.4,1.4,0,0,0,.07-0.46,1.28,1.28,0,0,0-.22-0.71,1.33,1.33,0,0,0-.64-0.5L88,7.95l-0.65-.27A2.11,2.11,0,0,1,86.51,7a1.65,1.65,0,0,1-.3-1,1.57,1.57,0,0,1,.15-0.68,1.77,1.77,0,0,1,.42-0.56,1.91,1.91,0,0,1,.62-0.37,2.11,2.11,0,0,1,.74-0.13,2.17,2.17,0,0,1,.79.14,3.75,3.75,0,0,1,.64.31l0.18-.31h0.36l0,2.12H89.78q-0.1-.36-0.22-0.7a2.48,2.48,0,0,0-.32-0.6,1.47,1.47,0,0,0-.47-0.42,1.39,1.39,0,0,0-.68-0.15,1,1,0,0,0-.73.27,0.87,0.87,0,0,0-.3.67,1.15,1.15,0,0,0,.19.69,1.41,1.41,0,0,0,.56.45,6.93,6.93,0,0,0,.65.27l0.61,0.25a4.58,4.58,0,0,1,.52.27A2,2,0,0,1,90,7.88Z" transform="translate(-1.06 0.07)"></path> <path class="cls-1" d="M95.71,6a1.92,1.92,0,0,1-.2.88,1.76,1.76,0,0,1-.54.64,2.35,2.35,0,0,1-.75.37,3.14,3.14,0,0,1-.87.12H92.64V9.94a0.69,0.69,0,0,0,.05.28,0.36,0.36,0,0,0,.21.18l0.29,0.06,0.38,0V10.8H90.83V10.48l0.31,0a1.09,1.09,0,0,0,.29-0.06,0.39,0.39,0,0,0,.2-0.17,0.61,0.61,0,0,0,.06-0.29V5.33a0.85,0.85,0,0,0,0-.28,0.33,0.33,0,0,0-.21-0.19,1.92,1.92,0,0,0-.34-0.08l-0.29,0V4.42h2.91a2.3,2.3,0,0,1,1.44.43A1.37,1.37,0,0,1,95.71,6ZM94.34,7.09a1.21,1.21,0,0,0,.2-0.45,2,2,0,0,0,0-.42,2.32,2.32,0,0,0-.06-0.52,1.21,1.21,0,0,0-.21-0.46,1,1,0,0,0-.41-0.33,1.54,1.54,0,0,0-.64-0.12H92.64V7.61H93.1a1.78,1.78,0,0,0,.79-0.15A1.15,1.15,0,0,0,94.34,7.09Z" transform="translate(-1.06 0.07)"></path> <path class="cls-1" d="M98.82,10.8H95.94V10.48l0.35,0a1.29,1.29,0,0,0,.32-0.05,0.44,0.44,0,0,0,.22-0.16A0.5,0.5,0,0,0,96.9,10V5.34a0.62,0.62,0,0,0,0-.26,0.4,0.4,0,0,0-.23-0.18l-0.34-.1-0.34-.06V4.42h2.87V4.74l-0.33,0-0.34.07a0.36,0.36,0,0,0-.23.18,0.61,0.61,0,0,0-.06.27V9.91a0.52,0.52,0,0,0,.07.26,0.44,0.44,0,0,0,.22.18l0.31,0.08a2.22,2.22,0,0,0,.36,0V10.8Z" transform="translate(-1.06 0.07)"></path> <path class="cls-1" d="M104.92,6.15h-0.31a2.15,2.15,0,0,0-.15-0.38,3.48,3.48,0,0,0-.24-0.42,2.12,2.12,0,0,0-.3-0.36,0.59,0.59,0,0,0-.31-0.18l-0.35,0h-0.65v5.1a0.59,0.59,0,0,0,.06.27,0.42,0.42,0,0,0,.22.19l0.34,0.09a2.47,2.47,0,0,0,.4.06V10.8h-3V10.48l0.38,0a1.48,1.48,0,0,0,.36-0.07,0.44,0.44,0,0,0,.22-0.17,0.55,0.55,0,0,0,.07-0.29V4.77h-0.61l-0.4,0a0.55,0.55,0,0,0-.31.18,2.41,2.41,0,0,0-.29.36,3,3,0,0,0-.24.43,2.61,2.61,0,0,0-.14.38H99.36V4.42h5.56V6.15Z" transform="translate(-1.06 0.07)"></path> <path class="cls-1" d="M110.76,10.8h-2.65V10.48a2.75,2.75,0,0,0,.58-0.09,0.25,0.25,0,0,0,.23-0.17,0.7,0.7,0,0,0,0-.1,0.49,0.49,0,0,0,0-.1L108.36,8.6h-2.24q-0.13.31-.2,0.55l-0.14.43a3.1,3.1,0,0,0-.08.31,1.13,1.13,0,0,0,0,.2,0.33,0.33,0,0,0,.28.28,2.28,2.28,0,0,0,.64.12V10.8h-2.4V10.48l0.29-.05a1,1,0,0,0,.29-0.11,1.13,1.13,0,0,0,.28-0.25,1.66,1.66,0,0,0,.19-0.37q0.48-1.2,1.06-2.7l1-2.67h0.36l2.13,5.5a1.08,1.08,0,0,0,.15.28,1.06,1.06,0,0,0,.24.21,1,1,0,0,0,.27.11l0.28,0V10.8ZM108.2,8.2l-1-2.48-1,2.48h1.92Z" transform="translate(-1.06 0.07)"></path> <path class="cls-1" d="M116.34,8.91l-0.13,1.9h-5V10.48l0.31,0a1.09,1.09,0,0,0,.29-0.06,0.39,0.39,0,0,0,.2-0.17,0.61,0.61,0,0,0,.06-0.29V5.37A0.66,0.66,0,0,0,112,5.1a0.39,0.39,0,0,0-.2-0.19,1.55,1.55,0,0,0-.29-0.11l-0.31-.06V4.42h2.69V4.74l-0.33,0-0.29.07a0.33,0.33,0,0,0-.21.18,0.7,0.7,0,0,0-.06.28V9.61a2.79,2.79,0,0,0,0,.46,0.41,0.41,0,0,0,.14.25,0.62,0.62,0,0,0,.31.11,5.06,5.06,0,0,0,.57,0h0.35l0.34,0,0.29-.07a0.46,0.46,0,0,0,.2-0.12,4,4,0,0,0,.43-0.63A4.44,4.44,0,0,0,116,8.91h0.32Z" transform="translate(-1.06 0.07)"></path> <path class="cls-1" d="M28.54,17.28H28.16V15.84h-1.4v1.44H26.38v-3h0.38v1.25h1.4V14.26h0.38v3Z" transform="translate(-1.06 0.07)"></path> <path class="cls-1" d="M31.36,17.28H31l-0.3-.88H29.55l-0.27.88H29l1-3h0.43Zm-0.77-1.17-0.47-1.45-0.47,1.45h0.93Z" transform="translate(-1.06 0.07)"></path> <path class="cls-1" d="M34,17.28h-0.4L33,16H32.13v1.31H31.78v-3H33a0.91,0.91,0,0,1,.72.26,0.86,0.86,0,0,1,.23.58,0.9,0.9,0,0,1-.13.46,0.73,0.73,0,0,1-.43.32Zm-1.82-1.61h0.79a0.61,0.61,0,0,0,.47-0.16,0.57,0.57,0,0,0,.15-0.4,0.45,0.45,0,0,0-.16-0.37A0.63,0.63,0,0,0,33,14.59H32.13v1.07Z" transform="translate(-1.06 0.07)"></path> <path class="cls-1" d="M36.58,14.26l-1,3H35.2l-1-3h0.4l0.84,2.49,0.83-2.49h0.33Z" transform="translate(-1.06 0.07)"></path> <path class="cls-1" d="M38.89,17.28H38.5l-0.3-.88H37.08l-0.27.88H36.49l1-3H37.9Zm-0.77-1.17-0.47-1.45-0.47,1.45h0.93Z" transform="translate(-1.06 0.07)"></path> <path class="cls-1" d="M41.48,17.28h-0.4L40.53,16H39.66v1.31H39.31v-3H40.5a0.91,0.91,0,0,1,.72.26,0.86,0.86,0,0,1,.23.58,0.9,0.9,0,0,1-.13.46,0.73,0.73,0,0,1-.43.32Zm-1.82-1.61h0.79a0.61,0.61,0,0,0,.47-0.16,0.57,0.57,0,0,0,.15-0.4,0.45,0.45,0,0,0-.16-0.37,0.63,0.63,0,0,0-.41-0.13H39.66v1.07Z" transform="translate(-1.06 0.07)"></path> <path class="cls-1" d="M42.06,17.28v-3h1a1.21,1.21,0,0,1,1,.44,1.63,1.63,0,0,1,.36,1.07,1.68,1.68,0,0,1-.35,1.08,1.08,1.08,0,0,1-.88.44H42.06ZM42.44,17h0.61a0.87,0.87,0,0,0,.74-0.34A1.44,1.44,0,0,0,44,15.74a1.4,1.4,0,0,0-.24-0.8,0.84,0.84,0,0,0-.75-0.36H42.44V17Z" transform="translate(-1.06 0.07)"></path> <path class="cls-1" d="M49,17.28H48.67V14.64l-1,2.64H47.43l-1-2.64v2.64H46.12v-3h0.56l0.91,2.41,0.89-2.41H49v3Z" transform="translate(-1.06 0.07)"></path> <path class="cls-1" d="M51.74,16.95v0.33h-2v-3H51.7v0.33H50.16v1h1.22v0.31H50.16v1.09h1.57Z" transform="translate(-1.06 0.07)"></path> <path class="cls-1" d="M52.23,17.28v-3h1a1.21,1.21,0,0,1,1,.44,1.63,1.63,0,0,1,.36,1.07,1.69,1.69,0,0,1-.35,1.08,1.08,1.08,0,0,1-.88.44H52.23ZM52.61,17h0.61A0.87,0.87,0,0,0,54,16.62a1.44,1.44,0,0,0,.25-0.89,1.4,1.4,0,0,0-.24-0.8,0.84,0.84,0,0,0-.75-0.36H52.61V17Z" transform="translate(-1.06 0.07)"></path> <path class="cls-1" d="M55.55,17.28H55.17v-3h0.38v3Z" transform="translate(-1.06 0.07)"></path> <path class="cls-1" d="M58.14,16.27l0.34,0.08a1.11,1.11,0,0,1-1.12,1,1,1,0,0,1-.9-0.46,1.92,1.92,0,0,1-.33-1.14,1.73,1.73,0,0,1,.34-1.12,1.11,1.11,0,0,1,.91-0.42,1.08,1.08,0,0,1,1.09,1l-0.36.07a0.79,0.79,0,0,0-.74-0.72,0.7,0.7,0,0,0-.62.34,1.71,1.71,0,0,0-.22.94,1.57,1.57,0,0,0,.23.89,0.69,0.69,0,0,0,.6.33A0.81,0.81,0,0,0,58.14,16.27Z" transform="translate(-1.06 0.07)"></path> <path class="cls-1" d="M61,17.28H60.64l-0.3-.88H59.21l-0.27.88H58.63l1-3H60Zm-0.77-1.17-0.47-1.45-0.47,1.45h0.93Z" transform="translate(-1.06 0.07)"></path> <path class="cls-1" d="M63.23,16.95v0.33H61.45v-3h0.39v2.69h1.4Z" transform="translate(-1.06 0.07)"></path> <path class="cls-1" d="M64.46,16.48l0.34-.08a0.85,0.85,0,0,0,.89.62,0.82,0.82,0,0,0,.54-0.15,0.5,0.5,0,0,0,.18-0.41,0.39,0.39,0,0,0-.14-0.31A0.77,0.77,0,0,0,66,16l-0.6-.15A1.56,1.56,0,0,1,65,15.7a0.7,0.7,0,0,1-.25-0.26,0.78,0.78,0,0,1-.1-0.41,0.73,0.73,0,0,1,.29-0.6,1.15,1.15,0,0,1,.73-0.22,1,1,0,0,1,1.08.75l-0.34.1a0.61,0.61,0,0,0-.28-0.4,0.89,0.89,0,0,0-.47-0.14,0.77,0.77,0,0,0-.44.13A0.42,0.42,0,0,0,65,15a0.51,0.51,0,0,0,.49.45L66,15.6a0.85,0.85,0,0,1,.48,1.48A1.35,1.35,0,0,1,64.46,16.48Z" transform="translate(-1.06 0.07)"></path> <path class="cls-1" d="M69.2,16.27l0.34,0.08a1.11,1.11,0,0,1-1.12,1,1,1,0,0,1-.9-0.46,1.92,1.92,0,0,1-.33-1.14,1.73,1.73,0,0,1,.34-1.12,1.11,1.11,0,0,1,.91-0.42,1.08,1.08,0,0,1,1.09,1l-0.36.07a0.79,0.79,0,0,0-.74-0.72,0.7,0.7,0,0,0-.62.34,1.71,1.71,0,0,0-.22.94,1.57,1.57,0,0,0,.23.89,0.69,0.69,0,0,0,.6.33A0.81,0.81,0,0,0,69.2,16.27Z" transform="translate(-1.06 0.07)"></path> <path class="cls-1" d="M72.21,17.28H71.83V15.84h-1.4v1.44H70.06v-3h0.38v1.25h1.4V14.26h0.38v3Z" transform="translate(-1.06 0.07)"></path> <path class="cls-1" d="M74,17.34a1.05,1.05,0,0,1-.91-0.45,1.85,1.85,0,0,1-.32-1.11,1.82,1.82,0,0,1,.34-1.13,1.14,1.14,0,0,1,1.8,0,1.76,1.76,0,0,1,.34,1.11,1.93,1.93,0,0,1-.33,1.12A1.05,1.05,0,0,1,74,17.34ZM74,17a0.69,0.69,0,0,0,.62-0.36,1.74,1.74,0,0,0,.22-0.93,1.55,1.55,0,0,0-.23-0.91A0.72,0.72,0,0,0,74,14.51a0.7,0.7,0,0,0-.61.35,1.67,1.67,0,0,0-.23.92,1.61,1.61,0,0,0,.23.9A0.71,0.71,0,0,0,74,17Z" transform="translate(-1.06 0.07)"></path> <path class="cls-1" d="M76.92,17.34A1.05,1.05,0,0,1,76,16.89a1.85,1.85,0,0,1-.32-1.11A1.82,1.82,0,0,1,76,14.65a1.14,1.14,0,0,1,1.8,0,1.76,1.76,0,0,1,.34,1.11,1.93,1.93,0,0,1-.33,1.12A1.05,1.05,0,0,1,76.92,17.34Zm0-.31a0.69,0.69,0,0,0,.62-0.36,1.74,1.74,0,0,0,.22-0.93,1.55,1.55,0,0,0-.23-0.91,0.72,0.72,0,0,0-.61-0.33,0.7,0.7,0,0,0-.61.35,1.67,1.67,0,0,0-.23.92,1.61,1.61,0,0,0,.23.9A0.71,0.71,0,0,0,76.93,17Z" transform="translate(-1.06 0.07)"></path> <path class="cls-1" d="M80.54,16.95v0.33H78.76v-3h0.39v2.69h1.4Z" transform="translate(-1.06 0.07)"></path> <path class="cls-1" d="M84.14,17.28H83.75l-0.3-.88H82.33l-0.27.88H81.74l1-3h0.43Zm-0.77-1.17L82.9,14.66l-0.47,1.45h0.93Z" transform="translate(-1.06 0.07)"></path> <path class="cls-1" d="M84.94,17.28H84.56v-3h1.85v0.33H84.94v1h1.22v0.31H84.94v1.43Z" transform="translate(-1.06 0.07)"></path> <path class="cls-1" d="M87.24,17.28H86.86v-3h1.85v0.33H87.24v1h1.22v0.31H87.24v1.43Z" transform="translate(-1.06 0.07)"></path> <path class="cls-1" d="M89.54,17.28H89.16v-3h0.38v3Z" transform="translate(-1.06 0.07)"></path> <path class="cls-1" d="M92.07,16.95v0.33H90.28v-3h0.39v2.69h1.4Z" transform="translate(-1.06 0.07)"></path> <path class="cls-1" d="M92.89,17.28H92.51v-3h0.38v3Z" transform="translate(-1.06 0.07)"></path> <path class="cls-1" d="M95.71,17.28H95.32L95,16.4H93.9l-0.27.88H93.31l1-3h0.43Zm-0.77-1.17-0.47-1.45L94,16.11h0.93Z" transform="translate(-1.06 0.07)"></path> <path class="cls-1" d="M96.79,17.28H96.41V14.59H95.54V14.26h2.11v0.33H96.79v2.69Z" transform="translate(-1.06 0.07)"></path> <path class="cls-1" d="M100,16.95v0.33h-2v-3H100v0.33H98.47v1h1.22v0.31H98.47v1.09H100Z" transform="translate(-1.06 0.07)"></path> <path class="cls-1" d="M6.92,19.77V19.61l0.38,0a0.15,0.15,0,0,0,.09,0,0.2,0.2,0,0,0,0-.11,5.55,5.55,0,0,0,0-.69V18.26q0-.25,0-0.53V17.56a0.17,0.17,0,0,0,0-.08l0,0-0.09,0-0.49.23h0l0-.13,0-.12h0l0.56-.17L8,17l0,0s0,0.08,0,.19,0,0.17,0,.2,0,0.41,0,.88v0.29q0,0.43,0,.6a1.23,1.23,0,0,0,0,.3l0,0a1,1,0,0,0,.29,0H8.46v0.16l-0.7,0Z" transform="translate(-1.06 0.07)"></path> <path class="cls-1" d="M9.11,18.47a1.1,1.1,0,0,1-.24-0.17,0.55,0.55,0,0,1-.12-0.19,0.72,0.72,0,0,1,0-.26,0.72,0.72,0,0,1,.11-0.4,0.75,0.75,0,0,1,.3-0.26,1,1,0,0,1,.45-0.09,0.73,0.73,0,0,1,.51.17,0.54,0.54,0,0,1,.18.41,0.56,0.56,0,0,1-.05.24,0.69,0.69,0,0,1-.15.2l-0.18.13a1.19,1.19,0,0,1,.26.14,0.58,0.58,0,0,1,.14.15,0.62,0.62,0,0,1,.08.18,1,1,0,0,1-.12.72,0.88,0.88,0,0,1-.4.33,1,1,0,0,1-.42.08,0.91,0.91,0,0,1-.38-0.07,0.77,0.77,0,0,1-.2-0.14,0.7,0.7,0,0,1-.15-0.21,0.69,0.69,0,0,1-.06-0.29,0.72,0.72,0,0,1,0-.24,0.57,0.57,0,0,1,.11-0.19,0.68,0.68,0,0,1,.14-0.13Zm0.17,0.08a0.74,0.74,0,0,0-.21.24,0.62,0.62,0,0,0-.07.29,0.55,0.55,0,0,0,.15.4,0.48,0.48,0,0,0,.36.15,0.42,0.42,0,0,0,.32-0.13,0.45,0.45,0,0,0,.13-0.33,0.51,0.51,0,0,0,0-.24,0.48,0.48,0,0,0-.17-0.17,2.68,2.68,0,0,0-.4-0.19Zm0.41-.37A0.54,0.54,0,0,0,9.87,18a0.53,0.53,0,0,0,.06-0.25,0.42,0.42,0,0,0-.12-0.31A0.43,0.43,0,0,0,9.5,17.3a0.38,0.38,0,0,0-.28.1,0.37,0.37,0,0,0-.09.37,0.38,0.38,0,0,0,.06.11L9.3,18l0.15,0.09,0.14,0.07Z" transform="translate(-1.06 0.07)"></path> <path class="cls-1" d="M10.71,19.77V19.61l0.38,0a0.15,0.15,0,0,0,.09,0,0.2,0.2,0,0,0,0-.11,5.55,5.55,0,0,0,0-.69V18.26q0-.25,0-0.53V17.56a0.17,0.17,0,0,0,0-.08l0,0-0.09,0-0.49.23h0l0-.13,0-.12h0l0.56-.17L11.76,17l0,0s0,0.08,0,.19,0,0.17,0,.2,0,0.41,0,.88v0.29q0,0.43,0,.6a1.23,1.23,0,0,0,0,.3l0,0a1,1,0,0,0,.29,0h0.13v0.16l-0.7,0Z" transform="translate(-1.06 0.07)"></path> <path class="cls-1" d="M12.66,19.77V19.61l0.38,0a0.15,0.15,0,0,0,.09,0,0.2,0.2,0,0,0,0-.11,5.55,5.55,0,0,0,0-.69V18.26q0-.25,0-0.53V17.56a0.17,0.17,0,0,0,0-.08l0,0-0.09,0-0.49.23h0l0-.13,0-.12h0l0.56-.17L13.71,17l0,0s0,0.08,0,.19,0,0.17,0,.2,0,0.41,0,.88v0.29q0,0.43,0,.6a1.23,1.23,0,0,0,0,.3l0,0a1,1,0,0,0,.29,0H14.2v0.16l-0.7,0Z" transform="translate(-1.06 0.07)"></path> <path class="cls-2" d="M19.61,0.25l-9.14-.07-9.14.07C1.17,16.36,1.71,20.17,10.47,25,19.23,20.17,19.77,16.36,19.61.25Z" transform="translate(-1.06 0.07)"></path> <path class="cls-2" d="M18.76,1.39l-8.29-.07-8.29.07C2,16,2.53,19.47,10.47,23.85,18.42,19.47,18.91,16,18.76,1.39Z" transform="translate(-1.06 0.07)"></path> <path class="cls-1" d="M7.48,14.75H3.33L6.65,3H9.47l1,4,1-4h2.82l0.63,2.21c0.72-.92,1.56-1.73,3.85-1L18.7,5.53c-3.53-1.68-3.64,4.6-.05,2.8v1.86a2.82,2.82,0,0,1-2.54.08l1.16,4.32h-4V13.09h2l-2.49-9L10.3,12.42,8,4.28l-2.49,9h2v1.49Z" transform="translate(-1.06 0.07)"></path> </svg> 