<?xml version="1.0" encoding="UTF-8"?> <svg xmlns="http://www.w3.org/2000/svg" id="Layer_1" data-name="Layer 1" viewBox="0 0 117.66 21.68"> <defs> <style>.cls-1{fill:#fff;}.cls-2{fill:#243f49;}</style> </defs> <title>footer-logo-spaulding</title> <path class="cls-1" d="M25,12a16.92,16.92,0,0,0,.14-2.27h0.49A5.42,5.42,0,0,0,25.73,11a1.1,1.1,0,0,0,.41.41,3.34,3.34,0,0,0,.86.39A3.45,3.45,0,0,0,28,12a2.79,2.79,0,0,0,1.36-.34,2.14,2.14,0,0,0,.91-0.89,2.54,2.54,0,0,0,.29-1.18,2.2,2.2,0,0,0-.14-0.83A1.29,1.29,0,0,0,30,8.18a1.81,1.81,0,0,0-.72-0.3l-1.08-.15Q27.4,7.63,26.83,7.5A3.1,3.1,0,0,1,25.72,7a2.3,2.3,0,0,1-.58-0.82A2.72,2.72,0,0,1,24.91,5a3.14,3.14,0,0,1,.45-1.62,3,3,0,0,1,1.33-1.18A4.35,4.35,0,0,1,28.6,1.8,6.22,6.22,0,0,1,30,2a6.06,6.06,0,0,1,1.37.48,8,8,0,0,0-.15.86q0,0.4-.07,1.17H30.62a8.17,8.17,0,0,0-.07-1.23,1.87,1.87,0,0,0-.5-0.47,3.17,3.17,0,0,0-1.57-.42,2.19,2.19,0,0,0-2.33,2.32,1.72,1.72,0,0,0,.23,1,1.55,1.55,0,0,0,.81.54,7.51,7.51,0,0,0,1.31.26q0.91,0.12,1.64.26a2.82,2.82,0,0,1,1,.49,2.14,2.14,0,0,1,.54.74A2.52,2.52,0,0,1,31.92,9a3.31,3.31,0,0,1-1.21,2.54A4.49,4.49,0,0,1,27.6,12.6,5.92,5.92,0,0,1,25,12Z" transform="translate(-0.02 -1.8)"></path> <path class="cls-1" d="M32.75,2.49V2q1.47,0.05,2.32.05l1.21,0,1.15,0h0.35a5.24,5.24,0,0,1,1.83.26,2.13,2.13,0,0,1,1,.81A2.24,2.24,0,0,1,41,4.35a2.89,2.89,0,0,1-.31,1.28,2.94,2.94,0,0,1-.9,1.08,3.91,3.91,0,0,1-1.23.63,3.45,3.45,0,0,1-1,.13,5.43,5.43,0,0,1-1-.1l-0.15-.54a4.75,4.75,0,0,0,1,.15,2.15,2.15,0,0,0,1-.27,1.83,1.83,0,0,0,.77-0.8,2.58,2.58,0,0,0,.27-1.19,2.41,2.41,0,0,0-.27-1.14,1.74,1.74,0,0,0-.81-0.77,3,3,0,0,0-1.32-.26,5,5,0,0,0-1.49.25q-0.07.77-.07,2.42V8.89q0,1,0,1.93a2.33,2.33,0,0,0,.11.82,0.49,0.49,0,0,0,.27.19,5.2,5.2,0,0,0,1.06.08v0.47q-1.35-.05-2-0.05l-2.29.05V11.92a5.16,5.16,0,0,0,1-.08,0.48,0.48,0,0,0,.26-0.17A1.87,1.87,0,0,0,34.17,11q0-.15,0-2.07V5.52q0-1,0-1.94a2.3,2.3,0,0,0-.11-0.82,0.5,0.5,0,0,0-.27-0.19A5.24,5.24,0,0,0,32.75,2.49Z" transform="translate(-0.02 -1.8)"></path> <path class="cls-1" d="M40.26,12.39v-0.5a3.85,3.85,0,0,0,.72,0,0.63,0.63,0,0,0,.26-0.15,2.35,2.35,0,0,0,.35-0.59l1-2.05,1.83-4.12q0.3-.68,1.28-3h0.47l3.12,7.33q0.76,1.78,1,2.23a0.76,0.76,0,0,0,.3.34,2.15,2.15,0,0,0,.74.09v0.5q-1.14-.07-1.59-0.07l-2.35.07v-0.5a8,8,0,0,0,1-.05,0.44,0.44,0,0,0,.24-0.11,0.25,0.25,0,0,0,.06-0.17,1.19,1.19,0,0,0-.1-0.42l-0.9-2.23H43.42l-0.79,1.88a2.2,2.2,0,0,0-.21.74,0.24,0.24,0,0,0,.06.17,0.43,0.43,0,0,0,.25.13,5.41,5.41,0,0,0,.95.07v0.5q-1.23-.07-1.85-0.07T40.26,12.39Zm3.4-4.1h3.68L45.53,3.9Z" transform="translate(-0.02 -1.8)"></path> <path class="cls-1" d="M51.87,2.49V2q1.19,0.05,2.21.05T56.14,2V2.49a5.2,5.2,0,0,0-1,.08,0.44,0.44,0,0,0-.25.17,1.73,1.73,0,0,0-.12.71q0,0.15,0,2.07v2.7a6.72,6.72,0,0,0,.2,2.07,1.91,1.91,0,0,0,.64.83,2.66,2.66,0,0,0,.91.4,5,5,0,0,0,1.27.15,4.83,4.83,0,0,0,1.45-.2,2.57,2.57,0,0,0,1-.49,1.9,1.9,0,0,0,.47-0.65,3.46,3.46,0,0,0,.23-1,14.68,14.68,0,0,0,.07-1.58V5.52q0-1,0-1.94a2.25,2.25,0,0,0-.1-0.82,0.5,0.5,0,0,0-.27-0.19,5.2,5.2,0,0,0-1-.08V2q1.2,0.05,1.76.05L63,2V2.49a5.19,5.19,0,0,0-1.05.08,0.48,0.48,0,0,0-.26.17,1.87,1.87,0,0,0-.11.71q0,0.15,0,2.07V8a8.58,8.58,0,0,1-.25,2.52,2.84,2.84,0,0,1-.92,1.26,3.6,3.6,0,0,1-1.3.64,7.11,7.11,0,0,1-3.71,0,3.07,3.07,0,0,1-1.26-.7,2.43,2.43,0,0,1-.59-0.89,6.89,6.89,0,0,1-.2-2V5.52q0-1,0-1.94a2.3,2.3,0,0,0-.11-0.82,0.5,0.5,0,0,0-.27-0.19A5.24,5.24,0,0,0,51.87,2.49Z" transform="translate(-0.02 -1.8)"></path> <path class="cls-1" d="M64.21,12.39V12a2.32,2.32,0,0,0,.57-0.34,0.35,0.35,0,0,0,.1-0.17A4.06,4.06,0,0,0,65,10.63q0-1,0-1.19V5.52q0-1,0-1.94a2.3,2.3,0,0,0-.11-0.82,0.5,0.5,0,0,0-.27-0.19,5.24,5.24,0,0,0-1.06-.08V2l2.21,0.05L67.86,2V2.49a5.24,5.24,0,0,0-1.06.08,0.48,0.48,0,0,0-.26.17,1.86,1.86,0,0,0-.11.71q0,0.15,0,2.07v4.9q0,0.77,0,1.25,0.83,0.05,1.65.05A10.79,10.79,0,0,0,71,11.46a3.39,3.39,0,0,0,.17-0.5l0.29-1.21h0.49q-0.16,1.09-.31,2.56l-0.47.07-1.17,0-4.32-.05Q64.93,12.34,64.21,12.39Z" transform="translate(-0.02 -1.8)"></path> <path class="cls-1" d="M73.09,12.39V12q0.42-.24.7-0.44,0-.5.07-1.38,0.05-1.5.05-2.09v-3q0-.71,0-1.68a2.48,2.48,0,0,0-.1-0.75,0.3,0.3,0,0,0-.15-0.14,3.21,3.21,0,0,0-1-.11V2q1.07,0,1.88,0l1.71,0,1.68,0a7.56,7.56,0,0,1,2.88.46A4.28,4.28,0,0,1,82.62,4a4.42,4.42,0,0,1,.76,2.62A6,6,0,0,1,83,8.69a5.61,5.61,0,0,1-1,1.7,5.37,5.37,0,0,1-1.31,1.15,5.91,5.91,0,0,1-1.47.64,8.17,8.17,0,0,1-2.11.22l-1.2,0-1.3,0Zm2.26-.8a9.93,9.93,0,0,0,1.69.14,7.37,7.37,0,0,0,1.63-.16,4.26,4.26,0,0,0,1.2-.45,3.68,3.68,0,0,0,1-.86,4,4,0,0,0,.72-1.46A6.68,6.68,0,0,0,81.81,7a5.17,5.17,0,0,0-.49-2.33,3.34,3.34,0,0,0-1.46-1.49,5.8,5.8,0,0,0-2.69-.52,12.34,12.34,0,0,0-1.83.14q0,0.36,0,1.27l0,1.06V8l0,2.26Q75.31,10.78,75.34,11.59Z" transform="translate(-0.02 -1.8)"></path> <path class="cls-1" d="M88.63,11.92v0.47l-2-.05-2.25.05V11.92a5.16,5.16,0,0,0,1-.08,0.48,0.48,0,0,0,.26-0.17A1.87,1.87,0,0,0,85.76,11q0-.15,0-2.07V5.52q0-1,0-1.94a2.3,2.3,0,0,0-.11-0.82,0.5,0.5,0,0,0-.27-0.19,5.24,5.24,0,0,0-1.06-.08V2q1.39,0.05,2.15.05T88.63,2V2.49a5.18,5.18,0,0,0-1,.08,0.48,0.48,0,0,0-.26.17,1.87,1.87,0,0,0-.11.71q0,0.15,0,2.07V8.89q0,1,0,1.93a2.32,2.32,0,0,0,.11.82,0.49,0.49,0,0,0,.27.19A5.2,5.2,0,0,0,88.63,11.92Z" transform="translate(-0.02 -1.8)"></path> <path class="cls-1" d="M89.45,12.39V11.92a3,3,0,0,0,1-.12,0.27,0.27,0,0,0,.15-0.14,2.55,2.55,0,0,0,.1-0.77q0-1,0-1.66V3.3a1,1,0,0,0,0-.31,1,1,0,0,0-.26-0.31,0.63,0.63,0,0,0-.3-0.15,5.67,5.67,0,0,0-.76,0V2L91,2l1.1,0L93,3.21l1.49,1.86,2.18,2.65q1,1.27,1.68,2,0.4,0.48.68,0.76V5.16Q99,4.44,99,3.48a2.79,2.79,0,0,0-.09-0.75,0.31,0.31,0,0,0-.15-0.14,3.19,3.19,0,0,0-1-.11V2l1.75,0q0.83,0,1.51,0V2.49a3.21,3.21,0,0,0-1,.11,0.27,0.27,0,0,0-.15.15,2.49,2.49,0,0,0-.1.77q0,1,0,1.66V8.67q0,1.06,0,4L99,12.43l-0.18,0-0.08,0a3,3,0,0,1-.28-0.3q-0.61-.69-0.89-1L96.59,9.8,91.41,3.55V9.21q0,0.72.05,1.7a2.73,2.73,0,0,0,.09.75,0.3,0.3,0,0,0,.15.15,3.13,3.13,0,0,0,1,.11v0.47q-0.64-.05-1.42-0.05T89.45,12.39Z" transform="translate(-0.02 -1.8)"></path> <path class="cls-1" d="M111.87,11.82a12.87,12.87,0,0,1-1.82.54,12.51,12.51,0,0,1-2.37.24,6.59,6.59,0,0,1-3-.66,4.85,4.85,0,0,1-2-1.85,5.35,5.35,0,0,1-.72-2.81,5,5,0,0,1,1.8-4.06,5.78,5.78,0,0,1,1.54-.95,7.91,7.91,0,0,1,2.91-.47,9.13,9.13,0,0,1,1.71.19q0.89,0.18,2,.49a6,6,0,0,0-.17.73q-0.06.36-.15,1.47h-0.45l0-.83q0-.19,0-0.31a0.86,0.86,0,0,0-.09-0.3,1.72,1.72,0,0,0-.63-0.47,7.81,7.81,0,0,0-1.23-.38,6.11,6.11,0,0,0-1.16-.1,4.69,4.69,0,0,0-2.4.59A3.78,3.78,0,0,0,104,4.58,5.56,5.56,0,0,0,103.51,7a5.44,5.44,0,0,0,.61,2.59,4.37,4.37,0,0,0,1.64,1.76,4.59,4.59,0,0,0,2.39.61,6.15,6.15,0,0,0,1.24-.12,3.86,3.86,0,0,0,1-.34,4.72,4.72,0,0,0,.07-0.93V9.73A2.26,2.26,0,0,0,110.41,9a0.52,0.52,0,0,0-.35-0.16,11.16,11.16,0,0,0-1.33-.08V8.29L111,8.34q0.66,0,1.36-.05l0,0.35L111.87,9a13,13,0,0,0-.09,1.44A12.58,12.58,0,0,0,111.87,11.82Z" transform="translate(-0.02 -1.8)"></path> <path class="cls-1" d="M113.21,12.53V12.42l0.23,0a0.13,0.13,0,0,0,.09-0.06,0.66,0.66,0,0,0,0-.24V10.47h-0.28a0.46,0.46,0,0,0-.24,0,0.24,0.24,0,0,0-.1.12,1.13,1.13,0,0,0,0,.22h-0.13V10.33h1.84v0.53H114.5a1,1,0,0,0,0-.24,0.2,0.2,0,0,0-.09-0.1,0.5,0.5,0,0,0-.24-0.05h-0.27v1.64a0.68,0.68,0,0,0,0,.24,0.13,0.13,0,0,0,.09.06l0.23,0v0.11h-1Zm2.42-2.2,0.7,1.66,0.72-1.66h0.63v0.11l-0.19,0a0.12,0.12,0,0,0-.07.06,0.57,0.57,0,0,0,0,.19v1.42a0.53,0.53,0,0,0,0,.2,0.12,0.12,0,0,0,.08.06l0.17,0v0.11h-0.86V12.42l0.19,0a0.1,0.1,0,0,0,.06-0.06,0.61,0.61,0,0,0,0-.19v-1.6l-0.83,2h0l-0.84-2v1.6a0.53,0.53,0,0,0,0,.2,0.12,0.12,0,0,0,.08.06l0.17,0v0.11H115V12.42l0.19,0a0.11,0.11,0,0,0,.07-0.06,0.57,0.57,0,0,0,0-.19V10.72a0.54,0.54,0,0,0,0-.2,0.12,0.12,0,0,0-.08-0.06l-0.17,0V10.33h0.64Z" transform="translate(-0.02 -1.8)"></path> <path class="cls-1" d="M23.82,16.94v-0.2h1.5l0.56,0a2.55,2.55,0,0,1,.86.1,0.83,0.83,0,0,1,.42.34,1,1,0,0,1,.15.51,1.07,1.07,0,0,1-.14.51,1.16,1.16,0,0,1-.4.42,2.09,2.09,0,0,1-.68.26l0.36,0.48,0.78,1q0.33,0.43.39,0.48l0.06,0,0.2,0v0.2l-0.41,0-0.44,0q-0.2-.23-0.67-0.9-0.26-.37-0.46-0.62-0.32-.41-0.62-0.75l0-.09h0.24a1.22,1.22,0,0,0,.85-0.26,0.9,0.9,0,0,0,.29-0.7,0.77,0.77,0,0,0-.25-0.6A1.1,1.1,0,0,0,25.67,17a2.07,2.07,0,0,0-.62.1q0,0.17,0,.31s0,0.33,0,.89v1.36q0,0.42,0,.81a1,1,0,0,0,0,.35,0.2,0.2,0,0,0,.11.08,2.18,2.18,0,0,0,.44,0v0.2l-0.8,0-1,0v-0.2a2.19,2.19,0,0,0,.44,0,0.2,0.2,0,0,0,.11-0.07,0.79,0.79,0,0,0,0-.3s0-.33,0-0.87V18.22q0-.42,0-0.82a1,1,0,0,0,0-.35A0.21,0.21,0,0,0,24.27,17,2.19,2.19,0,0,0,23.82,16.94Z" transform="translate(-0.02 -1.8)"></path> <path class="cls-1" d="M28.11,21.11v-0.2a1.27,1.27,0,0,0,.42,0,0.12,0.12,0,0,0,.06-0.06,1.08,1.08,0,0,0,0-.32q0-.41,0-0.7V18.22q0-.42,0-0.82a1,1,0,0,0,0-.35A0.21,0.21,0,0,0,28.49,17a2.19,2.19,0,0,0-.44,0v-0.2l0.88,0,0.93,0h1a4.67,4.67,0,0,1,.58,0,2.44,2.44,0,0,0-.07.3s0,0.23-.06.64H31.08a3.3,3.3,0,0,0,0-.57,1.39,1.39,0,0,0-.37-0.1A5.53,5.53,0,0,0,30,17H29.65l-0.37,0q0,0.34,0,.64v1l0.66,0a4.9,4.9,0,0,0,.62,0,0.19,0.19,0,0,0,.13,0,0.74,0.74,0,0,0,0-.25l0-.22h0.18v0.06l0,0.64,0,0.72H30.7V19.39a0.71,0.71,0,0,0,0-.28A0.2,0.2,0,0,0,30.51,19a4,4,0,0,0-.68,0l-0.58,0q0,0.31,0,.91t0,0.86q0.44,0,1,0a4.31,4.31,0,0,0,.56,0,1.3,1.3,0,0,0,.31-0.08,1.91,1.91,0,0,0,.07-0.26q0.07-.27.09-0.41h0.21a8.36,8.36,0,0,0-.08,1,4.33,4.33,0,0,1-.64,0l-1.84,0Z" transform="translate(-0.02 -1.8)"></path> <path class="cls-1" d="M31.89,16.94v-0.2l0.94,0,0.87,0v0.2a2.17,2.17,0,0,0-.44,0,0.2,0.2,0,0,0-.11.07,0.79,0.79,0,0,0,0,.3s0,0.33,0,.87v0.43l1.48,0,1.07,0V18.22q0-.42,0-0.82a1,1,0,0,0,0-.35A0.21,0.21,0,0,0,35.46,17a2.17,2.17,0,0,0-.44,0v-0.2l0.91,0,0.9,0v0.2a2.17,2.17,0,0,0-.44,0,0.18,0.18,0,0,0-.11.07,0.73,0.73,0,0,0,0,.3s0,0.33,0,.87v1.42q0,0.42,0,.81a1,1,0,0,0,0,.35,0.2,0.2,0,0,0,.11.08,2.18,2.18,0,0,0,.44,0v0.2l-1,0-0.83,0v-0.2a2.18,2.18,0,0,0,.44,0,0.2,0.2,0,0,0,.11-0.07,0.7,0.7,0,0,0,0-.3s0-.33,0-0.87v-0.7l-1.31,0-1.24,0v0.7q0,0.42,0,.81a1,1,0,0,0,0,.35,0.2,0.2,0,0,0,.11.08,2.18,2.18,0,0,0,.44,0v0.2l-0.86,0-1,0v-0.2a2.18,2.18,0,0,0,.44,0,0.2,0.2,0,0,0,.11-0.07,0.79,0.79,0,0,0,0-.3s0-.33,0-0.87V18.22q0-.42,0-0.82a1,1,0,0,0,0-.35A0.21,0.21,0,0,0,32.34,17,2.19,2.19,0,0,0,31.89,16.94Z" transform="translate(-0.02 -1.8)"></path> <path class="cls-1" d="M37.09,21.11V20.91l0.3,0a0.27,0.27,0,0,0,.11-0.06,1,1,0,0,0,.15-0.25l0.4-.86L38.82,18l0.54-1.27h0.2l1.31,3.08q0.32,0.75.43,0.94a0.32,0.32,0,0,0,.13.14,0.91,0.91,0,0,0,.31,0v0.21l-0.67,0-1,0V20.91l0.42,0a0.19,0.19,0,0,0,.1,0,0.1,0.1,0,0,0,0-.07,0.5,0.5,0,0,0,0-.18l-0.38-.94H38.41l-0.33.79a0.93,0.93,0,0,0-.09.31,0.1,0.1,0,0,0,0,.07,0.18,0.18,0,0,0,.1.06,2.3,2.3,0,0,0,.4,0v0.21l-0.78,0Zm1.43-1.73h1.55L39.3,17.54Z" transform="translate(-0.02 -1.8)"></path> <path class="cls-1" d="M42.22,21.11V21l0.21-.12a0.17,0.17,0,0,0,0-.08,3.31,3.31,0,0,0,0-.39q0-.3,0-0.46V18.07q0-.3,0-0.71a1,1,0,0,0,0-.32A0.13,0.13,0,0,0,42.39,17a1.35,1.35,0,0,0-.42,0v-0.2h0.26l0.64,0,1.13,0a2,2,0,0,1,.69.09,0.77,0.77,0,0,1,.38.3,0.82,0.82,0,0,1,.14.46,0.91,0.91,0,0,1-.08.38,1,1,0,0,1-.22.31,1.2,1.2,0,0,1-.31.21,2.29,2.29,0,0,1-.44.15,3.13,3.13,0,0,1,.58.1,1,1,0,0,1,.37.2,0.84,0.84,0,0,1,.23.32,1.09,1.09,0,0,1,.08.42,1.25,1.25,0,0,1-.28.8,1.63,1.63,0,0,1-.71.51,2.15,2.15,0,0,1-.77.12l-0.89,0Zm0.88-2.55H43.4A2.31,2.31,0,0,0,44,18.51a0.86,0.86,0,0,0,.32-0.15,0.73,0.73,0,0,0,.19-0.26,0.9,0.9,0,0,0,.08-0.38,0.63,0.63,0,0,0-.25-0.56A1.25,1.25,0,0,0,43.62,17a2.41,2.41,0,0,0-.5,0q0,0.25,0,.79v0.73Zm0,2.24a2.08,2.08,0,0,0,.49.06,1.48,1.48,0,0,0,.66-0.12,0.86,0.86,0,0,0,.38-0.38,1.21,1.21,0,0,0,.13-0.58,1.07,1.07,0,0,0-.13-0.54,0.76,0.76,0,0,0-.38-0.33,2.31,2.31,0,0,0-.83-0.11H43.09V20Q43.09,20.15,43.1,20.8Z" transform="translate(-0.02 -1.8)"></path> <path class="cls-1" d="M47.68,20.92v0.2l-0.86,0-0.95,0v-0.2a2.18,2.18,0,0,0,.44,0,0.2,0.2,0,0,0,.11-0.07,0.79,0.79,0,0,0,0-.3s0-.33,0-0.87V18.22q0-.42,0-0.82a1,1,0,0,0,0-.35A0.21,0.21,0,0,0,46.32,17a2.19,2.19,0,0,0-.44,0v-0.2l0.91,0,0.9,0v0.2a2.17,2.17,0,0,0-.44,0,0.2,0.2,0,0,0-.11.07,0.78,0.78,0,0,0,0,.3s0,0.33,0,.87v1.42q0,0.42,0,.81a1,1,0,0,0,0,.35,0.21,0.21,0,0,0,.11.08A2.2,2.2,0,0,0,47.68,20.92Z" transform="translate(-0.02 -1.8)"></path> <path class="cls-1" d="M48.24,21.11V21a1,1,0,0,0,.24-0.14,0.15,0.15,0,0,0,0-.07,1.71,1.71,0,0,0,0-.37q0-.42,0-0.5V18.22q0-.42,0-0.82a1,1,0,0,0,0-.35A0.21,0.21,0,0,0,48.41,17a2.19,2.19,0,0,0-.44,0v-0.2l0.93,0,0.88,0v0.2a2.19,2.19,0,0,0-.44,0,0.2,0.2,0,0,0-.11.07,0.78,0.78,0,0,0,0,.3s0,0.33,0,.87v2.07q0,0.32,0,.53l0.69,0a4.54,4.54,0,0,0,1.21-.11,1.42,1.42,0,0,0,.07-0.21L51.28,20h0.21q-0.07.46-.13,1.08l-0.2,0H50.66l-1.82,0Z" transform="translate(-0.02 -1.8)"></path> <path class="cls-1" d="M53.65,20.92v0.2l-0.86,0-0.95,0v-0.2a2.18,2.18,0,0,0,.44,0,0.2,0.2,0,0,0,.11-0.07,0.79,0.79,0,0,0,0-.3s0-.33,0-0.87V18.22q0-.42,0-0.82a1,1,0,0,0,0-.35A0.21,0.21,0,0,0,52.29,17a2.19,2.19,0,0,0-.44,0v-0.2l0.91,0,0.9,0v0.2a2.17,2.17,0,0,0-.44,0,0.2,0.2,0,0,0-.11.07,0.78,0.78,0,0,0,0,.3s0,0.33,0,.87v1.42q0,0.42,0,.81a1,1,0,0,0,0,.35,0.21,0.21,0,0,0,.11.08A2.2,2.2,0,0,0,53.65,20.92Z" transform="translate(-0.02 -1.8)"></path> <path class="cls-1" d="M54.17,17.76H54q0-.74,0-1l1.05,0h0.78l1,0,0.8,0q0,0.34,0,1h-0.2l0-.3q0-.27,0-0.3a0.1,0.1,0,0,0,0-.05l-0.05,0-0.31,0-0.42,0H56.07q0,0.3,0,.8v1.8q0,0.42,0,.81a1,1,0,0,0,0,.35,0.21,0.21,0,0,0,.11.08,2.2,2.2,0,0,0,.44,0v0.2l-0.83,0-1,0v-0.2a2.2,2.2,0,0,0,.44,0,0.19,0.19,0,0,0,.11-0.07,0.73,0.73,0,0,0,0-.3s0-.33,0-0.87V17.85q0-.13,0-0.28l0-.52H55a5.06,5.06,0,0,0-.63,0,0.13,0.13,0,0,0-.1,0,1.1,1.1,0,0,0-.06.34Z" transform="translate(-0.02 -1.8)"></path> <path class="cls-1" d="M57.32,21.11V20.91l0.3,0a0.27,0.27,0,0,0,.11-0.06,1,1,0,0,0,.15-0.25l0.4-.86L59.05,18l0.54-1.27h0.2l1.32,3.08q0.32,0.75.42,0.94a0.32,0.32,0,0,0,.13.14,0.91,0.91,0,0,0,.31,0v0.21l-0.67,0-1,0V20.91l0.42,0a0.19,0.19,0,0,0,.1,0,0.1,0.1,0,0,0,0-.07,0.5,0.5,0,0,0,0-.18l-0.38-.94H58.65l-0.33.79a0.93,0.93,0,0,0-.09.31,0.1,0.1,0,0,0,0,.07,0.18,0.18,0,0,0,.1.06,2.29,2.29,0,0,0,.4,0v0.21l-0.78,0Zm1.43-1.73H60.3l-0.77-1.85Z" transform="translate(-0.02 -1.8)"></path> <path class="cls-1" d="M62,17.76H61.81q0-.74,0-1l1.05,0h0.77l1,0,0.8,0q0,0.34,0,1h-0.2l0-.3q0-.27,0-0.3a0.1,0.1,0,0,0,0-.05l-0.05,0-0.31,0-0.42,0H63.9q0,0.3,0,.8v1.8q0,0.42,0,.81a1,1,0,0,0,0,.35,0.21,0.21,0,0,0,.11.08,2.2,2.2,0,0,0,.44,0v0.2l-0.83,0-1,0v-0.2a2.21,2.21,0,0,0,.44,0,0.19,0.19,0,0,0,.11-0.07,0.73,0.73,0,0,0,0-.3s0-.33,0-0.87V17.85q0-.13,0-0.28l0-.52H62.83a5,5,0,0,0-.63,0,0.14,0.14,0,0,0-.1,0,1.1,1.1,0,0,0-.06.34Z" transform="translate(-0.02 -1.8)"></path> <path class="cls-1" d="M67.46,20.92v0.2l-0.86,0-0.95,0v-0.2a2.19,2.19,0,0,0,.44,0,0.2,0.2,0,0,0,.11-0.07,0.78,0.78,0,0,0,0-.3s0-.33,0-0.87V18.22q0-.42,0-0.82a1,1,0,0,0,0-.35A0.21,0.21,0,0,0,66.1,17a2.19,2.19,0,0,0-.44,0v-0.2l0.91,0,0.9,0v0.2A2.17,2.17,0,0,0,67,17a0.2,0.2,0,0,0-.11.07,0.79,0.79,0,0,0,0,.3s0,0.33,0,.87v1.42q0,0.42,0,.81a1,1,0,0,0,0,.35,0.21,0.21,0,0,0,.11.08A2.2,2.2,0,0,0,67.46,20.92Z" transform="translate(-0.02 -1.8)"></path> <path class="cls-1" d="M67.78,19a2.67,2.67,0,0,1,.15-0.9,1.92,1.92,0,0,1,.48-0.74,2.28,2.28,0,0,1,.77-0.5,2.66,2.66,0,0,1,1-.17,2.82,2.82,0,0,1,.92.14,2,2,0,0,1,.68.38,1.93,1.93,0,0,1,.42.52,2,2,0,0,1,.19.49,2.55,2.55,0,0,1,.07.61,2.33,2.33,0,0,1-.7,1.73A2.4,2.4,0,0,1,70,21.2a2.54,2.54,0,0,1-.9-0.16,1.83,1.83,0,0,1-.71-0.47,2.05,2.05,0,0,1-.44-0.75A2.68,2.68,0,0,1,67.78,19Zm0.64-.26a3.11,3.11,0,0,0,.06.59,2.8,2.8,0,0,0,.15.52,1.93,1.93,0,0,0,.39.62,1.51,1.51,0,0,0,.53.37,1.73,1.73,0,0,0,.65.12,1.53,1.53,0,0,0,.86-0.24A1.45,1.45,0,0,0,71.61,20a2.64,2.64,0,0,0,.18-1,3,3,0,0,0-.13-0.9,1.9,1.9,0,0,0-.21-0.46A1.45,1.45,0,0,0,70.65,17a1.86,1.86,0,0,0-.63-0.1,1.65,1.65,0,0,0-.86.22,1.36,1.36,0,0,0-.56.63A2.26,2.26,0,0,0,68.42,18.7Z" transform="translate(-0.02 -1.8)"></path> <path class="cls-1" d="M72.76,21.11v-0.2a1.28,1.28,0,0,0,.43,0,0.12,0.12,0,0,0,.06-0.06,1.09,1.09,0,0,0,0-.32q0-.41,0-0.7v-2.5A0.25,0.25,0,0,0,73.18,17,0.27,0.27,0,0,0,73.06,17l-0.32,0v-0.2h1.13l0.38,0.5L74.87,18l0.92,1.12L76.5,20l0.29,0.32V18.07q0-.3,0-0.7a1.2,1.2,0,0,0,0-.32A0.13,0.13,0,0,0,76.66,17a1.34,1.34,0,0,0-.42,0v-0.2h1.37v0.2a1.35,1.35,0,0,0-.42,0,0.11,0.11,0,0,0-.06.06,1,1,0,0,0,0,.32q0,0.41,0,.7v1.48q0,0.45,0,1.67l-0.32-.09-0.07,0,0,0L76.54,21l-0.38-.44L75.77,20l-2.18-2.63v2.38q0,0.3,0,.72a1.14,1.14,0,0,0,0,.32,0.13,0.13,0,0,0,.06.06,1.32,1.32,0,0,0,.42,0v0.2l-0.6,0Z" transform="translate(-0.02 -1.8)"></path> <path class="cls-1" d="M79.57,21.11v-0.2a1.28,1.28,0,0,0,.43,0,0.12,0.12,0,0,0,.06-0.06,1.09,1.09,0,0,0,0-.32q0-.41,0-0.7v-2.5A0.25,0.25,0,0,0,80,17,0.27,0.27,0,0,0,79.87,17l-0.32,0v-0.2h1.13l0.38,0.5L81.68,18l0.92,1.12L83.31,20l0.29,0.32V18.07q0-.3,0-0.7a1.2,1.2,0,0,0,0-.32A0.13,0.13,0,0,0,83.47,17a1.34,1.34,0,0,0-.42,0v-0.2h1.37v0.2A1.35,1.35,0,0,0,84,17a0.11,0.11,0,0,0-.06.06,1,1,0,0,0,0,.32q0,0.41,0,.7v1.48q0,0.45,0,1.67l-0.32-.09-0.07,0,0,0L83.35,21,83,20.53,82.57,20l-2.18-2.63v2.38q0,0.3,0,.72a1.14,1.14,0,0,0,0,.32,0.13,0.13,0,0,0,.06.06,1.32,1.32,0,0,0,.42,0v0.2l-0.6,0Z" transform="translate(-0.02 -1.8)"></path> <path class="cls-1" d="M84.84,21.11v-0.2a1.27,1.27,0,0,0,.42,0,0.12,0.12,0,0,0,.06-0.06,1.1,1.1,0,0,0,0-.32q0-.41,0-0.7V18.22q0-.42,0-0.82a1,1,0,0,0,0-.35A0.21,0.21,0,0,0,85.22,17a2.19,2.19,0,0,0-.44,0v-0.2l0.88,0,0.93,0h1a4.68,4.68,0,0,1,.58,0,2.44,2.44,0,0,0-.07.3s0,0.23-.06.64H87.81a3.32,3.32,0,0,0,0-.57,1.39,1.39,0,0,0-.37-0.1,5.54,5.54,0,0,0-.69,0H86.38L86,17q0,0.34,0,.64v1l0.66,0a4.9,4.9,0,0,0,.62,0,0.19,0.19,0,0,0,.13,0,0.75,0.75,0,0,0,0-.25l0-.22h0.18v0.06l0,0.64,0,0.72H87.43V19.39a0.7,0.7,0,0,0,0-.28A0.2,0.2,0,0,0,87.25,19a4,4,0,0,0-.68,0L86,19q0,0.31,0,.91t0,0.86q0.44,0,1,0a4.32,4.32,0,0,0,.56,0,1.3,1.3,0,0,0,.31-0.08,1.92,1.92,0,0,0,.07-0.26Q88,20.18,88,20h0.21a8.36,8.36,0,0,0-.08,1,4.33,4.33,0,0,1-.64,0l-1.84,0Z" transform="translate(-0.02 -1.8)"></path> <path class="cls-1" d="M88.83,17.76H88.64q0-.74,0-1l1.05,0h0.77l1,0,0.8,0q0,0.34,0,1H92l0-.3q0-.27,0-0.3a0.1,0.1,0,0,0,0-.05l-0.05,0-0.31,0L91.1,17H90.72q0,0.3,0,.8v1.8q0,0.42,0,.81a1,1,0,0,0,0,.35,0.21,0.21,0,0,0,.11.08,2.2,2.2,0,0,0,.44,0v0.2l-0.83,0-1,0v-0.2a2.21,2.21,0,0,0,.44,0,0.19,0.19,0,0,0,.11-0.07,0.73,0.73,0,0,0,0-.3s0-.33,0-0.87V17.85q0-.13,0-0.28l0-.52H89.65a5,5,0,0,0-.63,0,0.14,0.14,0,0,0-.1,0,1.1,1.1,0,0,0-.06.34Z" transform="translate(-0.02 -1.8)"></path> <path class="cls-1" d="M93.79,21.15l-0.28-1.28-0.59-2.53A0.74,0.74,0,0,0,92.79,17a1,1,0,0,0-.38-0.09V16.75l0.78,0,0.8,0v0.18a1.92,1.92,0,0,0-.46,0,0.09,0.09,0,0,0,0,.09,1.73,1.73,0,0,0,0,.27q0.1,0.55.14,0.7l0.48,2.13,0.76-1.89q0.3-.74.59-1.57h0.2q0.28,0.87.51,1.5l0.72,2,0.52-1.83q0.14-.49.26-1a2.48,2.48,0,0,0,.06-0.28A0.1,0.1,0,0,0,97.7,17a2.11,2.11,0,0,0-.49,0V16.75l0.66,0,0.66,0v0.18a0.68,0.68,0,0,0-.28,0,0.3,0.3,0,0,0-.12.14q0,0.1-.26.81l-0.32,1-0.19.7L97,21.15H96.64q-0.34-1-.53-1.53l-0.7-1.9L94.8,19.24l-0.38,1-0.14.37-0.18.53H93.79Z" transform="translate(-0.02 -1.8)"></path> <path class="cls-1" d="M98.79,19a2.67,2.67,0,0,1,.15-0.9,1.92,1.92,0,0,1,.48-0.74,2.28,2.28,0,0,1,.77-0.5,2.66,2.66,0,0,1,1-.17,2.82,2.82,0,0,1,.92.14,2,2,0,0,1,.68.38,1.93,1.93,0,0,1,.42.52,2,2,0,0,1,.19.49,2.55,2.55,0,0,1,.07.61,2.33,2.33,0,0,1-.7,1.73,2.4,2.4,0,0,1-1.76.69,2.54,2.54,0,0,1-.9-0.16,1.83,1.83,0,0,1-.71-0.47,2.05,2.05,0,0,1-.44-0.75A2.68,2.68,0,0,1,98.79,19Zm0.64-.26a3.11,3.11,0,0,0,.06.59,2.8,2.8,0,0,0,.15.52,1.93,1.93,0,0,0,.39.62,1.51,1.51,0,0,0,.53.37,1.73,1.73,0,0,0,.65.12,1.53,1.53,0,0,0,.86-0.24,1.45,1.45,0,0,0,.55-0.68,2.64,2.64,0,0,0,.18-1,3,3,0,0,0-.13-0.9,1.9,1.9,0,0,0-.21-0.46,1.45,1.45,0,0,0-.79-0.61,1.86,1.86,0,0,0-.63-0.1,1.65,1.65,0,0,0-.86.22,1.36,1.36,0,0,0-.56.63A2.26,2.26,0,0,0,99.43,18.7Z" transform="translate(-0.02 -1.8)"></path> <path class="cls-1" d="M103.72,16.94v-0.2h1.5l0.56,0a2.55,2.55,0,0,1,.86.1,0.83,0.83,0,0,1,.42.34,1,1,0,0,1,.15.51,1.07,1.07,0,0,1-.14.51,1.16,1.16,0,0,1-.4.42,2.09,2.09,0,0,1-.68.26l0.36,0.48,0.78,1q0.33,0.43.39,0.48l0.06,0,0.2,0v0.2l-0.41,0-0.44,0q-0.2-.23-0.67-0.9-0.26-.37-0.46-0.62-0.32-.41-0.62-0.75l0-.09h0.24a1.22,1.22,0,0,0,.85-0.26,0.9,0.9,0,0,0,.29-0.7,0.77,0.77,0,0,0-.25-0.6,1.1,1.1,0,0,0-.75-0.22,2.07,2.07,0,0,0-.62.1q0,0.17,0,.31s0,0.33,0,.89v1.36q0,0.42,0,.81a1,1,0,0,0,0,.35,0.2,0.2,0,0,0,.11.08,2.18,2.18,0,0,0,.44,0v0.2l-0.8,0-1,0v-0.2a2.18,2.18,0,0,0,.44,0,0.2,0.2,0,0,0,.11-0.07,0.78,0.78,0,0,0,0-.3s0-.33,0-0.87V18.22q0-.42,0-0.82a1,1,0,0,0,0-.35,0.21,0.21,0,0,0-.11-0.08A2.19,2.19,0,0,0,103.72,16.94Z" transform="translate(-0.02 -1.8)"></path> <path class="cls-1" d="M109.75,20.92v0.2l-0.93,0-0.87,0v-0.2a2.18,2.18,0,0,0,.44,0,0.2,0.2,0,0,0,.11-0.07,0.79,0.79,0,0,0,0-.3s0-.33,0-0.87V18.22q0-.42,0-0.82a1,1,0,0,0,0-.35A0.21,0.21,0,0,0,108.4,17a2.19,2.19,0,0,0-.44,0v-0.2l0.91,0,0.89,0v0.2a2.18,2.18,0,0,0-.44,0,0.19,0.19,0,0,0-.11.07,0.73,0.73,0,0,0,0,.3s0,0.33,0,.87v0.63a1.9,1.9,0,0,0,.39-0.31l0.39-.38,0.69-.69q0.4-.4.49-0.52v-0.2h1.06v0.2a2,2,0,0,0-.39,0,0.6,0.6,0,0,0-.2.09q-0.2.14-.6,0.52l-1.23,1.12,1.85,1.73q0.45,0.42.51,0.46a0.53,0.53,0,0,0,.24,0v0.19h-0.88l-0.51-.5-0.32-.3L109.21,19l-0.07,0v0.6q0,0.42,0,.81a1,1,0,0,0,0,.35,0.21,0.21,0,0,0,.11.08A2.19,2.19,0,0,0,109.75,20.92Z" transform="translate(-0.02 -1.8)"></path> <path class="cls-1" d="M18.69,1.81H0c0,8.9-.81,16.35,9.33,21.67C19.5,18.17,18.69,10.72,18.69,1.81ZM9.36,23C-0.31,17.91.47,10.81,0.47,2.31H18.26C18.26,10.81,19,17.91,9.36,23Z" transform="translate(-0.02 -1.8)"></path> <path class="cls-1" d="M17.56,3.13H1.17c0,7.82-.71,14.37,8.19,19C18.27,17.5,17.56,11,17.56,3.13Z" transform="translate(-0.02 -1.8)"></path> <path class="cls-2" d="M10,3.8c0,1.37.92,1.68,0.92,2.14V8.68c-0.61,0-.61-0.76-0.76-1.68A0.33,0.33,0,0,0,9.85,6.7h0A0.33,0.33,0,0,0,9.55,7V9.9a0.33,0.33,0,0,1-.31.31h0A0.33,0.33,0,0,1,8.94,9.9V7.61a0.15,0.15,0,0,0-.15-0.15h0a0.15,0.15,0,0,0-.15.15V9.9a0.33,0.33,0,0,1-.31.31h0A0.33,0.33,0,0,1,8,9.9V7.61a0.15,0.15,0,0,0-.15-0.15h0a0.15,0.15,0,0,0-.15.15V9.9a0.33,0.33,0,0,1-.31.31h0A0.33,0.33,0,0,1,7.11,9.9V9.75A1.17,1.17,0,0,0,7.41,9H7.11V7.77A0.15,0.15,0,0,0,7,7.61H7a0.15,0.15,0,0,0-.15.15V9H6V5.32A4.07,4.07,0,0,0,6.65,3.8H10Z" transform="translate(-0.02 -1.8)"></path> <path class="cls-2" d="M2.22,10.05c1.37,0,1.68-.92,2.14-0.92H7.11c0,0.61-.76.61-1.68,0.76a0.33,0.33,0,0,0-.31.31h0a0.33,0.33,0,0,0,.31.31h2.9a0.33,0.33,0,0,1,.31.31h0a0.33,0.33,0,0,1-.31.31H6a0.15,0.15,0,0,0-.15.15h0a0.15,0.15,0,0,0,.15.15H8.33a0.33,0.33,0,0,1,.31.31h0a0.33,0.33,0,0,1-.31.31H6a0.15,0.15,0,0,0-.15.15h0a0.15,0.15,0,0,0,.15.15H8.33a0.33,0.33,0,0,1,.31.31h0a0.33,0.33,0,0,1-.31.31H8.17a0.9,0.9,0,0,0-.76-0.31V13H6.19a0.15,0.15,0,0,0-.15.15H6a0.15,0.15,0,0,0,.15.15H7.41V14H3.9a4.07,4.07,0,0,0-1.53-.61Z" transform="translate(-0.02 -1.8)"></path> <path class="cls-2" d="M8.48,17.84c0-1.37-.92-1.68-0.92-2.14V13c0.61,0,.61.76,0.76,1.68a0.33,0.33,0,0,0,.31.31h0a0.33,0.33,0,0,0,.31-0.31v-2.9a0.33,0.33,0,0,1,.31-0.31h0a0.33,0.33,0,0,1,.31.31v2.14A0.15,0.15,0,0,0,9.7,14h0a0.15,0.15,0,0,0,.15-0.15V11.58a0.33,0.33,0,0,1,.31-0.31h0a0.33,0.33,0,0,1,.31.31v2.29a0.15,0.15,0,0,0,.15.15h0a0.15,0.15,0,0,0,.15-0.15V11.73a0.33,0.33,0,0,1,.31-0.31h0a0.33,0.33,0,0,1,.31.31v0.15a0.9,0.9,0,0,0-.31.76h0.31v1.22a0.15,0.15,0,0,0,.15.15h0a0.15,0.15,0,0,0,.15-0.15V12.65h0.76v3.51a4.07,4.07,0,0,0-.61,1.53H8.48v0.15Z" transform="translate(-0.02 -1.8)"></path> <path class="cls-2" d="M16.26,11.58c-1.37,0-1.68.92-2.14,0.92H11.38c0-.61.76-0.61,1.68-0.76a0.33,0.33,0,0,0,.31-0.31h0a0.33,0.33,0,0,0-.31-0.31h-2.9a0.33,0.33,0,0,1-.31-0.31h0a0.33,0.33,0,0,1,.31-0.31h2.29a0.15,0.15,0,0,0,.15-0.15h0a0.15,0.15,0,0,0-.15-0.15H10.16A0.33,0.33,0,0,1,9.85,9.9h0a0.33,0.33,0,0,1,.31-0.31h2.29a0.15,0.15,0,0,0,.15-0.15h0a0.15,0.15,0,0,0-.15-0.15H10.16A0.33,0.33,0,0,1,9.85,9h0a0.33,0.33,0,0,1,.31-0.31h0.15a1.17,1.17,0,0,0,.76.31V8.68h1.22a0.15,0.15,0,0,0,.15-0.15h0a0.15,0.15,0,0,0-.15-0.15H11.07V7.61h3.51a4.07,4.07,0,0,0,1.53.61Z" transform="translate(-0.02 -1.8)"></path> </svg> 