<?xml version="1.0" encoding="UTF-8"?> <svg xmlns="http://www.w3.org/2000/svg" id="Layer_1" data-name="Layer 1" viewBox="0 0 254.71 51.64"> <defs> <style>.cls-1{fill:#fff;}.cls-2{fill:#343f49;}</style> </defs> <title>footer-logo-massgen</title> <path class="cls-1" d="M60.74,12.62V12q1,0,1.92,0t1.78,0q0.84,1.91,1.54,3.36l3.63,7.47L72.88,16q1.34-2.79,1.79-4,1,0,1.71,0l2.08,0v0.61a6.85,6.85,0,0,0-1.38.1,0.63,0.63,0,0,0-.34.22,2.19,2.19,0,0,0-.14.93q0,0.19,0,2.72V21q0,1.3,0,2.53a3.08,3.08,0,0,0,.14,1.08,0.64,0.64,0,0,0,.35.25,6.76,6.76,0,0,0,1.38.1V25.6q-1.93-.09-2.73-0.09-0.64,0-2.83.09V25a6.92,6.92,0,0,0,1.39-.1,0.58,0.58,0,0,0,.33-0.22,2.19,2.19,0,0,0,.14-0.93q0-.2,0-2.72V14l-3.3,6.91q-0.77,1.62-1.22,2.6-0.32.72-1,2.28H69a5.74,5.74,0,0,0-.23-0.58l-0.65-1.39-4.58-9.5V21q0,1.3,0,2.53a3.06,3.06,0,0,0,.14,1.08,0.64,0.64,0,0,0,.35.25,6.83,6.83,0,0,0,1.38.1V25.6l-2.31-.07-2.38.07V25a6.78,6.78,0,0,0,1.37-.1,0.63,0.63,0,0,0,.34-0.22,2.46,2.46,0,0,0,.14-0.93q0-.2,0-2.72V16.59q0-1.3,0-2.54A3,3,0,0,0,62.48,13a0.65,0.65,0,0,0-.35-0.25A6.85,6.85,0,0,0,60.74,12.62Z" transform="translate(-6.72 -10.96)"></path> <path class="cls-1" d="M79.24,25.6V24.95a5.08,5.08,0,0,0,.94-0.06,0.83,0.83,0,0,0,.34-0.2A3.07,3.07,0,0,0,81,23.92q0.17-.35,1.25-2.69l2.4-5.4q0.39-.89,1.68-4h0.61L91,21.47q1,2.34,1.32,2.93a1,1,0,0,0,.4.44,2.83,2.83,0,0,0,1,.11V25.6q-1.5-.1-2.09-0.1l-3.08.1V24.95a10.63,10.63,0,0,0,1.3-.07,0.58,0.58,0,0,0,.31-0.14,0.33,0.33,0,0,0,.08-0.23A1.56,1.56,0,0,0,90.09,24L88.91,21H83.37l-1,2.46a2.88,2.88,0,0,0-.28,1,0.32,0.32,0,0,0,.08.22,0.57,0.57,0,0,0,.33.17,7.2,7.2,0,0,0,1.24.09V25.6q-1.62-.09-2.42-0.09T79.24,25.6Zm4.46-5.37h4.82l-2.38-5.76Z" transform="translate(-6.72 -10.96)"></path> <path class="cls-1" d="M94.78,25.13a22.21,22.21,0,0,0,.18-3h0.64a7.1,7.1,0,0,0,.16,1.65,1.44,1.44,0,0,0,.53.54,4.38,4.38,0,0,0,1.13.51,4.53,4.53,0,0,0,1.37.23,3.65,3.65,0,0,0,1.78-.45,2.8,2.8,0,0,0,1.19-1.17,3.33,3.33,0,0,0,.37-1.55,2.9,2.9,0,0,0-.19-1.09,1.7,1.7,0,0,0-.57-0.74,2.38,2.38,0,0,0-.95-0.4L99,19.49q-1.06-.14-1.81-0.3a4.06,4.06,0,0,1-1.46-.72A3,3,0,0,1,95,17.4,3.57,3.57,0,0,1,94.7,16a4.12,4.12,0,0,1,.59-2.13A3.93,3.93,0,0,1,97,12.28a5.7,5.7,0,0,1,2.5-.55,8.15,8.15,0,0,1,1.78.22,7.93,7.93,0,0,1,1.79.63,10.45,10.45,0,0,0-.19,1.12q-0.06.52-.09,1.54h-0.64a10.63,10.63,0,0,0-.09-1.61,2.43,2.43,0,0,0-.65-0.62,4.15,4.15,0,0,0-2.06-.56,2.87,2.87,0,0,0-3,3,2.26,2.26,0,0,0,.3,1.26,2,2,0,0,0,1.06.71,9.86,9.86,0,0,0,1.72.34q1.2,0.16,2.15.34a3.69,3.69,0,0,1,1.33.64,2.8,2.8,0,0,1,.71,1,3.31,3.31,0,0,1,.28,1.4,4.34,4.34,0,0,1-1.58,3.32,5.89,5.89,0,0,1-4.09,1.42A7.76,7.76,0,0,1,94.78,25.13Z" transform="translate(-6.72 -10.96)"></path> <path class="cls-1" d="M105.07,25.13a22.21,22.21,0,0,0,.18-3h0.64a7.1,7.1,0,0,0,.16,1.65,1.44,1.44,0,0,0,.53.54,4.38,4.38,0,0,0,1.13.51,4.53,4.53,0,0,0,1.37.23,3.65,3.65,0,0,0,1.78-.45,2.8,2.8,0,0,0,1.19-1.17,3.33,3.33,0,0,0,.37-1.55,2.9,2.9,0,0,0-.19-1.09,1.7,1.7,0,0,0-.57-0.74,2.38,2.38,0,0,0-.95-0.4l-1.42-.19q-1.06-.14-1.81-0.3a4.06,4.06,0,0,1-1.46-.72,3,3,0,0,1-.76-1.08A3.57,3.57,0,0,1,105,16a4.12,4.12,0,0,1,.59-2.13,3.93,3.93,0,0,1,1.74-1.55,5.7,5.7,0,0,1,2.5-.55,8.15,8.15,0,0,1,1.78.22,7.93,7.93,0,0,1,1.79.63,10.45,10.45,0,0,0-.19,1.12q-0.06.52-.09,1.54h-0.64a10.63,10.63,0,0,0-.09-1.61,2.43,2.43,0,0,0-.65-0.62,4.15,4.15,0,0,0-2.06-.56,2.87,2.87,0,0,0-3,3,2.26,2.26,0,0,0,.3,1.26,2,2,0,0,0,1.06.71,9.86,9.86,0,0,0,1.72.34q1.2,0.16,2.15.34a3.69,3.69,0,0,1,1.33.64,2.8,2.8,0,0,1,.71,1,3.31,3.31,0,0,1,.28,1.4,4.34,4.34,0,0,1-1.58,3.32,5.89,5.89,0,0,1-4.09,1.42A7.76,7.76,0,0,1,105.07,25.13Z" transform="translate(-6.72 -10.96)"></path> <path class="cls-1" d="M115.06,25.6V24.95a5.08,5.08,0,0,0,.94-0.06,0.83,0.83,0,0,0,.34-0.2,3.07,3.07,0,0,0,.46-0.77q0.17-.35,1.25-2.69l2.4-5.4q0.39-.89,1.68-4h0.61l4.09,9.6q1,2.34,1.32,2.93a1,1,0,0,0,.4.44,2.83,2.83,0,0,0,1,.11V25.6q-1.5-.1-2.09-0.1l-3.08.1V24.95a10.63,10.63,0,0,0,1.3-.07,0.58,0.58,0,0,0,.31-0.14,0.33,0.33,0,0,0,.08-0.23,1.56,1.56,0,0,0-.13-0.55L124.74,21h-5.54l-1,2.46a2.88,2.88,0,0,0-.28,1,0.32,0.32,0,0,0,.08.22,0.57,0.57,0,0,0,.33.17,7.2,7.2,0,0,0,1.24.09V25.6q-1.62-.09-2.42-0.09T115.06,25.6Zm4.46-5.37h4.82L122,14.47Z" transform="translate(-6.72 -10.96)"></path> <path class="cls-1" d="M143.34,23.92l-0.37.89a10,10,0,0,1-2.19.82,10.14,10.14,0,0,1-2.34.25,9.76,9.76,0,0,1-2.76-.37,7.15,7.15,0,0,1-2.22-1.07,6.66,6.66,0,0,1-1.56-1.56A6.77,6.77,0,0,1,131,21a7.39,7.39,0,0,1-.32-2.22,6.66,6.66,0,0,1,2.13-5.06,8.14,8.14,0,0,1,5.82-2,12,12,0,0,1,1.61.1,15.45,15.45,0,0,1,1.81.38l1.31,0.33a6.13,6.13,0,0,0-.31,1,14.05,14.05,0,0,0-.21,1.89h-0.6V14.33a1.69,1.69,0,0,0-1-1.4,6.51,6.51,0,0,0-2.76-.46,7.37,7.37,0,0,0-2.31.35,4.4,4.4,0,0,0-1.67,1,5.46,5.46,0,0,0-1.18,1.81,7.26,7.26,0,0,0-.47,2.75,6.08,6.08,0,0,0,6.45,6.43,7.88,7.88,0,0,0,2.43-.36,5.69,5.69,0,0,0,1.52-.78Z" transform="translate(-6.72 -10.96)"></path> <path class="cls-1" d="M144.35,12.62V12l2.93,0.07L150,12v0.61a6.78,6.78,0,0,0-1.38.1,0.63,0.63,0,0,0-.34.23,2.44,2.44,0,0,0-.14.93q0,0.19,0,2.72v1.33Q150,18,152.67,18q2.08,0,3.32-.07V16.59q0-1.3,0-2.55A3.06,3.06,0,0,0,155.8,13a0.65,0.65,0,0,0-.35-0.25,6.79,6.79,0,0,0-1.38-.1V12q2.06,0.07,2.82.07l2.79-.07v0.61a6.8,6.8,0,0,0-1.37.1,0.58,0.58,0,0,0-.33.22,2.25,2.25,0,0,0-.15.93q0,0.19,0,2.72V21q0,1.3,0,2.53a3,3,0,0,0,.13,1.08,0.64,0.64,0,0,0,.36.25,6.78,6.78,0,0,0,1.37.1V25.6q-1.85-.07-3-0.07t-2.59.07V25a6.83,6.83,0,0,0,1.38-.1,0.62,0.62,0,0,0,.34-0.22,2.18,2.18,0,0,0,.14-0.93q0-.2,0-2.71V18.85q-2.68-.07-4.07-0.07t-3.85.07V21q0,1.3,0,2.53a3.06,3.06,0,0,0,.14,1.08,0.64,0.64,0,0,0,.35.25A6.83,6.83,0,0,0,150,25V25.6q-1.29-.07-2.66-0.07t-3,.07V25a6.78,6.78,0,0,0,1.37-.1,0.63,0.63,0,0,0,.34-0.22,2.45,2.45,0,0,0,.14-0.93q0-.2,0-2.72V16.59q0-1.3,0-2.54a3,3,0,0,0-.14-1.08,0.65,0.65,0,0,0-.35-0.25A6.84,6.84,0,0,0,144.35,12.62Z" transform="translate(-6.72 -10.96)"></path> <path class="cls-1" d="M160.48,12.62V12q1.56,0.07,2.9.07t2.7-.07v0.61a6.8,6.8,0,0,0-1.37.1,0.58,0.58,0,0,0-.33.22,2.28,2.28,0,0,0-.15.93q0,0.19,0,2.72v3.54a8.79,8.79,0,0,0,.26,2.71,2.49,2.49,0,0,0,.84,1.09,3.48,3.48,0,0,0,1.19.52,6.55,6.55,0,0,0,1.67.2,6.32,6.32,0,0,0,1.9-.26,3.36,3.36,0,0,0,1.25-.64,2.49,2.49,0,0,0,.62-0.85,4.52,4.52,0,0,0,.3-1.29,19.37,19.37,0,0,0,.09-2.07V16.59q0-1.3,0-2.54a3,3,0,0,0-.13-1.08,0.65,0.65,0,0,0-.36-0.25,6.8,6.8,0,0,0-1.37-.1V12q1.58,0.07,2.3.07t2.38-.07v0.61a6.79,6.79,0,0,0-1.38.1,0.63,0.63,0,0,0-.34.22,2.46,2.46,0,0,0-.14.93q0,0.19,0,2.72v3.2a11.26,11.26,0,0,1-.33,3.3,3.73,3.73,0,0,1-1.21,1.65,4.72,4.72,0,0,1-1.7.83,9.32,9.32,0,0,1-4.86-.05,4,4,0,0,1-1.65-.92,3.18,3.18,0,0,1-.78-1.16,9,9,0,0,1-.27-2.63V16.59q0-1.3,0-2.54a3,3,0,0,0-.14-1.08,0.65,0.65,0,0,0-.35-0.25A6.84,6.84,0,0,0,160.48,12.62Z" transform="translate(-6.72 -10.96)"></path> <path class="cls-1" d="M176.06,25.13a22.14,22.14,0,0,0,.18-3h0.64a7.1,7.1,0,0,0,.16,1.65,1.44,1.44,0,0,0,.53.54,4.38,4.38,0,0,0,1.13.51,4.53,4.53,0,0,0,1.37.23,3.65,3.65,0,0,0,1.78-.45A2.8,2.8,0,0,0,183,23.47a3.33,3.33,0,0,0,.37-1.55,2.9,2.9,0,0,0-.19-1.09,1.7,1.7,0,0,0-.57-0.74,2.37,2.37,0,0,0-.95-0.4l-1.42-.19q-1.06-.14-1.81-0.3a4.07,4.07,0,0,1-1.47-.72,3,3,0,0,1-.76-1.08A3.57,3.57,0,0,1,176,16a4.12,4.12,0,0,1,.59-2.13,3.93,3.93,0,0,1,1.74-1.55,5.7,5.7,0,0,1,2.5-.55,8.13,8.13,0,0,1,1.78.22,7.92,7.92,0,0,1,1.79.63,10.33,10.33,0,0,0-.19,1.12q-0.06.52-.09,1.54h-0.64a10.83,10.83,0,0,0-.09-1.61,2.43,2.43,0,0,0-.65-0.62,4.15,4.15,0,0,0-2.06-.56,2.87,2.87,0,0,0-3,3,2.26,2.26,0,0,0,.3,1.26,2,2,0,0,0,1.06.71,9.88,9.88,0,0,0,1.72.34q1.2,0.16,2.15.34a3.69,3.69,0,0,1,1.33.64,2.8,2.8,0,0,1,.71,1,3.3,3.3,0,0,1,.28,1.4,4.34,4.34,0,0,1-1.58,3.32,5.89,5.89,0,0,1-4.09,1.42A7.76,7.76,0,0,1,176.06,25.13Z" transform="translate(-6.72 -10.96)"></path> <path class="cls-1" d="M186.4,25.6V25a3.92,3.92,0,0,0,1.32-.15,0.36,0.36,0,0,0,.19-0.18,3.38,3.38,0,0,0,.13-1q0.06-1.26.06-2.18V16.59q0-1.3,0-2.54a3,3,0,0,0-.14-1.07,0.65,0.65,0,0,0-.35-0.25,6.84,6.84,0,0,0-1.38-.1V12l2.73,0.06,2.89,0,3,0a14.42,14.42,0,0,1,1.79.11,7.57,7.57,0,0,0-.21.95q0,0.09-.17,2h-0.6a10.26,10.26,0,0,0-.12-1.78,4.34,4.34,0,0,0-1.16-.3,17.27,17.27,0,0,0-2.14-.13l-1,0-1.14.07q0,1.06-.06,2l0,3.22q1.12,0.07,2.06.07a15.24,15.24,0,0,0,1.94-.11,0.58,0.58,0,0,0,.39-0.15,2.28,2.28,0,0,0,.15-0.79l0.06-.67h0.57v0.18l0,2,0,2.23h-0.67l0-.65a2.19,2.19,0,0,0-.13-0.88,0.63,0.63,0,0,0-.42-0.24,12.42,12.42,0,0,0-2.12-.12q-0.64,0-1.82,0,0,1,0,2.84t0,2.69q1.38,0.11,3.09.11a13.36,13.36,0,0,0,1.73-.08,4,4,0,0,0,1-.26,6.11,6.11,0,0,0,.23-0.8q0.21-.85.28-1.28h0.64a25.93,25.93,0,0,0-.25,3.2,13.41,13.41,0,0,1-2,.13l-5.71-.07Z" transform="translate(-6.72 -10.96)"></path> <path class="cls-1" d="M198.8,15.18h-0.59q0-2.29-.1-3.17l3.27,0.1,2.41,0,3-.06,2.5-.08q-0.11,1.07-.15,3.17h-0.61l-0.08-.92q-0.08-.83-0.11-0.95a0.32,0.32,0,0,0-.08-0.16,0.39,0.39,0,0,0-.16-0.08q-0.13,0-1-.08t-1.3,0H204.7q-0.1.92-.1,2.48V21q0,1.3,0,2.53a3,3,0,0,0,.14,1.08,0.64,0.64,0,0,0,.35.25,6.82,6.82,0,0,0,1.38.1V25.6q-1.71-.08-2.58-0.08l-3,.08V25a6.85,6.85,0,0,0,1.38-.1,0.58,0.58,0,0,0,.33-0.22,2.28,2.28,0,0,0,.15-0.93q0-.2,0-2.72V15.44q0-.4,0-0.88l-0.06-1.62h-1.43a15.75,15.75,0,0,0-2,.1,0.42,0.42,0,0,0-.3.12,3.41,3.41,0,0,0-.19,1Z" transform="translate(-6.72 -10.96)"></path> <path class="cls-1" d="M210.81,15.18h-0.59q0-2.29-.1-3.17l3.27,0.1,2.41,0,3-.06,2.5-.08q-0.11,1.07-.15,3.17h-0.61l-0.08-.92q-0.08-.83-0.11-0.95a0.32,0.32,0,0,0-.08-0.16,0.39,0.39,0,0,0-.16-0.08q-0.13,0-1-.08t-1.3,0h-1.17q-0.1.92-.1,2.48V21q0,1.3,0,2.53a3,3,0,0,0,.14,1.08,0.64,0.64,0,0,0,.35.25,6.82,6.82,0,0,0,1.38.1V25.6q-1.71-.08-2.58-0.08l-3,.08V25a6.85,6.85,0,0,0,1.38-.1,0.58,0.58,0,0,0,.33-0.22,2.28,2.28,0,0,0,.15-0.93q0-.2,0-2.72V15.44q0-.4,0-0.88l-0.06-1.62h-1.43a15.75,15.75,0,0,0-2,.1,0.42,0.42,0,0,0-.3.12,3.41,3.41,0,0,0-.19,1Z" transform="translate(-6.72 -10.96)"></path> <path class="cls-1" d="M222.35,25.13a22.14,22.14,0,0,0,.18-3h0.64a7.1,7.1,0,0,0,.16,1.65,1.44,1.44,0,0,0,.53.54,4.38,4.38,0,0,0,1.13.51,4.53,4.53,0,0,0,1.37.23,3.65,3.65,0,0,0,1.78-.45,2.8,2.8,0,0,0,1.19-1.17,3.33,3.33,0,0,0,.37-1.55,2.9,2.9,0,0,0-.19-1.09,1.7,1.7,0,0,0-.57-0.74,2.37,2.37,0,0,0-.95-0.4l-1.42-.19q-1.06-.14-1.81-0.3a4.07,4.07,0,0,1-1.47-.72,3,3,0,0,1-.76-1.08,3.57,3.57,0,0,1-.29-1.44,4.12,4.12,0,0,1,.59-2.13,3.93,3.93,0,0,1,1.74-1.55,5.7,5.7,0,0,1,2.5-.55,8.13,8.13,0,0,1,1.78.22,7.92,7.92,0,0,1,1.79.63,10.33,10.33,0,0,0-.19,1.12q-0.06.52-.09,1.54h-0.64a10.83,10.83,0,0,0-.09-1.61A2.43,2.43,0,0,0,229,13a4.15,4.15,0,0,0-2.06-.56,2.87,2.87,0,0,0-3,3,2.26,2.26,0,0,0,.3,1.26,2,2,0,0,0,1.06.71,9.88,9.88,0,0,0,1.72.34q1.2,0.16,2.15.34a3.69,3.69,0,0,1,1.33.64,2.8,2.8,0,0,1,.71,1,3.3,3.3,0,0,1,.28,1.4,4.34,4.34,0,0,1-1.58,3.32,5.89,5.89,0,0,1-4.09,1.42A7.76,7.76,0,0,1,222.35,25.13Z" transform="translate(-6.72 -10.96)"></path> <path class="cls-1" d="M74.27,45.93a17.21,17.21,0,0,1-2.43.72,16.68,16.68,0,0,1-3.16.32,8.82,8.82,0,0,1-4-.88A6.48,6.48,0,0,1,62,43.62a7.15,7.15,0,0,1-1-3.75,6.74,6.74,0,0,1,2.4-5.42,7.72,7.72,0,0,1,2.05-1.27,10.56,10.56,0,0,1,3.88-.62,12.19,12.19,0,0,1,2.28.25q1.19,0.24,2.7.66a8.07,8.07,0,0,0-.22,1q-0.08.48-.2,2h-0.6l0-1.11c0-.17,0-0.31,0-0.41a1.15,1.15,0,0,0-.13-0.4,2.28,2.28,0,0,0-.84-0.63,10.37,10.37,0,0,0-1.64-.51,8.18,8.18,0,0,0-1.55-.13,6.26,6.26,0,0,0-3.21.79,5,5,0,0,0-2.05,2.26,7.43,7.43,0,0,0-.7,3.22,7.27,7.27,0,0,0,.81,3.46,5.84,5.84,0,0,0,2.19,2.35,6.13,6.13,0,0,0,3.19.81A8.24,8.24,0,0,0,71,45.93a5.15,5.15,0,0,0,1.36-.46,6.29,6.29,0,0,0,.09-1.25V43.14a3,3,0,0,0-.09-1,0.7,0.7,0,0,0-.47-0.22,15,15,0,0,0-1.77-.11V41.21l3,0.07q0.89,0,1.81-.07L75,41.68l-0.73.43A17.33,17.33,0,0,0,74.15,44,16.81,16.81,0,0,0,74.27,45.93Z" transform="translate(-6.72 -10.96)"></path> <path class="cls-1" d="M76.3,46.69V46.07a4,4,0,0,0,1.35-.16,0.36,0.36,0,0,0,.2-0.18,3.45,3.45,0,0,0,.14-1Q78,43.42,78,42.48v-5q0-1.32,0-2.59a3.06,3.06,0,0,0-.14-1.1,0.66,0.66,0,0,0-.36-0.25,7,7,0,0,0-1.41-.1V32.84l2.78,0.06,2.95,0,3.07,0a14.77,14.77,0,0,1,1.82.11,7.57,7.57,0,0,0-.21,1q0,0.09-.18,2H85.72a10.5,10.5,0,0,0-.13-1.81,4.45,4.45,0,0,0-1.18-.3,17.64,17.64,0,0,0-2.19-.14l-1,0L80,33.77q0,1.08-.06,2l0,3.29q1.14,0.07,2.1.07A15.62,15.62,0,0,0,84,39a0.59,0.59,0,0,0,.4-0.16,2.32,2.32,0,0,0,.16-0.8l0.06-.68H85.2v0.18l0,2,0,2.27H84.52l0-.66a2.23,2.23,0,0,0-.13-0.9,0.64,0.64,0,0,0-.42-0.24A12.81,12.81,0,0,0,81.78,40q-0.65,0-1.85,0,0,1,0,2.9t0,2.74q1.4,0.11,3.15.11a13.54,13.54,0,0,0,1.76-.08,4.09,4.09,0,0,0,1-.26A6.13,6.13,0,0,0,86,44.6c0.14-.58.24-1,0.28-1.31H87a26.47,26.47,0,0,0-.25,3.27,13.7,13.7,0,0,1-2,.13l-5.82-.07Z" transform="translate(-6.72 -10.96)"></path> <path class="cls-1" d="M88.38,46.69V46.07a4.05,4.05,0,0,0,1.35-.16,0.37,0.37,0,0,0,.2-0.18,3.42,3.42,0,0,0,.14-1q0-1.28,0-2.22V34.55a0.81,0.81,0,0,0-.39-0.84,0.84,0.84,0,0,0-.4-0.2,7.56,7.56,0,0,0-1-.05V32.84l2.12,0q0.74,0,1.46,0l1.2,1.6,2,2.48L98,40.45q1.4,1.69,2.24,2.67,0.54,0.64.91,1V37q0-1-.07-2.24a3.74,3.74,0,0,0-.13-1,0.41,0.41,0,0,0-.21-0.18,4.26,4.26,0,0,0-1.34-.15V32.84q1.15,0,2.33,0t2,0v0.62a4.29,4.29,0,0,0-1.34.15,0.36,0.36,0,0,0-.2.19,3.33,3.33,0,0,0-.14,1q0,1.29,0,2.21v4.69q0,1.42,0,5.31l-1-.29-0.23,0-0.11-.06a3.93,3.93,0,0,1-.37-0.39q-0.81-.93-1.19-1.4l-1.26-1.61L91,34.88v7.56q0,1,.07,2.28a3.68,3.68,0,0,0,.13,1,0.4,0.4,0,0,0,.21.2,4.17,4.17,0,0,0,1.34.15v0.62q-0.86-.07-1.89-0.07T88.38,46.69Z" transform="translate(-6.72 -10.96)"></path> <path class="cls-1" d="M105.11,46.69V46.07a4,4,0,0,0,1.35-.16,0.36,0.36,0,0,0,.2-0.18,3.45,3.45,0,0,0,.14-1q0.06-1.28.06-2.22v-5q0-1.32,0-2.59a3.06,3.06,0,0,0-.14-1.1,0.66,0.66,0,0,0-.36-0.25,7,7,0,0,0-1.41-.1V32.84l2.78,0.06,2.95,0,3.07,0a14.77,14.77,0,0,1,1.82.11,7.57,7.57,0,0,0-.21,1q0,0.09-.18,2h-0.61a10.5,10.5,0,0,0-.13-1.81,4.45,4.45,0,0,0-1.18-.3,17.64,17.64,0,0,0-2.19-.14l-1,0-1.16.07q0,1.08-.06,2l0,3.29q1.14,0.07,2.1.07a15.62,15.62,0,0,0,2-.11,0.59,0.59,0,0,0,.4-0.16,2.32,2.32,0,0,0,.16-0.8l0.06-.68H114v0.18l0,2,0,2.27h-0.68l0-.66a2.23,2.23,0,0,0-.13-0.9,0.64,0.64,0,0,0-.42-0.24,12.81,12.81,0,0,0-2.16-.12q-0.65,0-1.85,0,0,1,0,2.9t0,2.74q1.4,0.11,3.15.11a13.54,13.54,0,0,0,1.76-.08,4.09,4.09,0,0,0,1-.26,6.13,6.13,0,0,0,.23-0.82c0.14-.58.24-1,0.28-1.31h0.65a26.47,26.47,0,0,0-.25,3.27,13.7,13.7,0,0,1-2,.13l-5.82-.07Z" transform="translate(-6.72 -10.96)"></path> <path class="cls-1" d="M117.07,33.46V32.84l1.16,0,1.87,0,1.73,0,1.77-.05a8.11,8.11,0,0,1,2.72.33,2.64,2.64,0,0,1,1.32,1.08,3,3,0,0,1,.47,1.62,3.38,3.38,0,0,1-.44,1.63,3.67,3.67,0,0,1-1.27,1.35,6.63,6.63,0,0,1-2.17.83q0.24,0.34,1.15,1.52l2.46,3.23q1.05,1.36,1.23,1.51a0.58,0.58,0,0,0,.18.1,2.59,2.59,0,0,0,.64,0v0.62q-0.74-.07-1.29-0.07t-1.41.07Q126.55,46,125,43.83q-0.83-1.18-1.47-2-1-1.31-2-2.37l0.1-.29,0.77,0a3.86,3.86,0,0,0,2.69-.84,2.86,2.86,0,0,0,.92-2.21,2.43,2.43,0,0,0-.79-1.91,3.49,3.49,0,0,0-2.39-.71,6.56,6.56,0,0,0-2,.3q0,0.53-.06,1,0,0.14-.07,2.84V42q0,1.32,0,2.58a3.05,3.05,0,0,0,.13,1.1,0.65,0.65,0,0,0,.36.26,7,7,0,0,0,1.4.1v0.62q-1.39-.07-2.55-0.07-0.94,0-3.15.07V46.07a7,7,0,0,0,1.4-.1,0.65,0.65,0,0,0,.35-0.23,2.49,2.49,0,0,0,.15-0.95q0-.2,0-2.77V37.51q0-1.33,0-2.59a3.07,3.07,0,0,0-.14-1.1,0.66,0.66,0,0,0-.36-0.25A7,7,0,0,0,117.07,33.46Z" transform="translate(-6.72 -10.96)"></path> <path class="cls-1" d="M130.31,46.69V46a5.26,5.26,0,0,0,1-.06,0.85,0.85,0,0,0,.35-0.21,3.13,3.13,0,0,0,.46-0.79q0.18-.36,1.27-2.74l2.44-5.5q0.4-.91,1.71-4h0.62l4.17,9.78q1,2.38,1.35,3a1,1,0,0,0,.41.45,2.9,2.9,0,0,0,1,.12v0.66q-1.52-.1-2.13-0.1l-3.14.1V46A11,11,0,0,0,141.1,46a0.59,0.59,0,0,0,.32-0.14,0.33,0.33,0,0,0,.08-0.23,1.59,1.59,0,0,0-.14-0.56l-1.2-3h-5.65l-1.06,2.51a2.94,2.94,0,0,0-.28,1,0.33,0.33,0,0,0,.08.22,0.58,0.58,0,0,0,.33.18,7.37,7.37,0,0,0,1.27.09v0.66q-1.65-.09-2.47-0.09T130.31,46.69Zm4.54-5.47h4.92l-2.43-5.87Z" transform="translate(-6.72 -10.96)"></path> <path class="cls-1" d="M146.76,46.69V46.18a3.06,3.06,0,0,0,.76-0.45,0.47,0.47,0,0,0,.14-0.22,5.4,5.4,0,0,0,.12-1.17q0-1.33,0-1.59V37.51q0-1.33,0-2.59a3.09,3.09,0,0,0-.14-1.1,0.66,0.66,0,0,0-.36-0.25,7,7,0,0,0-1.41-.1V32.84l2.95,0.07q0.62,0,2.8-.07v0.62a7,7,0,0,0-1.41.1,0.65,0.65,0,0,0-.35.23,2.48,2.48,0,0,0-.15.95q0,0.19,0,2.77v6.55q0,1,0,1.67,1.11,0.07,2.21.07a14.39,14.39,0,0,0,3.85-.35,4.37,4.37,0,0,0,.22-0.67l0.39-1.62H157q-0.22,1.45-.42,3.41a6,6,0,0,1-.63.1q-0.51,0-1.56,0l-5.78-.07Q147.72,46.62,146.76,46.69Z" transform="translate(-6.72 -10.96)"></path> <path class="cls-1" d="M162.46,33.46V32.84l3,0.07,2.75-.07v0.62a6.92,6.92,0,0,0-1.4.1,0.64,0.64,0,0,0-.34.23,2.51,2.51,0,0,0-.15.95q0,0.19,0,2.77v1.36q1.92,0.07,4.68.07,2.12,0,3.38-.07V37.51q0-1.33,0-2.6a3.09,3.09,0,0,0-.14-1.1,0.66,0.66,0,0,0-.36-0.25,6.91,6.91,0,0,0-1.4-.1V32.84q2.1,0.07,2.88.07l2.85-.07v0.62a6.93,6.93,0,0,0-1.4.1,0.59,0.59,0,0,0-.34.23,2.31,2.31,0,0,0-.16.95q0,0.19,0,2.77V42q0,1.32,0,2.58a3.06,3.06,0,0,0,.13,1.1,0.65,0.65,0,0,0,.36.26,7,7,0,0,0,1.4.1v0.62q-1.88-.07-3.08-0.07t-2.64.07V46.07a7,7,0,0,0,1.41-.1,0.63,0.63,0,0,0,.35-0.23,2.21,2.21,0,0,0,.15-0.94q0-.2,0-2.76V39.81q-2.73-.07-4.15-0.07t-3.92.07V42q0,1.32,0,2.58a3.09,3.09,0,0,0,.14,1.1,0.65,0.65,0,0,0,.36.26,7,7,0,0,0,1.41.1v0.62q-1.32-.07-2.71-0.07t-3,.07V46.07a7,7,0,0,0,1.4-.1,0.64,0.64,0,0,0,.35-0.23,2.48,2.48,0,0,0,.15-0.95q0-.2,0-2.77V37.51q0-1.33,0-2.59a3.05,3.05,0,0,0-.14-1.1,0.66,0.66,0,0,0-.36-0.25A7,7,0,0,0,162.46,33.46Z" transform="translate(-6.72 -10.96)"></path> <path class="cls-1" d="M179.08,39.85a8.48,8.48,0,0,1,.46-2.85,6.11,6.11,0,0,1,1.54-2.35,7.26,7.26,0,0,1,2.43-1.58,8.45,8.45,0,0,1,3.1-.53,8.93,8.93,0,0,1,2.93.45,6.33,6.33,0,0,1,2.16,1.2A6.13,6.13,0,0,1,193,35.83a6.23,6.23,0,0,1,.59,1.56,8.05,8.05,0,0,1,.22,1.92,7.38,7.38,0,0,1-2.21,5.47A7.6,7.6,0,0,1,186.06,47a8.06,8.06,0,0,1-2.86-.5A5.81,5.81,0,0,1,181,45a6.51,6.51,0,0,1-1.39-2.38A8.53,8.53,0,0,1,179.08,39.85Zm2-.81a9.83,9.83,0,0,0,.19,1.88,8.82,8.82,0,0,0,.47,1.65,6.1,6.1,0,0,0,1.22,2,4.79,4.79,0,0,0,1.69,1.17,5.46,5.46,0,0,0,2.06.38,4.85,4.85,0,0,0,2.73-.77,4.6,4.6,0,0,0,1.73-2.16,8.4,8.4,0,0,0,.57-3.2,9.54,9.54,0,0,0-.41-2.86,6,6,0,0,0-.67-1.45,4.6,4.6,0,0,0-2.51-1.95,5.9,5.9,0,0,0-2-.33,5.25,5.25,0,0,0-2.72.69,4.31,4.31,0,0,0-1.76,2A7.17,7.17,0,0,0,181.11,39Z" transform="translate(-6.72 -10.96)"></path> <path class="cls-1" d="M194.94,46.21a22.49,22.49,0,0,0,.19-3h0.65a7.35,7.35,0,0,0,.16,1.68,1.46,1.46,0,0,0,.54.55,4.47,4.47,0,0,0,1.15.52,4.63,4.63,0,0,0,1.4.23,3.73,3.73,0,0,0,1.82-.46,2.85,2.85,0,0,0,1.21-1.19,3.4,3.4,0,0,0,.38-1.58,2.94,2.94,0,0,0-.19-1.11,1.73,1.73,0,0,0-.58-0.76,2.42,2.42,0,0,0-1-.4l-1.44-.2q-1.08-.14-1.84-0.31a4.11,4.11,0,0,1-1.49-.73,3,3,0,0,1-.78-1.1,3.64,3.64,0,0,1-.3-1.47,4.2,4.2,0,0,1,.6-2.17,4,4,0,0,1,1.78-1.58,5.81,5.81,0,0,1,2.55-.56,8.32,8.32,0,0,1,1.81.22,8.13,8.13,0,0,1,1.83.64,10.52,10.52,0,0,0-.2,1.15q-0.06.53-.09,1.56h-0.65a10.92,10.92,0,0,0-.09-1.64,2.49,2.49,0,0,0-.67-0.63,4.23,4.23,0,0,0-2.1-.57,2.93,2.93,0,0,0-3.11,3.09,2.31,2.31,0,0,0,.3,1.28,2.07,2.07,0,0,0,1.08.73,9.94,9.94,0,0,0,1.76.35q1.22,0.16,2.19.35a3.76,3.76,0,0,1,1.36.65,2.85,2.85,0,0,1,.72,1,3.37,3.37,0,0,1,.28,1.43,4.42,4.42,0,0,1-1.61,3.39A6,6,0,0,1,198.45,47,7.92,7.92,0,0,1,194.94,46.21Z" transform="translate(-6.72 -10.96)"></path> <path class="cls-1" d="M205.32,33.46V32.84q2,0.07,3.1.07l1.62,0,1.53-.05H212a7,7,0,0,1,2.44.34,2.85,2.85,0,0,1,1.39,1.09,3,3,0,0,1,.5,1.7,3.86,3.86,0,0,1-.42,1.71,3.94,3.94,0,0,1-1.2,1.44,5.24,5.24,0,0,1-1.65.84,4.65,4.65,0,0,1-1.33.17,7.27,7.27,0,0,1-1.35-.14l-0.21-.72a6.34,6.34,0,0,0,1.37.21A2.88,2.88,0,0,0,213,39.1,2.45,2.45,0,0,0,214,38a3.45,3.45,0,0,0,.37-1.59,3.22,3.22,0,0,0-.36-1.52,2.33,2.33,0,0,0-1.08-1,4,4,0,0,0-1.76-.35,6.7,6.7,0,0,0-2,.33q-0.09,1-.09,3.24V42q0,1.32,0,2.58a3.1,3.1,0,0,0,.14,1.1,0.65,0.65,0,0,0,.36.26,7,7,0,0,0,1.41.1v0.62q-1.8-.07-2.65-0.07l-3.05.07V46.07a7,7,0,0,0,1.4-.1,0.64,0.64,0,0,0,.35-0.23,2.48,2.48,0,0,0,.15-0.95q0-.2,0-2.77V37.51q0-1.33,0-2.59a3.05,3.05,0,0,0-.14-1.1,0.66,0.66,0,0,0-.36-0.25A7,7,0,0,0,205.32,33.46Z" transform="translate(-6.72 -10.96)"></path> <path class="cls-1" d="M223.06,46.07v0.62q-2.07-.07-2.73-0.07l-3,.07V46.07a7,7,0,0,0,1.4-.1,0.64,0.64,0,0,0,.35-0.23,2.48,2.48,0,0,0,.15-0.95q0-.2,0-2.77V37.51q0-1.33,0-2.59a3.05,3.05,0,0,0-.14-1.1,0.66,0.66,0,0,0-.36-0.25,7,7,0,0,0-1.41-.1V32.84q1.86,0.07,2.87.07t2.86-.07v0.62a6.92,6.92,0,0,0-1.4.1,0.64,0.64,0,0,0-.34.23,2.51,2.51,0,0,0-.15.95q0,0.19,0,2.77V42q0,1.32,0,2.58a3.1,3.1,0,0,0,.14,1.1,0.66,0.66,0,0,0,.36.26A7,7,0,0,0,223.06,46.07Z" transform="translate(-6.72 -10.96)"></path> <path class="cls-1" d="M224.72,36.07h-0.61q0-2.33-.1-3.23l3.34,0.1,2.46,0,3.07-.06q1.75,0,2.55-.08-0.12,1.09-.16,3.23h-0.62l-0.08-.94c-0.05-.57-0.09-0.89-0.11-1a0.33,0.33,0,0,0-.08-0.17,0.39,0.39,0,0,0-.16-0.08q-0.14,0-1-.08t-1.33,0h-1.19q-0.1.94-.1,2.52V42q0,1.32,0,2.58a3.1,3.1,0,0,0,.14,1.1,0.65,0.65,0,0,0,.36.26,7.05,7.05,0,0,0,1.41.1v0.62q-1.75-.08-2.62-0.08l-3,.08V46.07a7.06,7.06,0,0,0,1.41-.1,0.59,0.59,0,0,0,.34-0.23,2.31,2.31,0,0,0,.16-0.95q0-.2,0-2.77V36.34q0-.41,0-0.9l-0.06-1.65h-1.45a16.11,16.11,0,0,0-2,.1,0.43,0.43,0,0,0-.3.13,3.49,3.49,0,0,0-.19,1.06Z" transform="translate(-6.72 -10.96)"></path> <path class="cls-1" d="M234.7,46.69V46a5.26,5.26,0,0,0,1-.06,0.85,0.85,0,0,0,.35-0.21,3.14,3.14,0,0,0,.46-0.79q0.18-.36,1.27-2.74l2.44-5.5q0.4-.91,1.71-4h0.62l4.17,9.78q1,2.38,1.35,3a1,1,0,0,0,.41.45,2.9,2.9,0,0,0,1,.12v0.66q-1.52-.1-2.13-0.1l-3.14.1V46a11,11,0,0,0,1.33-.07,0.59,0.59,0,0,0,.32-0.14,0.33,0.33,0,0,0,.08-0.23,1.59,1.59,0,0,0-.14-0.56l-1.2-3H238.9l-1.06,2.51a3,3,0,0,0-.28,1,0.33,0.33,0,0,0,.08.22,0.58,0.58,0,0,0,.33.18,7.37,7.37,0,0,0,1.27.09v0.66q-1.65-.09-2.47-0.09T234.7,46.69Zm4.54-5.47h4.92l-2.43-5.87Z" transform="translate(-6.72 -10.96)"></path> <path class="cls-1" d="M251.14,46.69V46.18a3.06,3.06,0,0,0,.76-0.45,0.47,0.47,0,0,0,.14-0.22,5.4,5.4,0,0,0,.12-1.17q0-1.33,0-1.59V37.51q0-1.33,0-2.59a3.09,3.09,0,0,0-.14-1.1,0.66,0.66,0,0,0-.36-0.25,7,7,0,0,0-1.41-.1V32.84l2.95,0.07q0.62,0,2.8-.07v0.62a7,7,0,0,0-1.41.1,0.65,0.65,0,0,0-.35.23,2.48,2.48,0,0,0-.15.95q0,0.19,0,2.77v6.55q0,1,0,1.67,1.11,0.07,2.21.07a14.39,14.39,0,0,0,3.85-.35,4.37,4.37,0,0,0,.22-0.67l0.39-1.62h0.65q-0.22,1.45-.42,3.41a6,6,0,0,1-.63.1q-0.51,0-1.56,0L253,46.62Q252.11,46.62,251.14,46.69Z" transform="translate(-6.72 -10.96)"></path> <path class="cls-1" d="M50,11H6.76c0,21.22-1.88,39,21.63,51.64C51.9,49.93,50,32.18,50,11ZM28.39,61.42C6,49.33,7.75,32.39,7.75,12.15H49C49,32.39,50.82,49.33,28.39,61.42Z" transform="translate(-6.72 -10.96)"></path> <path class="cls-1" d="M47.39,14.1h-38c0,18.64-1.65,34.23,19,45.36C49,48.33,47.39,32.74,47.39,14.1Z" transform="translate(-6.72 -10.96)"></path> <path class="cls-2" d="M12.93,36.57V36.06a4.48,4.48,0,0,0,.81-0.1,0.22,0.22,0,0,0,.12-0.08,0.51,0.51,0,0,0,.07-0.23q0-.35.07-1.51,0-.56,0-1.94T14,30a6,6,0,0,0-.08-1.13,0.26,0.26,0,0,0-.08-0.13,0.42,0.42,0,0,0-.2-0.07,5.82,5.82,0,0,0-.72-0.08V28.07l1.73,0q0.63,0,1.26,0l0.53,1.2,0.43,0.91,1.93,4q0.62-1.2.93-1.86l0.8-1.68,0.82-1.73q0.15-.32.34-0.82l1,0,1.81,0v0.52H24.44a1.31,1.31,0,0,0-.79.14,0.76,0.76,0,0,0-.17.57q0,0.5,0,.77l0,1.71v2.13q0,0.78,0,.91,0,0.77.09,0.95a0.28,0.28,0,0,0,.07.14,0.31,0.31,0,0,0,.14.08,6.63,6.63,0,0,0,.77.07v0.52l-1.94,0-1.9,0V36.06A3.09,3.09,0,0,0,21.55,36a0.42,0.42,0,0,0,.15-0.29,12.91,12.91,0,0,0,0-1.51V29.75L20.33,32.6,19.66,34q-0.27.56-.75,1.62-0.3.64-.47,1H18q-0.22-.51-0.63-1.4Q16.69,33.76,16.32,33l-1.6-3.26v3q0,0.75,0,1.78t0,1.17a0.41,0.41,0,0,0,.08.2,0.4,0.4,0,0,0,.18.1,4.42,4.42,0,0,0,.74.08v0.52q-0.68,0-1.39,0Q13.48,36.53,12.93,36.57Z" transform="translate(-6.72 -10.96)"></path> <path class="cls-2" d="M32.84,30.53H32.35q0-.19,0-0.58a3,3,0,0,0-.06-0.46,1.49,1.49,0,0,0-.33-0.3A3.25,3.25,0,0,0,31,28.78a4.13,4.13,0,0,0-1.17-.15,3.23,3.23,0,0,0-2.43.94,3.56,3.56,0,0,0-.91,2.59,4.09,4.09,0,0,0,1,2.86,3.06,3.06,0,0,0,2.36,1.06A3.66,3.66,0,0,0,30.63,36a4,4,0,0,0,.76-0.25q0-.16,0-0.63t0-.56a2.64,2.64,0,0,0,0-.69,0.23,0.23,0,0,0-.16-0.1,7.73,7.73,0,0,0-1.15-.12V33.15l1.82,0,1.83,0v0.4a0.85,0.85,0,0,0-.46.2,0.65,0.65,0,0,0-.07.33q0,0.7,0,1a8.44,8.44,0,0,0,.05.95,13.88,13.88,0,0,1-2,.58,8.47,8.47,0,0,1-1.68.17,6,6,0,0,1-2.42-.46,4.2,4.2,0,0,1-1.26-.84,3.78,3.78,0,0,1-.8-1.11,4.79,4.79,0,0,1-.43-2.05,4.49,4.49,0,0,1,.28-1.66,3.86,3.86,0,0,1,.79-1.24,4.27,4.27,0,0,1,1.15-.86,5.15,5.15,0,0,1,1.34-.47,7.73,7.73,0,0,1,1.54-.14,9.29,9.29,0,0,1,1.92.19,7,7,0,0,1,1.39.41l0,0.12A12.49,12.49,0,0,0,32.84,30.53Z" transform="translate(-6.72 -10.96)"></path> <path class="cls-2" d="M34.23,36.57V36a6.31,6.31,0,0,0,.7,0,0.46,0.46,0,0,0,.19-0.07,0.24,0.24,0,0,0,.08-0.13A3.58,3.58,0,0,0,35.28,35l0-1.21V30.9l0-1.2a3.66,3.66,0,0,0-.07-0.86,0.25,0.25,0,0,0-.08-0.13,0.46,0.46,0,0,0-.19-0.07,5.71,5.71,0,0,0-.71,0V28.07q1,0,2.1,0t1.76,0v0.53a6.51,6.51,0,0,0-.77.05,0.29,0.29,0,0,0-.16.09,1.09,1.09,0,0,0-.07.42Q37,29.79,37,31v0.7q0.44,0,1.84,0,1.76,0,2.18,0V31q0-.94,0-1.21,0-.81-0.07-0.91a0.24,0.24,0,0,0-.06-0.11,0.33,0.33,0,0,0-.15-0.07A6.23,6.23,0,0,0,40,28.61V28.07q0.76,0,1.75,0t2.1,0v0.53a6.39,6.39,0,0,0-.7,0,0.47,0.47,0,0,0-.19.07,0.24,0.24,0,0,0-.08.13,3.64,3.64,0,0,0-.07.84l0,1.21v2.84l0,1.19a4,4,0,0,0,.06.86,0.3,0.3,0,0,0,.09.13,0.4,0.4,0,0,0,.19.07,6.41,6.41,0,0,0,.71,0v0.53q-1,0-2.1,0t-1.75,0V36A6.52,6.52,0,0,0,40.76,36a0.29,0.29,0,0,0,.16-0.09A1.11,1.11,0,0,0,41,35.47q0-.62,0-1.79V32.42q-0.3,0-1.77,0H37.41l-0.37,0v1.27q0,0.95,0,1.21,0,0.81.07,0.92a0.24,0.24,0,0,0,.06.11,0.33,0.33,0,0,0,.15.07,6.22,6.22,0,0,0,.76.05v0.53q-0.77,0-1.76,0T34.23,36.57Z" transform="translate(-6.72 -10.96)"></path> <path class="cls-2" d="M21.19,46.72V46.4l0.74-.08a0.3,0.3,0,0,0,.17-0.07A0.4,0.4,0,0,0,22.18,46a10.86,10.86,0,0,0,.05-1.36V43.75q0-.48,0-1V42.37a0.34,0.34,0,0,0,0-.16,0.07,0.07,0,0,0-.06,0L22,42.24l-1,.45,0,0c0-.05,0-0.14,0-0.25s0-.17,0-0.24v0L22,41.8l1.29-.46,0.09,0.06s0,0.16,0,.37,0,0.33,0,.39q0,0.34,0,1.74v0.58q0,0.85,0,1.18a2.44,2.44,0,0,0,.05.59,0.17,0.17,0,0,0,.08.08,1.91,1.91,0,0,0,.56.07l0.25,0v0.32q-0.85,0-1.37,0Z" transform="translate(-6.72 -10.96)"></path> <path class="cls-2" d="M25.8,44.15a2.26,2.26,0,0,1-.46-0.33,1.1,1.1,0,0,1-.23-0.38A1.43,1.43,0,0,1,25,42.92a1.4,1.4,0,0,1,.22-0.79,1.46,1.46,0,0,1,.58-0.52,2,2,0,0,1,.89-0.18,1.43,1.43,0,0,1,1,.33,1.06,1.06,0,0,1,.36.81,1.1,1.1,0,0,1-.1.48,1.36,1.36,0,0,1-.29.4,2.42,2.42,0,0,1-.35.26,2.33,2.33,0,0,1,.51.28,1.15,1.15,0,0,1,.28.3,1.22,1.22,0,0,1,.15.36,1.75,1.75,0,0,1,0,.42,1.77,1.77,0,0,1-.28,1,1.74,1.74,0,0,1-.78.65,2.05,2.05,0,0,1-.83.15,1.78,1.78,0,0,1-.75-0.14,1.52,1.52,0,0,1-.4-0.28A1.38,1.38,0,0,1,25,46a1.35,1.35,0,0,1-.11-0.57A1.42,1.42,0,0,1,24.94,45a1.13,1.13,0,0,1,.21-0.37,1.35,1.35,0,0,1,.28-0.25Zm0.34,0.15a1.44,1.44,0,0,0-.42.47,1.22,1.22,0,0,0-.14.58,1.08,1.08,0,0,0,.29.78,0.94,0.94,0,0,0,.71.3,0.83,0.83,0,0,0,.62-0.26,0.89,0.89,0,0,0,.25-0.64,1,1,0,0,0-.1-0.47A0.94,0.94,0,0,0,27,44.73a5.28,5.28,0,0,0-.78-0.38Zm0.81-.73a1.06,1.06,0,0,0,.35-0.38,1,1,0,0,0,.13-0.5,0.82,0.82,0,0,0-.23-0.61,0.84,0.84,0,0,0-.62-0.23,0.74,0.74,0,0,0-.54.2,0.72,0.72,0,0,0-.17.73A0.76,0.76,0,0,0,26,43a0.93,0.93,0,0,0,.19.18,2,2,0,0,0,.29.17l0.28,0.13Z" transform="translate(-6.72 -10.96)"></path> <path class="cls-2" d="M29.19,46.72V46.4l0.74-.08a0.3,0.3,0,0,0,.17-0.07A0.4,0.4,0,0,0,30.18,46a10.86,10.86,0,0,0,.05-1.36V43.75q0-.48,0-1V42.37a0.34,0.34,0,0,0,0-.16,0.07,0.07,0,0,0-.06,0L30,42.24l-1,.45,0,0c0-.05,0-0.14,0-0.25s0-.17,0-0.24v0L30,41.8l1.29-.46,0.09,0.06s0,0.16,0,.37,0,0.33,0,.39q0,0.34,0,1.74v0.58q0,0.85,0,1.18a2.44,2.44,0,0,0,.05.59,0.17,0.17,0,0,0,.08.08,1.91,1.91,0,0,0,.56.07l0.25,0v0.32q-0.85,0-1.37,0Z" transform="translate(-6.72 -10.96)"></path> <path class="cls-2" d="M32.89,46.72V46.4l0.74-.08a0.3,0.3,0,0,0,.17-0.07A0.4,0.4,0,0,0,33.89,46a10.86,10.86,0,0,0,.05-1.36V43.75q0-.48,0-1V42.37a0.34,0.34,0,0,0,0-.16,0.07,0.07,0,0,0-.06,0l-0.17.07-1,.45,0,0c0-.05,0-0.14,0-0.25s0-.17,0-0.24v0l1.11-.34L35,41.33l0.09,0.06s0,0.16,0,.37,0,0.33,0,.39q0,0.34,0,1.74v0.58q0,0.85,0,1.18a2.44,2.44,0,0,0,.05.59,0.17,0.17,0,0,0,.08.08,1.91,1.91,0,0,0,.56.07l0.25,0v0.32q-0.85,0-1.37,0Z" transform="translate(-6.72 -10.96)"></path> <polygon class="cls-2" points="9.28 14.57 21.67 11.13 34.06 14.57 9.28 14.57"></polygon> <path class="cls-2" d="M33,20.43a5.45,5.45,0,0,0-4.57-2,5.45,5.45,0,0,0-4.57,2H33Z" transform="translate(-6.72 -10.96)"></path> <path class="cls-2" d="M28.39,16.16a4,4,0,0,0-1.68,2.1h3.36A4,4,0,0,0,28.39,16.16Z" transform="translate(-6.72 -10.96)"></path> <polygon class="cls-2" points="21.67 10.56 27.93 12.3 27.93 9.86 15.54 9.86 15.54 12.26 21.67 10.56"></polygon> </svg> 