<?xml version="1.0" encoding="UTF-8"?> <svg xmlns="http://www.w3.org/2000/svg" id="Layer_1" data-name="Layer 1" viewBox="0 0 2000 243.68"> <defs> <style>.cls-1{fill:#fff;}.cls-2{isolation:isolate;}</style> </defs> <title>partners-hc</title> <path class="cls-1" d="M282.4,8.48A397,397,0,0,1,405.78,28.57c1.93,1,1.93-1,1-1C354.13,8.48,326.38,2.75,283.31,2.75S211.58,8.48,159,27.61c-1.92,1-1.92,1.92,1,1C210.47,12.28,243.13,8.48,282.4,8.48"></path> <path class="cls-1" d="M282.4,37.19c50.68-1,120.44,5.74,177,32.52,1.92,1,1.92-1,1-1C401,39.07,325.42,29.53,282.4,31.46c-43-1-118.67,8.58-177.93,37.29-1.92,1-1,1.93,1,1,55.5-26.78,125.26-33.48,177-32.52"></path> <path class="cls-1" d="M282.4,23.8c38.25-1,103.34,3.81,153.06,25.82,1.93,1,1.93,0,1-1-50.68-24.09-110-31.56-154.17-31.56-42.88-1-103.2,7.61-153.69,31.56-1.92,1-1.92,1.93,1,1,49.52-23,114.66-26.78,152.87-25.82"></path> <rect class="cls-1" x="606.69" y="30.5" width="3.81" height="210.44"></rect> <path class="cls-1" d="M658.53,103.25v-1.88h27a36,36,0,0,0-.82,7.95h-1.64a31.25,31.25,0,0,0-.68-4.82,16,16,0,0,0-3.37-.68,43.06,43.06,0,0,0-4.82,0,53.13,53.13,0,0,0-5.49.29v14.5h5.2a33,33,0,0,0,5.35-.33,1.56,1.56,0,0,0,1-.44,7.6,7.6,0,0,0,.48-2.21V114h1.93v12.38H681v-1.69a20.22,20.22,0,0,0-.44-3.08,1.5,1.5,0,0,0-1-.53,41.65,41.65,0,0,0-6.79-.34h-3.86V133a8.4,8.4,0,0,0,.34,3,1.72,1.72,0,0,0,1,.67,18.08,18.08,0,0,0,3.81.29v1.69H658.67v-1.45a18.23,18.23,0,0,0,3.76-.29,1.72,1.72,0,0,0,1-.62,6.76,6.76,0,0,0,.39-2.56V107.15a8.14,8.14,0,0,0-.39-2.94,1.75,1.75,0,0,0-1-.68A18.92,18.92,0,0,0,658.53,103.25Z"></path> <path class="cls-1" d="M687.43,120.64a22.67,22.67,0,0,1,1.26-7.66,16.37,16.37,0,0,1,4.14-6.31,19.15,19.15,0,0,1,6.55-4.24,22.79,22.79,0,0,1,8.34-1.45,24.1,24.1,0,0,1,7.9,1.21,17.29,17.29,0,0,1,5.83,3.22A16,16,0,0,1,726.6,114a21.81,21.81,0,0,1,.58,5.15,19.91,19.91,0,0,1-6,14.6,20.47,20.47,0,0,1-15,5.88,21.78,21.78,0,0,1-7.71-1.35,15.6,15.6,0,0,1-6-4,17.46,17.46,0,0,1-3.76-6.41A22.69,22.69,0,0,1,687.43,120.64Zm5.45-2.17a26.85,26.85,0,0,0,.48,5.06,23.53,23.53,0,0,0,1.25,4.43,16.35,16.35,0,0,0,3.28,5.3,12.71,12.71,0,0,0,4.53,3.13,14.55,14.55,0,0,0,5.54,1,13,13,0,0,0,7.42-2.31,12.32,12.32,0,0,0,4.81-5.83,22.46,22.46,0,0,0,1.55-8.62,25.82,25.82,0,0,0-1.11-7.71,16,16,0,0,0-1.83-3.9,12.38,12.38,0,0,0-6.75-5.25,15.74,15.74,0,0,0-5.39-.92,14.16,14.16,0,0,0-7.33,1.88,11.58,11.58,0,0,0-4.81,5.4,19.06,19.06,0,0,0-1.64,8.09Z"></path> <path class="cls-1" d="M727.81,103.25v-1.88h15.37v1.68a19,19,0,0,0-3.76.29,1.61,1.61,0,0,0-.92.63,6.18,6.18,0,0,0-.43,2.55v17.11a24,24,0,0,0,.72,7.41,6.89,6.89,0,0,0,2.31,3,10,10,0,0,0,3.28,1.45A18.1,18.1,0,0,0,749,136a17.29,17.29,0,0,0,5.2-.73,9.22,9.22,0,0,0,3.42-1.73,6.9,6.9,0,0,0,1.69-2.31,12.89,12.89,0,0,0,.82-3.52,54,54,0,0,0,.24-5.68V107.15a8.13,8.13,0,0,0-.34-2.94,1.82,1.82,0,0,0-1-.68,18.22,18.22,0,0,0-3.76-.28v-1.88h12.81v1.68a18.85,18.85,0,0,0-3.75.29,1.69,1.69,0,0,0-.92.63,6.91,6.91,0,0,0-.39,2.55v16.29a30.66,30.66,0,0,1-.91,9.05,10.29,10.29,0,0,1-3.33,4.53,13.07,13.07,0,0,1-4.81,2.27,25.62,25.62,0,0,1-13.35,0,11.12,11.12,0,0,1-4.53-2.51A8.88,8.88,0,0,1,734,133a25.11,25.11,0,0,1-.72-7.23V107.15a8.14,8.14,0,0,0-.39-2.94,1.75,1.75,0,0,0-1-.68A18.69,18.69,0,0,0,727.81,103.25Z"></path> <path class="cls-1" d="M770.64,138.85v-1.69a11.07,11.07,0,0,0,3.66-.43,1,1,0,0,0,.53-.48,9.46,9.46,0,0,0,.38-2.75V106.18a3.38,3.38,0,0,0,0-1.1,3.65,3.65,0,0,0-1-1.11,2.21,2.21,0,0,0-1.11-.53,20.88,20.88,0,0,0-2.74,0v-2.07H780l3.23,4.28,5.35,6.89,7.85,9.64q3.76,4.53,6,7.18c1,1.15,1.79,2.07,2.46,2.74V106.81a9.85,9.85,0,0,0-.34-2.7,1.13,1.13,0,0,0-.53-.48,11.25,11.25,0,0,0-3.61-.38v-1.88h11.71v1.68a11.64,11.64,0,0,0-3.62.39,1,1,0,0,0-.53.53,8.77,8.77,0,0,0-.38,2.74v33.2l-2.7-.77H804l-1-1.5-3.23-3.75-3.37-4.34-18.6-22.5V133.5a9.85,9.85,0,0,0,.34,2.7,1.14,1.14,0,0,0,.53.53,11.31,11.31,0,0,0,3.61.38v1.69h-5.1Q774.44,138.8,770.64,138.85Z"></path> <path class="cls-1" d="M816.41,138.85V137.6c1-.58,1.83-1.11,2.5-1.59s0-2.85.24-4.82V106.81a9.18,9.18,0,0,0-.38-2.7,1.17,1.17,0,0,0-.53-.48,11.34,11.34,0,0,0-3.62-.38v-1.88h19A27.06,27.06,0,0,1,844,103a15.44,15.44,0,0,1,6.65,5.5,15.94,15.94,0,0,1,2.75,9.63,21.59,21.59,0,0,1-1.3,7.47,20.28,20.28,0,0,1-3.47,6.12,19.28,19.28,0,0,1-4.82,4.14,21,21,0,0,1-5.3,2.31,29.52,29.52,0,0,1-7.61.78h-9.16ZM824.5,136a36.36,36.36,0,0,0,6.07.48,26.58,26.58,0,0,0,5.83-.58,15.12,15.12,0,0,0,4.34-1.64,13.41,13.41,0,0,0,3.47-3.08,14.6,14.6,0,0,0,2.6-5.25,24.17,24.17,0,0,0,.91-6.6A18.7,18.7,0,0,0,846,111a12,12,0,0,0-5.25-5.34,20.79,20.79,0,0,0-9.64-1.88,44.91,44.91,0,0,0-6.55.48v27a37.53,37.53,0,0,0,0,4.77Z"></path> <path class="cls-1" d="M855.62,138.85v-1.69a11.06,11.06,0,0,0,3.62-.43,1,1,0,0,0,.53-.48,9.46,9.46,0,0,0,.38-2.75V107.15a8.35,8.35,0,0,0-.38-2.94,1.81,1.81,0,0,0-1-.68,18.61,18.61,0,0,0-3.8-.28v-1.88h23.8a37,37,0,0,1,4.82.29,19.15,19.15,0,0,0-.58,2.6,44.21,44.21,0,0,1-.48,5.44h-1.64a28.87,28.87,0,0,0-.34-4.82,12.11,12.11,0,0,0-3.18-.82,48.11,48.11,0,0,0-5.88-.38H865.6V118h5.63a43.39,43.39,0,0,0,5.35-.29,1.6,1.6,0,0,0,1.06-.43,6.26,6.26,0,0,0,.43-2.17v-1.83h1.59v12h-1.92v-1.78a6,6,0,0,0-.34-2.41,1.64,1.64,0,0,0-1.16-.67,33.25,33.25,0,0,0-5.73.19h-4.82v15.17c2.51.2,5.33.29,8.48.29a35.24,35.24,0,0,0,4.82,0,10.68,10.68,0,0,0,2.6-.72,16.59,16.59,0,0,0,.63-2.22c.38-1.54.64-2.71.77-3.51h1.78a70.17,70.17,0,0,0-.67,8.81,36.11,36.11,0,0,1-5.5.34H863Z"></path> <path class="cls-1" d="M888.63,138.85V137.6c1-.58,1.83-1.11,2.5-1.59s0-2.85.24-4.82V106.81a9.18,9.18,0,0,0-.38-2.7,1.17,1.17,0,0,0-.53-.48,11.34,11.34,0,0,0-3.62-.38v-1.88h19A27.06,27.06,0,0,1,916.23,103a15.44,15.44,0,0,1,6.65,5.5,15.94,15.94,0,0,1,2.75,9.63,21.59,21.59,0,0,1-1.3,7.47,20.28,20.28,0,0,1-3.47,6.12,19.28,19.28,0,0,1-4.82,4.14,21,21,0,0,1-5.3,2.31,29.52,29.52,0,0,1-7.61.78H894Zm8.09-2.84a36.36,36.36,0,0,0,6.07.48,26.58,26.58,0,0,0,5.83-.58,15.12,15.12,0,0,0,4.34-1.64,13.21,13.21,0,0,0,3.46-3.08,14.46,14.46,0,0,0,2.61-5.25,24.17,24.17,0,0,0,.91-6.6,18.7,18.7,0,0,0-1.73-8.39,12,12,0,0,0-5.25-5.34,20.79,20.79,0,0,0-9.64-1.88,44.91,44.91,0,0,0-6.55.48v27a37.53,37.53,0,0,0,0,4.77Z"></path> <path class="cls-1" d="M944.18,138.85V137.6a11.65,11.65,0,0,0,1.83-1,1.53,1.53,0,0,0,.29-.68,28.4,28.4,0,0,0,.28-3.32V106.81a9.18,9.18,0,0,0-.38-2.7,1.17,1.17,0,0,0-.53-.48,11.31,11.31,0,0,0-3.61-.38v-1.88H959.3a17.26,17.26,0,0,1,5.93.77,6.61,6.61,0,0,1,3.23,2.55,7,7,0,0,1,1.15,4,7.61,7.61,0,0,1-.72,3.28,8.65,8.65,0,0,1-1.88,2.65,10.09,10.09,0,0,1-2.6,1.83,20,20,0,0,1-3.76,1.25,26.35,26.35,0,0,1,4.82.87,8.41,8.41,0,0,1,3.18,1.68,7.1,7.1,0,0,1,1.93,2.7,9.47,9.47,0,0,1,.67,3.57,10.65,10.65,0,0,1-2.36,6.84,13.91,13.91,0,0,1-6.07,4.38,18.26,18.26,0,0,1-6.55,1.06h-7.61Zm7.46-21.78h2.65a19.53,19.53,0,0,0,4.82-.48,7.41,7.41,0,0,0,2.75-1.3,6.19,6.19,0,0,0,1.63-2.22,7.66,7.66,0,0,0,.63-3.27,5.35,5.35,0,0,0-2.07-4.82,10.75,10.75,0,0,0-6.12-1.45,20.9,20.9,0,0,0-4.24.44v13Zm0,19.27a17.57,17.57,0,0,0,4.15.49,12.78,12.78,0,0,0,5.59-1.06,7.4,7.4,0,0,0,3.27-3.23,10.36,10.36,0,0,0,1.16-4.82,9.19,9.19,0,0,0-1.06-4.82,6.48,6.48,0,0,0-3.23-2.79,19.57,19.57,0,0,0-7.08-.92h-2.89v9.93c.09,1,.16,3.31.19,7Z"></path> <path class="cls-1" d="M972.94,103.87v-1.59l6.31-1.25a4.74,4.74,0,0,1,1.44.67,16,16,0,0,1,1.64,2,64.66,64.66,0,0,1,4.29,6.79q2.46,4.29,5.2,9.64,2.8-4.29,5.69-9.3l5.59-9.64h4v.72q-1.46,1.59-5.3,6.94-2.22,3.09-5.78,9a37.14,37.14,0,0,0-2.51,4.48,4.83,4.83,0,0,0-.29,1.54v9a8.35,8.35,0,0,0,.39,3,1.75,1.75,0,0,0,1,.68,19.45,19.45,0,0,0,3.81.29v1.68H983.06v-1.35a18.19,18.19,0,0,0,3.75-.29,1.59,1.59,0,0,0,.92-.62,6.2,6.2,0,0,0,.43-2.56v-10.5c-.35-.77-.7-1.48-1.06-2.12l-2.7-4.53-1.73-2.84c-1.35-2.25-2.36-3.85-3-4.82a25.8,25.8,0,0,0-3.18-3.9,4,4,0,0,0-1.44-.92A8,8,0,0,0,972.94,103.87Z"></path> <path class="cls-1" d="M1024.68,138.85V137.6a11.22,11.22,0,0,0,1.83-1,1.53,1.53,0,0,0,.29-.68,28.42,28.42,0,0,0,.29-3.32V106.81a8.87,8.87,0,0,0-.39-2.7,1.12,1.12,0,0,0-.57-.48,11.34,11.34,0,0,0-3.62-.38v-1.88h17.25a17.26,17.26,0,0,1,5.93.77,6.61,6.61,0,0,1,3.23,2.55,7,7,0,0,1,1.15,4,7.71,7.71,0,0,1-.67,3.28,8.65,8.65,0,0,1-1.88,2.65,10.45,10.45,0,0,1-2.6,1.83,20,20,0,0,1-3.76,1.25,26.35,26.35,0,0,1,4.82.87,8.41,8.41,0,0,1,3.18,1.68,7.19,7.19,0,0,1,1.92,2.7,9.29,9.29,0,0,1,.68,3.57,10.71,10.71,0,0,1-2.36,6.84,14,14,0,0,1-6.07,4.38,18.31,18.31,0,0,1-6.56,1.06h-7.61Zm7.47-21.78h2.65a19.53,19.53,0,0,0,4.82-.48,7.37,7.37,0,0,0,2.74-1.3,6.1,6.1,0,0,0,1.64-2.22,7.66,7.66,0,0,0,.63-3.27,5.35,5.35,0,0,0-2.07-4.82,10.75,10.75,0,0,0-6.12-1.45,20.76,20.76,0,0,0-4.24.44v13Zm0,19.27a17.55,17.55,0,0,0,4.14.49,12.78,12.78,0,0,0,5.59-1.06,7.37,7.37,0,0,0,3.28-3.23,10.35,10.35,0,0,0,1.15-4.82,9.09,9.09,0,0,0-1.06-4.82,6.46,6.46,0,0,0-3.22-2.79,19.59,19.59,0,0,0-7.09-.92h-2.89v9.93c0,1,0,3.31,0,7Z"></path> <path class="cls-1" d="M1053.83,103.25v-1.88h17.58a21.63,21.63,0,0,1,7.33.91,7.08,7.08,0,0,1,3.56,2.89,8.12,8.12,0,0,1,1.26,4.39,9.09,9.09,0,0,1-1.21,4.38,9.56,9.56,0,0,1-3.42,3.61,17.73,17.73,0,0,1-5.83,2.22l3.08,4.1,6.65,8.72a44.8,44.8,0,0,0,3.33,4l.48.24a6.27,6.27,0,0,0,1.73,0v1.69h-7.27q-1.69-2-5.73-7.66-2.22-3.18-4-5.3-2.75-3.51-5.25-6.36l.24-.77h2.08a10.36,10.36,0,0,0,7.22-2.26,7.72,7.72,0,0,0,2.46-6,6.51,6.51,0,0,0-2.12-5.15,9.61,9.61,0,0,0-6.46-1.93,17.71,17.71,0,0,0-5.3.82v28.86a8.32,8.32,0,0,0,.34,3,1.75,1.75,0,0,0,1,.68,19,19,0,0,0,3.76.29v1.68H1054v-1.3a18.23,18.23,0,0,0,3.76-.29,1.72,1.72,0,0,0,1-.62,6.57,6.57,0,0,0,.39-2.56V107.15a8.14,8.14,0,0,0-.39-2.94,1.75,1.75,0,0,0-1-.68A18.67,18.67,0,0,0,1053.83,103.25Z"></path> <path class="cls-1" d="M1106,137.16v1.69h-15.42v-1.69a18.23,18.23,0,0,0,3.76-.29,1.72,1.72,0,0,0,1-.62,6.76,6.76,0,0,0,.39-2.56V107.15a8.14,8.14,0,0,0-.39-2.94,1.75,1.75,0,0,0-1-.68,18.7,18.7,0,0,0-3.81-.28v-1.88H1106v1.68a19,19,0,0,0-3.76.29,1.67,1.67,0,0,0-.91.63,6.52,6.52,0,0,0-.39,2.55v26.55a8.44,8.44,0,0,0,.39,3,1.73,1.73,0,0,0,1,.67A18.51,18.51,0,0,0,1106,137.16Z"></path> <path class="cls-1" d="M1143.1,136.78a46.39,46.39,0,0,1-6.55,1.92,45.21,45.21,0,0,1-8.53.87,23.57,23.57,0,0,1-10.79-2.36,17.41,17.41,0,0,1-7.32-6.65,19.16,19.16,0,0,1-2.55-10.11,18.13,18.13,0,0,1,6.45-14.46,21,21,0,0,1,5.54-3.42,28.67,28.67,0,0,1,10.46-1.69,33.25,33.25,0,0,1,6.12.68q3.22.63,7.27,1.78a23.43,23.43,0,0,0-.63,2.6,49.11,49.11,0,0,1-.53,5.3h-1.73v-4.09a3.06,3.06,0,0,0-.34-1.06,6.17,6.17,0,0,0-2.26-1.69,28.65,28.65,0,0,0-4.43-1.35,22.2,22.2,0,0,0-4.15-.33,16.76,16.76,0,0,0-8.62,2.12,13.52,13.52,0,0,0-5.54,6.07,20,20,0,0,0-1.88,8.67,19.56,19.56,0,0,0,2.22,9.3,15.71,15.71,0,0,0,5.73,6.21,16.51,16.51,0,0,0,8.62,2.22,21.68,21.68,0,0,0,4.48-.44,13.43,13.43,0,0,0,3.66-1.25,17.25,17.25,0,0,0,0-3.37v-3a8.16,8.16,0,0,0,0-2.7,1.83,1.83,0,0,0-1.25-.57,38.85,38.85,0,0,0-4.82-.29v-1.64h13l.39,1.4-2,1.15a41.24,41.24,0,0,0-.05,10.17Z"></path> <path class="cls-1" d="M1147.1,103.25v-1.88h15.47v1.68a19,19,0,0,0-3.76.29,1.69,1.69,0,0,0-.92.63,6.7,6.7,0,0,0-.38,2.55v11.13h21.73v-10.5a8.6,8.6,0,0,0-.39-2.94,1.75,1.75,0,0,0-1-.68,18.22,18.22,0,0,0-3.76-.28v-1.88h15.42v1.68a19,19,0,0,0-3.76.29,1.61,1.61,0,0,0-.92.63,6.52,6.52,0,0,0-.43,2.55v26.55a8.4,8.4,0,0,0,.34,3,1.73,1.73,0,0,0,1,.67,19,19,0,0,0,3.76.29v1.68h-15.42v-1.54a18,18,0,0,0,3.81-.29,1.7,1.7,0,0,0,.91-.62,5.9,5.9,0,0,0,.39-2.56V120.35h-21.73v12.91a8.14,8.14,0,0,0,.39,2.94,1.68,1.68,0,0,0,1,.67,18,18,0,0,0,3.81.29v1.69h-15.47v-1.69a18.23,18.23,0,0,0,3.76-.29,1.72,1.72,0,0,0,1-.62,6.57,6.57,0,0,0,.39-2.56V107.15a8.6,8.6,0,0,0-.39-2.94,1.75,1.75,0,0,0-1-.68A18.7,18.7,0,0,0,1147.1,103.25Z"></path> <path class="cls-1" d="M1191.76,138.85v-1.78a14.22,14.22,0,0,0,2.61,0,2.33,2.33,0,0,0,1-.53,8.57,8.57,0,0,0,1.25-2.12l3.42-7.37,6.55-14.8q1.07-2.44,4.82-10.88h1.21l11.22,26.35q2.75,6.41,3.62,8.05a2.72,2.72,0,0,0,1.1,1.2,7.7,7.7,0,0,0,2.65.34v1.78q-4.1-.24-5.73-.24l-8.48.24v-2a30.37,30.37,0,0,0,3.57,0,1.55,1.55,0,0,0,.86-.39.83.83,0,0,0,0-.62,4.1,4.1,0,0,0-.38-1.5l-3.23-8h-14.84l-2.84,6.74a7.92,7.92,0,0,0-.77,2.65.86.86,0,0,0,0,.63,1.65,1.65,0,0,0,.91.48,19.53,19.53,0,0,0,3.42,0v1.78H1197C1195.54,138.8,1193.79,138.82,1191.76,138.85ZM1204,124.11h13.39l-6.55-15.81Z"></path> <path class="cls-1" d="M1234,103.25v-1.88h10.12q2.31,5.25,4.24,9.2l10,20.47,9-18.79q3.66-7.65,4.82-10.88h10.5v1.68a19.51,19.51,0,0,0-3.81.29,1.7,1.7,0,0,0-.91.63,6.15,6.15,0,0,0-.39,2.55v26.55a8.44,8.44,0,0,0,.39,3,1.73,1.73,0,0,0,1,.67,19,19,0,0,0,3.76.29v1.68h-15.22v-1.54a17.93,17.93,0,0,0,3.8-.29,1.59,1.59,0,0,0,.92-.62,6.05,6.05,0,0,0,.38-2.56V107l-9,18.93q-2.13,4.42-3.33,7.13c-.58,1.32-1.44,3.4-2.6,6.26h-1a15.45,15.45,0,0,0-.63-1.59l-1.78-3.8-12.58-26v25.34a8.41,8.41,0,0,0,.39,3,1.68,1.68,0,0,0,1,.67,18,18,0,0,0,3.81.29v1.69h-12.86v-1.69a18.19,18.19,0,0,0,3.75-.29,1.71,1.71,0,0,0,1-.62,6.75,6.75,0,0,0,.38-2.56V107.15a8.35,8.35,0,0,0-.38-2.94,1.81,1.81,0,0,0-1-.68A19.28,19.28,0,0,0,1234,103.25Z"></path> <path class="cls-1" d="M1298.19,138.85v-1.78a14.11,14.11,0,0,0,2.6,0,2.43,2.43,0,0,0,1-.53,8.89,8.89,0,0,0,1.25-2.12l3.42-7.37,6.55-14.8q1.07-2.44,4.82-10.88h1.68l11.23,26.35c1.83,4.27,3,6.95,3.61,8.05a2.8,2.8,0,0,0,1.11,1.2,7.7,7.7,0,0,0,2.65.34v1.78q-4.1-.24-5.73-.24l-8.48.24v-2a30.2,30.2,0,0,0,3.56,0,1.54,1.54,0,0,0,.87-.39.83.83,0,0,0,0-.62,4.54,4.54,0,0,0-.38-1.5l-3.23-8h-15.23l-2.84,6.74a7.92,7.92,0,0,0-.77,2.65.86.86,0,0,0,0,.63,1.68,1.68,0,0,0,.92.48,19.53,19.53,0,0,0,3.42,0v1.78h-6.65C1302.06,138.8,1300.28,138.82,1298.19,138.85Zm12.24-14.74h13.25l-6.56-15.81Z"></path> <path class="cls-1" d="M1340.68,138.85v-1.69a11.1,11.1,0,0,0,3.67-.43,1,1,0,0,0,.52-.48,9.14,9.14,0,0,0,.39-2.75V106.18a3.38,3.38,0,0,0,0-1.1,3.65,3.65,0,0,0-1-1.11,2.25,2.25,0,0,0-1.11-.53,21,21,0,0,0-2.75,0v-2.07h9.64l3.23,4.28,5.34,6.7,7.86,9.64q3.75,4.53,6,7.18c1,1.15,1.78,2.07,2.46,2.74V106.62a10.25,10.25,0,0,0-.34-2.7,1,1,0,0,0-.58-.48,11.57,11.57,0,0,0-3.61-.39v-1.68h11.7v1.68a11.61,11.61,0,0,0-3.61.39,1,1,0,0,0-.53.53,8.77,8.77,0,0,0-.38,2.74v33.2l-2.7-.77H1374l-1-1.06-3.23-3.76-3.37-4.34-18.64-22.49v26a9.47,9.47,0,0,0,.33,2.7,1.14,1.14,0,0,0,.53.53,11.34,11.34,0,0,0,3.62.38v1.69h-5.11C1345.28,138.8,1343.12,138.82,1340.68,138.85Z"></path> <path class="cls-1" d="M1386.45,138.85V137.6c1-.58,1.83-1.11,2.51-1.59s0-2.85.24-4.82V106.81a8.87,8.87,0,0,0-.39-2.7,1.12,1.12,0,0,0-.57-.48,11.34,11.34,0,0,0-3.62-.38v-1.88h19A27.06,27.06,0,0,1,1414,103a15.37,15.37,0,0,1,6.65,5.5,15.94,15.94,0,0,1,2.75,9.63,21.37,21.37,0,0,1-1.31,7.47,20.25,20.25,0,0,1-3.46,6.12,19.28,19.28,0,0,1-4.82,4.14,21,21,0,0,1-5.3,2.31,29.52,29.52,0,0,1-7.61.78h-9.16Zm8.1-2.84a36.19,36.19,0,0,0,6.07.48,26.58,26.58,0,0,0,5.83-.58,15,15,0,0,0,4.33-1.64,13.1,13.1,0,0,0,3.47-3.08,14.44,14.44,0,0,0,2.6-5.25,24.18,24.18,0,0,0,.92-6.6A18.71,18.71,0,0,0,1416,111a12,12,0,0,0-5.25-5.34,20.75,20.75,0,0,0-9.63-1.88,44.7,44.7,0,0,0-6.55.48v27a37.53,37.53,0,0,0,0,4.77Z"></path> <path class="cls-1" d="M1451.54,139.14l-2.41-10.94-5.3-21.63a6.32,6.32,0,0,0-1.06-2.7,8.21,8.21,0,0,0-3.27-.77v-1.73h14V103a15.86,15.86,0,0,0-4,.38.77.77,0,0,0-.34.72,14,14,0,0,0,.34,2.32q.87,4.82,1.15,6l4.15,18.16,6.5-16.14q2.55-6.34,4.82-13.39h1.78q2.41,7.47,4.34,12.77l6.17,17.1,4.48-15.66q1.2-4.18,2.21-8.72a19.39,19.39,0,0,0,.48-2.41.8.8,0,0,0-.43-.81,17.88,17.88,0,0,0-4.19-.34v-1.54h11V103a5.68,5.68,0,0,0-2.41.38,2.58,2.58,0,0,0-1,1.25c-.26.61-1,2.93-2.22,6.94l-2.74,9.11c-.26.87-.8,2.86-1.64,6l-3.37,12.67h-2.7q-2.89-8.67-4.53-13l-6-16.18-5.21,13-3.27,8.57-1.16,3.13-1.54,4.53h-2.7Z"></path> <path class="cls-1" d="M1491.48,120.64a22.91,22.91,0,0,1,1.25-7.66,16.28,16.28,0,0,1,4.15-6.31,19.15,19.15,0,0,1,6.55-4.24,22.78,22.78,0,0,1,8.33-1.45,24.13,24.13,0,0,1,7.86,1.21,17,17,0,0,1,5.83,3.22,16.4,16.4,0,0,1,3.56,4.39,16.61,16.61,0,0,1,1.59,4.19,21.81,21.81,0,0,1,.58,5.15,19.89,19.89,0,0,1-5.93,14.75,20.43,20.43,0,0,1-15,5.87,21.59,21.59,0,0,1-7.71-1.34,15.79,15.79,0,0,1-6-4,17.68,17.68,0,0,1-3.76-6.41A23.09,23.09,0,0,1,1491.48,120.64Zm5.35-2.41a26.85,26.85,0,0,0,.48,5.06,23.53,23.53,0,0,0,1.25,4.43,16.52,16.52,0,0,0,3.28,5.3,12.8,12.8,0,0,0,4.53,3.13,14.55,14.55,0,0,0,5.54,1,13.06,13.06,0,0,0,7.37-2.07,12.34,12.34,0,0,0,4.82-5.83,22.74,22.74,0,0,0,1.64-8.62,25.82,25.82,0,0,0-1.11-7.71,16.35,16.35,0,0,0-1.83-3.9,12.38,12.38,0,0,0-6.75-5.25,15.74,15.74,0,0,0-5.39-.92,14.16,14.16,0,0,0-7.33,1.88,11.58,11.58,0,0,0-4.81,5.4A19.1,19.1,0,0,0,1496.83,118.23Z"></path> <path class="cls-1" d="M1532.19,103.25v-1.88h10.12q2.31,5.25,4.24,9.2l10,20.47,9-18.79q3.66-7.65,4.82-10.88h10.5v1.68a19.35,19.35,0,0,0-3.8.29,1.69,1.69,0,0,0-.92.63,6,6,0,0,0-.38,2.55v26.55a8.21,8.21,0,0,0,.38,3,1.79,1.79,0,0,0,1,.67,18.91,18.91,0,0,0,3.75.29v1.68h-15.22v-1.54a18,18,0,0,0,3.81-.29,1.57,1.57,0,0,0,.91-.62,6.22,6.22,0,0,0,.39-2.56V107l-9.06,18.93q-2.12,4.42-3.32,7.13c-.58,1.32-1.45,3.4-2.61,6.26h-1.06c-.18-.54-.39-1.07-.62-1.59l-1.79-3.8-12.57-26.07v25.34a8.38,8.38,0,0,0,.39,3,1.75,1.75,0,0,0,1,.68,18.65,18.65,0,0,0,3.81.28v1.69H1532v-1.64a18.23,18.23,0,0,0,3.76-.29,1.72,1.72,0,0,0,1-.62,6.57,6.57,0,0,0,.39-2.56V107.15a8.14,8.14,0,0,0-.39-2.94,1.75,1.75,0,0,0-1-.68A18.86,18.86,0,0,0,1532.19,103.25Z"></path> <path class="cls-1" d="M1584.08,138.85v-1.69a11,11,0,0,0,3.61-.43,1,1,0,0,0,.53-.48,9.14,9.14,0,0,0,.39-2.75V107.15a8.36,8.36,0,0,0-.39-2.94,1.75,1.75,0,0,0-1-.68,18.7,18.7,0,0,0-3.81-.28v-1.88h23.71a37,37,0,0,1,4.82.29,20.79,20.79,0,0,0-.58,2.6,44.21,44.21,0,0,1-.48,5.44h-1.64a28.87,28.87,0,0,0-.34-4.82,12.11,12.11,0,0,0-3.18-.82,48.11,48.11,0,0,0-5.88-.38H1594V118h5.63a43.39,43.39,0,0,0,5.35-.29,1.6,1.6,0,0,0,1.06-.43,6.51,6.51,0,0,0,.44-2.17v-1.83H1608v12h-1.83v-1.78a6.15,6.15,0,0,0-.33-2.41,1.7,1.7,0,0,0-1.16-.67,34.45,34.45,0,0,0-5.83-.34h-4.82v15.17c2.51.2,5.34.29,8.48.29a35.24,35.24,0,0,0,4.82,0,10.68,10.68,0,0,0,2.6-.72,16.59,16.59,0,0,0,.63-2.22c.38-1.54.63-2.74.77-3.51h1.78a72.1,72.1,0,0,0-.67,8.81,36.06,36.06,0,0,1-5.49.34h-15.66Z"></path> <path class="cls-1" d="M1615.93,138.85v-1.69a11.07,11.07,0,0,0,3.66-.43,1,1,0,0,0,.53-.48,8.83,8.83,0,0,0,.38-2.75V106.18a3.38,3.38,0,0,0,0-1.1,3.65,3.65,0,0,0-1-1.11,2.21,2.21,0,0,0-1.11-.53,20.88,20.88,0,0,0-2.74,0v-2.07h9.63l3.23,4.28,5.35,6.7,7.85,9.64q3.76,4.53,6,7.18c1,1.15,1.78,2.07,2.46,2.74V106.62a10.25,10.25,0,0,0-.34-2.7,1,1,0,0,0-.58-.48,11.54,11.54,0,0,0-3.61-.39v-1.68h11.71v1.68a11.64,11.64,0,0,0-3.62.39,1,1,0,0,0-.53.53,8.77,8.77,0,0,0-.38,2.74v33.2l-2.7-.77h-.91l-1-1.06-3.22-3.76-3.38-4.34L1623,107.49v26a9.48,9.48,0,0,0,.34,2.7,1.05,1.05,0,0,0,.53.53,11.25,11.25,0,0,0,3.61.38v1.69h-5.11Q1619.59,138.8,1615.93,138.85Z"></path> <path class="cls-1" d="M1660.06,115l-.77-.58a33.31,33.31,0,0,0,2-3.37,20.32,20.32,0,0,0,1.35-3.71,32.68,32.68,0,0,0,.87-4.82,46.15,46.15,0,0,0,5.11-1.54l.77.63a56.26,56.26,0,0,1-3.42,7.08,36.93,36.93,0,0,1-3.52,4.82Z"></path> <path class="cls-1" d="M1673.26,137.55a61.54,61.54,0,0,0,.48-8.14h1.78a19.18,19.18,0,0,0,.44,4.53,4,4,0,0,0,1.44,1.49,12.13,12.13,0,0,0,3.09,1.4,12.28,12.28,0,0,0,3.75.62,10,10,0,0,0,4.82-1.2,7.69,7.69,0,0,0,3.28-3.23,9.2,9.2,0,0,0,1-4.24,7.83,7.83,0,0,0-.53-3,4.8,4.8,0,0,0-1.54-2,6.6,6.6,0,0,0-2.6-1.11l-4-.58c-1.93-.25-3.54-.53-4.82-.82a11,11,0,0,1-4-2,8.19,8.19,0,0,1-2.07-2.94,9.58,9.58,0,0,1-.82-3.95,11.28,11.28,0,0,1,1.59-5.83,10.78,10.78,0,0,1,4.82-4.24,15.69,15.69,0,0,1,6.84-1.54,22.28,22.28,0,0,1,4.81.58,21.66,21.66,0,0,1,4.82,1.73,29.59,29.59,0,0,0-.53,3.08v4.2h-1.78a27.42,27.42,0,0,0,0-4.44,6.77,6.77,0,0,0-1.78-1.68,11.32,11.32,0,0,0-5.64-1.54,7.89,7.89,0,0,0-8.6,7.13,7.36,7.36,0,0,0,0,1.15,6.2,6.2,0,0,0,.82,3.47,5.65,5.65,0,0,0,2.93,2,27.31,27.31,0,0,0,4.82.91c2.19.29,4.16.61,5.93,1a10,10,0,0,1,3.66,1.73,7.68,7.68,0,0,1,1.93,2.65,9.11,9.11,0,0,1,.77,3.85,11.9,11.9,0,0,1-4.34,9.11,16.11,16.11,0,0,1-11.22,3.9A21.29,21.29,0,0,1,1673.26,137.55Z"></path> <path class="cls-1" d="M1714.55,103.25v-1.88H1730v1.68a18.79,18.79,0,0,0-3.75.29,1.69,1.69,0,0,0-.92.63,6.91,6.91,0,0,0-.39,2.55v11.13h21.73v-10.5a8.35,8.35,0,0,0-.38-2.94,1.81,1.81,0,0,0-1-.68,18.12,18.12,0,0,0-3.75-.28v-1.88H1757v1.68a18.79,18.79,0,0,0-3.75.29,1.58,1.58,0,0,0-.92.63,6.18,6.18,0,0,0-.43,2.55v26.55a8.4,8.4,0,0,0,.33,3,1.79,1.79,0,0,0,1,.67,18.91,18.91,0,0,0,3.75.29v1.68h-15.41v-1.54a17.93,17.93,0,0,0,3.8-.29,1.73,1.73,0,0,0,.92-.62,6.05,6.05,0,0,0,.38-2.56V120.35h-21.72v12.91a8.35,8.35,0,0,0,.38,2.94,1.71,1.71,0,0,0,1,.67,17.93,17.93,0,0,0,3.8.29v1.69H1714.6v-1.69a18.13,18.13,0,0,0,3.75-.29,1.71,1.71,0,0,0,1-.62,6.75,6.75,0,0,0,.38-2.56V107.15a8.35,8.35,0,0,0-.38-2.94,1.81,1.81,0,0,0-1-.68A18.61,18.61,0,0,0,1714.55,103.25Z"></path> <path class="cls-1" d="M1758.05,120.64a22.67,22.67,0,0,1,1.26-7.66,16.14,16.14,0,0,1,4.14-6.31,19.15,19.15,0,0,1,6.55-4.24,22.79,22.79,0,0,1,8.34-1.45,24.07,24.07,0,0,1,7.85,1.21,16.93,16.93,0,0,1,5.83,3.22,16.4,16.4,0,0,1,3.56,4.39,16.61,16.61,0,0,1,1.59,4.19,21.3,21.3,0,0,1,.58,5.15,19.92,19.92,0,0,1-5.92,14.75,20.47,20.47,0,0,1-15,5.87,21.5,21.5,0,0,1-7.7-1.34,15.75,15.75,0,0,1-6-4,17.51,17.51,0,0,1-3.75-6.41A22.82,22.82,0,0,1,1758.05,120.64Zm5.45-2.17a26.05,26.05,0,0,0,.48,5.06,23.53,23.53,0,0,0,1.25,4.43,16.35,16.35,0,0,0,3.28,5.3,12.71,12.71,0,0,0,4.53,3.13,14.55,14.55,0,0,0,5.54,1,13,13,0,0,0,7.32-2.31,12.4,12.4,0,0,0,4.82-5.83,22.64,22.64,0,0,0,1.54-8.62,25.82,25.82,0,0,0-1.11-7.71,16,16,0,0,0-1.83-3.9,12.32,12.32,0,0,0-6.74-5.25,15.8,15.8,0,0,0-5.4-.92,14.1,14.1,0,0,0-7.32,1.88,11.6,11.6,0,0,0-4.82,5.4,19.18,19.18,0,0,0-1.54,8.09Z"></path> <path class="cls-1" d="M1800.79,137.55a61.54,61.54,0,0,0,.48-8.14h1.78a19.71,19.71,0,0,0,.43,4.53,4,4,0,0,0,1.45,1.49,13.71,13.71,0,0,0,6.84,2,10,10,0,0,0,4.82-1.2,7.69,7.69,0,0,0,3.28-3.23,9.2,9.2,0,0,0,1-4.24,7.83,7.83,0,0,0-.53-3,4.88,4.88,0,0,0-1.54-2,6.58,6.58,0,0,0-2.61-1.11l-3.9-.53c-1.93-.26-3.53-.53-4.82-.82a11.17,11.17,0,0,1-4-2,8.45,8.45,0,0,1-2.07-2.94,9.78,9.78,0,0,1-.82-4,11.28,11.28,0,0,1,1.59-5.83,10.78,10.78,0,0,1,4.82-4.24,15.61,15.61,0,0,1,6.84-1.54,22.28,22.28,0,0,1,4.82.57,21.69,21.69,0,0,1,4.82,1.74,27.16,27.16,0,0,0-.53,3.08v4.19h-1.88a27.3,27.3,0,0,0,0-4.43,6.61,6.61,0,0,0-1.78-1.68,11.44,11.44,0,0,0-5.64-1.55,7.92,7.92,0,0,0-8.47,7.3c0,.31,0,.63,0,.94a6.2,6.2,0,0,0,.82,3.47,5.63,5.63,0,0,0,2.94,2,27.14,27.14,0,0,0,4.82.91c2.18.29,4.16.61,5.92,1a10,10,0,0,1,3.66,1.73,7.55,7.55,0,0,1,1.93,2.65,9,9,0,0,1,.77,3.85,11.89,11.89,0,0,1-4.33,9.11,16.13,16.13,0,0,1-11.23,3.9A21.27,21.27,0,0,1,1800.79,137.55Z"></path> <path class="cls-1" d="M1827.62,103.25v-1.88h18.12a18.65,18.65,0,0,1,6.55.91,7.68,7.68,0,0,1,3.71,2.94,8.07,8.07,0,0,1,1.35,4.82,10.49,10.49,0,0,1-1.11,4.82,10.64,10.64,0,0,1-3.23,3.85,14.06,14.06,0,0,1-4.48,1.93,12.28,12.28,0,0,1-3.56.48,18.32,18.32,0,0,1-3.62-.39l-.53-1.92a17.47,17.47,0,0,0,3.66.53,7.71,7.71,0,0,0,3.76-1,6.57,6.57,0,0,0,2.75-2.89,9.22,9.22,0,0,0,1-4.28,8.71,8.71,0,0,0-1-4.1,6.25,6.25,0,0,0-2.89-2.79,10.81,10.81,0,0,0-4.82-1,18,18,0,0,0-5.35.92v28.9a8.38,8.38,0,0,0,.39,3,1.75,1.75,0,0,0,1,.68,18.7,18.7,0,0,0,3.81.28v1.69h-15.37v-1.64a18.23,18.23,0,0,0,3.76-.29,1.72,1.72,0,0,0,1-.62,7,7,0,0,0,.39-2.56V107.15a8.6,8.6,0,0,0-.39-2.94,1.78,1.78,0,0,0-1-.68A19.2,19.2,0,0,0,1827.62,103.25Z"></path> <path class="cls-1" d="M1874.26,137.16v1.69h-15.42v-1.69a18.23,18.23,0,0,0,3.76-.29,1.72,1.72,0,0,0,1-.62,6.57,6.57,0,0,0,.39-2.56V107.15a8.14,8.14,0,0,0-.39-2.94,1.75,1.75,0,0,0-1-.68,18.7,18.7,0,0,0-3.81-.28v-1.88h15.47v1.68a19,19,0,0,0-3.76.29,1.67,1.67,0,0,0-.91.63,6.52,6.52,0,0,0-.39,2.55v26.55a8.44,8.44,0,0,0,.39,3,1.73,1.73,0,0,0,1,.67A18.51,18.51,0,0,0,1874.26,137.16Z"></path> <path class="cls-1" d="M1878.88,110.23h-1.44q0-6.26-.24-8.67l9,.24h21.73c-.23,2-.37,4.85-.44,8.67h-1.68V108a6.06,6.06,0,0,0-.29-2.6.82.82,0,0,0,0-.44h-9.83c-.16,1.67-.24,3.94-.24,6.79V134a8.66,8.66,0,0,0,.38,3,1.74,1.74,0,0,0,1,.67,17.93,17.93,0,0,0,3.8.29v1.69h-15.27v-2.51a18,18,0,0,0,3.81-.29,1.5,1.5,0,0,0,.91-.62,6.2,6.2,0,0,0,.44-2.56V104.16h-3.91a44.1,44.1,0,0,0-5.39.24,1.15,1.15,0,0,0-.82.34,9.45,9.45,0,0,0-.53,2.84Z"></path> <path class="cls-1" d="M1906.35,138.85v-1.78a14.11,14.11,0,0,0,2.6,0,2.33,2.33,0,0,0,1-.53,8.57,8.57,0,0,0,1.25-2.12l3.42-7.37,6.56-14.8q1-2.44,4.81-10.88h1.69l11.23,26.35q2.75,6.41,3.61,8.05a2.74,2.74,0,0,0,1.11,1.2,7.64,7.64,0,0,0,2.65.34v1.78c-2.73-.16-4.64-.24-5.74-.24l-8.48.24v-2a30.37,30.37,0,0,0,3.57,0,1.58,1.58,0,0,0,.87-.39.83.83,0,0,0,0-.62,4.32,4.32,0,0,0-.39-1.5l-3.23-8h-15.22l-2.84,6.74a7.92,7.92,0,0,0-.77,2.65.86.86,0,0,0,0,.63,1.65,1.65,0,0,0,.91.48,19.53,19.53,0,0,0,3.42,0v1.78h-6.65C1910.22,138.8,1908.43,138.82,1906.35,138.85Zm12.23-14.74h13.25l-6.55-15.81Z"></path> <path class="cls-1" d="M1949.71,138.85V137.5a8.73,8.73,0,0,0,2.07-1.2,1.31,1.31,0,0,0,.38-.58,14.31,14.31,0,0,0,.29-3.13V107.15a8.35,8.35,0,0,0-.38-2.94,1.81,1.81,0,0,0-1-.68,18.61,18.61,0,0,0-3.8-.28v-1.88h15.46v1.68a19.35,19.35,0,0,0-3.8.29,1.69,1.69,0,0,0-.92.63,6.7,6.7,0,0,0-.38,2.55V136.1h5.92a38.79,38.79,0,0,0,10.36-1,12,12,0,0,0,.63-1.83l1.06-4.34h1.78q-.59,3.9-1.11,9.2l-1.69.25h-19.75C1953.22,138.58,1951.5,138.72,1949.71,138.85Z"></path> <path class="cls-1" d="M658.28,201.48V199.7a14.22,14.22,0,0,0,2.61,0,2.33,2.33,0,0,0,1-.53,8.39,8.39,0,0,0,1.25-2.12l3.42-7.37,6.46-15q1.07-2.46,4.82-10.89h1.68l11.23,26.35q2.74,6.4,3.61,8a2.8,2.8,0,0,0,1.11,1.2,7.67,7.67,0,0,0,2.65.34v1.78q-4.1-.24-5.73-.24l-8.48.24V199.7a30.2,30.2,0,0,0,3.56,0,1.54,1.54,0,0,0,.87-.39.83.83,0,0,0,0-.62,4.32,4.32,0,0,0-.39-1.5l-3.22-8H669.61l-2.85,6.74a7.92,7.92,0,0,0-.77,2.65,1,1,0,0,0,0,.63,1.56,1.56,0,0,0,.92.48,19.53,19.53,0,0,0,3.42,0v1.78h-6.65C662.2,201.43,660.4,201.45,658.28,201.48Zm12.24-14.74h13.25l-6.55-15.8Z"></path> <path class="cls-1" d="M700.78,201.48V199.8a11.08,11.08,0,0,0,3.66-.44,1,1,0,0,0,.53-.48,9.14,9.14,0,0,0,.39-2.75V168.82a2.19,2.19,0,0,0-1.06-2.27,2.25,2.25,0,0,0-1.11-.53,21,21,0,0,0-2.75,0v-2h9.64l3.22,4.29,5.35,6.69,7.86,9.64q3.75,4.57,6,7.18c1,1.15,1.78,2.07,2.45,2.74V169.25a9.84,9.84,0,0,0-.33-2.7,1.17,1.17,0,0,0-.53-.48,11.64,11.64,0,0,0-3.62-.39V164h11.71v1.68a11.54,11.54,0,0,0-3.61.39,1,1,0,0,0-.53.53,9.14,9.14,0,0,0-.39,2.75v33.19l-2.7-.77h-.91l-1-1.06L729.83,197l-3.37-4.33-18.6-22.5v26a9.48,9.48,0,0,0,.34,2.7,1,1,0,0,0,.53.53,11,11,0,0,0,3.61.39v1.68h-5.11Q704.44,201.43,700.78,201.48Z"></path> <path class="cls-1" d="M746.55,201.48v-1.25c1-.58,1.83-1.11,2.5-1.59s0-2.84.24-4.82V169.44a9.18,9.18,0,0,0-.38-2.7,1.17,1.17,0,0,0-.53-.48,11.9,11.9,0,0,0-3.61-.38V164h19a27,27,0,0,1,10.35,1.64,15.35,15.35,0,0,1,6.65,5.49,15.87,15.87,0,0,1,2.75,9.63,21.59,21.59,0,0,1-1.3,7.47,20.07,20.07,0,0,1-3.47,6.12,19.1,19.1,0,0,1-4.82,4.14,21.23,21.23,0,0,1-5.3,2.32,30,30,0,0,1-7.61.77H751.9Zm8.09-2.84a36.36,36.36,0,0,0,6.07.48,26.52,26.52,0,0,0,5.83-.58,15.12,15.12,0,0,0,4.34-1.64,13.25,13.25,0,0,0,3.47-3.08,14.52,14.52,0,0,0,2.6-5.25,23.79,23.79,0,0,0,.91-6.6,18.5,18.5,0,0,0-1.73-8.38,12,12,0,0,0-5.25-5.35,20.79,20.79,0,0,0-9.64-1.88,44.91,44.91,0,0,0-6.55.48v27a25.7,25.7,0,0,0,.19,4.77Z"></path> <path class="cls-1" d="M800.27,165.88V164h10.11q2.32,5.25,4.24,9.2l10,20.48,9-18.79q3.66-7.66,4.82-10.89h10.5v1.68a19.45,19.45,0,0,0-3.81.29,1.82,1.82,0,0,0-.91.63,6.15,6.15,0,0,0-.39,2.55V195.7a8.44,8.44,0,0,0,.39,3,1.68,1.68,0,0,0,1,.67,18.23,18.23,0,0,0,3.76.29v1.69H833.65V199.8a19.45,19.45,0,0,0,3.81-.29,1.65,1.65,0,0,0,.92-.63,6,6,0,0,0,.38-2.55V169.59l-9.06,18.93c-1.41,3-2.52,5.33-3.32,7.13q-.87,2-2.6,6.26h-1a13.41,13.41,0,0,0-.62-1.59l-1.78-3.8-12.53-26v25.34a8.6,8.6,0,0,0,.38,3,1.81,1.81,0,0,0,1,.68,19.35,19.35,0,0,0,3.8.29v1.68H800.17V199.8a19,19,0,0,0,3.76-.29,1.73,1.73,0,0,0,1-.63,6.74,6.74,0,0,0,.39-2.55V169.78a8.16,8.16,0,0,0-.39-2.94,1.73,1.73,0,0,0-1-.67A18,18,0,0,0,800.27,165.88Z"></path> <path class="cls-1" d="M851.24,201.48V199.7a14.11,14.11,0,0,0,2.6,0,2.33,2.33,0,0,0,1-.53,8.43,8.43,0,0,0,1.26-2.12l3.42-7.37L866,174.89q1.07-2.46,4.82-10.89h1.68l11.23,26.35c1.83,4.27,3,7,3.61,8.05a2.74,2.74,0,0,0,1.11,1.2,7.67,7.67,0,0,0,2.65.34v1.78q-4.1-.24-5.73-.24l-8.48.24v-2a30.2,30.2,0,0,0,3.56,0,1.54,1.54,0,0,0,.87-.39.83.83,0,0,0,0-.62,4.54,4.54,0,0,0-.38-1.5l-3.23-8H862.51l-2.84,6.74a7.92,7.92,0,0,0-.77,2.65.86.86,0,0,0,0,.63,1.53,1.53,0,0,0,.92.48,19.53,19.53,0,0,0,3.42,0v1.78h-6.65C855.11,201.43,853.33,201.45,851.24,201.48Zm12.24-14.74h13.25l-6.22-15.8Z"></path> <path class="cls-1" d="M894,200.18a59.89,59.89,0,0,0,.49-8.14h1.78a19.17,19.17,0,0,0,.43,4.53,4,4,0,0,0,1.45,1.49,11.91,11.91,0,0,0,3.08,1.4,12.29,12.29,0,0,0,3.76.62,9.9,9.9,0,0,0,4.82-1.2,7.66,7.66,0,0,0,3.27-3.23,9,9,0,0,0,1-4.24,7.87,7.87,0,0,0-.53-3,4.78,4.78,0,0,0-1.54-2,6.48,6.48,0,0,0-2.6-1.11l-3.9-.53c-1.93-.25-3.53-.53-4.82-.82a11.17,11.17,0,0,1-4-2,8.29,8.29,0,0,1-2.07-3,9.58,9.58,0,0,1-.82-3.95,11.33,11.33,0,0,1,1.64-5.83,10.78,10.78,0,0,1,4.82-4.24,15.63,15.63,0,0,1,6.89-1.54,22.23,22.23,0,0,1,9.63,2.31,29.33,29.33,0,0,0-.53,3.09V173h-1.78a29.78,29.78,0,0,0,0-4.43,6.81,6.81,0,0,0-1.78-1.69,11.32,11.32,0,0,0-5.64-1.54,7.9,7.9,0,0,0-8.77,6.92,7.74,7.74,0,0,0,0,1.36,6.26,6.26,0,0,0,.82,3.47,5.58,5.58,0,0,0,2.94,2,27.24,27.24,0,0,0,4.82,1c2.18.29,4.16.6,5.92.92a10,10,0,0,1,3.67,1.73,7.75,7.75,0,0,1,1.92,2.65,9,9,0,0,1,.77,3.86,11.89,11.89,0,0,1-4.33,9.1,16.13,16.13,0,0,1-11.23,3.9A21.25,21.25,0,0,1,894,200.18Z"></path> <path class="cls-1" d="M922.11,200.18a61.54,61.54,0,0,0,.48-8.14h1.78a19.18,19.18,0,0,0,.44,4.53,4,4,0,0,0,1.44,1.49,12.13,12.13,0,0,0,3.09,1.4,12.28,12.28,0,0,0,3.75.62,9.87,9.87,0,0,0,4.82-1.2,7.69,7.69,0,0,0,3.28-3.23,9.17,9.17,0,0,0,1-4.24,7.87,7.87,0,0,0-.53-3,4.86,4.86,0,0,0-1.54-2,6.54,6.54,0,0,0-2.6-1.11l-3.91-.53c-1.92-.25-3.53-.53-4.81-.82a11,11,0,0,1-4-2,8.17,8.17,0,0,1-2.07-3,9.58,9.58,0,0,1-.82-3.95,11.24,11.24,0,0,1,1.64-5.83,10.7,10.7,0,0,1,4.81-4.24,15.66,15.66,0,0,1,6.89-1.54,22.23,22.23,0,0,1,9.64,2.31,29.33,29.33,0,0,0-.53,3.09V173h-1.78a29.78,29.78,0,0,0,0-4.43,6.7,6.7,0,0,0-1.79-1.69,11.26,11.26,0,0,0-5.63-1.54,7.9,7.9,0,0,0-8.74,7,8.22,8.22,0,0,0,0,1.31,6.18,6.18,0,0,0,.82,3.47,5.58,5.58,0,0,0,2.94,2,27.14,27.14,0,0,0,4.81,1c2.19.29,4.16.6,5.93.92a10,10,0,0,1,3.66,1.73,7.77,7.77,0,0,1,1.93,2.65,9.13,9.13,0,0,1,.77,3.86,11.9,11.9,0,0,1-4.34,9.1,16.11,16.11,0,0,1-11.22,3.9A21.29,21.29,0,0,1,922.11,200.18Z"></path> <path class="cls-1" d="M947.6,201.48V199.7a14.11,14.11,0,0,0,2.6,0,2.33,2.33,0,0,0,1-.53,8.39,8.39,0,0,0,1.25-2.12l3.42-7.37,6.22-15q1.07-2.46,4.82-10.89h1.68l11.23,26.35q2.75,6.4,3.61,8a2.8,2.8,0,0,0,1.11,1.2,7.67,7.67,0,0,0,2.65.34v1.78q-4.1-.24-5.73-.24l-8.48.24V199.7a30.2,30.2,0,0,0,3.56,0,1.54,1.54,0,0,0,.87-.39.83.83,0,0,0,0-.62,4.32,4.32,0,0,0-.39-1.5l-3.22-8H958.53l-2.84,6.74a7.92,7.92,0,0,0-.77,2.65.86.86,0,0,0,0,.63,1.53,1.53,0,0,0,.91.48,19.65,19.65,0,0,0,3.43,0v1.78h-6.65C951.13,201.43,949.46,201.45,947.6,201.48Zm12.23-14.74h13.25l-6.55-15.8Z"></path> <path class="cls-1" d="M1021.21,196.86l-1,2.45a25.18,25.18,0,0,1-12.43,2.94,26.46,26.46,0,0,1-7.56-1,19.56,19.56,0,0,1-6.12-2.94A18.2,18.2,0,0,1,989.8,194a18.64,18.64,0,0,1-2.51-5.15,20.48,20.48,0,0,1-.86-6.07,18.21,18.21,0,0,1,5.88-14,22.31,22.31,0,0,1,15.94-5.5,34.72,34.72,0,0,1,4.44.29,41.69,41.69,0,0,1,4.81,1.06l3.57.92a17.58,17.58,0,0,0-.87,2.84,39.37,39.37,0,0,0-.34,5.2h-1.63v-3.08a4.86,4.86,0,0,0-2.85-3.81,17.92,17.92,0,0,0-7.56-1.25,20.18,20.18,0,0,0-6.31,1,12.09,12.09,0,0,0-4.82,2.84,15,15,0,0,0-3.23,4.82,19.91,19.91,0,0,0-1.3,7.56,16.67,16.67,0,0,0,15.64,17.64,15.43,15.43,0,0,0,2,0,21.72,21.72,0,0,0,6.65-1,15.31,15.31,0,0,0,4.19-2.12Z"></path> <path class="cls-1" d="M1024.06,165.88V164h15.46v1.68a19,19,0,0,0-3.76.29,1.82,1.82,0,0,0-.91.63,6.74,6.74,0,0,0-.39,2.55v11.13h21.73v-10.5a8.16,8.16,0,0,0-.39-2.94,1.73,1.73,0,0,0-1-.67,18.23,18.23,0,0,0-3.76-.29V164h15.42v1.68a19,19,0,0,0-3.76.29,1.63,1.63,0,0,0-.91.63,6.35,6.35,0,0,0-.44,2.55V195.7a8.4,8.4,0,0,0,.34,3,1.68,1.68,0,0,0,1,.67,18.23,18.23,0,0,0,3.76.29v1.69H1051V199.8a19.39,19.39,0,0,0,3.81-.29,1.8,1.8,0,0,0,.92-.63,6,6,0,0,0,.38-2.55V183h-21.73v12.91a8.14,8.14,0,0,0,.39,2.94,1.75,1.75,0,0,0,1,.68,19.45,19.45,0,0,0,3.81.29v1.68H1024.1V199.8a19,19,0,0,0,3.76-.29,1.79,1.79,0,0,0,1-.63,6.55,6.55,0,0,0,.39-2.55V169.78a8.39,8.39,0,0,0-.39-2.94,1.73,1.73,0,0,0-1-.67A18.61,18.61,0,0,0,1024.06,165.88Z"></path> <path class="cls-1" d="M1068.67,165.88V164H1084v1.68a19,19,0,0,0-3.76.29,1.65,1.65,0,0,0-.92.63,6.18,6.18,0,0,0-.43,2.55v17.11a24.1,24.1,0,0,0,.72,7.42,6.87,6.87,0,0,0,2.32,3,9.42,9.42,0,0,0,3.27,1.45,18.15,18.15,0,0,0,4.58.53,17.61,17.61,0,0,0,5.2-.72,9.32,9.32,0,0,0,3.42-1.74,6.9,6.9,0,0,0,1.69-2.31,12.89,12.89,0,0,0,.82-3.52,54,54,0,0,0,.24-5.68V169.78a8.35,8.35,0,0,0-.34-2.94,1.73,1.73,0,0,0-1-.67,18.23,18.23,0,0,0-3.76-.29V164H1109v1.68a19,19,0,0,0-3.76.29,1.8,1.8,0,0,0-.92.63,6.73,6.73,0,0,0-.38,2.55v16.24a31.07,31.07,0,0,1-.92,9.06,10.27,10.27,0,0,1-3.32,4.53,13,13,0,0,1-4.82,2.26,25.62,25.62,0,0,1-13.35,0,11.05,11.05,0,0,1-4.53-2.5,8.73,8.73,0,0,1-2.11-3.18,24.47,24.47,0,0,1-.73-7.23V169.78a8.38,8.38,0,0,0-.38-2.94,1.79,1.79,0,0,0-1-.67A18.1,18.1,0,0,0,1068.67,165.88Z"></path> <path class="cls-1" d="M1110.25,200.18a61.54,61.54,0,0,0,.48-8.14h1.78a19.71,19.71,0,0,0,.43,4.53,4,4,0,0,0,1.45,1.49,12.07,12.07,0,0,0,3.08,1.4,12.34,12.34,0,0,0,3.76.62,9.9,9.9,0,0,0,4.82-1.2,7.61,7.61,0,0,0,3.27-3.23,9.05,9.05,0,0,0,1-4.24,7.87,7.87,0,0,0-.53-3,4.89,4.89,0,0,0-1.55-2,6.48,6.48,0,0,0-2.6-1.11l-3.9-.53c-1.93-.25-3.53-.53-4.82-.82a11.17,11.17,0,0,1-4-2,8.29,8.29,0,0,1-2.07-3,9.58,9.58,0,0,1-.82-3.95,11.28,11.28,0,0,1,1.59-5.83,10.78,10.78,0,0,1,4.82-4.24,15.72,15.72,0,0,1,6.84-1.54,22.23,22.23,0,0,1,9.64,2.31,27,27,0,0,0-.53,3.09V173h-1.74a27.3,27.3,0,0,0,0-4.43,6.66,6.66,0,0,0-1.78-1.69,11.27,11.27,0,0,0-5.64-1.54,7.9,7.9,0,0,0-8.73,7,7.19,7.19,0,0,0,0,1.31,6.17,6.17,0,0,0,.81,3.47,5.61,5.61,0,0,0,2.94,2,27.42,27.42,0,0,0,4.82,1c2.19.29,4.16.6,5.93.92a10,10,0,0,1,3.66,1.73,7.68,7.68,0,0,1,1.93,2.65,9.13,9.13,0,0,1,.77,3.86,11.93,11.93,0,0,1-4.34,9.1,16.11,16.11,0,0,1-11.22,3.9A21.22,21.22,0,0,1,1110.25,200.18Z"></path> <path class="cls-1" d="M1137.56,201.48V199.8a11.1,11.1,0,0,0,3.62-.44,1,1,0,0,0,.53-.48,9.46,9.46,0,0,0,.38-2.75V169.78a8.38,8.38,0,0,0-.38-2.94,1.79,1.79,0,0,0-1-.67,18.61,18.61,0,0,0-3.8-.29V164h23.7a38.85,38.85,0,0,1,4.82.29,20.79,20.79,0,0,0-.58,2.6,44.21,44.21,0,0,1-.48,5.44h-1.64a27.66,27.66,0,0,0-.34-4.81,11.55,11.55,0,0,0-3.18-.82,48.09,48.09,0,0,0-5.87-.39h-5.93v14.31h5.64a41.46,41.46,0,0,0,5.34-.29,1.58,1.58,0,0,0,1.06-.43,6.4,6.4,0,0,0,.1-1.45v-1.83h1.59v12h-1.59v-1.79a6,6,0,0,0-.34-2.41,1.71,1.71,0,0,0-1.15-.67,34.45,34.45,0,0,0-5.83-.34h-4.82v15.18c2.51.19,5.33.29,8.48.29a38.76,38.76,0,0,0,4.82,0,11.81,11.81,0,0,0,2.6-.72A17.48,17.48,0,0,0,1164,196a14.44,14.44,0,0,0,.43-3.66h1.78a72.1,72.1,0,0,0-.67,8.81,36.11,36.11,0,0,1-5.5.34h-22.45Z"></path> <path class="cls-1" d="M1171,172.86h-1.73q0-6.26-.24-8.67l9,.24h21.73c-.23,2-.37,4.85-.44,8.67h-1.68v-2.5c0-1.54,0-2.41-.29-2.6a1.09,1.09,0,0,0,0-.44h-9.83q-.24,2.5-.24,6.8v22.3a8.18,8.18,0,0,0,.38,3,1.74,1.74,0,0,0,1,.67,17.93,17.93,0,0,0,3.8.29v1.69h-15.27v-2.5a19.51,19.51,0,0,0,3.81-.29,1.58,1.58,0,0,0,.91-.63,6.18,6.18,0,0,0,.43-2.55V166.79h-3.9a44.1,44.1,0,0,0-5.39.24,1.13,1.13,0,0,0-.82.34,9.21,9.21,0,0,0-.53,2.84Z"></path> <path class="cls-1" d="M1202.51,200.18A61.54,61.54,0,0,0,1203,192h1.78a19.18,19.18,0,0,0,.44,4.53,4,4,0,0,0,1.44,1.49,12.22,12.22,0,0,0,3.08,1.4,12.39,12.39,0,0,0,3.76.62,9.9,9.9,0,0,0,4.82-1.2,7.69,7.69,0,0,0,3.28-3.23,9.17,9.17,0,0,0,1-4.24,7.87,7.87,0,0,0-.53-3,5,5,0,0,0-1.54-2,6.58,6.58,0,0,0-2.61-1.11l-3.9-.53c-1.92-.25-3.53-.53-4.82-.82a11,11,0,0,1-4-2,8.2,8.2,0,0,1-2.08-3,9.73,9.73,0,0,1-.81-3.95,11.09,11.09,0,0,1,1.59-5.83,10.7,10.7,0,0,1,4.81-4.24,15.76,15.76,0,0,1,6.84-1.54,22.23,22.23,0,0,1,9.64,2.31,29.33,29.33,0,0,0-.53,3.09V173h-1.78a29.78,29.78,0,0,0,0-4.43,6.7,6.7,0,0,0-1.79-1.69,11.26,11.26,0,0,0-5.63-1.54,7.9,7.9,0,0,0-8.69,7,7.58,7.58,0,0,0,0,1.26,6.18,6.18,0,0,0,.82,3.47,5.58,5.58,0,0,0,2.94,2,27.14,27.14,0,0,0,4.81,1c2.19.29,4.16.6,5.93.92a10,10,0,0,1,3.66,1.73,7.55,7.55,0,0,1,1.93,2.65,9.13,9.13,0,0,1,.77,3.86,11.9,11.9,0,0,1-4.34,9.1,16.11,16.11,0,0,1-11.22,3.9A21.22,21.22,0,0,1,1202.51,200.18Z"></path> <path class="cls-1" d="M1280,199.41a48.35,48.35,0,0,1-6.56,1.93,45.09,45.09,0,0,1-8.52.86,23.54,23.54,0,0,1-10.79-2.36,17.38,17.38,0,0,1-7.33-6.65,19.25,19.25,0,0,1-2.55-10.11,18.21,18.21,0,0,1,6.45-14.46,21.14,21.14,0,0,1,5.55-3.42,28.36,28.36,0,0,1,10.45-1.68,32.3,32.3,0,0,1,6.12.67c2.15.42,4.58,1,7.27,1.78a21.51,21.51,0,0,0-.62,2.61,52.52,52.52,0,0,1-.53,5.3h-1.59v-4.1a3.06,3.06,0,0,0-.34-1.06,6.25,6.25,0,0,0-2.26-1.69,28.43,28.43,0,0,0-4.44-1.35,22,22,0,0,0-4.14-.33,16.76,16.76,0,0,0-8.62,2.12,13.52,13.52,0,0,0-5.54,6.07,20,20,0,0,0-1.88,8.67,19.56,19.56,0,0,0,2.21,9.3,15.73,15.73,0,0,0,5.54,6.21,16.52,16.52,0,0,0,8.63,2.22,22.52,22.52,0,0,0,4.48-.43,14,14,0,0,0,3.66-1.26,17.25,17.25,0,0,0,0-3.37v-3a8.1,8.1,0,0,0,0-2.69,1.83,1.83,0,0,0-1.25-.58,38.85,38.85,0,0,0-4.82-.29v-1.64h13v1.25l-2,1.16a46.71,46.71,0,0,0-.34,5.15A46.77,46.77,0,0,0,1280,199.41Z"></path> <path class="cls-1" d="M1284.41,201.48V199.8a11,11,0,0,0,3.61-.44,1,1,0,0,0,.53-.48,9.14,9.14,0,0,0,.39-2.75V169.78a8.16,8.16,0,0,0-.39-2.94,1.73,1.73,0,0,0-1-.67,18.66,18.66,0,0,0-3.81-.29V164h23.8a38.74,38.74,0,0,1,4.82.29,22.74,22.74,0,0,0-.58,2.6,44.21,44.21,0,0,1-.48,5.44h-1.64a27.66,27.66,0,0,0-.33-4.81,11.73,11.73,0,0,0-3.18-.82,48.12,48.12,0,0,0-5.88-.39h-5.93v14.31H1300a41.61,41.61,0,0,0,5.35-.29,1.62,1.62,0,0,0,1.06-.43,6.21,6.21,0,0,0,.43-2.17V175.9h1.59v12h-1.93v-1.78a6.15,6.15,0,0,0-.33-2.41,1.74,1.74,0,0,0-1.16-.67,33.25,33.25,0,0,0-5.73.19h-4.82v15.18c2.51.19,5.33.29,8.48.29a38.76,38.76,0,0,0,4.82,0,11.31,11.31,0,0,0,2.6-.73,16.88,16.88,0,0,0,.63-2.21c.38-1.55.62-2.75.77-3.52h1.78a72.28,72.28,0,0,0-.68,8.82,37.3,37.3,0,0,1-5.49.33h-15.66Z"></path> <path class="cls-1" d="M1316.21,201.48V199.8a11,11,0,0,0,3.66-.44,1,1,0,0,0,.53-.48,9.14,9.14,0,0,0,.39-2.75V168.82a4.13,4.13,0,0,0,0-1.11,3.69,3.69,0,0,0-1-1.11,2.17,2.17,0,0,0-1.11-.53,20.88,20.88,0,0,0-2.74,0V164h9.63l3.23,4.29,5.35,6.69,7.85,9.64q3.77,4.57,6,7.18c1,1.15,1.79,2.07,2.46,2.74V169.25a9.85,9.85,0,0,0-.34-2.7,1.12,1.12,0,0,0-.57-.48,11.64,11.64,0,0,0-3.62-.39V164h11.71v1.68a11.54,11.54,0,0,0-3.61.39,1,1,0,0,0-.53.53,9.14,9.14,0,0,0-.39,2.75v33.19l-2.7-.77h-.91l-1-1.06-3.23-3.76-3.37-4.33-18.55-22.94v26.45a9.84,9.84,0,0,0,.33,2.7,1.05,1.05,0,0,0,.53.53,11.64,11.64,0,0,0,3.62.39v1.68h-5.11C1320.9,201.43,1318.71,201.45,1316.21,201.48Z"></path> <path class="cls-1" d="M1361.16,201.48V199.8a11,11,0,0,0,3.61-.44,1,1,0,0,0,.53-.48,9.14,9.14,0,0,0,.39-2.75V169.78a8.63,8.63,0,0,0-.39-2.94,1.73,1.73,0,0,0-1-.67,18.71,18.71,0,0,0-3.81-.29V164h23.71a38.58,38.58,0,0,1,4.81.29,22.7,22.7,0,0,0-.57,2.6,43.33,43.33,0,0,1-.49,5.44h-1.49a27.66,27.66,0,0,0-.34-4.81,11.55,11.55,0,0,0-3.18-.82,48.09,48.09,0,0,0-5.87-.39h-5.93v14.31h5.64a41.71,41.71,0,0,0,5.35-.29,1.62,1.62,0,0,0,1.06-.43,6.45,6.45,0,0,0,.43-2.17V175.9h1.59v12h-1.83v-1.78a6.16,6.16,0,0,0-.34-2.41,1.74,1.74,0,0,0-1.16-.67,33.64,33.64,0,0,0-6,.19h-4.82v15.18q3.76.28,8.48.29a38.76,38.76,0,0,0,4.82,0,11.17,11.17,0,0,0,2.6-.73,16.88,16.88,0,0,0,.63-2.21c.38-1.55.63-2.75.77-3.52h1.78a72.27,72.27,0,0,0-.67,8.82,37.38,37.38,0,0,1-5.49.33h-15.66Z"></path> <path class="cls-1" d="M1392.76,165.88V164h17.35a22.11,22.11,0,0,1,7.32.91,7.11,7.11,0,0,1,3.57,2.89,8.11,8.11,0,0,1,1.25,4.39,9,9,0,0,1-1.21,4.38,9.9,9.9,0,0,1-3.42,3.62,17.85,17.85,0,0,1-5.83,2.21l3.14,4.24,6.64,8.72a47.63,47.63,0,0,0,3.33,4l.48.24a7.23,7.23,0,0,0,1.74,0v1.69h-7.28q-1.68-2-5.73-7.66-2.22-3.18-3.95-5.3-2.75-3.52-5.25-6.36l.38-.68h2.07a10.34,10.34,0,0,0,7.23-2.26,7.75,7.75,0,0,0,2.46-6,6.61,6.61,0,0,0-2.12-5.15,9.67,9.67,0,0,0-6.46-1.93,17.67,17.67,0,0,0-5.3.82V195.7a8.18,8.18,0,0,0,.34,3,1.68,1.68,0,0,0,1,.67,19,19,0,0,0,3.76.29v1.69h-15.32V199.8a19,19,0,0,0,3.76-.29,1.79,1.79,0,0,0,1-.63,6.94,6.94,0,0,0,.39-2.55V169.78a8.16,8.16,0,0,0-.39-2.94,1.8,1.8,0,0,0-1-.67A19,19,0,0,0,1392.76,165.88Z"></path> <path class="cls-1" d="M1429.38,201.48V199.7a14.11,14.11,0,0,0,2.6,0,2.43,2.43,0,0,0,1-.53,8.7,8.7,0,0,0,1.25-2.12l3.42-7.37,6.21-15q1.07-2.46,4.82-10.89h1.69l11.22,26.35q2.75,6.4,3.62,8a2.72,2.72,0,0,0,1.1,1.2,7.7,7.7,0,0,0,2.65.34v1.78q-4.1-.24-5.73-.24l-8.48.24V199.7a30.37,30.37,0,0,0,3.57,0,1.55,1.55,0,0,0,.86-.39.83.83,0,0,0,0-.62,4.1,4.1,0,0,0-.38-1.5l-3.23-8h-15.22l-2.85,6.74a7.92,7.92,0,0,0-.77,2.65.86.86,0,0,0,0,.63,1.59,1.59,0,0,0,.92.48,19.53,19.53,0,0,0,3.42,0v1.78h-6.65C1432.91,201.43,1431.24,201.45,1429.38,201.48Zm12.24-14.74h13.25l-6.56-15.8Z"></path> <path class="cls-1" d="M1472.74,201.48v-1.35a8.41,8.41,0,0,0,2.07-1.2,1.27,1.27,0,0,0,.39-.58,15,15,0,0,0,.29-3.13V169.78a8.63,8.63,0,0,0-.39-2.94,1.73,1.73,0,0,0-1-.67,18.71,18.71,0,0,0-3.81-.29V164h15.47v1.68a19.45,19.45,0,0,0-3.81.29,1.8,1.8,0,0,0-.92.63,6.73,6.73,0,0,0-.38,2.55v29.59h5.93a39.14,39.14,0,0,0,10.35-1,11.63,11.63,0,0,0,.63-1.83l1.06-4.34h1.78c-.38,2.61-.75,5.67-1.11,9.21l-1.68.24H1477.9C1476.13,201.21,1474.41,201.35,1472.74,201.48Z"></path> <path class="cls-1" d="M1516.92,165.88V164h15.47v1.68a19,19,0,0,0-3.76.29,1.8,1.8,0,0,0-.92.63,6.73,6.73,0,0,0-.38,2.55v11.13h21.73v-10.5a8.63,8.63,0,0,0-.39-2.94,1.8,1.8,0,0,0-1-.67,18.23,18.23,0,0,0-3.76-.29V164h15.42v1.68a19,19,0,0,0-3.76.29,1.69,1.69,0,0,0-.92.63,6.18,6.18,0,0,0-.43,2.55V195.7a8.18,8.18,0,0,0,.34,3,1.68,1.68,0,0,0,1,.67,18.23,18.23,0,0,0,3.76.29v1.69H1543.9V199.8a19.45,19.45,0,0,0,3.81-.29,1.82,1.82,0,0,0,.91-.63,6.15,6.15,0,0,0,.39-2.55V183h-21.73v12.91a8.35,8.35,0,0,0,.38,2.94,1.81,1.81,0,0,0,1,.68,19.35,19.35,0,0,0,3.8.29v1.68H1517V199.8a19,19,0,0,0,3.76-.29,1.79,1.79,0,0,0,1-.63,6.94,6.94,0,0,0,.39-2.55V169.78a8.63,8.63,0,0,0-.39-2.94,1.8,1.8,0,0,0-1-.67A18.71,18.71,0,0,0,1516.92,165.88Z"></path> <path class="cls-1" d="M1560.43,183.27a22.66,22.66,0,0,1,1.25-7.66,16.37,16.37,0,0,1,4.14-6.31,19.65,19.65,0,0,1,6.55-4.24,22.83,22.83,0,0,1,8.34-1.45,24.07,24.07,0,0,1,7.85,1.21,17,17,0,0,1,5.83,3.23,16.42,16.42,0,0,1,3.57,4.38,17,17,0,0,1,1.59,4.19,21.83,21.83,0,0,1,.57,5.16,19.91,19.91,0,0,1-5.92,14.74,20.51,20.51,0,0,1-15,5.88,21.78,21.78,0,0,1-7.71-1.35,15.71,15.71,0,0,1-6-4,17.46,17.46,0,0,1-3.76-6.41A22.81,22.81,0,0,1,1560.43,183.27Zm5.44-2.17a26.85,26.85,0,0,0,.48,5.06,23.32,23.32,0,0,0,1.25,4.43,16.52,16.52,0,0,0,3.28,5.3,12.71,12.71,0,0,0,4.53,3.13,14.75,14.75,0,0,0,5.54,1,13,13,0,0,0,7.42-2.32,12.4,12.4,0,0,0,4.82-5.83,22.64,22.64,0,0,0,1.54-8.62,25.82,25.82,0,0,0-1.11-7.71,16,16,0,0,0-1.83-3.9,13.48,13.48,0,0,0-2.7-3,13.1,13.1,0,0,0-4-2.21,15.94,15.94,0,0,0-5.39-.87,14.1,14.1,0,0,0-7.32,1.88,11.6,11.6,0,0,0-4.82,5.4,19.17,19.17,0,0,0-1.64,8Z"></path> <path class="cls-1" d="M1603.16,200.18a61.54,61.54,0,0,0,.48-8.14h1.78a19.18,19.18,0,0,0,.44,4.53,4,4,0,0,0,1.44,1.49,12.13,12.13,0,0,0,3.09,1.4,12.28,12.28,0,0,0,3.75.62,9.87,9.87,0,0,0,4.82-1.2,7.69,7.69,0,0,0,3.28-3.23,9.17,9.17,0,0,0,1-4.24,7.87,7.87,0,0,0-.53-3,4.86,4.86,0,0,0-1.54-2,6.6,6.6,0,0,0-2.6-1.11l-3.91-.53c-1.92-.25-3.53-.53-4.81-.82a11,11,0,0,1-4-2,8.05,8.05,0,0,1-2.07-3A9.58,9.58,0,0,1,1603,175a11.28,11.28,0,0,1,1.59-5.83,10.81,10.81,0,0,1,4.81-4.24,15.77,15.77,0,0,1,6.85-1.54,22.23,22.23,0,0,1,9.63,2.31,29.33,29.33,0,0,0-.53,3.09V173h-1.78a29.78,29.78,0,0,0,0-4.43,6.81,6.81,0,0,0-1.78-1.69,11.32,11.32,0,0,0-5.64-1.54,7.9,7.9,0,0,0-8.47,7.29,8.18,8.18,0,0,0,0,1,6.18,6.18,0,0,0,.82,3.47,5.58,5.58,0,0,0,2.94,2,27.07,27.07,0,0,0,4.82,1q3.27.44,5.92.92a10,10,0,0,1,3.66,1.73,7.55,7.55,0,0,1,1.93,2.65,9,9,0,0,1,.77,3.86,11.89,11.89,0,0,1-4.33,9.1,16.13,16.13,0,0,1-11.23,3.9A21.3,21.3,0,0,1,1603.16,200.18Z"></path> <path class="cls-1" d="M1630,165.88V164h18.12a19.13,19.13,0,0,1,6.55.91,7.7,7.7,0,0,1,3.71,2.94,8.09,8.09,0,0,1,1.35,4.82,10.67,10.67,0,0,1-4.34,8.67,13.75,13.75,0,0,1-4.38,1.93,12.28,12.28,0,0,1-3.56.48,18.93,18.93,0,0,1-3.67-.48l-.53-1.93a16.84,16.84,0,0,0,3.67.53,7.81,7.81,0,0,0,3.75-1,6.67,6.67,0,0,0,2.75-2.89,9.23,9.23,0,0,0,1-4.29,8.67,8.67,0,0,0-1-4.09,6.27,6.27,0,0,0-2.89-2.8,10.94,10.94,0,0,0-4.82-1,18.31,18.31,0,0,0-5.35.86v28.91a8.44,8.44,0,0,0,.39,3,1.68,1.68,0,0,0,1,.67,18,18,0,0,0,3.81.29v1.69h-15.37V199.8a19,19,0,0,0,3.76-.29,1.79,1.79,0,0,0,1-.63,6.94,6.94,0,0,0,.39-2.55V169.78a8.63,8.63,0,0,0-.39-2.94,1.73,1.73,0,0,0-1-.67A19,19,0,0,0,1630,165.88Z"></path> <path class="cls-1" d="M1676.63,199.8v1.68h-15.42V199.8a19,19,0,0,0,3.76-.29,1.78,1.78,0,0,0,1-.63,6.73,6.73,0,0,0,.38-2.55V169.78a8.38,8.38,0,0,0-.38-2.94,1.79,1.79,0,0,0-1-.67,18.61,18.61,0,0,0-3.8-.29V164h15.46v1.68a19,19,0,0,0-3.76.29,1.82,1.82,0,0,0-.91.63,6.74,6.74,0,0,0-.39,2.55V195.7a8.44,8.44,0,0,0,.39,3,1.68,1.68,0,0,0,1,.67A19.28,19.28,0,0,0,1676.63,199.8Z"></path> <path class="cls-1" d="M1681.3,172.86h-1.63q0-6.26-.24-8.67l9,.24h21.73c-.23,2-.37,4.85-.44,8.67H1708v-2.5c0-1.54,0-2.41-.29-2.6a1.09,1.09,0,0,0,0-.44h-9.83q-.24,2.5-.24,6.8v22.3a8.18,8.18,0,0,0,.38,3,1.74,1.74,0,0,0,1,.67,17.93,17.93,0,0,0,3.8.29v1.69h-15.27v-2.5a19.51,19.51,0,0,0,3.81-.29,1.58,1.58,0,0,0,.91-.63,6.18,6.18,0,0,0,.43-2.55V166.79h-3.9a44.1,44.1,0,0,0-5.39.24,1.13,1.13,0,0,0-.82.34,9.21,9.21,0,0,0-.53,2.84Z"></path> <path class="cls-1" d="M1708.81,201.48V199.7a14.22,14.22,0,0,0,2.61,0,2.33,2.33,0,0,0,1-.53,8.39,8.39,0,0,0,1.25-2.12l3.42-7.37,6.56-14.79q1-2.46,4.81-10.89h1.69l11.22,26.35c1.84,4.27,3,7,3.62,8.05a2.63,2.63,0,0,0,1.11,1.2,7.64,7.64,0,0,0,2.65.34v1.78c-2.73-.16-4.65-.24-5.74-.24l-8.48.24v-2a30.37,30.37,0,0,0,3.57,0,1.61,1.61,0,0,0,.87-.39.94.94,0,0,0,0-.62,4.32,4.32,0,0,0-.39-1.5l-3.23-8h-15.22l-2.84,6.74a7.94,7.94,0,0,0-.78,2.65,1,1,0,0,0,0,.63,1.59,1.59,0,0,0,.92.48,19.53,19.53,0,0,0,3.42,0v1.78h-6.65C1712.68,201.43,1710.9,201.45,1708.81,201.48Zm12.24-14.74h13.25l-6.55-15.8Z"></path> <path class="cls-1" d="M1752.17,201.48v-1.35a8.29,8.29,0,0,0,2.08-1.2,1.25,1.25,0,0,0,.38-.58,14.31,14.31,0,0,0,.29-3.13V169.78a8.38,8.38,0,0,0-.38-2.94,1.79,1.79,0,0,0-1-.67,18.61,18.61,0,0,0-3.8-.29V164h15.46v1.68a19.51,19.51,0,0,0-3.81.29,1.82,1.82,0,0,0-.91.63,6.74,6.74,0,0,0-.39,2.55v29.59h5.93a39.25,39.25,0,0,0,10.36-1,12.71,12.71,0,0,0,.62-1.83l1.06-4.34h1.79c-.39,2.61-.76,5.67-1.11,9.21l-1.69.24h-19.75C1755.63,201.21,1753.91,201.35,1752.17,201.48Z"></path> <path class="cls-1" d="M22.57,81.18V77.66q10.56.39,16.67.39H48l8.34-.44h2.41a36,36,0,0,1,13.1,1.93,15.52,15.52,0,0,1,7.47,6.17,17.69,17.69,0,0,1,2.65,9.63A23,23,0,0,1,79.71,105a22,22,0,0,1-6.46,8.14,27.49,27.49,0,0,1-8.86,4.82,23.6,23.6,0,0,1-7.13,1,37.37,37.37,0,0,1-7.23-.77l-1.11-4.09a32.27,32.27,0,0,0,7.38,1.1,14.81,14.81,0,0,0,7.46-2,13.6,13.6,0,0,0,5.5-6.12,20.45,20.45,0,0,0,2-9,19.07,19.07,0,0,0-1.93-8.62,12.86,12.86,0,0,0-5.83-5.83,20.65,20.65,0,0,0-9.63-2,34.55,34.55,0,0,0-10.7,1.88q-.48,5.88-.48,18.36v42.3a18.66,18.66,0,0,0,.77,6.26,3.5,3.5,0,0,0,1.93,1.45,35.49,35.49,0,0,0,7.56.58V156q-9.63-.37-14.45-.38l-15.9.62v-3.56a35.12,35.12,0,0,0,7.52-.58,3.46,3.46,0,0,0,1.88-1.3,14.93,14.93,0,0,0,.77-5.35q0-1.16.24-15.7V89.42a18.46,18.46,0,0,0-.77-6.22,3.57,3.57,0,0,0-1.93-1.44A35.6,35.6,0,0,0,22.57,81.18Z"></path> <path class="cls-1" d="M72,156.19v-3.75a25.91,25.91,0,0,0,4.82-.39,4.22,4.22,0,0,0,1.83-1.16A17.79,17.79,0,0,0,81,146.46q.92-2,6.65-15.56l12.77-31.17q2.11-5.16,9-22.89h3.27l21.83,55.46q5.3,13.48,7.08,16.91a5.61,5.61,0,0,0,2.12,2.55,14.12,14.12,0,0,0,5.2.68v3.75q-8-.52-11.17-.57l-16.48.57v-3.75a52.65,52.65,0,0,0,7.32-.39,3,3,0,0,0,1.64-.82,2,2,0,0,0,.44-1.3,9.6,9.6,0,0,0-.73-3.13l-6.16-17H94l-5.54,14.45a17.61,17.61,0,0,0-1.49,5.25,1.93,1.93,0,0,0,.43,1.26,3.06,3.06,0,0,0,1.74,1,35.16,35.16,0,0,0,6.64.48v3.76q-8.62-.48-13-.48T72,156.19Zm23.8-31h25.73L108.76,91.73Z"></path> <path class="cls-1" d="M147.5,81.18V77.66h25.63l9.63-.29a41.64,41.64,0,0,1,14.46,1.88,14.49,14.49,0,0,1,7.08,6.12,17.73,17.73,0,0,1,2.51,9.2,19.9,19.9,0,0,1-2.37,9.25,20.39,20.39,0,0,1-6.84,7.62,34.49,34.49,0,0,1-11.66,4.81q1.31,1.94,6.17,8.63l13.2,18.31q5.64,7.69,6.6,8.57a3.09,3.09,0,0,0,1,.58,13,13,0,0,0,3.46.29v3.52q-3.94-.39-6.93-.39c-2,0-4.52.13-7.57.39q-3.42-4.1-11.46-16.24-4.49-6.71-7.9-11.18-5.5-7.27-10.56-13.3l.53-1.63h4.15A20.06,20.06,0,0,0,191.05,109a16.65,16.65,0,0,0,5-12.43,14.14,14.14,0,0,0-4.24-10.79,18.09,18.09,0,0,0-12.86-4,33.82,33.82,0,0,0-10.6,1.73,42.61,42.61,0,0,1-.34,5.59q0,.78-.38,16.09V129.7q0,7.52.24,14.45a18.41,18.41,0,0,0,.72,6.26,3.57,3.57,0,0,0,2,1.45,35.63,35.63,0,0,0,7.51.58V156q-7.47-.37-13.68-.38-4.81,0-16.91.38v-3.32a35.12,35.12,0,0,0,7.52-.58,3.4,3.4,0,0,0,1.87-1.3,14.67,14.67,0,0,0,.63-5.35q0-1.16.24-15.7V89.42a18.46,18.46,0,0,0-.77-6.22A3.53,3.53,0,0,0,155,81.76,35.63,35.63,0,0,0,147.5,81.18Z"></path> <path class="cls-1" d="M214.9,96h-3q0-13.2-.48-18.31l16.77.53h12.33l15.42-.33q8.76,0,12.77-.44-.59,6.22-.77,18.31h-3.09l-.38-5.3q-.39-4.82-.53-5.49a1.84,1.84,0,0,0-.44-.72,1.82,1.82,0,0,0-.82-.44c-.45,0-2.05-.14-4.81-.43a42.6,42.6,0,0,0-6.65-.29h-6.07q-.48,5.3-.48,14.45v46.78a19.52,19.52,0,0,0,.72,6.27,3.29,3.29,0,0,0,1.83,1.44,30.61,30.61,0,0,0,7.08.58v3.52q-8.76-.43-13.2-.44l-15.27.44v-3.47a31.17,31.17,0,0,0,7.08-.58,3,3,0,0,0,1.69-1.3,14.5,14.5,0,0,0,.77-5.35q0-1.16.24-15.7V92.41l-.24-9.35H228a71.51,71.51,0,0,0-10,.53,2,2,0,0,0-1.54.72,22,22,0,0,0-1,6Z"></path> <path class="cls-1" d="M273.1,156.19v-3.56a16.92,16.92,0,0,0,6.55-.87,1.89,1.89,0,0,0,1-1.06,22.08,22.08,0,0,0,.68-5.78V87.35a9.32,9.32,0,0,0,0-2.36,7.62,7.62,0,0,0-1.69-2.36,3.73,3.73,0,0,0-1.68-1.11,31.12,31.12,0,0,0-4.82-.29V77.66h17.29l5.55,9.25L305.57,101l14,19.66q6.75,9.63,10.84,15.13,2.61,3.66,4.39,5.73V101.37q0-5.4-.34-12.67a24.69,24.69,0,0,0-.63-5.69,2.07,2.07,0,0,0-1-.91,17.45,17.45,0,0,0-6.46-.82V77.66h20.91v3.52a17.9,17.9,0,0,0-6.5.82,1.93,1.93,0,0,0-1,1.11,22.07,22.07,0,0,0-.67,5.78v69.18l-4.82-1.64-1.11-.28a2,2,0,0,1-.53-.34,21.57,21.57,0,0,1-1.83-2.22q-3.9-5.25-5.73-8l-6.07-9.1L285.72,89.18v42.88q0,5.49.34,12.91a23.61,23.61,0,0,0,.63,5.68,2.11,2.11,0,0,0,1,1.11,17.63,17.63,0,0,0,6.45.82v3.52q-4.14-.39-9.15-.39T273.1,156.19Z"></path> <path class="cls-1" d="M356.59,156.19v-3.56a16.25,16.25,0,0,0,6.41-.87,1.89,1.89,0,0,0,.92-1.06,23.12,23.12,0,0,0,.72-6V89.66a20.42,20.42,0,0,0-.68-6.22A3.23,3.23,0,0,0,362.23,82a27.9,27.9,0,0,0-6.7-.58V77.66l13.25.34,14-.29h14.45a59.93,59.93,0,0,1,8.68.63,51,51,0,0,0-1,5.49q0,.48-.81,11.51h-2.7A71.18,71.18,0,0,0,400.77,85a18.55,18.55,0,0,0-5.64-1.73,71,71,0,0,0-10.4-.77h-4.82l-5.64.43c0,4.08-.09,7.9-.29,11.47v18.64q5.11.34,9.93.34a62.07,62.07,0,0,0,9.63-.63,2.58,2.58,0,0,0,1.93-.86,15.16,15.16,0,0,0,.72-4.53l.29-3.86h2.8V129h-3.62v-3.76a14.92,14.92,0,0,0-.62-5.1,3,3,0,0,0-2-1.4,51,51,0,0,0-10.26-.68q-3.12,0-8.81.29v32q6.69.63,15,.63a54.6,54.6,0,0,0,8.38-.43,17,17,0,0,0,4.82-1.5,39.88,39.88,0,0,0,1.11-4.81q1-4.83,1.35-7.42h3.13a178.61,178.61,0,0,0-1.21,18.5,55.4,55.4,0,0,1-9.63.72l-27.7-.39Z"></path> <path class="cls-1" d="M414.41,81.18V77.66h24.28l9-.29a37.48,37.48,0,0,1,13.78,1.88,13.87,13.87,0,0,1,6.69,6.12,18.41,18.41,0,0,1,2.51,9.35,20.93,20.93,0,0,1-2.22,9.25,20,20,0,0,1-6.45,7.61,31.73,31.73,0,0,1-11,4.82q1.24,1.92,5.82,8.62l12.48,18.31q5.36,7.71,6.22,8.58a2.85,2.85,0,0,0,.87.57,11.59,11.59,0,0,0,3.27.29v3.52a65,65,0,0,0-6.55-.39c-1.93,0-4.3.13-7.13.39q-3.23-4.14-10.84-16.19-4.24-6.69-7.47-11.18-5.21-7.41-9.92-13.44l.48-1.64h3.9A18.28,18.28,0,0,0,455.74,109a17.22,17.22,0,0,0,4.82-12.58,14.46,14.46,0,0,0-4.38-10.65,16.47,16.47,0,0,0-12.14-4,30.05,30.05,0,0,0-10,1.73,51.61,51.61,0,0,1-.28,5.59q0,.77-.34,16.09v24.52q0,7.51.24,14.46a19.46,19.46,0,0,0,.67,6.26,3.37,3.37,0,0,0,1.83,1.45,31.25,31.25,0,0,0,7.09.57V156q-7-.39-12.92-.38-4.82,0-16,.38v-3.37a31.75,31.75,0,0,0,7.08-.58,3.2,3.2,0,0,0,1.78-1.3,15.66,15.66,0,0,0,.73-5.35q0-1.16.24-15.7V89.42a19.49,19.49,0,0,0-.72-6.22,3.42,3.42,0,0,0-1.84-1.44A31.38,31.38,0,0,0,414.41,81.18Z"></path> <path class="cls-1" d="M478.92,153.45a143.25,143.25,0,0,0,1-17.2h3.32a46.41,46.41,0,0,0,.82,9.63,8.09,8.09,0,0,0,2.75,3.14A21.56,21.56,0,0,0,492.6,152a20.88,20.88,0,0,0,7.08,1.3,17.23,17.23,0,0,0,9.2-2.55A15.41,15.41,0,0,0,515,144a21.15,21.15,0,0,0,1.93-9,18.59,18.59,0,0,0-1-6.32A9.65,9.65,0,0,0,513,124.4a11.68,11.68,0,0,0-4.82-2.32l-7.32-1.1a93.85,93.85,0,0,1-9.35-1.74A20.14,20.14,0,0,1,484,115.1a17.54,17.54,0,0,1-4-6.27,22.78,22.78,0,0,1-1.49-8.33,26.09,26.09,0,0,1,3-12.29,21.28,21.28,0,0,1,9-9,26.91,26.91,0,0,1,12.91-3.18,40.83,40.83,0,0,1,18.4,4.87c-.45,2.31-.78,4.48-1,6.5s-.37,5-.43,8.87h-3.33a68.79,68.79,0,0,0-.43-9.3,13.32,13.32,0,0,0-3.37-3.61,19.7,19.7,0,0,0-10.65-3.23A14.43,14.43,0,0,0,491.2,85a18.5,18.5,0,0,0-4.29,12.67,14.56,14.56,0,0,0,1.55,7.27A10.53,10.53,0,0,0,494,109a46.06,46.06,0,0,0,8.91,2q6.17.91,11.13,2a18.35,18.35,0,0,1,6.89,3.66,16.14,16.14,0,0,1,3.66,5.59,21.11,21.11,0,0,1,1.45,8.09,26.37,26.37,0,0,1-8.14,19.27,28.45,28.45,0,0,1-21.11,8.19A36.53,36.53,0,0,1,478.92,153.45Z"></path> <g class="cls-2"> <g class="cls-2"> <path class="cls-1" d="M32.54,181.63v-1.09l5.13.1,4.73-.1v1.09a12.29,12.29,0,0,0-2.42.17,1.15,1.15,0,0,0-.6.4,4.67,4.67,0,0,0-.25,1.65c0,.22,0,1.82-.06,4.81V191q3.3.12,8,.12,3.64,0,5.82-.12v-2.35c0-1.54,0-3-.06-4.51a5.49,5.49,0,0,0-.25-1.91,1.19,1.19,0,0,0-.62-.44,12.29,12.29,0,0,0-2.42-.17v-1.09c2.4.07,4.05.1,5,.1.33,0,2,0,4.89-.1v1.09a12.33,12.33,0,0,0-2.41.17,1,1,0,0,0-.59.4,4,4,0,0,0-.27,1.64c0,.23,0,1.83-.07,4.81v7.84c0,1.53,0,3,.07,4.48a5.2,5.2,0,0,0,.23,1.91,1.08,1.08,0,0,0,.63.45,11.23,11.23,0,0,0,2.41.18v1.1c-2.16-.09-3.92-.14-5.3-.14s-3,.05-4.54.14v-1.1a11.2,11.2,0,0,0,2.42-.18,1.06,1.06,0,0,0,.6-.4,4,4,0,0,0,.25-1.64c0-.23,0-1.83.08-4.8v-3.85q-4.69-.1-7.12-.11-2.66,0-6.74.11v3.85c0,1.53,0,3,0,4.48a5.34,5.34,0,0,0,.24,1.91,1.06,1.06,0,0,0,.62.45,11.2,11.2,0,0,0,2.42.18v1.1c-1.51-.1-3.06-.15-4.66-.15s-3.48,0-5.2.15v-1.1a11.35,11.35,0,0,0,2.42-.18,1.06,1.06,0,0,0,.6-.4,4.33,4.33,0,0,0,.25-1.64c0-.23,0-1.84.07-4.8v-7.84c0-1.53,0-3-.05-4.5a5.6,5.6,0,0,0-.24-1.91,1.23,1.23,0,0,0-.62-.44A12.52,12.52,0,0,0,32.54,181.63Z"></path> </g> <g class="cls-2"> <path class="cls-1" d="M89.57,204.61v-1.07a6.79,6.79,0,0,0,2.32-.27.58.58,0,0,0,.33-.32,5.91,5.91,0,0,0,.24-1.78c.07-1.49.1-2.78.1-3.86v-8.65c0-1.54,0-3,0-4.51a5.6,5.6,0,0,0-.24-1.91,1.23,1.23,0,0,0-.62-.44,12.52,12.52,0,0,0-2.43-.17v-1.09l4.78.1,5.07-.08c2.42,0,4.18-.05,5.28-.05a25.87,25.87,0,0,1,3.13.18,12.28,12.28,0,0,0-.36,1.68c0,.1-.13,1.28-.31,3.52h-1a18.11,18.11,0,0,0-.22-3.15,7.56,7.56,0,0,0-2-.52,29.55,29.55,0,0,0-3.76-.24c-.26,0-.86,0-1.79.07s-1.59.08-2,.12c0,1.25-.07,2.43-.1,3.52l-.06,5.73c1.3.06,2.51.1,3.6.1a25.51,25.51,0,0,0,3.41-.19,1,1,0,0,0,.68-.27,4.09,4.09,0,0,0,.27-1.39l.1-1.18h1v.32l-.09,3.52.09,3.95h-1.18l0-1.15a3.85,3.85,0,0,0-.22-1.56,1.08,1.08,0,0,0-.73-.43,22.34,22.34,0,0,0-3.71-.2q-1.12,0-3.18.09c-.06,1.12-.09,2.8-.09,5,0,2.08,0,3.67.09,4.76,1.61.12,3.41.18,5.41.18a23.83,23.83,0,0,0,3-.13,7.19,7.19,0,0,0,1.67-.46,10.8,10.8,0,0,0,.41-1.42c.24-1,.4-1.77.48-2.27h1.11a46.64,46.64,0,0,0-.44,5.67,23.23,23.23,0,0,1-3.5.22l-10-.14Z"></path> </g> <g class="cls-2"> <path class="cls-1" d="M137.67,204.61v-1.15a8.88,8.88,0,0,0,1.65-.11,1.43,1.43,0,0,0,.61-.36,5.38,5.38,0,0,0,.79-1.36c.2-.42.93-2,2.18-4.76l4.19-9.55q.69-1.57,2.94-7h1.09l7.16,17q1.74,4.14,2.31,5.19a1.81,1.81,0,0,0,.7.78,5,5,0,0,0,1.7.2v1.15c-1.74-.11-3-.17-3.65-.17l-5.4.17v-1.15a17.07,17.07,0,0,0,2.28-.12,1.09,1.09,0,0,0,.54-.24.58.58,0,0,0,.14-.4,2.71,2.71,0,0,0-.23-1l-2.06-5.18H144.9l-1.83,4.35a5.3,5.3,0,0,0-.49,1.71.56.56,0,0,0,.14.39,1,1,0,0,0,.57.31,12.37,12.37,0,0,0,2.18.15v1.15c-1.89-.1-3.31-.15-4.24-.15C140.14,204.46,139,204.51,137.67,204.61Zm7.8-9.5h8.47l-4.2-10.22Z"></path> </g> <g class="cls-2"> <path class="cls-1" d="M193.4,204.61v-.88a5.53,5.53,0,0,0,1.32-.78.86.86,0,0,0,.24-.39,9.85,9.85,0,0,0,.2-2q.06-2.33.06-2.76v-9.11c0-1.54,0-3-.05-4.51a5.34,5.34,0,0,0-.24-1.91,1.19,1.19,0,0,0-.62-.44,12.29,12.29,0,0,0-2.42-.17v-1.09c2.73.09,4.41.14,5.06.14s2.32-.05,4.81-.14v1.09a12.38,12.38,0,0,0-2.42.17,1.12,1.12,0,0,0-.59.4,4.37,4.37,0,0,0-.26,1.65c0,.22,0,1.82-.06,4.81V200c0,1.18,0,2.15.06,2.89,1.28.08,2.54.12,3.79.12a24.44,24.44,0,0,0,6.63-.61,8.48,8.48,0,0,0,.38-1.17l.67-2.81h1.13q-.37,2.52-.72,5.93a10.37,10.37,0,0,1-1.09.17c-.58,0-1.48.05-2.69.05l-9.92-.14C195.59,204.47,194.5,204.52,193.4,204.61Z"></path> </g> <g class="cls-2"> <path class="cls-1" d="M239.61,186.15h-1c0-2.7-.07-4.57-.17-5.61,1.22.05,3.13.1,5.73.17,2.12,0,3.52.07,4.23.07s2.52,0,5.28-.1c2-.05,3.46-.09,4.38-.14q-.21,1.91-.27,5.61h-1.07l-.14-1.63c-.09-1-.15-1.54-.18-1.67a.6.6,0,0,0-.14-.29.81.81,0,0,0-.28-.14c-.16,0-.72-.08-1.68-.13s-1.72-.09-2.28-.09h-2a42.53,42.53,0,0,0-.17,4.39v9.91c0,1.53,0,3,0,4.49a5.34,5.34,0,0,0,.24,1.91,1.18,1.18,0,0,0,.62.45,12.9,12.9,0,0,0,2.42.18v1.08c-2-.09-3.5-.14-4.51-.14-.43,0-2.18.05-5.23.14v-1.08a13,13,0,0,0,2.43-.18,1,1,0,0,0,.59-.4,3.87,3.87,0,0,0,.27-1.64c0-.24,0-1.84.07-4.81v-9.88c0-.47,0-1,0-1.56l-.1-2.86h-2.5a27.72,27.72,0,0,0-3.43.17.74.74,0,0,0-.52.22,5.78,5.78,0,0,0-.34,1.85Z"></path> </g> <g class="cls-2"> <path class="cls-1" d="M287.68,181.63v-1.09l5.13.1,4.72-.1v1.09a12.38,12.38,0,0,0-2.42.17,1.12,1.12,0,0,0-.59.4,4.37,4.37,0,0,0-.26,1.65c0,.22,0,1.82-.06,4.81V191q3.3.12,8.05.12,3.63,0,5.82-.12v-2.35c0-1.54,0-3-.07-4.51a5.89,5.89,0,0,0-.24-1.91,1.21,1.21,0,0,0-.63-.44,12.29,12.29,0,0,0-2.42-.17v-1.09c2.41.07,4.05.1,5,.1.33,0,2,0,4.89-.1v1.09a12.42,12.42,0,0,0-2.41.17,1,1,0,0,0-.59.4,4.24,4.24,0,0,0-.27,1.64c0,.23,0,1.83-.06,4.81v7.84c0,1.53,0,3,.06,4.48a5.45,5.45,0,0,0,.23,1.91,1.08,1.08,0,0,0,.63.45,11.3,11.3,0,0,0,2.41.18v1.1c-2.15-.09-3.92-.14-5.29-.14s-3,.05-4.55.14v-1.1a11.2,11.2,0,0,0,2.42-.18,1.06,1.06,0,0,0,.6-.4,4,4,0,0,0,.25-1.64q0-.34.09-4.8v-3.85c-3.14-.07-5.51-.11-7.13-.11s-4,0-6.74.11v3.85c0,1.53,0,3,.05,4.48a5.34,5.34,0,0,0,.24,1.91,1.09,1.09,0,0,0,.62.45,11.27,11.27,0,0,0,2.42.18v1.1c-1.5-.1-3.06-.15-4.66-.15s-3.47,0-5.19.15v-1.1a11.3,11.3,0,0,0,2.41-.18,1.06,1.06,0,0,0,.6-.4,4.13,4.13,0,0,0,.25-1.64c0-.23,0-1.84.07-4.8v-7.84c0-1.53,0-3-.05-4.5a5.34,5.34,0,0,0-.24-1.91,1.23,1.23,0,0,0-.62-.44A12.38,12.38,0,0,0,287.68,181.63Z"></path> </g> <g class="cls-2"> <path class="cls-1" d="M365.81,201.61l-.65,1.58a17.83,17.83,0,0,1-3.84,1.45,18.11,18.11,0,0,1-4.09.45,16.88,16.88,0,0,1-4.83-.67,12.62,12.62,0,0,1-3.9-1.88,11.89,11.89,0,0,1-2.73-2.76,12.1,12.1,0,0,1-1.61-3.31,13.17,13.17,0,0,1-.55-3.92,11.82,11.82,0,0,1,3.73-9q3.74-3.56,10.19-3.55a20.47,20.47,0,0,1,2.82.18,25.28,25.28,0,0,1,3.17.68c1.25.33,2,.52,2.29.58a11.16,11.16,0,0,0-.55,1.83,26.15,26.15,0,0,0-.37,3.34h-1.06v-2a3,3,0,0,0-1.82-2.48,11.36,11.36,0,0,0-4.84-.81,12.66,12.66,0,0,0-4,.62,7.8,7.8,0,0,0-2.93,1.85,9.83,9.83,0,0,0-2.07,3.2,12.85,12.85,0,0,0-.82,4.87,11.18,11.18,0,0,0,3.1,8.25,11,11,0,0,0,8.2,3.13,13.58,13.58,0,0,0,4.26-.64,10.36,10.36,0,0,0,2.67-1.39Z"></path> </g> <g class="cls-2"> <path class="cls-1" d="M395.28,204.61v-1.15a8.93,8.93,0,0,0,1.66-.11,1.46,1.46,0,0,0,.6-.36,5.63,5.63,0,0,0,.8-1.36c.2-.42.92-2,2.18-4.76l4.19-9.55c.46-1,1.43-3.39,2.93-7h1.09l7.16,17c1.16,2.76,1.94,4.49,2.32,5.19a1.8,1.8,0,0,0,.69.78,5,5,0,0,0,1.7.2v1.15c-1.74-.11-3-.17-3.65-.17l-5.4.17v-1.15a17.07,17.07,0,0,0,2.28-.12,1,1,0,0,0,.54-.24.59.59,0,0,0,.15-.4,2.76,2.76,0,0,0-.24-1l-2.06-5.18h-9.71l-1.83,4.35a5.21,5.21,0,0,0-.48,1.71.56.56,0,0,0,.13.39,1,1,0,0,0,.57.31,12.37,12.37,0,0,0,2.18.15v1.15c-1.89-.1-3.3-.15-4.24-.15S396.57,204.51,395.28,204.61Zm7.8-9.5h8.47l-4.19-10.22Z"></path> </g> <g class="cls-2"> <path class="cls-1" d="M450.3,181.63v-1.09l2,.05,3.22.09c.64,0,1.63,0,3-.07,1.75-.07,2.76-.1,3-.1a14,14,0,0,1,4.67.57,4.57,4.57,0,0,1,2.27,1.88,5.19,5.19,0,0,1,.8,2.82,5.93,5.93,0,0,1-.75,2.82,6.28,6.28,0,0,1-2.19,2.34,11.35,11.35,0,0,1-3.73,1.44q.42.6,2,2.64l4.22,5.63c1.21,1.57,1.92,2.44,2.12,2.62a.92.92,0,0,0,.3.17,4.19,4.19,0,0,0,1.11.09v1.08c-.85-.07-1.6-.1-2.23-.1s-1.47,0-2.44.1q-1.08-1.28-3.65-5-1.42-2.06-2.52-3.42-1.75-2.28-3.35-4.12l.17-.51c.58,0,1,.05,1.32.05a6.59,6.59,0,0,0,4.63-1.45,5,5,0,0,0,1.58-3.85,4.26,4.26,0,0,0-1.36-3.31,6,6,0,0,0-4.11-1.23,11.22,11.22,0,0,0-3.39.53c0,.61-.08,1.18-.1,1.71,0,.16-.05,1.8-.11,4.93v7.52c0,1.53,0,3,.06,4.49a5.2,5.2,0,0,0,.23,1.91,1.17,1.17,0,0,0,.63.45,12.85,12.85,0,0,0,2.41.18v1.08c-1.59-.09-3-.14-4.37-.14-1.08,0-2.88.05-5.42.14v-1.08a12.85,12.85,0,0,0,2.41-.18,1.14,1.14,0,0,0,.61-.4,4.37,4.37,0,0,0,.25-1.64c0-.24,0-1.84.07-4.81v-7.84c0-1.54,0-3-.05-4.51a5.49,5.49,0,0,0-.25-1.91,1.19,1.19,0,0,0-.62-.44A12.29,12.29,0,0,0,450.3,181.63Z"></path> </g> <g class="cls-2"> <path class="cls-1" d="M501.87,204.61v-1.07a6.77,6.77,0,0,0,2.31-.27.63.63,0,0,0,.34-.32,6,6,0,0,0,.23-1.78c.07-1.49.1-2.78.1-3.86v-8.65c0-1.54,0-3-.05-4.51a5.34,5.34,0,0,0-.24-1.91,1.23,1.23,0,0,0-.62-.44,12.38,12.38,0,0,0-2.42-.17v-1.09l4.77.1,5.07-.08c2.42,0,4.19-.05,5.28-.05a26,26,0,0,1,3.14.18,12.49,12.49,0,0,0-.37,1.68c0,.1-.13,1.28-.3,3.52h-1.06a18.11,18.11,0,0,0-.22-3.15,7.46,7.46,0,0,0-2-.52,29.51,29.51,0,0,0-3.75-.24c-.27,0-.87,0-1.8.07s-1.59.08-2,.12c-.05,1.25-.08,2.43-.1,3.52l-.07,5.73c1.31.06,2.51.1,3.6.1a25.51,25.51,0,0,0,3.41-.19,1,1,0,0,0,.69-.27,3.94,3.94,0,0,0,.26-1.39l.1-1.18h1v.32l-.08,3.52.08,3.95H516l0-1.15a4,4,0,0,0-.23-1.56,1.08,1.08,0,0,0-.73-.43,22.28,22.28,0,0,0-3.7-.2c-.75,0-1.82,0-3.19.09-.06,1.12-.08,2.8-.08,5,0,2.08,0,3.67.08,4.76,1.61.12,3.41.18,5.42.18a23.54,23.54,0,0,0,3-.13,7.41,7.41,0,0,0,1.68-.46,11,11,0,0,0,.4-1.42c.25-1,.41-1.77.49-2.27h1.1a46.35,46.35,0,0,0-.43,5.67,23.28,23.28,0,0,1-3.51.22l-10-.14Z"></path> </g> </g> <path class="cls-1" d="M535.72,146.41a12.07,12.07,0,0,1,1.06-4.81,12.36,12.36,0,0,1,2.55-3.86,13.07,13.07,0,0,1,3.57-2.65,12.19,12.19,0,0,1,9.59-.67,12.66,12.66,0,0,1,3.42,1.73,13,13,0,0,1,2.69,2.65,11.93,11.93,0,0,1,1.83,3.52,12.4,12.4,0,0,1,.68,4,11.74,11.74,0,0,1-1.06,4.81A12.83,12.83,0,0,1,557.4,155a13.42,13.42,0,0,1-3.47,2.46,12.53,12.53,0,0,1-5.44,1.25,12.69,12.69,0,0,1-6.31-1.69,11.55,11.55,0,0,1-4.82-4.82A12.77,12.77,0,0,1,535.72,146.41Zm1.54,0a11.63,11.63,0,0,0,1.4,5.54,10.19,10.19,0,0,0,4.09,4.24,11,11,0,0,0,5.54,1.5,10.75,10.75,0,0,0,4.82-1.11,11.18,11.18,0,0,0,5.35-5.64,10.86,10.86,0,0,0,.91-4.53,11.33,11.33,0,0,0-.57-3.56,10.74,10.74,0,0,0-1.45-2.94A12,12,0,0,0,555,137.5a10.83,10.83,0,0,0-6.5-2.17,11.09,11.09,0,0,0-5.54,1.5,10.16,10.16,0,0,0-4.1,4.24A11.85,11.85,0,0,0,537.26,146.41Zm5.06,6.41v-.53h1.25a.58.58,0,0,0,.29-.29,3.14,3.14,0,0,0,0-1.06v-9.63a3.45,3.45,0,0,0,0-1.11.59.59,0,0,0-.38-.29h-1.16v-.77h5.83a9,9,0,0,1,3.18.43,3.09,3.09,0,0,1,1.59,1.25,3.45,3.45,0,0,1,.48,1.74,3.25,3.25,0,0,1-.87,2.17,5.13,5.13,0,0,1-2.94,1.35,3.13,3.13,0,0,1,1,.43,3.82,3.82,0,0,1,.91,1,16.21,16.21,0,0,1,1.06,2,12.84,12.84,0,0,0,1,1.88,1.78,1.78,0,0,0,.62.63h.77v.53h-1.54a3.61,3.61,0,0,1-1.39,0,1.65,1.65,0,0,1-.78-.67,22.53,22.53,0,0,1-1.39-3,7.19,7.19,0,0,0-.82-1.64,2,2,0,0,0-.72-.62,3.08,3.08,0,0,0-1.21,0h-.77v4.33a3.44,3.44,0,0,0,0,1.11.64.64,0,0,0,.39.29h1.06v.53h-5.4Zm3.9-7H547a4.87,4.87,0,0,0,3.13-.82,2.8,2.8,0,0,0,.92-2.22,2.92,2.92,0,0,0-.82-2.21,3.64,3.64,0,0,0-2.5-.63h-.58a1,1,0,0,0-.63,0v.29a3.17,3.17,0,0,0,0,.87v4.81Z"></path> </svg> 