<?xml version="1.0" encoding="utf-8"?>
<!-- Generator: Adobe Illustrator 18.0.0, SVG Export Plug-In . SVG Version: 6.00 Build 0)  -->
<!DOCTYPE svg PUBLIC "-//W3C//DTD SVG 1.1//EN" "http://www.w3.org/Graphics/SVG/1.1/DTD/svg11.dtd">
<svg version="1.1" id="Layer_1" xmlns="http://www.w3.org/2000/svg" xmlns:xlink="http://www.w3.org/1999/xlink" x="0px" y="0px"
	 viewBox="110.2 259.3 554.2 123.7" enable-background="new 110.2 259.3 554.2 123.7" xml:space="preserve">
<g>
	<g>
		<path fill="#FFFFFF" d="M436.5,319h3.7v26.8h-3.7V319z"/>
		<path fill="#FFFFFF" d="M447,319h5.3l11.9,21.6l0,0V319h3.7v26.8h-4.8L451,323.6l0,0v22h-3.7V319H447z"/>
		<path fill="#FFFFFF" d="M475,319h5.3l11.9,21.6l0,0V319h3.7v26.8H491l-12.1-22l0,0v22h-3.7V319H475z"/>
		<path fill="#FFFFFF" d="M514.1,318.3c8.1,0,13,5.9,13,13.9c0,8.1-4.6,13.9-13,13.9c-8.1,0-13-5.7-13-13.9
			C501.4,324.3,506,318.3,514.1,318.3z M514.1,342.7c6.2,0,8.8-5.1,8.8-10.6s-2.9-10.6-8.8-10.6s-8.8,5.1-8.8,10.6
			C505.3,337.7,508,342.7,514.1,342.7z"/>
		<path fill="#FFFFFF" d="M544.3,345.8h-4.8L529.3,319h4.4l8.4,23.5l0,0l8.6-23.5h4L544.3,345.8z"/>
		<path fill="#FFFFFF" d="M565.2,319h4l11.4,26.8h-4.2l-2.6-6.8h-13.2l-2.6,6.8h-4L565.2,319z M567.2,322.5l-5.3,13.2h10.8
			L567.2,322.5z"/>
		<path fill="#FFFFFF" d="M587,322.3h-8.4V319h20.5v3.3h-8.4v23.5H587V322.3z"/>
		<path fill="#FFFFFF" d="M603,319h3.7v26.8H603V319z"/>
		<path fill="#FFFFFF" d="M625.2,318.3c8.1,0,13,5.9,13,13.9c0,8.1-4.6,13.9-13,13.9c-8.1,0-13-5.7-13-13.9
			C612.3,324.3,617.1,318.3,625.2,318.3z M625.2,342.7c6.2,0,8.8-5.1,8.8-10.6s-2.9-10.6-8.8-10.6c-5.9,0-8.8,5.1-8.8,10.6
			C616.4,337.7,619.1,342.7,625.2,342.7z"/>
		<path fill="#FFFFFF" d="M643.5,319h5.3l11.9,21.6l0,0V319h3.7v26.8h-4.8l-12.1-22l0,0v22h-3.7V319H643.5z"/>
	</g>
	<g>
		<polygon fill="#FFFFFF" points="156.4,339 183,339 182.6,338.6 157.1,338.3 		"/>
		<g>
			<path fill="#FFFFFF" d="M380.2,325.8c1.1,0,2.2,0.2,3.3,0.9c1.1,0.4,2,1.3,2.4,2.4c0.7,1.1,0.9,2.2,0.9,3.3s-0.2,2.2-0.9,3.3
				c-0.7,1.1-1.3,1.8-2.4,2.4s-2.2,0.9-3.3,0.9c-1.1,0-2.2-0.2-3.3-0.9c-1.1-0.7-1.8-1.3-2.4-2.4s-0.9-2.2-0.9-3.3s0.2-2.2,0.9-3.3
				c0.7-1.1,1.3-1.8,2.4-2.4C378,326.2,379.1,325.8,380.2,325.8z M380.2,326.9c-0.9,0-2,0.2-2.6,0.7c-0.9,0.4-1.5,1.1-2,2
				c-0.4,0.9-0.9,1.8-0.9,2.9s0.2,2,0.7,2.9c0.4,0.9,1.1,1.5,2,2c0.9,0.4,1.8,0.7,2.9,0.7c1.1,0,2-0.2,2.9-0.7s1.5-1.1,2-2
				c0.4-0.9,0.7-1.8,0.7-2.9s-0.2-2-0.9-2.9c-0.4-0.9-1.1-1.5-2.2-2C382.1,327.1,381.3,326.9,380.2,326.9z M377.3,335.7v-0.4h0.2
				c0.2,0,0.4,0,0.4,0s0.2,0,0.2-0.2c0,0,0-0.2,0-0.4v-5.1c0-0.2,0-0.4,0-0.4s0-0.2-0.2-0.2c0,0-0.2,0-0.4,0h-0.2v-0.4h3.3
				c0.7,0,1.1,0,1.5,0.2c0.4,0.2,0.7,0.4,0.7,0.7c0.2,0.2,0.2,0.7,0.2,0.9s0,0.4-0.2,0.7c-0.2,0.2-0.2,0.4-0.7,0.7
				c-0.2,0.2-0.7,0.4-1.1,0.4c0.2,0,0.4,0.2,0.4,0.2s0.2,0.2,0.4,0.4c0.2,0.2,0.2,0.2,0.2,0.4c0,0,0.2,0.4,0.4,0.7
				c0.2,0.4,0.4,0.7,0.4,0.9c0.2,0.2,0.2,0.4,0.4,0.4c0,0,0.2,0,0.4,0v0.4h-1.1c-0.2,0-0.4,0-0.7-0.2c-0.2-0.2-0.4-0.7-0.9-1.5
				c-0.2-0.4-0.4-0.9-0.4-1.1c-0.2-0.2-0.2-0.2-0.4-0.4c-0.2,0-0.2-0.2-0.7-0.2c0,0-0.2,0-0.4,0v2.2c0,0.2,0,0.4,0,0.4
				s0,0.2,0.2,0.2c0,0,0.2,0,0.7,0v0.4h-2.9V335.7z M379.3,332c0.2,0,0.4,0,0.4,0c0.7,0,1.3-0.2,1.5-0.4c0.2-0.2,0.4-0.7,0.4-1.1
				c0-0.4-0.2-0.9-0.4-1.1c-0.2-0.2-0.7-0.4-1.1-0.4c0,0-0.2,0-0.4,0c-0.2,0-0.2,0-0.2,0s0,0,0,0.2v0.2v2.6H379.3z"/>
		</g>
		<g>
			<path fill="#FFFFFF" d="M309.3,274.8"/>
			<path fill="#FFFFFF" d="M243.3,262.4c20.2,0.2,37.2,2,63.6,10.6c1.1,0.4,1.3-0.2,0.4-0.7c-27.1-9.9-41.6-13-64-13
				c-22.4-0.2-36.7,3.1-64,13c-0.9,0.4-0.9,0.9,0.4,0.7C205.9,264.4,223.1,262.4,243.3,262.4z"/>
			<path fill="#FFFFFF" d="M156.9,323.2h-14.1l7-16.9L156.9,323.2z M135.5,338.8c1.5,0,4,0,7,0.2v-2c-1.8,0-2.9,0-3.7-0.2
				c-0.4,0-0.7-0.2-0.9-0.4s-0.2-0.4-0.2-0.7c0-0.7,0.2-1.5,0.9-2.9l3.1-7.3H158l3.5,8.6c0.2,0.7,0.4,1.1,0.4,1.5
				c0,0.2,0,0.4-0.2,0.7c-0.2,0.2-0.7,0.4-1.1,0.4s-1.8,0.2-3.7,0.2v2l9-0.2c1.1,0,3.3,0,6.2,0.2v-2c-1.5,0-2.4-0.2-2.9-0.4
				c-0.4-0.2-0.9-0.7-1.1-1.3c-0.7-1.1-2-4-4-8.6l-11.9-28.2h-1.8c-2.4,5.9-4.2,9.9-4.8,11.7l-7,15.8c-2.2,4.6-3.3,7.3-3.7,7.9
				c-0.7,1.3-1.1,2-1.3,2.2c-0.2,0.2-0.7,0.4-1.1,0.7c-0.4,0-1.3,0.2-2.9,0.2v2C131.8,338.8,133.8,338.8,135.5,338.8z"/>
			<path fill="#FFFFFF" d="M167.2,300.9v-1.8c0.7,0,1.8,0,3.3,0l5.3,0.2c1.1,0,2.6,0,5.1,0c2.9-0.2,4.6-0.2,5.1-0.2
				c3.5,0,6.2,0.2,7.7,0.9s2.9,1.8,3.7,3.1c0.9,1.5,1.3,3.1,1.3,4.6c0,1.5-0.4,3.1-1.3,4.6c-0.9,1.5-2,2.9-3.7,4
				c-1.5,1.1-3.7,1.8-6.2,2.4c0.4,0.7,1.5,2.2,3.3,4.4l7.3,9.2c2,2.6,3.1,4,3.5,4.4c0.2,0.2,0.4,0.2,0.4,0.2c0.2,0,0.9,0.2,1.8,0.2
				v1.8c-1.3,0-2.6-0.2-3.7-0.2s-2.4,0-4,0.2c-1.3-1.3-3.3-4.2-6.2-8.1c-1.5-2.2-3.1-4.2-4.2-5.7c-2-2.4-3.7-4.8-5.5-6.8l0.2-0.9
				c0.9,0,1.8,0,2.2,0c3.3,0,5.9-0.9,7.7-2.4c1.8-1.5,2.6-3.7,2.6-6.4c0-2.2-0.7-4.2-2.2-5.5c-1.5-1.3-3.7-2-6.8-2
				c-2,0-3.7,0.2-5.7,0.9c0,1.1-0.2,2-0.2,2.9c0,0.2,0,3.1-0.2,8.1v12.5c0,2.6,0,5.1,0.2,7.5c0,1.8,0.2,2.9,0.4,3.1
				c0.2,0.2,0.7,0.7,1.1,0.7c0.4,0.2,1.8,0.2,4,0.2v2c-2.6-0.2-5.1-0.2-7.3-0.2c-1.8,0-4.8,0-9,0.2v-1.8c2.2,0,3.5-0.2,4-0.2
				c0.4-0.2,0.9-0.4,1.1-0.7c0.2-0.4,0.4-1.3,0.4-2.6c0-0.4,0-3.1,0-7.9v-13.2c0-2.6,0-5.1,0-7.5c0-1.8-0.2-2.9-0.4-3.1
				c-0.2-0.4-0.7-0.7-1.1-0.7C170.7,301.2,169.4,300.9,167.2,300.9z"/>
			<path fill="#FFFFFF" d="M204.2,305.6l-0.2,2.9h-1.8c0-4.4-0.2-7.5-0.2-9.2c2,0,5.3,0.2,9.7,0.2c3.5,0,5.9,0,7,0
				c1.3,0,4.2,0,8.8-0.2c3.3,0,5.7-0.2,7.3-0.2c-0.2,2-0.4,5.3-0.4,9.2h-1.8l-0.2-2.6c-0.2-1.5-0.2-2.6-0.2-2.9s-0.2-0.4-0.2-0.4
				s-0.2-0.2-0.4-0.2s-1.1-0.2-2.9-0.2c-1.5,0-2.9-0.2-3.7-0.2h-3.5c-0.2,1.8-0.2,4.2-0.2,7.3v16.5c0,2.6,0,5.1,0,7.5
				c0,1.8,0.2,2.9,0.4,3.1c0.2,0.2,0.7,0.7,1.1,0.7c0.4,0.2,1.8,0.2,4,0.2v2.2c-3.3-0.2-5.9-0.2-7.5-0.2c-0.7,0-3.7,0-8.8,0.2v-1.8
				c2.2,0,3.5-0.2,4-0.2c0.4-0.2,0.9-0.4,0.9-0.7c0.2-0.4,0.4-1.3,0.4-2.6c0-0.4,0-3.1,0.2-7.9v-16.3c0-0.9,0-1.8,0-2.6l-0.2-5.1
				h-4.2c-2.4,0-4.4,0-5.7,0.2c-0.4,0-0.7,0.2-0.9,0.4C204.6,302.9,204.4,303.8,204.2,305.6z"/>
			<path fill="#FFFFFF" d="M233.6,339v-1.8c1.8,0,2.9-0.2,3.5-0.4c0.2-0.2,0.4-0.2,0.4-0.4c0.2-0.4,0.2-1.3,0.4-2.9
				c0.2-2.4,0.2-4.6,0.2-6.4V304c0-0.7,0-1.1,0-1.1c-0.2-0.4-0.4-0.7-0.9-1.1c-0.2-0.2-0.7-0.4-1.1-0.7c-0.4,0-1.3-0.2-2.6-0.2v-1.8
				c2.9,0,4.6,0.2,5.3,0.2c1.3,0,2.4,0,3.7-0.2c1.5,2,2.4,3.5,3.3,4.6l5.3,7l7.7,10.1c2.4,3.3,4.4,5.7,5.9,7.7
				c0.9,1.3,1.8,2.2,2.4,2.9v-20.5c0-1.8,0-4-0.2-6.4c0-1.5-0.2-2.4-0.2-2.9c-0.2-0.2-0.2-0.4-0.4-0.4c-0.7-0.2-1.8-0.4-3.5-0.4
				v-1.8c2,0,4,0.2,6.2,0.2c2,0,3.7,0,5.3-0.2v1.8c-1.8,0-2.9,0.2-3.5,0.4c-0.2,0-0.4,0.2-0.4,0.4c-0.2,0.4-0.2,1.3-0.4,2.9
				c0,2.4-0.2,4.6-0.2,6.4v13.4c0,2.6,0,7.9,0.2,15.2l-2.6-0.9l-1.1,0.2c0,0-0.2,0-0.2-0.2c-0.2,0-0.4-0.4-0.9-1.1
				c-1.3-1.8-2.4-3.1-3.1-4l-3.3-4.6l-18-23.8v21.6c0,1.8,0,4,0.2,6.4c0,1.5,0.2,2.4,0.4,2.9c0.2,0.2,0.2,0.4,0.4,0.7
				c0.7,0.2,1.8,0.4,3.5,0.4v1.8c-1.5-0.2-3.1-0.2-4.8-0.2C238,338.8,236.1,338.8,233.6,339z"/>
			<path fill="#FFFFFF" d="M274.3,339v-1.8c2,0,3.3-0.2,4-0.4c0.2-0.2,0.4-0.2,0.7-0.4c0.2-0.4,0.2-1.3,0.4-2.9
				c0.2-2.4,0.2-4.6,0.2-6.4v-14.5c0-2.6,0-5.1,0-7.5c0-1.8-0.2-2.9-0.4-3.1c-0.2-0.4-0.7-0.7-1.1-0.7c-0.4-0.2-1.8-0.2-4-0.2v-1.8
				l7.9,0.2l8.4-0.2c4,0,7,0,8.8,0s3.5,0,5.3,0.2c-0.2,1.1-0.4,2-0.7,2.9c0,0.2-0.2,2.2-0.4,5.9h-2c0-2,0-3.7-0.4-5.3
				c-1.1-0.4-2.2-0.7-3.3-0.9c-2.2-0.2-4.2-0.4-6.4-0.4c-0.4,0-1.5,0-3.1,0.2c-1.5,0-2.6,0.2-3.3,0.2c0,2-0.2,4-0.2,5.9l-0.2,9.5
				c2.2,0,4.2,0.2,5.9,0.2c2.2,0,4.2,0,5.7-0.2c0.7,0,0.9-0.2,1.1-0.4c0.2-0.2,0.2-1.1,0.4-2.2l0.2-2h1.8v0.4l-0.2,5.7l0.2,6.6h-2
				v-2c0-1.3-0.2-2.2-0.4-2.6c-0.2-0.4-0.7-0.7-1.3-0.7c-1.1-0.2-3.1-0.4-6.2-0.4c-1.3,0-3.1,0-5.3,0.2c0,2-0.2,4.6-0.2,8.4
				c0,3.5,0,6.2,0.2,7.9c2.6,0.2,5.7,0.2,9,0.2c2.4,0,4,0,5.1-0.2s2-0.4,2.9-0.7c0.2-0.7,0.4-1.3,0.7-2.4c0.4-1.8,0.7-2.9,0.9-3.7
				h1.8c-0.4,3.7-0.7,6.8-0.7,9.5c-1.5,0.2-3.5,0.4-5.9,0.4l-16.7-0.2C281.6,338.8,279.2,338.8,274.3,339z"/>
			<path fill="#FFFFFF" d="M307.6,300.9v-1.8c0.7,0,1.8,0,3.3,0l5.3,0.2c1.1,0,2.6,0,5.1,0c2.9-0.2,4.6-0.2,5.1-0.2
				c3.5,0,6.2,0.2,7.9,0.9c1.5,0.7,2.9,1.8,3.7,3.1c0.9,1.5,1.3,3.1,1.3,4.6c0,1.5-0.4,3.1-1.3,4.6c-0.9,1.5-2,2.9-3.7,4
				c-1.5,1.1-3.7,1.8-6.2,2.4c0.4,0.7,1.5,2.2,3.3,4.4l7,9.2c2,2.6,3.3,4,3.5,4.4c0.2,0.2,0.4,0.2,0.4,0.2c0.2,0,0.9,0.2,1.8,0.2
				v1.8c-1.3,0-2.6-0.2-3.7-0.2c-1.1,0-2.4,0-4,0.2c-1.3-1.3-3.3-4.2-6.2-8.1c-1.5-2.2-3.1-4.2-4.2-5.7c-2-2.4-3.7-4.8-5.5-6.8
				l0.2-0.9c0.9,0,1.8,0,2.2,0c3.3,0,5.9-0.9,7.7-2.4c1.8-1.5,2.6-3.7,2.6-6.4c0-2.2-0.7-4.2-2.2-5.5c-1.5-1.3-3.7-2-6.8-2
				c-2,0-3.7,0.2-5.7,0.9c0,1.1-0.2,2-0.2,2.9c0,0.2,0,3.1-0.2,8.1v12.5c0,2.6,0,5.1,0.2,7.5c0,1.8,0.2,2.9,0.4,3.1
				c0.2,0.2,0.7,0.7,1.1,0.7c0.4,0.2,1.8,0.2,4,0.2v2c-2.6-0.2-5.1-0.2-7.3-0.2c-1.8,0-4.8,0-9,0.2v-1.8c2.2,0,3.5-0.2,4-0.2
				c0.4-0.2,0.9-0.4,1.1-0.7c0.2-0.4,0.4-1.3,0.4-2.6c0-0.4,0-3.1,0-7.9v-13.2c0-2.6,0-5.1,0-7.5c0-1.8-0.2-2.9-0.4-3.1
				c-0.2-0.4-0.7-0.7-1.1-0.7C311.1,301.2,309.8,300.9,307.6,300.9z"/>
			<path fill="#FFFFFF" d="M243.3,277.4c26.6-0.4,62.5,3.1,91.5,16.5c0.9,0.4,1.3-0.2,0.4-0.7c-30.6-15-69.5-19.8-92-19.1
				c-22.4-0.7-61.4,4.2-92,19.1c-0.9,0.4-0.7,1.1,0.4,0.7C180.8,280.7,216.7,277,243.3,277.4z"/>
			<path fill="#FFFFFF" d="M243.3,270.1c20,0,53.5,2,79.2,13.6c1.1,0.7,1.3-0.2,0.4-0.7c-26.2-12.3-57.2-16.3-79.4-16.1
				c-22.4-0.2-53.2,3.7-79.6,16.1c-0.9,0.4-0.7,1.1,0.4,0.7C189.9,272.1,223.3,270.1,243.3,270.1z"/>
			<g>
				<path fill="#FFFFFF" d="M115.7,305.6c0-4.4,0-4.8-5.5-5.1v-1.8c3.3,0.2,6.6,0.2,10.1,0.2c3.3,0,6.6,0,10.1-0.2
					c5.5,0,11.9,2.4,11.9,8.8c0,7.3-6.2,11.9-13.4,12.1c-1.5,0-2.9-0.2-3.7-0.4l-0.7-2.2c0.9,0.2,2.2,0.4,3.7,0.4
					c4.6,0.2,8.4-3.3,8.4-8.4c0-5.9-3.5-8.8-9.2-8.8c-2,0-3.7,0.4-5.7,0.9c-0.7,1.3-0.7,2.6-0.7,4.4V332c0,4.4,0,4.8,5.5,5.1v1.8
					c-2.6-0.2-5.5-0.2-8.1-0.2c-2.9,0-5.5,0.2-8.1,0.2V337c5.5-0.2,5.5-0.7,5.5-5.1V305.6z"/>
			</g>
			<g>
				<path fill="#FFFFFF" d="M366.7,308.6c0-2.2,0-3.7-0.7-4.6c-1.5-2.4-5.7-3.3-8.4-3.3c-4.6,0-8.8,3.3-8.8,8.1
					c0,12.3,22.9,2.2,22.9,16.5c0,9.9-8.8,14.5-17.4,14.5c-3.5,0-6.6-0.9-9.9-2.2c0.2-2.2,0.4-4.8,0.4-7.3v-1.5h2v2.6
					c0,1.3,0.2,2.4,0.9,3.1c2.2,2,5.9,2.6,8.8,2.6c5.1,0,10.1-3.1,10.1-8.8c0-13.9-22.7-0.9-22.7-17.6c0-7.9,6.6-12.8,14.1-12.8
					c4,0,7.5,1.3,11,2.6c-0.2,0.9-0.4,1.8-0.4,2.6c-0.2,1.8-0.4,3.3-0.4,5.1h-1.5V308.6z"/>
			</g>
			<g>
				<path fill="#FFFFFF" d="M127.2,363.4c0,1.5,0,1.8,1.8,1.8v0.7c-0.9,0-1.8,0-2.9,0c-0.9,0-1.8,0-2.6,0v-0.7
					c1.8,0,1.8-0.2,1.8-1.8V359h-7.7v4.4c0,1.5,0,1.8,1.8,1.8v0.7c-0.9,0-1.8,0-2.9,0c-0.9,0-1.8,0-2.6,0v-0.7
					c1.8,0,1.8-0.2,1.8-1.8v-8.8c0-1.5,0-1.5-1.8-1.8v-0.7c0.9,0,1.8,0,2.6,0c0.9,0,1.8,0,2.9,0v0.7c-1.8,0-1.8,0.2-1.8,1.8v3.5h7.7
					v-3.5c0-1.5,0-1.5-1.8-1.8v-0.7c0.9,0,1.8,0,2.6,0s1.8,0,2.9,0v0.7c-1.8,0-1.8,0.2-1.8,1.8V363.4z"/>
				<path fill="#FFFFFF" d="M147,363c0,0.7,0,1.1,0,1.8c0.7,0,1.8,0,2.6,0c1.1,0,2.2,0,3.1-0.4c0-0.2,0.2-0.7,0.2-0.9l0.2-1.1h0.9
					c0,0.4-0.2,0.9-0.2,1.5v1.5c-0.7,0-2,0-3.3,0c-1.1,0-2.2,0-3.5,0c-1.1,0-2.4,0-3.5,0v-0.7c0.9,0,1.8-0.4,1.8-1.8v-8.8
					c0-1.5,0-1.5-1.8-1.8v-0.2c1.1,0,2.4,0,3.5,0c1.1,0,2.4,0,3.5,0c1.3,0,2.6,0,3.3,0c-0.2,0.7-0.2,1.3-0.2,2c0,0.4,0,0.7,0,1.1
					h-0.7c0-0.7-0.2-1.3-0.2-2c-0.9-0.2-2-0.2-2.9-0.2s-1.8,0-2.4,0c0,0.4,0,0.9,0,1.5v3.5c4.2,0,4.4,0.2,4.6-1.5h0.7v4.4H152
					c0-2.2-0.2-2-4.6-2v4H147z"/>
				<path fill="#FFFFFF" d="M180.6,363.2c0.2,0.7,0.4,1.3,0.9,1.8c0.2,0.2,0.7,0.2,1.1,0.2v0.7c-0.9,0-1.8,0-2.6,0
					c-0.9,0-1.8,0-2.6,0v-0.7c0.4,0,1.1,0,1.5-0.2c0.2-0.2,0.2-0.4,0.2-0.9l-1.1-2.9h-5.5c-0.2,0.4-1.3,2.9-1.3,3.3
					c0,0.7,0.9,0.4,1.5,0.7v0.7c-0.7,0-1.5,0-2.2,0c-0.7,0-1.5,0-2.2,0v-0.7c1.1-0.2,1.3,0,1.8-1.1l0.9-2l2.6-5.9
					c0.7-1.3,1.3-2.9,1.8-4.2h0.7L180.6,363.2z M177.5,360.3l-2.4-5.7l-2.4,5.7H177.5z"/>
				<path fill="#FFFFFF" d="M200.6,364.1v0.7c0.9,0,1.8,0,2.6,0c1.1,0,2.2,0,3.1-0.4c0-0.2,0.2-0.4,0.2-0.7l0.4-1.5h0.7
					c0,0.2-0.2,0.9-0.2,1.3l-0.2,2c-0.7,0-1.8,0-3.1,0c-1.1,0-2.2,0-3.3,0c-1.1,0-2.2,0-3.3,0v-0.7c0.9-0.2,1.1-0.7,1.1-2.2v-8.4
					c0-1.5,0-1.5-1.8-1.8v-0.2c0.9,0,1.8,0,2.6,0c0.9,0,1.8,0,2.9,0v0.7c-1.8,0-1.8,0.2-1.8,1.8L200.6,364.1L200.6,364.1z"/>
				<path fill="#FFFFFF" d="M225.3,355.1c0-0.7,0-1.3,0-2h-3.1c-0.4,0-0.7,0-0.7,0.7c0,0.4-0.2,0.9-0.2,1.5h-0.7c0-0.4,0-0.7,0-1.1
					c0-0.7,0-1.3,0-2c1.8,0,3.7,0,5.5,0c2,0,3.7,0,5.5,0c0,0.7,0,1.3,0,2c0,0.4,0,0.7,0,1.1H231c0-0.4-0.2-1.1-0.2-1.5
					s-0.2-0.7-0.7-0.7H227c0,0.7,0,1.1,0,2v8.4c0,1.5,0,1.8,1.8,1.8v0.7c-0.9,0-1.8,0-2.9,0c-0.9,0-1.8,0-2.6,0v-0.7
					c1.8,0,1.8-0.2,1.8-1.8v-8.4H225.3z"/>
				<path fill="#FFFFFF" d="M259.2,363.4c0,1.5,0,1.8,1.8,1.8v0.7c-0.9,0-1.8,0-2.9,0c-0.9,0-1.8,0-2.6,0v-0.7
					c1.8,0,1.8-0.2,1.8-1.8V359h-7.7v4.4c0,1.5,0,1.8,1.8,1.8v0.7c-0.9,0-1.8,0-2.9,0c-0.9,0-1.8,0-2.6,0v-0.7
					c1.8,0,1.8-0.2,1.8-1.8v-8.8c0-1.5,0-1.5-1.8-1.8v-0.7c0.9,0,1.8,0,2.6,0c0.9,0,1.8,0,2.9,0v0.7c-1.8,0-1.8,0.2-1.8,1.8v3.5h7.7
					v-3.5c0-1.5,0-1.5-1.8-1.8v-0.7c0.9,0,1.8,0,2.6,0s1.8,0,2.9,0v0.7c-1.8,0-1.8,0.2-1.8,1.8V363.4z"/>
				<path fill="#FFFFFF" d="M287.5,365c-1.3,0.7-3.1,1.1-4.4,1.1c-4.2,0-7.9-2.4-7.9-7c0-4.4,3.5-7,7.5-7c1.8,0,3.5,0.4,5.1,0.9
					c-0.2,0.9-0.2,2-0.4,2.9h-0.7c0-1.3,0.2-1.8-0.9-2.2c-0.9-0.4-1.8-0.7-3.1-0.7c-3.3,0-5.5,2.2-5.5,5.7c0,4,2.4,6.6,6.4,6.6
					c1.3,0,2.9-0.4,4-1.3l0.2,0.2L287.5,365z"/>
				<path fill="#FFFFFF" d="M314.6,363.2c0.2,0.7,0.4,1.3,1.1,1.8c0.2,0.2,0.7,0.2,1.1,0.2v0.7c-0.9,0-1.8,0-2.6,0
					c-0.9,0-1.8,0-2.6,0v-0.7c0.4,0,1.1,0,1.5-0.2c0.2-0.2,0.2-0.4,0.2-0.9l-1.1-2.9h-5.5c-0.2,0.4-1.3,2.9-1.3,3.3
					c0,0.7,0.9,0.4,1.5,0.7v0.7c-0.7,0-1.5,0-2.2,0s-1.5,0-2.2,0v-0.7c1.1-0.2,1.3,0,1.8-1.1l0.9-2l2.6-5.9c0.7-1.3,1.3-2.9,1.8-4.2
					h0.7L314.6,363.2z M311.5,360.3l-2.4-5.7l-2.4,5.7H311.5z"/>
				<path fill="#FFFFFF" d="M332.9,354.6c0-1.5,0-1.5-1.8-1.8v-0.7c1.1,0,2.2,0,3.3,0c1.1,0,2.2,0,3.3,0c2.6-0.2,4,1.3,4,2.9
					c0,2.2-2,3.3-3.7,3.7l4.4,5.7c0.2,0.4,0.7,0.4,1.1,0.4v0.7c-0.4,0-0.9,0-1.3,0c-0.4,0-0.9,0-1.3,0c-0.2-0.4-0.4-0.7-0.9-1.1
					l-4.6-5.9v-0.2c0.7,0,1.1,0,1.8,0c1.3-0.2,2.4-1.3,2.4-2.6c0-2.2-1.5-2.6-3.1-2.6c-0.7,0-1.3,0-2,0.2c-0.2,0.4-0.2,0.7-0.2,1.3
					v8.8c0,1.5,0,1.8,1.8,1.8v0.7c-0.9,0-1.8,0-2.9,0c-0.9,0-1.8,0-2.6,0v-0.7c1.8,0,1.8-0.2,1.8-1.8v-8.8H332.9z"/>
				<path fill="#FFFFFF" d="M361,363c0,0.7,0,1.1,0,1.8c0.7,0,1.8,0,2.6,0c1.1,0,2.2,0,3.1-0.4c0-0.2,0.2-0.7,0.2-0.9l0.2-1.1h0.7
					c0,0.4-0.2,0.9-0.2,1.5v1.5c-0.7,0-2,0-3.3,0c-1.1,0-2.4,0-3.5,0s-2.4,0-3.5,0v-0.7c0.9,0,1.8-0.4,1.8-1.8v-8.8
					c0-1.5,0-1.5-1.8-1.8v-0.2c1.1,0,2.4,0,3.5,0s2.4,0,3.5,0c1.3,0,2.6,0,3.3,0c-0.2,0.7-0.2,1.3-0.2,2c0,0.4,0,0.7,0,1.1h-0.7
					c0-0.7-0.2-1.3-0.2-2c-0.9-0.2-2-0.2-2.9-0.2c-0.9,0-1.8,0-2.4,0c0,0.4,0,0.9,0,1.5v3.5c4.2,0,4.4,0.2,4.4-1.5h0.7v4.4h-0.7
					c0-2.2-0.2-2-4.4-2v4H361z"/>
			</g>
		</g>
	</g>
	<rect x="410.5" y="274.1" fill="#FFFFFF" width="2.2" height="108.9"/>
</g>
</svg>
